<?xml version="1.0" encoding="UTF-8" standalone="no"?>
<svg
   xmlns:dc="http://purl.org/dc/elements/1.1/"
   xmlns:cc="http://creativecommons.org/ns#"
   xmlns:rdf="http://www.w3.org/1999/02/22-rdf-syntax-ns#"
   xmlns:svg="http://www.w3.org/2000/svg"
   xmlns="http://www.w3.org/2000/svg"
   xmlns:sodipodi="http://sodipodi.sourceforge.net/DTD/sodipodi-0.dtd"
   xmlns:inkscape="http://www.inkscape.org/namespaces/inkscape"
   width="3.3483572mm"
   height="3.9390125mm"
   viewBox="0 0 3.3483572 3.9390125"
   version="1.1"
   id="svg8"
   inkscape:version="1.0.1 (3bc2e813f5, 2020-09-07)"
   sodipodi:docname="arrow_se.svg">
  <defs
     id="defs2" />
  <sodipodi:namedview
     id="base"
     pagecolor="#ffffff"
     bordercolor="#666666"
     borderopacity="1.0"
     inkscape:pageopacity="0.0"
     inkscape:pageshadow="2"
     inkscape:zoom="11.2"
     inkscape:cx="13.757248"
     inkscape:cy="15.233319"
     inkscape:document-units="mm"
     inkscape:current-layer="layer1"
     inkscape:document-rotation="0"
     showgrid="false"
     inkscape:window-width="1920"
     inkscape:window-height="1017"
     inkscape:window-x="-8"
     inkscape:window-y="-8"
     inkscape:window-maximized="1" />
  <metadata
     id="metadata5">
    <rdf:RDF>
      <cc:Work
         rdf:about="">
        <dc:format>image/svg+xml</dc:format>
        <dc:type
           rdf:resource="http://purl.org/dc/dcmitype/StillImage" />
        <dc:title />
      </cc:Work>
    </rdf:RDF>
  </metadata>
  <g
     inkscape:label="Layer 1"
     inkscape:groupmode="layer"
     id="layer1"
     transform="translate(-2.1055923,-2.7761856)">
    <path
       style="fill:#000000;stroke:#ffffff;stroke-width:0.385;stroke-miterlimit:4;stroke-dasharray:none;stroke-opacity:1;paint-order:markers stroke fill"
       d="M 4.3724336,6.4376896 C 4.2793002,6.3976688 4.0411752,6.3622467 3.8432669,6.3589737 3.5737543,6.3545166 3.4834336,6.3193317 3.4834336,6.2187986 c 0,-0.1116702 0.092504,-0.1294538 0.5505109,-0.1058334 0.3027811,0.015615 0.5504311,0.023929 0.5503334,0.018475 C 4.5841763,6.1259872 4.4382371,6.0249973 4.2599598,5.9070191 3.8404551,5.6294039 2.8766001,4.6672361 2.7510381,4.4007387 2.4244835,3.7076471 2.2981002,3.36673 2.2981002,3.1789456 c 0,-0.382354 0.2083533,-0.2234914 0.4152012,0.3165772 0.1114698,0.2910417 0.2806556,0.6434667 0.3759683,0.7831667 0.2368277,0.3471186 1.0178952,1.097986 1.4549263,1.3986713 L 4.9038305,5.9247959 4.830652,5.6097427 C 4.7268801,5.1629775 4.736547,4.9983562 4.866552,4.9983562 c 0.1263289,0 0.3948812,0.8628371 0.3948812,1.2687218 0,0.2448164 -0.014747,0.2550344 -0.3598333,0.2493275 -0.1979084,-0.00327 -0.4360334,-0.038695 -0.5291663,-0.078716 z"
       id="path847" />
  </g>
</svg>
