<?xml version="1.0" encoding="UTF-8" standalone="no"?>
<svg
   xmlns:dc="http://purl.org/dc/elements/1.1/"
   xmlns:cc="http://creativecommons.org/ns#"
   xmlns:rdf="http://www.w3.org/1999/02/22-rdf-syntax-ns#"
   xmlns:svg="http://www.w3.org/2000/svg"
   xmlns="http://www.w3.org/2000/svg"
   xmlns:sodipodi="http://sodipodi.sourceforge.net/DTD/sodipodi-0.dtd"
   xmlns:inkscape="http://www.inkscape.org/namespaces/inkscape"
   width="10.243051mm"
   height="5.3181109mm"
   viewBox="0 0 10.243051 5.3181109"
   preserveAspectRatio="none"
   version="1.1"
   id="svg8"
   inkscape:version="1.0.1 (3bc2e813f5, 2020-09-07)"
   sodipodi:docname="blob.svg">
  <defs
     id="defs2" />
  <sodipodi:namedview
     id="base"
     pagecolor="#ffffff"
     bordercolor="#666666"
     borderopacity="1.0"
     inkscape:pageopacity="0.0"
     inkscape:pageshadow="2"
     inkscape:zoom="15.839192"
     inkscape:cx="18.333509"
     inkscape:cy="11.16417"
     inkscape:document-units="mm"
     inkscape:current-layer="layer1"
     inkscape:document-rotation="0"
     showgrid="false"
     inkscape:snap-global="false"
     inkscape:window-width="1220"
     inkscape:window-height="1001"
     inkscape:window-x="788"
     inkscape:window-y="0"
     inkscape:window-maximized="0" />
  <metadata
     id="metadata5">
    <rdf:RDF>
      <cc:Work
         rdf:about="">
        <dc:format>image/svg+xml</dc:format>
        <dc:type
           rdf:resource="http://purl.org/dc/dcmitype/StillImage" />
        <dc:title />
      </cc:Work>
    </rdf:RDF>
  </metadata>
  <g
     inkscape:label="Layer 1"
     inkscape:groupmode="layer"
     id="layer1"
     transform="translate(-1.5837082,-1.3247513)">
    <path
       style="display:inline;fill:#aff0fe;fill-opacity:1;stroke:none;stroke-width:0.0846667"
       d="M 3.2425372,6.4685968 C 3.1025922,6.354007 2.9803144,6.1961319 2.9708088,6.1177633 2.9569551,6.0035474 2.873255,5.98501 2.5489976,6.0243403 2.211228,6.0653097 2.1005273,6.0374264 1.8781984,5.8553797 1.6335864,5.6550874 1.6099097,5.5957818 1.5871235,5.1262963 1.5717395,4.8093253 1.6090041,4.5491316 1.6852471,4.4411657 1.7528572,4.3454248 1.8013657,4.2109558 1.7930438,4.142346 1.7847218,4.0737358 1.8781955,3.895128 2.0007631,3.7454393 2.1233307,3.5957505 2.2162699,3.4127356 2.2072946,3.3387396 2.1983193,3.2647429 2.2870236,3.0596735 2.4044152,2.8830287 2.5629668,2.6444485 2.6080813,2.4739326 2.5798498,2.2199519 2.5281643,1.7549667 2.8206653,1.3858792 3.2855374,1.3294932 3.6538144,1.2848232 4.124127,1.5633154 4.158462,1.8463887 4.177009,1.9992985 4.188865,1.9993646 4.3688216,1.8475587 4.6696846,1.5937625 5.1410491,1.5764611 5.449755,1.8078837 5.658412,1.9643039 5.7219907,2.0801901 5.7568571,2.3676446 5.7810401,2.5670211 5.8242001,2.7273123 5.8527691,2.7238471 5.8813374,2.7203836 6.0201812,2.588405 6.1613111,2.430563 6.302442,2.2727208 6.4667369,2.1376551 6.5264126,2.1304168 6.5860852,2.1231789 6.7122751,2.0119247 6.8068285,1.8831861 7.0576091,1.5417395 7.5833601,1.4901463 7.9288939,1.7730747 8.0688389,1.8876638 8.1927742,2.0592054 8.2043059,2.1542781 8.221036,2.2922086 8.265758,2.3141879 8.4256139,2.2630536 8.5358026,2.2278072 8.6821228,2.1194337 8.75077,2.0222231 8.9311102,1.7668484 9.6816034,1.6820296 9.9212839,1.8899377 c 0.1585541,0.1375359 0.1883531,0.137538 0.3513681,2.45e-5 0.09797,-0.082641 0.357041,-0.1719582 0.575721,-0.1984827 0.546001,-0.066226 0.905257,0.1928842 0.966404,0.6970113 0.04053,0.3341293 0.01106,0.3873831 -0.623065,1.1257075 -0.366085,0.4262427 -0.698459,0.7789713 -0.73861,0.7838414 -0.04016,0.00487 -0.320374,0.3267038 -0.6227156,0.7151861 L 9.2806749,5.7195564 8.8035588,5.7774276 C 8.3682374,5.8302293 8.302523,5.8135507 8.0533923,5.5870599 L 7.7803428,5.338821 7.4122838,5.7074656 C 7.083624,6.0366501 6.9927342,6.0823558 6.5631944,6.1344563 6.1458754,6.1850744 6.0484623,6.1652095 5.8277177,5.9844585 5.6877729,5.8698697 5.5646368,5.7049185 5.5540821,5.6179003 5.5372414,5.4790579 5.5093815,5.4908413 5.3265473,5.7141282 5.2119581,5.8540732 5.0826365,5.9744468 5.0391661,5.9816264 4.9956962,5.9888129 4.8427543,6.1224935 4.6992967,6.278712 4.4776503,6.5200729 4.3677435,6.5713227 3.9677235,6.6198427 3.561679,6.6690933 3.4620122,6.648303 3.2425372,6.4685968 Z"
       id="path847" />
    <path
       style="display:none;fill:#00df38;fill-opacity:0.385542;stroke:none;stroke-width:0.0846667"
       d="M 3.2425372,6.4685968 C 3.1025922,6.354007 2.9803144,6.1961319 2.9708088,6.1177633 2.9569551,6.0035474 2.873255,5.98501 2.5489976,6.0243403 2.211228,6.0653097 2.1005273,6.0374264 1.8781984,5.8553797 1.6335864,5.6550874 1.6099097,5.5957818 1.5871235,5.1262963 1.5717395,4.8093253 1.6090041,4.5491316 1.6852471,4.4411657 1.7528572,4.3454248 1.8013657,4.2109558 1.7930438,4.142346 1.7847218,4.0737358 1.8781955,3.895128 2.0007631,3.7454393 2.1233307,3.5957505 2.2162699,3.4127356 2.2072946,3.3387396 2.1983193,3.2647429 2.2870236,3.0596735 2.4044152,2.8830287 2.5629668,2.6444485 2.6080813,2.4739326 2.5798498,2.2199519 2.5281643,1.7549667 2.8206653,1.3858792 3.2855374,1.3294932 3.6538144,1.2848232 4.124127,1.5633154 4.158462,1.8463887 4.177009,1.9992985 4.188865,1.9993646 4.3688216,1.8475587 4.6696846,1.5937625 5.1410491,1.5764611 5.449755,1.8078837 5.658412,1.9643039 5.7219907,2.0801901 5.7568571,2.3676446 5.7810401,2.5670211 5.8242001,2.7273123 5.8527691,2.7238471 5.8813374,2.7203836 6.0201812,2.588405 6.1613111,2.430563 6.302442,2.2727208 6.4667369,2.1376551 6.5264126,2.1304168 6.5860852,2.1231789 6.7122751,2.0119247 6.8068285,1.8831861 7.0576091,1.5417395 7.5833601,1.4901463 7.9288939,1.7730747 8.0688389,1.8876638 8.1927742,2.0592054 8.2043059,2.1542781 8.221036,2.2922086 8.265758,2.3141879 8.4256139,2.2630536 8.5358026,2.2278072 8.6821228,2.1194337 8.75077,2.0222231 8.9311102,1.7668484 9.6816034,1.6820296 9.9212839,1.8899377 c 0.1585541,0.1375359 0.1883531,0.137538 0.3513681,2.45e-5 0.09797,-0.082641 0.357041,-0.1719582 0.575721,-0.1984827 0.546001,-0.066226 0.905257,0.1928842 0.966404,0.6970113 0.04053,0.3341293 0.01106,0.3873831 -0.623065,1.1257075 -0.366085,0.4262427 -0.698459,0.7789713 -0.73861,0.7838414 -0.04016,0.00487 -0.320374,0.3267038 -0.6227156,0.7151861 L 9.2806749,5.7195564 8.8035588,5.7774276 C 8.3682374,5.8302293 8.302523,5.8135507 8.0533923,5.5870599 L 7.7803428,5.338821 7.4122838,5.7074656 C 7.083624,6.0366501 6.9927342,6.0823558 6.5631944,6.1344563 6.1458754,6.1850744 6.0484623,6.1652095 5.8277177,5.9844585 5.6877729,5.8698697 5.5646368,5.7049185 5.5540821,5.6179003 5.5372414,5.4790579 5.5093815,5.4908413 5.3265473,5.7141282 5.2119581,5.8540732 5.0826365,5.9744468 5.0391661,5.9816264 4.9956962,5.9888129 4.8427543,6.1224935 4.6992967,6.278712 4.4776503,6.5200729 4.3677435,6.5713227 3.9677235,6.6198427 3.561679,6.6690933 3.4620122,6.648303 3.2425372,6.4685968 Z"
       id="path2560" />
  </g>
</svg>
