<?xml version="1.0" encoding="UTF-8" standalone="no"?>
<svg
   xmlns:dc="http://purl.org/dc/elements/1.1/"
   xmlns:cc="http://creativecommons.org/ns#"
   xmlns:rdf="http://www.w3.org/1999/02/22-rdf-syntax-ns#"
   xmlns:svg="http://www.w3.org/2000/svg"
   xmlns="http://www.w3.org/2000/svg"
   xmlns:sodipodi="http://sodipodi.sourceforge.net/DTD/sodipodi-0.dtd"
   xmlns:inkscape="http://www.inkscape.org/namespaces/inkscape"
   width="18.965347mm"
   height="29.859646mm"
   viewBox="0 0 18.965347 29.859647"
   version="1.1"
   id="svg880"
   inkscape:version="1.0.1 (3bc2e813f5, 2020-09-07)"
   sodipodi:docname="doodle_player.svg">
  <defs
     id="defs874" />
  <sodipodi:namedview
     id="base"
     pagecolor="#ffffff"
     bordercolor="#666666"
     borderopacity="1.0"
     inkscape:pageopacity="0.0"
     inkscape:pageshadow="2"
     inkscape:zoom="11.2"
     inkscape:cx="35.519312"
     inkscape:cy="44.057552"
     inkscape:document-units="mm"
     inkscape:current-layer="layer1"
     inkscape:document-rotation="0"
     showgrid="false"
     inkscape:window-width="1920"
     inkscape:window-height="1017"
     inkscape:window-x="-8"
     inkscape:window-y="-8"
     inkscape:window-maximized="1"
     inkscape:snap-global="false" />
  <metadata
     id="metadata877">
    <rdf:RDF>
      <cc:Work
         rdf:about="">
        <dc:format>image/svg+xml</dc:format>
        <dc:type
           rdf:resource="http://purl.org/dc/dcmitype/StillImage" />
        <dc:title />
      </cc:Work>
    </rdf:RDF>
  </metadata>
  <g
     inkscape:label="Layer 1"
     inkscape:groupmode="layer"
     id="layer1"
     transform="translate(-2.693473,-2.162513)">
    <g
       id="g1494"
       inkscape:label="player zap"
       style="display:inline">
      <path
         style="display:inline;opacity:0.998235;fill:#ffffff;fill-opacity:1;stroke:none;stroke-width:0.507199;stroke-linecap:round;stroke-linejoin:round"
         d="M 44.438488,75.307117 C 44.052445,75.116463 43.550213,74.935867 43.322416,74.905794 43.09462,74.87572 37.885919,73.863613 31.747526,72.656666 25.609133,71.44972 20.45634,70.443597 20.296875,70.420838 c -0.474779,-0.06776 -0.733538,0.04973 -1.307745,0.593813 -0.5678,0.538007 -1.755949,1.462205 -1.810141,1.408012 -0.01716,-0.01716 0.0853,-0.313708 0.22769,-0.659001 0.327591,-0.794416 0.546204,-1.749154 0.546204,-2.385406 0,-0.630971 -0.266368,-0.951328 -1.026785,-1.2349 -0.475308,-0.177249 -0.6968,-0.199208 -1.964286,-0.194748 -1.748384,0.0062 -2.423375,0.165401 -4.533074,1.069471 -0.7744405,0.331871 -1.43333,0.578145 -1.4641987,0.547277 -0.030869,-0.03087 0.113685,-0.267772 0.3212309,-0.52645 0.5343001,-0.665936 1.2749228,-1.801138 1.6075118,-2.463942 0.772763,-1.540011 1.16699,-3.477384 0.900949,-4.427589 C 11.586367,61.404956 10.310594,60.42176 7.9619499,59.193964 7.30399,58.850003 6.7760313,58.528402 6.7887082,58.479295 6.801385,58.430188 7.1708381,58.29969 7.609715,58.189298 c 1.7878017,-0.449685 3.380528,-1.208382 3.825093,-1.822085 1.018987,-1.406671 0.211862,-3.017047 -2.1431166,-4.27595 l -0.9109503,-0.486968 1.2997128,-0.04464 c 0.8975241,-0.03083 1.3355531,-0.08063 1.4155351,-0.160945 0.0739,-0.07421 0.115823,-0.354383 0.115823,-0.774077 0,-0.823673 -0.141123,-1.001865 -1.175555,-1.484346 L 9.3071317,48.800204 9.4782218,48.464621 C 9.6712838,48.085941 9.7043535,47.341826 9.5524356,46.7947 9.4990342,46.602377 9.3059525,46.30177 9.1166265,46.116192 8.5411597,45.55212 8.5457127,44.55366 9.1256983,44.126777 c 0.3127459,-0.230188 0.5236135,-0.589024 0.5236135,-0.891038 0,-0.338519 0.2338592,-0.574898 0.6798792,-0.687207 0.388996,-0.09795 0.927264,-0.523116 0.927264,-0.732425 0,-0.04499 0.120751,-0.348116 0.268335,-0.673606 0.260021,-0.573464 0.273652,-0.586991 0.439901,-0.436538 0.391961,0.35472 1.388628,0.362486 1.903672,0.01483 0.359076,-0.242375 0.54738,-0.785559 0.784304,-2.262416 0.100433,-0.626043 0.215613,-1.171268 0.255955,-1.211611 0.04034,-0.04034 0.221514,0.0272 0.402603,0.150087 0.703064,0.477112 1.977294,0.520521 2.708073,0.09226 0.82056,-0.48088 1.183585,-1.479855 1.183585,-3.256997 0,-1.467503 -0.179482,-2.167971 -0.973885,-3.800788 -1.082014,-2.223974 -2.139374,-3.757378 -3.694136,-5.357303 l -0.966481,-0.994558 1.946716,-0.03611 c 1.727198,-0.03204 1.992021,-0.0568 2.348501,-0.219583 0.407466,-0.186069 1.071404,-0.813478 1.647543,-1.556898 1.156418,-1.492182 1.49775,-4.883104 1.06845,-10.614407 l -0.05658,-0.755395 0.777219,0.735702 c 1.20142,1.137245 1.186983,1.13223 3.259798,1.13223 2.074437,0 2.065635,0.0029 3.181623,-1.053461 1.327215,-1.25632 2.031437,-2.328602 2.805756,-4.2721816 0.20022,-0.502562 0.417883,-1.0165175 0.483694,-1.1421234 l 0.119657,-0.2283743 0.04863,0.3123561 c 0.02674,0.1717959 0.108914,0.6940525 0.182598,1.1605704 0.441878,2.7976628 1.737925,5.2197398 3.133403,5.8557588 1.275058,0.581135 3.488225,0.487909 5.528251,-0.23287 2.694347,-0.951962 5.45592,-2.414127 8.831383,-4.6759366 0.777263,-0.5208237 1.447735,-0.9469522 1.489937,-0.9469522 0.0422,0 -0.03746,0.2518489 -0.177034,0.5596643 -0.387446,0.854493 -0.841861,2.2216365 -1.149446,3.4581925 -0.459688,1.848047 -0.557809,2.923349 -0.341798,3.745793 0.191875,0.730555 0.977264,0.983693 3.05085,0.98332 1.603474,-2.68e-4 2.685303,-0.143417 4.694779,-0.621131 1.58188,-0.376059 1.823381,-0.413653 1.734608,-0.270017 -0.0299,0.04838 -0.78562,0.695992 -1.679376,1.439133 -2.253268,1.873553 -3.831277,3.3232 -5.043913,4.633617 -2.363655,2.55425 -3.855191,4.749591 -4.378274,6.444233 -0.258342,0.836958 -0.396818,2.52823 -0.356954,4.359666 0.0293,1.345919 0.05969,1.618419 0.219571,1.968494 0.405369,0.887596 1.169008,1.433027 2.250088,1.60713 0.841249,0.135478 1.569755,-0.02157 2.310324,-0.498064 0.330046,-0.212355 0.635384,-0.364284 0.678529,-0.337618 0.04415,0.02728 0.05056,0.7009 0.01466,1.540673 -0.05333,1.247746 -0.04004,1.573863 0.08116,1.990752 0.259805,0.8937 0.756712,1.140188 2.287298,1.134602 0.918935,-0.0034 1.613223,-0.147753 1.680476,-0.34951 0.05079,-0.152361 0.25608,-0.106017 0.614666,0.138761 0.294583,0.201088 0.411163,0.226775 0.893502,0.196872 0.662139,-0.04105 1.052536,-0.304516 1.542335,-1.040874 0.253849,-0.38163 0.322299,-0.438342 0.370703,-0.307124 0.03265,0.08851 0.128198,0.355185 0.212328,0.592601 0.193131,0.545028 0.535586,0.773238 1.159204,0.772485 0.595246,-7.14e-4 1.199568,-0.294676 1.902805,-0.925574 0.309934,-0.278055 0.601229,-0.482246 0.647321,-0.45376 0.04609,0.02849 0.0838,0.201196 0.0838,0.3838 0,0.642084 0.469565,0.997971 1.31253,0.994779 0.644748,-0.0024 1.087386,-0.198162 1.700863,-0.752068 l 0.46875,-0.423233 v 0.591499 c 0,1.275689 0.298394,1.503131 2.036367,1.552157 l 1.188153,0.03352 -0.489829,0.513536 c -0.580546,0.608641 -0.797646,1.208989 -0.799181,2.209983 -8.03e-4,0.522043 0.04338,0.728588 0.234756,1.097455 0.164568,0.317199 0.202757,0.464555 0.126488,0.488074 -0.06009,0.01853 -0.497196,0.0536 -0.971348,0.07792 -0.474151,0.02433 -0.946118,0.0892 -1.048815,0.14416 -0.509363,0.272603 -0.838335,1.542786 -0.849102,3.278439 -0.0043,0.695659 -0.02947,1.286483 -0.05591,1.312941 -0.02643,0.02646 -0.207238,-0.0086 -0.401786,-0.07788 -0.212293,-0.07561 -0.716529,-0.127553 -1.261103,-0.129906 -0.853806,-0.0037 -0.94062,0.01329 -1.470458,0.28757 -0.614046,0.317872 -1.120759,0.887803 -1.362347,1.532319 -0.07498,0.200031 -0.17909,0.479209 -0.231358,0.620397 l -0.09503,0.256704 -0.600642,-0.620998 c -0.70471,-0.728591 -1.08754,-0.879757 -2.053047,-0.810675 -0.907591,0.06494 -1.513,0.394622 -2.458499,1.338809 -0.432245,0.431647 -0.803897,0.784813 -0.825893,0.784813 -0.02199,0 -0.04058,-0.15067 -0.04131,-0.334822 -0.0028,-0.709787 -0.419805,-1.064755 -1.353273,-1.151923 -0.521127,-0.04866 -0.620514,-0.02822 -1.141538,0.234789 -1.307076,0.659811 -3.038708,1.864472 -3.776198,2.627026 l -0.42411,0.438524 -1.338009,-0.05791 c -1.622233,-0.07022 -2.149567,0.01762 -2.558006,0.426054 -0.353176,0.353176 -0.568264,1.048264 -0.568264,1.836422 0,0.791999 0.211784,1.376912 0.661267,1.826313 0.37816,0.37809 0.617787,0.502949 1.303019,0.678941 l 0.401785,0.103193 -0.714285,0.357297 c -0.392857,0.196514 -0.790273,0.423161 -0.883146,0.503662 -0.316161,0.274043 -0.496744,0.821563 -0.498822,1.512406 -0.0043,1.418797 0.487444,1.656663 3.660067,1.770568 1.609744,0.05779 1.959989,0.123601 1.316637,0.247382 -0.40693,0.0783 -1.725051,0.756435 -2.309445,1.188152 -1.048472,0.774552 -1.776363,1.7196 -1.776363,2.306318 0,0.86991 1.625027,2.042837 4.137214,2.986198 l 0.886325,0.332827 -0.525162,0.05417 c -0.288839,0.02979 -1.519582,0.103233 -2.734984,0.163199 l -2.209821,0.109029 v 2.260379 c 0,1.24321 -0.03013,2.257449 -0.06697,2.253865 -0.03683,-0.0036 -0.382817,-0.162507 -0.768859,-0.353162 z"
         id="path853"
         transform="matrix(0.26458333,0,0,0.26458333,1.931473,1.8312281)" />
      <path
         style="display:inline;fill:#aff0fe;stroke-width:0.0846667"
         d="m 14.201268,22.977269 c -0.213329,-0.198206 -0.586737,-0.526078 -0.829796,-0.728605 -0.428944,-0.357415 -0.441177,-0.379797 -0.416462,-0.762 0.02513,-0.388649 0.02959,-0.394111 0.342963,-0.420047 0.19924,-0.01649 0.3175,-0.06939 0.3175,-0.142022 0,-0.201201 0.427622,-0.466681 0.752251,-0.467017 l 0.306082,-3.38e-4 -0.275167,-0.167772 c -0.251925,-0.153602 -0.275166,-0.203858 -0.275166,-0.595008 0,-0.315708 0.0358,-0.440973 0.137146,-0.479863 0.147856,-0.05674 -0.715579,-0.361882 -1.03038,-0.364144 -0.263541,-0.0019 -0.376766,-0.168307 -0.376766,-0.553755 0,-0.261631 0.05229,-0.398432 0.208327,-0.545022 0.189663,-0.178178 0.197248,-0.211531 0.08467,-0.372264 -0.06801,-0.09708 -0.123661,-0.337561 -0.123661,-0.53438 0,-0.312617 0.03928,-0.38783 0.310747,-0.594995 0.27276,-0.208153 0.384022,-0.237142 0.910167,-0.237142 0.572249,0 0.604803,-0.01078 0.718191,-0.237714 0.160702,-0.321631 0.692411,-0.576193 1.314433,-0.629297 0.49403,-0.04218 0.810462,-0.197109 0.810462,-0.39682 0,-0.05202 0.117074,-0.236618 0.260164,-0.410212 0.245698,-0.298073 0.287416,-0.315624 0.750259,-0.315624 0.488376,0 0.489948,-8.46e-4 0.44814,-0.232833 -0.05724,-0.317658 -0.17298,-0.4445 -0.4056,-0.4445 -0.107966,0 -0.21985,-0.0381 -0.24863,-0.08467 -0.02878,-0.04657 -0.21928,-0.08467 -0.423333,-0.08467 -0.204054,0 -0.394554,0.0381 -0.423333,0.08467 -0.08521,0.137871 -0.717848,0.103256 -0.773716,-0.04233 -0.0268,-0.06985 -0.08439,-0.127 -0.127976,-0.127 -0.142466,0 -0.995578,-0.688929 -1.044677,-0.843627 -0.03362,-0.105922 -0.163045,-0.163848 -0.434444,-0.194439 -0.301289,-0.03396 -0.459532,-0.114827 -0.717374,-0.366602 -0.32563,-0.31797 -0.330813,-0.33283 -0.330813,-0.948447 0,-1.0406245 0.476985,-2.2285353 1.48749,-3.7045297 l 0.37405,-0.5463555 h -0.29849 c -0.389747,0 -0.848426,-0.1954542 -0.963569,-0.4105995 -0.05032,-0.094014 -0.09148,-0.3639397 -0.09148,-0.5998344 0,-0.2358947 -0.01701,-0.4288994 -0.0378,-0.4288994 -0.02079,0 -0.277964,0.142875 -0.5715,0.3175 C 12.995643,5.6745374 12.95367,5.6843635 12.03741,5.711782 11.014886,5.74238 10.761045,5.673224 10.294682,5.2369974 L 10.064223,5.0214313 9.7348431,5.3925955 C 9.4072148,5.7617864 9.4020044,5.7639344 8.7547532,5.7966191 8.2204993,5.8235977 8.0744618,5.8027083 7.9387577,5.6798977 7.7758841,5.5324991 7.7734594,5.5425513 7.7725564,6.3689392 7.7716779,7.1727845 7.6536973,7.7968825 7.4165036,8.2524013 7.3085208,8.4597767 6.7801594,8.7738948 6.5393272,8.7738948 c -0.1030472,0 -0.059616,0.089225 0.1638115,0.3365322 0.3872342,0.4286219 0.4139209,0.5489212 0.3792889,1.709766 -0.024158,0.80974 -0.05644,0.998984 -0.2069877,1.213369 -0.1069059,0.152238 -0.1976469,0.448172 -0.2264912,0.738656 -0.026469,0.266561 -0.072278,0.523736 -0.1017972,0.5715 -0.074307,0.120231 -0.6970409,0.10946 -0.7729538,-0.01337 -0.042357,-0.06854 -0.080051,-0.04846 -0.1192446,0.0635 -0.03152,0.09004 -0.1580467,0.182764 -0.2811702,0.206047 -0.2174944,0.04113 -0.2202649,0.04923 -0.097419,0.284845 0.069543,0.133381 0.126442,0.328962 0.126442,0.434625 0,0.122923 0.062967,0.20858 0.1748311,0.237833 0.2556315,0.06685 0.2031674,0.657869 -0.068998,0.777274 -0.3066467,0.134533 -0.2253416,0.285166 0.1693333,0.313721 0.3460465,0.02504 0.3608083,0.03767 0.3852811,0.329615 0.016463,0.196398 -0.020903,0.342048 -0.1058334,0.412534 -0.072205,0.05992 -0.1312811,0.156586 -0.1312811,0.214803 0,0.05822 -0.1677266,0.260455 -0.3727256,0.449417 -0.2390007,0.220303 -0.3336863,0.358547 -0.2639128,0.385322 0.1485382,0.057 0.4673051,1.103175 0.4673051,1.53367 0,0.192394 -0.047625,0.39761 -0.1058333,0.456035 -0.084853,0.08517 0.045223,0.101115 0.6561666,0.08043 l 0.762,-0.02579 0.025482,0.48986 0.025482,0.489861 0.3131846,-0.06653 c 0.1722514,-0.03659 0.6370344,-0.06653 1.0328511,-0.06653 h 0.7196666 v 0.338667 c 0,0.315034 -0.017724,0.340179 -0.254,0.360344 -1.1737881,0.10018 -1.7518997,0.361751 -2.3955038,1.083858 -0.3902844,0.437889 -0.4446742,0.470256 -0.7483514,0.445337 -0.3013452,-0.02473 -0.329603,-0.04894 -0.3541069,-0.303353 -0.025936,-0.269284 0.018827,-0.363784 0.7237361,-1.52789 0.1040089,-0.171763 0.1897339,-0.339919 0.1905,-0.37368 0.00522,-0.229903 -1.4906069,0.428088 -2.0931855,0.92076 -0.3050087,0.249379 -0.4130916,0.289533 -0.7196666,0.26737 -0.34766,-0.02513 -0.3616838,-0.03718 -0.386342,-0.331995 -0.023073,-0.275854 0.015792,-0.34056 0.3954973,-0.658467 0.2315964,-0.193903 0.6272995,-0.661687 0.8793402,-1.039519 0.4456862,-0.668126 0.4554278,-0.695351 0.3551507,-0.992534 -0.09155,-0.27132 -0.1587649,-0.323622 -0.5997532,-0.466685 -1.156298,-0.37512 -1.2563374,-0.434155 -1.2845955,-0.758056 -0.032545,-0.373039 0.070785,-0.433833 0.9437539,-0.555251 0.3625961,-0.05043 0.7425743,-0.138337 0.8443962,-0.195343 C 4.7599488,16.445203 4.7552296,16.438911 4.471472,16.396181 4.234849,16.360551 4.1692324,16.308911 4.1458267,16.13989 4.1297047,16.023473 4.0630297,15.897755 3.99766,15.860516 3.93229,15.823276 3.8788054,15.717985 3.8788054,15.626534 c 0,-0.09145 -0.0381,-0.241958 -0.084667,-0.33446 -0.046567,-0.0925 -0.1227667,-0.243867 -0.1693333,-0.336369 -0.1191822,-0.236747 -0.1054297,-0.826118 0.021167,-0.907108 0.061528,-0.03936 0.1058334,-0.244929 0.1058334,-0.49104 0,-0.371683 0.022726,-0.426567 0.1862603,-0.449834 0.1605696,-0.02284 0.1897646,-0.08707 0.2116666,-0.465666 l 0.025406,-0.439167 0.3386667,-0.02683 c 0.1862666,-0.01475 0.3748616,-0.06238 0.4190999,-0.105833 0.044238,-0.04345 0.2036327,-0.07901 0.3542096,-0.07901 0.2355999,0 0.277512,-0.03241 0.3005667,-0.232431 0.02111,-0.183151 0.08016,-0.241585 0.2785073,-0.275603 0.3083896,-0.05289 0.4649928,-0.331289 0.4667016,-0.82967 C 6.3343891,10.216697 6.1909247,9.9197357 5.8121966,9.5757218 5.3991335,9.2005201 4.8314183,8.7738948 4.7451962,8.7738948 c -0.04118,0 -0.1602731,-0.090904 -0.2646513,-0.20201 C 4.3373193,8.4194281 4.2973535,8.2896229 4.3176196,8.0427182 4.3419596,7.7461814 4.3688883,7.7131782 4.6053373,7.6900971 4.7488126,7.6760918 5.1467954,7.7398886 5.4897435,7.8318679 6.0308971,7.9770062 6.1426746,7.9839052 6.3357123,7.8840815 6.8755397,7.6049259 6.9691395,7.1921845 6.9691395,5.0908948 V 3.3975614 h 0.3336267 c 0.3334482,0 0.3337051,2.625e-4 0.4800195,0.4931372 0.1076253,0.3625456 0.2322769,0.569009 0.4707066,0.7796423 0.1783726,0.1575779 0.3843475,0.2880911 0.4577219,0.2900295 0.3025794,0.00799 0.6371425,-0.5585897 0.9228265,-1.562809 l 0.1445178,-0.508 h 0.3309575 0.330957 l 0.02212,0.4233334 c 0.03188,0.6100703 0.07827,0.759722 0.327168,1.0555205 0.331898,0.3944377 0.834593,0.6224364 1.265318,0.5738876 0.439694,-0.04956 1.680912,-0.774971 2.572003,-1.5031687 0.570418,-0.4661443 0.663359,-0.512929 0.973667,-0.490121 0.33221,0.024418 0.343903,0.035584 0.369959,0.353258 0.02076,0.2531739 -0.01987,0.3787764 -0.178035,0.5503334 -0.275598,0.2989277 -0.717964,0.9632403 -0.819822,1.231149 -0.183725,0.4832318 0.151188,0.6472834 1.097951,0.5378131 0.34925,-0.040382 0.8255,-0.081054 1.058333,-0.090381 l 0.423334,-0.016958 0.02527,0.3005827 c 0.02357,0.2803682 -0.0049,0.3196806 -0.423333,0.5845634 -0.246731,0.1561893 -0.575577,0.4019272 -0.730767,0.546084 -0.26474,0.2459166 -1.069758,1.389697 -1.37628,1.9554366 -0.207911,0.383737 -0.611707,1.5680706 -0.554228,1.6255496 0.05976,0.05976 1.29543,-0.493815 1.767587,-0.791875 0.230927,-0.145778 0.423239,-0.2004241 0.641446,-0.1822695 0.299665,0.024932 0.31262,0.039343 0.33715,0.3750156 0.02474,0.3385439 0.0088,0.3624199 -0.529167,0.7904569 -0.457669,0.364178 -0.554676,0.484982 -0.554676,0.690737 0,0.145685 -0.05384,0.270027 -0.129489,0.299056 -0.111866,0.04293 -0.109018,0.06466 0.02093,0.159676 0.104658,0.07653 0.182328,0.0835 0.255322,0.02292 0.0577,-0.04789 0.241374,-0.07113 0.408167,-0.05166 0.229786,0.02682 0.323098,-0.0017 0.385144,-0.117602 0.12533,-0.234179 0.653046,-0.209788 0.743362,0.03436 l 0.06931,0.187363 0.100274,-0.187363 c 0.137304,-0.256556 0.681308,-0.269685 0.747117,-0.01803 0.05603,0.214252 0.127762,0.213377 0.324446,-0.004 0.122698,-0.13558 0.240708,-0.167823 0.542289,-0.148166 0.322784,0.02104 0.389757,0.05529 0.411867,0.210649 0.01988,0.139657 0.09314,0.191989 0.296333,0.211666 l 0.26993,0.02614 -0.01302,0.508 c -0.02486,0.969725 -0.200826,2.52528 -0.299046,2.643628 -0.06342,0.07642 -0.23017,0.110912 -0.466054,0.09641 -0.297665,-0.0183 -0.392056,0.01276 -0.497888,0.163855 -0.07249,0.103501 -0.220394,0.186443 -0.332459,0.186443 -0.111027,0 -0.225415,0.0381 -0.254195,0.08467 -0.02878,0.04657 -0.201261,0.08467 -0.383293,0.08467 -0.274748,0 -0.351888,-0.03955 -0.454141,-0.232833 -0.136017,-0.257107 -0.134037,-0.259762 -0.33157,0.4445 -0.116464,0.415225 -0.125055,0.423333 -0.448533,0.423333 -0.310191,0 -0.331374,-0.01636 -0.356328,-0.275166 -0.03045,-0.315803 -0.0988,-0.329977 -0.566135,-0.117392 -0.415091,0.188821 -0.501517,0.294345 -0.612423,0.74775 -0.08468,0.346195 -0.08124,0.355846 0.13577,0.381 0.198544,0.02301 0.222653,0.06207 0.222653,0.360658 0,0.394868 -0.10291,0.444226 -0.973667,0.466995 -0.302683,0.0079 -0.621013,0.04219 -0.707399,0.07617 -0.130619,0.05138 -0.109234,0.07572 0.127,0.14455 0.182713,0.05324 0.758888,0.05479 1.614874,0.0043 1.52049,-0.08961 1.616053,-0.06243 1.573306,0.44752 l -0.02545,0.303581 -0.683708,0.144171 c -0.800006,0.168693 -1.491061,0.411133 -1.533326,0.537931 -0.02975,0.08924 0.479867,0.374696 0.67474,0.377952 0.158703,0.0026 1.58311,0.555562 1.679463,0.651916 0.04695,0.04695 0.07339,0.252459 0.05876,0.456694 l -0.0266,0.371336 -0.511305,0.02474 c -0.299439,0.01449 -0.720431,-0.03453 -1.016,-0.118307 -0.602299,-0.170716 -1.235297,-0.239631 -1.527479,-0.166299 -0.211045,0.05297 -0.209928,0.05577 0.219336,0.549301 0.425186,0.488847 0.431087,0.503278 0.405787,0.992312 l -0.02567,0.49625 -0.338667,0.02171 c -0.295483,0.01894 -0.388125,-0.02425 -0.726538,-0.338667 z m 0.472538,-5.990707 c -0.150712,-0.166536 -0.465254,-0.226192 -0.581211,-0.110234 -0.08216,0.08216 0.284012,0.27293 0.530833,0.276566 0.198283,0.0029 0.199605,-0.0014 0.05038,-0.166332 z m 4.871763,-3.816409 c 0.08605,-0.160789 0.0791,-0.167739 -0.08169,-0.08169 -0.09666,0.05173 -0.175742,0.130813 -0.175742,0.175742 0,0.145343 0.160738,0.08662 0.25743,-0.09405 z"
         id="path879"
         inkscape:label="zap blue" />
      <path
         style="display:inline;fill:#00d2fe;stroke-width:0.0846667"
         d="m 14.001169,22.494663 c -0.22675,-0.230212 -0.520592,-0.463434 -0.652984,-0.518272 -0.132392,-0.05484 -0.240712,-0.152234 -0.240712,-0.216434 0,-0.152493 0.284851,-0.148906 0.587097,0.0074 l 0.240021,0.12412 -0.01139,-0.610953 -0.01139,-0.610953 0.762,-0.04233 0.762,-0.04233 -0.423333,-0.159476 c -0.539885,-0.203383 -0.973667,-0.525228 -0.973667,-0.722415 0,-0.328842 0.64899,-0.839715 1.227667,-0.966397 0.09313,-0.02039 -0.13771,-0.04149 -0.512985,-0.04689 -0.820173,-0.01181 -0.993647,-0.106626 -0.954179,-0.521558 0.02214,-0.232773 0.08451,-0.320907 0.305055,-0.431068 l 0.277225,-0.138471 -0.212654,-0.05337 c -0.310052,-0.07782 -0.499553,-0.410523 -0.433715,-0.76147 0.07767,-0.414017 0.225777,-0.501969 0.769381,-0.456889 0.256046,0.02123 0.465538,0.01013 0.465538,-0.02468 0,-0.129264 1.039905,-0.839642 1.229132,-0.839642 0.316592,0 0.464173,0.09028 0.464622,0.284225 4.24e-4,0.17265 0.0096,0.170546 0.1905,-0.04342 0.393092,-0.465015 0.953835,-0.55374 1.235621,-0.195509 0.159274,0.202486 0.1718,0.205277 0.2213,0.04931 0.125791,-0.396329 0.384026,-0.602615 0.75437,-0.602615 0.196857,0 0.394251,0.03633 0.438652,0.08073 0.0512,0.0512 0.0699,-0.05546 0.05112,-0.29155 -0.01628,-0.204753 0.01511,-0.507782 0.06977,-0.673397 0.0925,-0.280279 0.123532,-0.301117 0.448411,-0.301117 0.271471,0 0.326456,-0.02258 0.247434,-0.1016 -0.173616,-0.173616 -0.12361,-0.717965 0.0837,-0.911101 l 0.185299,-0.172632 h -0.305374 c -0.456267,0 -0.573223,-0.07162 -0.573223,-0.351023 v -0.24824 l -0.185298,0.172631 c -0.29167,0.271732 -0.746035,0.207011 -0.746035,-0.106267 0,-0.164987 -0.01544,-0.161325 -0.244311,0.05795 -0.310481,0.297459 -0.697937,0.284368 -0.770501,-0.02603 l -0.04784,-0.204647 -0.147958,0.225813 c -0.154131,0.235232 -0.458927,0.300409 -0.625566,0.13377 -0.06628,-0.06628 -0.107967,-0.06628 -0.14893,0 -0.03129,0.05062 -0.223366,0.09204 -0.426842,0.09204 -0.534897,0 -0.663123,-0.161096 -0.618564,-0.777129 0.01961,-0.271079 0.01417,-0.49166 -0.01208,-0.490179 -0.02625,0.0015 -0.121693,0.05863 -0.212085,0.127 -0.275417,0.208316 -0.785542,0.158687 -1.025027,-0.09972 -0.182659,-0.197092 -0.207567,-0.301442 -0.207152,-0.867833 2.54e-4,-0.3540923 0.03864,-0.7812038 0.08529,-0.9491371 0.207736,-0.7478499 1.175681,-1.9000243 2.47633,-2.947649 0.313409,-0.2524403 0.560478,-0.4674545 0.54904,-0.4778093 -0.01144,-0.010355 -0.287496,0.051116 -0.613462,0.1366015 -0.65782,0.1725152 -1.440133,0.2089802 -1.772489,0.082619 -0.19192,-0.072968 -0.217178,-0.1303236 -0.217178,-0.4931705 0,-0.4161745 0.331488,-1.5353217 0.52782,-1.7819864 0.05895,-0.074062 -0.21394,0.088846 -0.606419,0.3620194 -0.699965,0.4871903 -1.54438,0.9229315 -2.294962,1.1842641 -0.436565,0.152001 -0.965394,0.1714496 -1.318152,0.048478 C 10.687992,5.2394732 10.292447,4.4414039 10.20738,3.5669082 10.18556,3.3426505 10.15844,3.3773498 9.9757142,3.8632415 9.8324172,4.2442905 9.6454268,4.5372827 9.3678199,4.8157415 8.974912,5.2098551 8.9562875,5.2179082 8.4377159,5.2179082 c -0.4795697,0 -0.5551173,-0.025151 -0.8060287,-0.2683444 L 7.354812,4.681206 7.4048591,5.6480504 C 7.4567657,6.6508202 7.3398258,7.4059722 7.0848339,7.7146472 6.7050082,8.1744371 6.6903489,8.1812282 6.0776721,8.1812282 H 5.482538 l 0.4154276,0.4264925 c 0.2284852,0.2345708 0.5724955,0.7328341 0.7644674,1.1072517 0.2903159,0.5662256 0.3490398,0.7631986 0.3490398,1.1707566 0,0.624657 -0.2113285,0.936166 -0.6350975,0.936166 -0.1562773,0 -0.3389788,-0.05484 -0.4060033,-0.121863 -0.1060392,-0.106039 -0.1284318,-0.0664 -0.1724535,0.305297 -0.027825,0.234939 -0.094673,0.480277 -0.1485519,0.545197 -0.1184056,0.14267 -0.4672274,0.155799 -0.5507059,0.02073 -0.035931,-0.05814 -0.097585,0.01855 -0.1531634,0.1905 -0.063969,0.197913 -0.1525257,0.296258 -0.2835244,0.314863 -0.1236263,0.01756 -0.1905,0.08536 -0.1905,0.193157 0,0.09136 -0.05715,0.188032 -0.127,0.214836 -0.1655981,0.06355 -0.1655981,0.50569 0,0.569236 0.1581779,0.0607 0.1771622,0.644648 0.021167,0.651078 -0.058208,0.0024 0.037042,0.06363 0.2116666,0.136056 0.2633781,0.109244 0.3175,0.173447 0.3175,0.376637 0,0.235245 -0.015925,0.245093 -0.4021666,0.248687 l -0.4021667,0.0037 0.3332946,0.175717 c 0.6319582,0.333177 0.824573,0.823927 0.4575788,1.165834 -0.1675251,0.156074 -0.7138191,0.373214 -1.12954,0.448969 -0.1294633,0.02359 -0.079626,0.07221 0.2116666,0.206482 0.20955,0.0966 0.542925,0.29494 0.7408333,0.440768 0.3255447,0.239876 0.3597545,0.29938 0.3590063,0.624444 -9.365e-4,0.406771 -0.2833745,1.072305 -0.6285615,1.481136 -0.1277819,0.151341 -0.211023,0.275166 -0.1849802,0.275166 0.026043,0 0.2600309,-0.09728 0.5199736,-0.216182 0.5818462,-0.266142 1.1858781,-0.346044 1.5950727,-0.210997 0.2617779,0.08639 0.3079891,0.139178 0.3079891,0.351798 0,0.137584 -0.055926,0.384002 -0.1242792,0.547595 l -0.1242791,0.297442 0.237632,-0.169209 c 0.1306977,-0.09307 0.2865385,-0.228138 0.3463129,-0.300161 0.1373003,-0.165438 0.4266134,-0.170976 0.4266134,-0.0082 0,0.06753 -0.1785465,0.267557 -0.3967699,0.4445 -0.2182233,0.176942 -0.5745995,0.483639 -0.791947,0.681547 -0.4002017,0.364409 -0.6739497,0.460825 -0.6739497,0.23737 0,-0.06736 0.1355895,-0.353813 0.3013101,-0.636571 0.1657206,-0.28276 0.3553075,-0.643342 0.4213044,-0.801295 0.1192124,-0.285316 0.1182716,-0.287787 -0.1443866,-0.37935 -0.3576345,-0.124672 -0.7589842,-0.0093 -1.7694419,0.508479 -0.4456178,0.228361 -0.8742428,0.415201 -0.9525,0.415201 -0.1977159,0 -0.1776012,-0.157779 0.048214,-0.378189 C 4.0575745,20.10527 4.8747341,18.716273 4.777089,18.461815 4.706678,18.278401 3.7448302,17.685883 3.187502,17.482671 2.915786,17.383598 2.693473,17.258082 2.693473,17.203744 c 0,-0.05827 0.2574888,-0.13589 0.6276671,-0.18922 0.663444,-0.09558 1.4043328,-0.396234 1.4043328,-0.569883 0,-0.204739 -0.3399719,-0.461235 -0.9255844,-0.698322 -0.4180444,-0.169246 -0.5966408,-0.285722 -0.5973723,-0.389591 -9.025e-4,-0.128236 0.087222,-0.148513 0.6551234,-0.150741 0.7331262,-0.0029 0.6961236,-0.134908 -0.063006,-0.224816 -0.5118549,-0.06062 -0.5632187,-0.235489 -0.1063275,-0.36199 0.5271038,-0.145943 0.5898456,-0.221559 0.3057369,-0.368478 -0.1364486,-0.07056 -0.3896467,-0.154848 -0.5626626,-0.187306 -0.4624649,-0.08676 -0.41563,-0.294169 0.066426,-0.294169 0.20955,0 0.381,-0.03219 0.381,-0.07154 0,-0.106391 -0.2555167,-0.297706 -0.6138333,-0.459599 -0.325837,-0.147217 -0.4339989,-0.401652 -0.1693334,-0.398331 0.081492,10e-4 0.3142524,0.07722 0.517246,0.169333 0.5366306,0.243503 0.634612,0.225061 0.5721748,-0.107692 -0.159386,-0.849433 -0.1615595,-0.910167 -0.032571,-0.910167 0.072538,0 0.1903058,0.166693 0.2756518,0.390168 0.1949135,0.510374 0.2943212,0.358033 0.2960356,-0.453668 9.855e-4,-0.466699 0.029479,-0.613833 0.1188739,-0.613833 0.069108,0 0.1414947,0.130884 0.1755967,0.3175 0.031911,0.174625 0.1158978,0.407298 0.1866382,0.517051 0.2193959,0.34039 0.3267142,0.09126 0.3067247,-0.71205 -0.01111,-0.446449 0.015022,-0.715168 0.069548,-0.715168 0.1046144,0 0.3292488,0.213083 0.3292488,0.312318 0,0.03873 0.1019537,0.180365 0.2265636,0.314751 L 6.3639344,11.59264 6.5607041,11.363881 C 6.839026,11.040308 6.8075732,10.756499 6.4037757,9.9478655 6.1461987,9.4320491 5.8815965,9.0679698 5.430109,8.6081491 5.0891258,8.2608722 4.8101396,7.9436869 4.8101396,7.9032929 c 0,-0.040444 0.3416543,-0.046717 0.7603868,-0.01396 0.6335634,0.049563 0.7959594,0.036176 0.9736666,-0.080262 0.1173039,-0.07686 0.2132798,-0.1796894 0.2132798,-0.2285088 0,-0.048819 0.051275,-0.140037 0.1139435,-0.2027059 C 6.9340852,7.3151872 7.0342528,7.0335183 7.0940109,6.7519252 7.1854634,6.3209811 7.1810287,6.0350787 7.065994,4.9457496 6.9908266,4.2339461 6.9053847,3.5277365 6.8761232,3.3763948 6.8305079,3.1404715 6.8468973,3.1012281 6.9910421,3.1012281 c 0.1320487,0 0.1803421,0.076421 0.2250753,0.3561671 0.07047,0.4406956 0.4888255,1.1881221 0.767071,1.3704355 0.3777463,0.247509 0.6812025,0.1762142 1.1326283,-0.2661026 0.4099348,-0.401663 0.6787627,-0.9802797 0.9440763,-2.032 0.123514,-0.4896202 0.337641,-0.4896202 0.339924,0 0.0065,1.3840292 0.455616,2.5025476 1.066526,2.6558761 0.381809,0.095828 1.614983,-0.3726111 2.53013,-0.961107 0.717072,-0.461122 1.767281,-1.2246263 1.806221,-1.3131277 0.01552,-0.035278 0.0822,-0.064141 0.148167,-0.064141 0.209957,0 0.131516,0.3891228 -0.168233,0.8345475 -0.277075,0.4117309 -0.727822,1.5873905 -0.727822,1.8983368 0,0.3786055 0.951282,0.3690387 2.109739,-0.021217 1.436315,-0.4838596 1.565916,-0.2613241 0.381064,0.6543173 -1.165034,0.9003257 -2.237735,2.0024365 -2.627677,2.6997183 -0.24734,0.4422846 -0.318624,0.6718528 -0.35156,1.1321776 -0.03831,0.535393 -0.0254,0.593314 0.177378,0.796095 0.120281,0.12028 0.25358,0.218692 0.296221,0.218692 0.08355,0 1.073806,-0.689168 1.508122,-1.049579 0.589986,-0.4895925 0.620926,-0.1032028 0.04371,0.545844 -0.616149,0.692823 -0.765133,1.346171 -0.33789,1.481773 0.250814,0.0796 0.42092,-0.132275 0.472322,-0.588312 0.05578,-0.494835 0.275906,-0.548484 0.275906,-0.06724 0,0.177367 0.05179,0.393317 0.115097,0.479888 0.107254,0.146679 0.129647,0.131919 0.32865,-0.216651 0.117456,-0.20573 0.237838,-0.478829 0.267518,-0.606888 0.02968,-0.128058 0.110385,-0.232833 0.179348,-0.232833 0.0988,0 0.125387,0.125685 0.125387,0.592667 0,0.325966 0.03617,0.592666 0.08038,0.592666 0.170544,0 0.608391,-0.567211 0.702584,-0.910166 0.05782,-0.210537 0.149306,-0.359834 0.220488,-0.359834 0.09923,0 0.112804,0.117105 0.07364,0.635 -0.03405,0.450207 -0.01967,0.635 0.04942,0.635 0.05359,0 0.31162,-0.2286 0.573394,-0.508 0.665543,-0.710356 0.894171,-0.662064 0.460127,0.09719 -0.115856,0.202661 -0.211106,0.434424 -0.211666,0.515029 -0.0018,0.256779 0.568924,0.294731 1.459479,0.09705 0.173573,-0.03853 0.232834,-0.01932 0.232834,0.07545 0,0.13481 -0.264088,0.336578 -0.77973,0.595728 -0.463944,0.233168 -0.488683,0.435642 -0.09594,0.785192 0.178935,0.159255 0.353911,0.289585 0.388836,0.289622 0.03493,3.6e-5 0.0635,0.07627 0.0635,0.169399 0,0.182893 -0.234863,0.228592 -0.492399,0.09581 -0.07843,-0.04044 -0.283538,-0.09895 -0.455794,-0.130029 -0.306915,-0.05537 -0.315204,-0.0498 -0.413435,0.27807 -0.09462,0.315812 -0.08287,0.365629 0.209422,0.888305 0.170315,0.304552 0.346836,0.576705 0.392268,0.604784 0.134462,0.0831 0.09414,0.295059 -0.05614,0.295059 -0.07631,0 -0.403614,-0.2167 -0.727347,-0.481556 -0.47315,-0.387099 -0.616161,-0.464231 -0.729092,-0.393229 -0.280296,0.176231 -0.438647,0.602422 -0.540604,1.455002 -0.134376,1.123659 -0.286635,1.14987 -0.334408,0.05757 -0.03046,-0.696396 -0.06103,-0.829199 -0.233074,-1.012327 -0.186787,-0.198826 -0.211805,-0.203648 -0.441169,-0.08504 -0.283231,0.146465 -0.586229,0.596706 -0.765105,1.136914 -0.07801,0.235576 -0.184416,0.392293 -0.278789,0.410586 -0.127808,0.02477 -0.143676,-0.0096 -0.09757,-0.211666 0.03028,-0.132689 0.07884,-0.460328 0.107905,-0.728086 0.04685,-0.431618 0.03559,-0.486834 -0.09926,-0.486834 -0.199217,0 -1.056747,0.663213 -1.056747,0.817287 0,0.20077 -0.24788,0.228674 -0.556233,0.06262 -0.331889,-0.178734 -0.567591,-0.101774 -0.612751,0.20007 -0.03281,0.219277 0.257951,0.431018 0.68653,0.49996 0.264686,0.04258 0.31734,0.08298 0.296333,0.227387 -0.01835,0.126114 -0.129567,0.205626 -0.394616,0.282112 -0.202989,0.05858 -0.425504,0.153337 -0.494479,0.210581 -0.10973,0.09107 -0.106552,0.117867 0.02542,0.214367 0.107836,0.07885 0.508219,0.110288 1.404645,0.110288 0.97189,0 1.253818,0.02473 1.253818,0.109991 0,0.130479 -0.378241,0.277787 -1.018041,0.396483 -0.507056,0.09407 -1.103012,0.365151 -1.313086,0.59728 -0.123416,0.136374 -0.115345,0.160807 0.10382,0.314275 0.290346,0.203313 1.181511,0.555704 1.782807,0.704972 0.24849,0.06169 0.4445,0.158341 0.4445,0.219189 0,0.08309 -0.315565,0.114361 -1.3335,0.13216 l -1.3335,0.02332 0.02436,0.374532 c 0.0134,0.205993 0.118171,0.609032 0.232833,0.895643 0.114663,0.286611 0.208478,0.565746 0.208478,0.620301 0,0.203454 -0.23025,0.08679 -0.630304,-0.319375 z"
         id="path872"
         inkscape:label="zap line" />
      <path
         style="display:inline;fill:#eee4db;stroke-width:0.0846667"
         d="m 17.921478,14.419308 c -0.02323,-0.08883 -0.114912,-0.180511 -0.20374,-0.20374 -0.105151,-0.0275 -0.161506,-0.116896 -0.161506,-0.256204 0,-0.170482 -0.04732,-0.219414 -0.232833,-0.24076 -0.192903,-0.0222 -0.237315,-0.07306 -0.258962,-0.296565 -0.01437,-0.148377 0.03423,-0.386502 0.108007,-0.529167 0.131365,-0.254031 0.147111,-0.259391 0.761966,-0.259391 0.345306,0 0.651376,-0.0381 0.680156,-0.08467 0.08219,-0.132989 0.869222,-0.104614 0.948293,0.03419 0.03724,0.06537 0.162957,0.132045 0.279373,0.148166 0.181913,0.02519 0.215267,0.07867 0.237278,0.380461 0.02388,0.327375 0.0019,0.367498 -0.324326,0.592666 -0.192465,0.132835 -0.536244,0.384394 -0.763953,0.559019 -0.480561,0.36853 -0.994572,0.443485 -1.069753,0.155995 z M 11.43604,12.327066 c -0.03326,-0.03326 -0.06047,-0.197224 -0.06047,-0.364362 0,-0.256849 0.03968,-0.321453 0.256374,-0.417369 0.400025,-0.177069 0.519333,-0.08224 0.489134,0.388782 -0.0253,0.394544 -0.03214,0.403561 -0.325201,0.428226 -0.164648,0.01386 -0.326573,-0.002 -0.359833,-0.03528 z m 0.278193,-1.177909 c 0,-0.117878 -0.05715,-0.236255 -0.127,-0.263059 -0.162362,-0.0623 -0.166987,-0.523062 -0.007,-0.701284 0.06598,-0.07352 0.209259,-0.3051167 0.318403,-0.5146667 0.131236,-0.2519668 0.262653,-0.3901628 0.388038,-0.4080553 0.104276,-0.014881 0.189594,-0.078906 0.189594,-0.1422781 0,-0.063372 0.08573,-0.1273975 0.1905,-0.142278 0.138204,-0.019628 0.20103,-0.096785 0.228856,-0.2810553 0.0315,-0.2086117 0.04663,-0.1783528 0.08467,0.1693334 0.03912,0.3576163 0.07588,0.4275333 0.236811,0.4503886 0.104775,0.01488 0.1905,0.077479 0.1905,0.1391083 0,0.061629 0.05715,0.1339834 0.127,0.1607874 0.07896,0.030302 0.127,0.1593268 0.127,0.3411275 0,0.2384652 -0.06527,0.3482652 -0.353907,0.5953242 -0.194649,0.166612 -0.416083,0.302931 -0.492077,0.302931 -0.07599,0 -0.222677,0.1143 -0.325962,0.254 -0.145904,0.197345 -0.253322,0.254 -0.481589,0.254 -0.257912,0 -0.293798,-0.02618 -0.293798,-0.214324 z"
         id="path1508"
         inkscape:label="skin" />
      <path
         style="display:inline;fill:#a2a2a2;stroke-width:0.0846667"
         d="m 5.4559762,15.055008 c -0.063378,-0.07637 -0.089631,-0.397762 -0.073867,-0.904275 l 0.024457,-0.785801 0.2454887,-0.06546 c 0.1350187,-0.036 0.3584419,-0.202486 0.4964959,-0.36997 0.2308528,-0.280064 0.2825233,-0.302475 0.6435113,-0.279104 0.3634658,0.02353 0.3945816,0.04363 0.4205848,0.271616 0.047984,0.420711 -0.062363,0.772855 -0.3363663,1.073429 -0.144915,0.158968 -0.3567021,0.489057 -0.4706381,0.733532 -0.1966815,0.422025 -0.2234426,0.4445 -0.5292492,0.4445 -0.1771512,0 -0.3663387,-0.05331 -0.4204168,-0.118472 z m 0.7036186,-2.710709 c -0.025295,-0.06592 -0.033624,-0.227841 -0.018509,-0.359833 0.026051,-0.227506 0.051696,-0.24129 0.4931473,-0.265065 C 7.322755,11.682318 7.3919995,11.558885 7.3943499,10.364443 7.3964395,9.3023884 7.4776748,9.0425499 7.902107,8.7403275 8.0790218,8.614353 8.2535248,8.5671788 8.4748845,8.5854858 c 0.293665,0.024287 0.3204701,0.048535 0.3457177,0.3127393 0.022614,0.2366455 -0.028876,0.3440526 -0.2963333,0.6181496 L 8.2005659,9.848113 v 0.996488 c 0,0.960872 -0.00848,1.007621 -0.2371421,1.308017 L 7.7262816,12.464147 H 6.9659332 c -0.5775947,0 -0.7714024,-0.02881 -0.8063384,-0.119848 z M 9.992677,8.2590362 C 9.9017619,8.168121 9.92783,7.5587034 10.031244,7.3574146 10.150043,7.1261807 10.536779,6.706814 10.631221,6.706814 c 0.03885,0 0.218395,-0.097778 0.398982,-0.217285 0.241162,-0.1595935 0.4149,-0.2101733 0.654351,-0.1905 0.308013,0.025306 0.327432,0.043792 0.351726,0.3348327 0.02438,0.2920141 -0.0021,0.3273965 -0.508,0.6797936 -0.293543,0.2044603 -0.625822,0.5135138 -0.738399,0.6867857 -0.165133,0.2541624 -0.25648,0.3150396 -0.472723,0.3150396 -0.14742,0 -0.293437,-0.0254 -0.324481,-0.056444 z M 8.9684877,8.0710624 C 8.9398091,8.0246594 8.8930109,7.631467 8.8644916,7.1973015 8.8054334,6.2982233 8.8712811,6.1673694 9.3592018,6.2142038 l 0.2806974,0.026944 V 7.1724807 8.103814 L 9.3302649,8.1296227 C 9.159966,8.1438174 8.9971663,8.1174653 8.9684877,8.0710624 Z M 13.527571,7.2694508 c -0.02638,-0.06875 -0.0356,-0.2329928 -0.02049,-0.3649847 0.02507,-0.2189585 0.05715,-0.2399854 0.366146,-0.2399854 h 0.338667 v 0.3386666 c 0,0.3303637 -0.0078,0.3393119 -0.318181,0.3649848 -0.2208,0.018263 -0.33286,-0.011938 -0.366147,-0.098681 z"
         id="path1504"
         inkscape:label="grey hair" />
      <path
         style="display:inline;fill:#3f6082;stroke-width:0.0846667"
         d="m 12.617344,30.357035 c -0.03104,-0.03104 -0.05645,-0.222771 -0.05645,-0.426061 0,-0.272421 0.03896,-0.385598 0.148167,-0.430389 0.33172,-0.136057 0.861614,-0.578645 0.86462,-0.722164 0.0025,-0.120925 -0.04796,-0.09737 -0.238546,0.1113 -0.211551,0.231619 -0.288247,0.261364 -0.613833,0.238059 l -0.372075,-0.02663 -0.02692,-0.37793 c -0.01801,-0.252773 0.01253,-0.406984 0.09222,-0.465667 0.14206,-0.104614 0.239212,-0.538353 0.135009,-0.602754 -0.09883,-0.06108 -0.09105,-0.723146 0.01037,-0.881983 0.06564,-0.102793 0.02101,-0.135068 -0.23413,-0.169333 -0.266506,-0.03579 -0.319291,-0.0776 -0.341563,-0.270523 -0.0282,-0.244303 -0.172652,-0.246646 -0.452186,-0.0073 -0.08333,0.07134 -0.271537,0.108917 -0.465666,0.09296 -0.302271,-0.02484 -0.327787,-0.04753 -0.353243,-0.314093 -0.02384,-0.249648 0.03129,-0.346786 0.420441,-0.740834 0.261408,-0.264695 0.394445,-0.453512 0.319538,-0.453512 -0.07059,0 -0.169217,0.04088 -0.219175,0.09083 -0.04996,0.04996 -0.219504,0.07853 -0.376767,0.0635 -0.27453,-0.02625 -0.287621,-0.0436 -0.328266,-0.435216 l -0.04233,-0.407879 -0.280944,0.29087 c -0.2363113,0.244662 -0.2766633,0.343087 -0.2539999,0.619547 0.024784,0.302325 0.049004,0.330802 0.3021109,0.355206 0.26728,0.02577 0.275166,0.03784 0.275166,0.421055 0,0.369784 -0.03318,0.42846 -0.5291665,0.935668 -0.2910416,0.297628 -0.4418286,0.496474 -0.3350822,0.44188 0.1067465,-0.05459 0.3353465,-0.08753 0.5079997,-0.0732 0.286966,0.02383 0.316221,0.05006 0.340766,0.305512 0.02409,0.250732 -0.03419,0.335961 -0.5672125,0.829458 -0.5741344,0.53156 -0.5949168,0.564789 -0.6195169,0.990552 l -0.025454,0.440542 -0.3386666,0.02413 c -0.1862667,0.01327 -0.3958167,0.04694 -0.4656667,0.07482 -0.06985,0.02788 -0.2718167,0.04254 -0.4488149,0.03259 -0.1769982,-0.01 -0.3770232,0.02771 -0.4445,0.08371 -0.1017091,0.08441 -0.1226851,0.06471 -0.1226851,-0.115218 0,-0.294907 -0.1084512,-0.342136 -0.7336047,-0.319472 -0.5134519,0.01861 -0.5363952,0.01086 -0.5363952,-0.181377 0,-0.110452 0.1157417,-0.358206 0.2572038,-0.550565 L 6.7253,28.477381 6.4469296,28.450611 C 6.1857132,28.425491 6.1669716,28.402011 6.1427993,28.069638 6.1114803,27.639 6.3250072,27.189297 6.7585379,26.772841 7.0596665,26.483574 7.0623669,26.475419 6.8717904,26.430826 6.7345297,26.398706 6.668311,26.313966 6.6487814,26.145429 6.6028254,25.748837 6.7065234,25.508811 7.1103213,25.077118 L 7.4948524,24.666023 7.0857058,24.639933 6.676559,24.613843 6.651607,24.232574 C 6.627289,23.860993 6.638041,23.842806 7.0748439,23.516702 7.5035247,23.196662 7.513824,23.179945 7.3114627,23.132626 7.1378826,23.092036 7.0950545,23.024741 7.0729497,22.757842 c -0.014819,-0.178923 0.013756,-0.366013 0.0635,-0.415757 0.049743,-0.04974 0.090443,-0.246798 0.090443,-0.4379 0,-0.444646 0.3826819,-0.843205 0.889,-0.925883 0.9189664,-0.150062 1.0560203,-0.152003 1.1083253,-0.0157 0.046202,0.1204 0.075567,0.120774 0.3016891,0.0038 0.1428242,-0.07386 0.4031351,-0.11845 0.6055789,-0.103739 0.332429,0.02416 0.356766,0.04335 0.381605,0.300969 0.0328,0.340237 0.116664,0.343625 0.523802,0.02117 0.505456,-0.400328 1.267096,-0.312936 1.273045,0.146071 l 0.003,0.234929 0.195342,-0.238736 c 0.162654,-0.198785 0.249259,-0.234206 0.517547,-0.211667 0.380267,0.03195 0.441191,0.123059 0.510067,0.762806 0.04785,0.444428 0.06947,0.48377 0.279242,0.508 0.216745,0.02503 0.228563,0.05122 0.2527,0.55988 0.02001,0.421601 -0.01132,0.592901 -0.149223,0.816036 -0.149482,0.241869 -0.156157,0.289476 -0.04649,0.33156 0.07651,0.02936 0.130218,0.160976 0.133424,0.326964 0.005,0.256519 0.01138,0.26282 0.08385,0.08216 0.06567,-0.163716 0.130449,-0.191362 0.3968,-0.169333 l 0.318317,0.02632 0.04233,0.550333 c 0.03897,0.506577 0.05119,0.534806 0.153704,0.355052 0.09011,-0.157997 0.170932,-0.190326 0.423333,-0.169333 l 0.311963,0.02595 0.0249,0.470332 c 0.01941,0.366617 -0.0086,0.500591 -0.127,0.607548 -0.121305,0.109578 -0.14617,0.239828 -0.123456,0.646679 0.02809,0.503073 0.0318,0.50979 0.296333,0.535452 0.255932,0.02483 0.269054,0.04423 0.293964,0.434733 0.01434,0.22481 -0.01674,0.460334 -0.06907,0.523387 -0.07629,0.09193 -0.03952,0.119981 0.185593,0.141588 0.259625,0.02492 0.282767,0.05172 0.307725,0.356364 0.02294,0.280026 -0.01357,0.366458 -0.243497,0.576466 -0.148766,0.135878 -0.322835,0.226961 -0.38682,0.202407 -0.06399,-0.02455 -0.116338,-0.0077 -0.116338,0.03737 0,0.04511 -0.134293,0.08201 -0.298428,0.08201 -0.24042,0 -0.314072,0.04114 -0.378905,0.211666 -0.04426,0.116417 -0.100985,0.211667 -0.126053,0.211667 -0.09305,0 -0.42656,-0.215231 -0.491987,-0.3175 -0.03724,-0.05821 -0.190697,-0.105833 -0.341017,-0.105833 -0.272331,0 -0.452601,0.139886 -0.646025,0.501302 -0.07297,0.136348 -0.176246,0.176031 -0.458119,0.176031 -0.200151,0 -0.38931,-0.0254 -0.420354,-0.05645 z"
         id="path1502"
         inkscape:label="jeans" />
      <path
         style="display:inline;fill:#3d3d3d;stroke-width:0.0846667"
         d="m 15.385517,31.55648 c -0.0366,-0.09539 -0.189803,-0.127 -0.61541,-0.127 -0.31167,0 -0.60287,-0.03555 -0.647108,-0.07901 -0.04424,-0.04346 -0.232833,-0.09108 -0.4191,-0.105834 -0.315178,-0.02496 -0.340536,-0.0463 -0.365615,-0.307586 -0.01893,-0.197212 0.03486,-0.361791 0.18074,-0.553055 0.114228,-0.14976 0.221917,-0.347267 0.239308,-0.438905 0.03868,-0.203834 0.564653,-0.285673 0.705521,-0.109776 0.08968,0.111982 0.424153,0.324164 0.510993,0.324164 0.02507,0 0.08267,-0.09755 0.128,-0.216786 0.07121,-0.187309 0.125614,-0.213212 0.400071,-0.1905 0.255186,0.02112 0.322969,0.06375 0.344704,0.216786 0.04024,0.283334 0.184611,0.230514 0.184611,-0.06754 0,-0.285252 0.343478,-0.67329 0.595972,-0.67329 0.08135,0 0.169842,-0.05715 0.196646,-0.127 0.03622,-0.09439 0.186401,-0.127 0.584792,-0.127 0.294832,0 0.572252,0.03555 0.61649,0.07901 0.04424,0.04345 0.232834,0.09108 0.4191,0.105833 0.318232,0.02521 0.340346,0.04448 0.366498,0.319422 0.03073,0.323105 -0.136741,0.511737 -0.454338,0.511737 -0.226411,0 -0.716493,0.237756 -0.716493,0.347596 0,0.04466 -0.07426,0.108665 -0.165028,0.142242 -0.199702,0.07387 -0.5675,0.361127 -1.080224,0.843662 -0.296074,0.278641 -0.447674,0.359833 -0.671871,0.359833 -0.179251,0 -0.308086,-0.04837 -0.338259,-0.127 z M 7.5953544,31.300319 C 7.5589307,31.2054 7.5168189,31.195202 7.43651,31.261853 c -0.06259,0.05194 -0.3748889,0.08 -0.7309457,0.06566 l -0.621665,-0.02503 -0.024454,-0.508 c -0.01345,-0.2794 0.00731,-0.6604 0.046123,-0.846667 l 0.070577,-0.338666 h 0.630379 0.6303787 l 0.04496,0.254 c 0.029561,0.167006 0.067805,0.217752 0.1116616,0.148166 0.096109,-0.152493 0.727486,-0.136765 0.7874954,0.01962 0.035748,0.09316 0.088114,0.104055 0.2034433,0.04233 0.085417,-0.04571 0.2536749,-0.08312 0.3739064,-0.08312 0.2125292,0 0.3420861,-0.180401 0.5053351,-0.703651 0.037178,-0.119165 0.1187118,-0.147456 0.366014,-0.127 l 0.3181802,0.02632 0.06653,0.671888 c 0.07827,0.790543 0.05148,0.894446 -0.2306671,0.894446 -0.1380947,0 -0.2784777,0.0902 -0.4034439,0.259227 -0.1700784,0.230043 -0.234703,0.256979 -0.5740347,0.239265 -0.210309,-0.01098 -0.4656002,0.02477 -0.5673139,0.07944 -0.2695511,0.144882 -0.7835522,0.12675 -0.8436109,-0.02976 z"
         id="path1500"
         inkscape:label="shoes" />
      <path
         style="display:inline;fill:#7e0914;stroke-width:0.0846667"
         d="m 11.001583,21.026835 c -0.02492,-0.04032 -0.137002,-0.05578 -0.249072,-0.03436 -0.11207,0.02142 -0.229528,-0.0027 -0.261018,-0.05369 -0.03149,-0.05095 -0.207405,-0.09264 -0.390924,-0.09264 -0.1881877,0 -0.3336698,-0.041 -0.3336698,-0.09405 0,-0.05173 -0.072108,-0.005 -0.1602392,0.10384 -0.1452233,0.179344 -0.1802014,0.187204 -0.3732631,0.08388 -0.1406076,-0.07525 -0.3235864,-0.09385 -0.5382608,-0.05471 -0.3600921,0.06565 -1.289031,0.06179 -1.3984208,-0.0058 -0.1053204,-0.06509 -0.083736,-0.864945 0.029027,-1.075645 0.054364,-0.101578 0.090431,-0.369038 0.08015,-0.594354 -0.014432,-0.316284 0.026477,-0.470733 0.1794713,-0.677577 0.1089902,-0.147352 0.263482,-0.371438 0.3433149,-0.497968 L 8.0738295,17.803704 7.7823704,17.97567 C 7.5914041,18.088345 7.3797139,18.138473 7.1684053,18.121061 6.8715082,18.096595 6.8437598,18.072195 6.8189557,17.813788 6.8041368,17.659404 6.837377,17.478429 6.8928227,17.411621 7.1002409,17.161697 6.6704289,17.285438 6.4187898,17.548093 6.2199484,17.755638 6.1134667,17.801129 5.8737828,17.780926 5.5868382,17.75674 5.5749224,17.742177 5.5492969,17.38437 c -0.021196,-0.295955 0.026125,-0.456269 0.2328334,-0.788792 0.1426896,-0.229544 0.2594356,-0.429424 0.2594356,-0.444181 0,-0.01476 -0.0762,-0.04676 -0.1693333,-0.07111 -0.322041,-0.08422 -0.1713618,-0.906802 0.1661056,-0.906802 0.1112595,0 0.2233606,-0.138075 0.3672203,-0.452306 0.1138899,-0.248768 0.2840634,-0.524993 0.3781632,-0.613833 0.207237,-0.195653 0.5278442,-0.755746 0.5278442,-0.92213 0,-0.06625 0.1315976,-0.1829 0.292439,-0.259224 0.1608414,-0.07632 0.3369566,-0.192412 0.391367,-0.257972 0.05441,-0.06556 0.1990378,-0.120169 0.3213943,-0.121351 0.1402988,-0.0014 0.4089831,-0.157262 0.7274554,-0.422111 0.3317276,-0.275873 0.5336187,-0.391331 0.5884334,-0.336517 0.1311995,0.1312 0.570956,0.09758 0.741411,-0.05668 0.122915,-0.111236 0.154811,-0.1156 0.154724,-0.02117 -7.7e-5,0.08353 0.107095,0.118955 0.359833,0.118955 0.319574,0 0.363274,0.02374 0.389646,0.211667 0.03429,0.244386 0.146371,0.335543 0.414797,0.33737 0.169361,0.0012 0.1905,0.0439 0.1905,0.385275 0,0.222912 -0.06215,0.479046 -0.148167,0.610616 l -0.148166,0.226637 0.27105,-0.200162 c 0.149077,-0.110088 0.290757,-0.251515 0.314843,-0.314282 0.05349,-0.139399 0.652307,-0.154386 0.786997,-0.0197 0.06945,0.06945 0.183229,0.02306 0.430239,-0.175446 0.257689,-0.207085 0.402165,-0.263523 0.62101,-0.24259 0.278498,0.02664 0.286188,0.03787 0.327527,0.478311 l 0.04233,0.451031 0.245097,-0.256797 c 0.233569,-0.244721 0.277155,-0.256728 0.926716,-0.2553 0.374892,8.21e-4 0.720737,0.02567 0.768545,0.05522 0.04781,0.02955 0.228243,0.04352 0.400967,0.03105 0.299211,-0.0216 0.315318,-0.0094 0.341026,0.258547 0.02274,0.236982 0.0642,0.285492 0.263548,0.308371 0.235521,0.02703 0.236456,0.02965 0.211667,0.592118 -0.02435,0.55255 -0.0304,0.565913 -0.275124,0.608027 -0.179513,0.03089 -0.264199,0.102825 -0.299676,0.254549 -0.0402,0.171911 -0.108398,0.216416 -0.364429,0.237815 -0.263413,0.02202 -0.326711,-0.0054 -0.386666,-0.16747 -0.07021,-0.189795 -0.07466,-0.188053 -0.21552,0.08434 -0.128324,0.248151 -0.177515,0.275333 -0.456276,0.252137 -0.270392,-0.0225 -0.319697,-0.06019 -0.36631,-0.279999 -0.02962,-0.1397 -0.05837,-0.189218 -0.06388,-0.11004 -0.0055,0.07918 -0.05856,0.174428 -0.117883,0.211667 -0.1465,0.09196 -0.400134,0.500344 -0.400134,0.644272 0,0.339655 -0.752581,0.550189 -0.916931,0.256511 -0.06647,-0.118782 -0.114841,-0.08595 -0.311791,0.211666 -0.128213,0.193742 -0.263359,0.352258 -0.300327,0.352258 -0.03697,0 -0.122611,0.111044 -0.190318,0.246766 -0.113371,0.227257 -0.110514,0.250058 0.03613,0.288407 0.13168,0.03443 0.159235,0.122754 0.159235,0.510365 v 0.468725 l 0.359833,0.02604 0.359834,0.02604 -0.0143,0.550333 c -0.0079,0.302684 -0.01578,0.725317 -0.01759,0.939185 -0.0031,0.3683 -0.0286,0.409692 -0.482257,0.783166 -0.317801,0.261631 -0.558837,0.394316 -0.716319,0.394316 -0.373142,0 -0.504972,-0.08474 -0.508016,-0.326559 l -0.0028,-0.223774 -0.158921,0.1905 c -0.08802,0.105506 -0.254518,0.1905 -0.373187,0.1905 -0.117846,0 -0.237812,0.0381 -0.266592,0.08467 -0.06435,0.104121 -0.186188,0.109722 -0.246983,0.01135 z m 0.548094,-1.72703 0.271146,-0.358658 -0.349629,0.3742 c -0.192295,0.20581 -0.349628,0.389034 -0.349628,0.407163 0,0.08315 0.180194,-0.09477 0.428111,-0.422705 z m -1.481209,-3.852978 c -0.02838,-0.02838 -0.1173684,0.01726 -0.1977514,0.101417 -0.1397188,0.146283 -0.1374478,0.148553 0.051601,0.0516 0.1087634,-0.05578 0.1745304,-0.124637 0.1461504,-0.153017 z m 0.333431,-0.104013 c 0.02878,-0.04657 0.01423,-0.08467 -0.03234,-0.08467 -0.04657,0 -0.108213,0.0381 -0.136993,0.08467 -0.02878,0.04657 -0.01423,0.08467 0.03234,0.08467 0.04657,0 0.108213,-0.0381 0.136993,-0.08467 z"
         id="path1498"
         inkscape:label="hoodie" />
      <path
         style="display:inline;fill:#231e1b;stroke-width:0.0846667"
         d="m 7.196095,12.759994 c -0.030389,-0.07919 -0.1603841,-0.126513 -0.3475385,-0.126513 -0.1644448,0 -0.2989906,-0.0381 -0.2989906,-0.08467 0,-0.04832 0.2525637,-0.08467 0.5883579,-0.08467 0.5780594,0 0.5925088,-0.0054 0.8255,-0.310688 0.2084232,-0.273062 0.2390027,-0.390819 0.252506,-0.972362 0.00845,-0.363921 0.037647,-0.697729 0.064881,-0.741795 0.027235,-0.04407 0.010796,-0.104052 -0.03653,-0.133301 C 8.069554,10.198014 8.1674341,9.9103813 8.5026692,9.5466942 8.7848803,9.2405314 8.8422395,9.1223307 8.8201692,8.8924193 8.7984832,8.6665107 8.7519736,8.6061068 8.5815659,8.5825347 8.2616561,8.5382825 8.1582326,8.4113578 8.1582326,8.0630063 c 0,-0.2984698 0.4623024,-1.3561923 0.5927556,-1.3561923 0.031073,0 0.09139,0.314325 0.1340372,0.6985 l 0.07754,0.6985 H 9.3012325 9.6398992 L 9.6649655,7.4805479 9.6900318,6.8572818 10.243864,6.3115687 c 0.477211,-0.4702147 0.331018,-0.1405192 0.561741,-0.1181342 0.216642,0.021019 0.431333,-0.097995 0.55306,0.032127 0.185695,0.1985015 -0.04299,0.075053 -0.315685,0.2555119 -0.187615,0.1241573 -0.376087,0.2257406 -0.418828,0.2257406 -0.123808,0 -0.595916,0.5762899 -0.6506009,0.7941705 -0.027387,0.1091191 -0.037463,0.3274953 -0.02239,0.4852806 0.024965,0.2613442 0.054169,0.2891321 0.3280619,0.3121557 0.2664,0.022394 0.324282,-0.01109 0.508,-0.2938731 0.114038,-0.1755305 0.445468,-0.4850047 0.73651,-0.6877203 0.463252,-0.3226635 0.529166,-0.4025344 0.529166,-0.6412137 V 6.4029738 l 0.557431,0.1920306 c 0.475954,0.1639626 0.41711,0.2683574 0.556446,0.1799442 l 0.09351,-0.059333 0.261505,-0.060973 c 0.195832,-0.045661 0.03991,0.1341472 0.324238,0.1545384 0.355864,0.025521 0.394362,-0.1040191 0.417221,0.181116 0.01307,0.1629833 0.204571,0.090547 0.252332,0.1855081 0.04776,0.094961 0.07517,0.3997612 0.06091,0.6773333 l -0.02592,0.5046765 -0.398421,-0.00509 -0.398422,-0.00509 -0.02491,0.4707526 -0.02491,0.4707526 H 13.365232 13.026566 L 12.980255,8.865814 c -0.03804,-0.3476862 -0.05316,-0.3779451 -0.08467,-0.1693334 -0.0349,0.2311034 -0.07079,0.2563469 -0.398189,0.2800348 -0.224467,0.016241 -0.359833,0.067236 -0.359833,0.1355565 0,0.1179462 -0.378602,0.8648009 -0.53468,1.0547441 -0.05228,0.06362 -0.13869,0.24262 -0.192033,0.397783 -0.08905,0.259027 -0.08234,0.284205 0.08203,0.307665 0.148149,0.02114 0.179016,0.08394 0.179016,0.364217 v 0.338666 l -0.573839,0.01016 c -0.400308,0.0071 -0.619954,0.05189 -0.726334,0.148166 -0.16852,0.15251 -0.6086321,0.185 -0.739071,0.05456 -0.054815,-0.05481 -0.2567058,0.06064 -0.5884334,0.336517 -0.3521638,0.292868 -0.5818573,0.420997 -0.758989,0.423386 -0.24662,0.0033 -0.7468929,0.149777 -0.9436282,0.276241 -0.054237,0.03486 -0.1183532,0.0066 -0.1455094,-0.06419 z M 14.093781,7.2866294 13.95204,7.2550685 13.731491,7.0897039 c -0.24722,-0.1853617 -0.199333,-0.4041962 -0.224405,-0.1852378 -0.04562,0.3983601 0.03322,0.4928988 0.386632,0.463666 0.310381,-0.025673 0.138443,0.2430635 0.200063,-0.081503 z M 6.8035659,11.622477 c 0,-0.04382 0.042993,-0.106241 0.095539,-0.138716 0.06532,-0.04037 0.05193,-0.08345 -0.042333,-0.136204 C 6.6530111,11.233527 6.6672722,10.272764 6.8788929,9.8572743 6.9668894,9.6845044 7.099641,9.3382222 7.1738965,9.0877581 7.3469634,8.5040019 7.4389005,8.4001473 7.7826028,8.4001473 c 0.3839325,0 0.427273,0.1210296 0.1213477,0.3388675 C 7.4784738,9.041981 7.3962326,9.302325 7.3962326,10.346255 c 0,0.721352 -0.03164,0.986805 -0.1367375,1.147204 -0.1317017,0.201003 -0.4559292,0.292752 -0.4559292,0.129018 z"
         id="path1496"
         inkscape:label="hair"
         sodipodi:nodetypes="cssscsscsssssscccccssssssssssscsscsscsccccccccccsssscscccccccccscscsssscsssssss" />
      <path
         style="display:inline;fill:#000000;stroke-width:0.0846667"
         d="m 7.1422326,31.946342 -0.889,-0.05119 -0.046133,-0.459878 C 6.1817256,31.182336 6.1150506,30.960086 6.0589326,30.94138 5.9915616,30.91892 5.9568993,30.694048 5.9568993,30.279425 c 0,-0.501729 -0.025527,-0.627945 -0.127,-0.627945 -0.1625959,0 -0.1659199,-0.327364 -0.00706,-0.695627 0.2749313,-0.63735 0.3771675,-0.904417 0.5926073,-1.54804 0.1246981,-0.372533 0.2636647,-0.744494 0.3088145,-0.826579 0.1095987,-0.199256 0.341182,-1.242155 0.4274797,-1.925087 0.1228907,-0.972516 0.2731544,-2.65313 0.2800918,-3.132667 0.00647,-0.446983 -0.00261,-0.466742 -0.2260967,-0.492457 -0.1692382,-0.01947 -0.2328333,-0.07401 -0.2328333,-0.199678 0,-0.142136 0.037649,-0.163439 0.2116666,-0.119764 0.1957429,0.04913 0.2116667,0.03071 0.2116667,-0.244821 -4e-7,-0.208397 0.03817,-0.297946 0.1269996,-0.297946 0.081787,0 0.1274616,0.08289 0.1282965,0.232833 0.00232,0.416452 0.050583,0.432672 1.4402883,0.484053 2.9914717,0.110602 3.6962867,0.08216 3.9404517,-0.159019 0.05134,-0.05071 0.194882,-0.167919 0.318987,-0.260463 0.224548,-0.167445 0.303222,-0.382071 0.140054,-0.382071 -0.04707,0 -0.266149,0.08573 -0.486834,0.1905 -0.371861,0.176549 -0.503545,0.189147 -1.798243,0.17203 C 9.6908371,20.426641 8.2417561,20.303521 7.6713992,20.146341 7.3426664,20.05575 7.3115659,20.023509 7.3115659,19.773314 c 0,-0.258052 0.144768,-0.696439 0.2608255,-0.789834 0.062075,-0.04995 0.1587327,-0.427247 0.2195012,-0.856804 l 0.043356,-0.306471 -0.7063412,-0.03806 c -1.1895241,-0.06409 -1.3416196,-0.224832 -1.3309693,-1.406592 0.00604,-0.669767 -0.022042,-0.905628 -0.12095,-1.016 C 5.6061419,15.280497 5.4468161,14.949114 5.3229308,14.623147 5.1990454,14.29718 5.062408,13.964322 5.019292,13.883463 4.882113,13.626197 4.9340658,13.411738 5.1737326,13.24594 c 0.2926971,-0.202483 0.9028471,-0.443126 1.1235466,-0.443126 0.2072532,0 0.2155985,-0.167526 0.019453,-0.390513 -0.1869315,-0.212512 -0.3598333,-0.51251 -0.3598333,-0.624338 0,-0.0472 0.1323308,-0.08582 0.2940684,-0.08582 0.3526308,0 1.0605982,-0.325612 1.0605982,-0.487796 0,-0.06346 -0.061775,-0.304254 -0.1372784,-0.535091 C 7.0741965,10.373249 7.0468619,10.053474 7.073381,9.4988039 7.1082211,8.7700918 7.1218336,8.7255885 7.3966016,8.4421 7.5543682,8.279326 7.7521762,8.1461473 7.8361747,8.1461473 c 0.11088,0 0.1527245,-0.065051 0.1527245,-0.2374239 0,-0.2661718 0.4213402,-0.9806144 0.7396802,-1.2542335 0.5358515,-0.4605743 0.8213549,-0.5403425 1.9339726,-0.5403425 0.99257,0 1.077182,0.01366 1.573336,0.254 0.41143,0.1992999 0.638451,0.2539999 1.05417,0.2539999 0.2914,0 0.637073,0.040245 0.768163,0.089433 0.27423,0.1028982 0.619345,0.4425853 0.619345,0.6096051 0,0.062569 0.0389,0.1526581 0.08644,0.2001981 0.04754,0.04754 0.1102,0.3409099 0.139244,0.6519333 0.04681,0.5012489 0.03606,0.5654971 -0.09461,0.5654971 -0.08108,0 -0.321077,-0.1528616 -0.533328,-0.3396924 C 13.8697,8.0420934 13.75382,8.0132569 13.911935,8.3086971 c 0.05212,0.097379 0.117862,0.4244921 0.146104,0.7269181 0.04706,0.5039588 0.03775,0.5498654 -0.111539,0.5498654 -0.08959,0 -0.217197,-0.075353 -0.283577,-0.1674503 -0.0887,-0.1230682 -0.138194,-0.1398987 -0.186728,-0.0635 -0.115512,0.1818318 -0.07516,0.2752493 0.185371,0.429149 0.163986,0.096869 0.254,0.2183967 0.254,0.3429257 0,0.207543 -0.42654,0.644209 -0.629271,0.644209 -0.06751,0 -0.146283,0.0381 -0.175063,0.08467 -0.02878,0.04657 -0.136066,0.08467 -0.238416,0.08467 -0.304564,0 -0.73525,0.538834 -0.73525,0.919876 0,0.265309 0.0407,0.34241 0.232833,0.441072 0.128058,0.06576 0.289983,0.17878 0.359833,0.251157 0.06985,0.07238 0.252145,0.219047 0.405099,0.325932 0.379376,0.265109 1.210506,0.274461 1.94173,0.02185 0.54326,-0.187677 1.326784,-0.238779 1.544998,-0.100766 0.06829,0.04319 0.163539,0.04928 0.211667,0.01353 0.159427,-0.118422 0.779291,-0.26398 1.124169,-0.26398 0.257754,0 0.370014,0.04568 0.465435,0.189392 l 0.125751,0.189391 0.551857,-0.189391 c 0.836522,-0.287086 0.910628,-0.255387 0.910628,0.389531 0,0.267177 -0.03745,0.327651 -0.265398,0.428551 -0.145969,0.06461 -0.489561,0.334789 -0.763539,0.600393 -0.318887,0.309144 -0.624305,0.520718 -0.848755,0.587964 -0.192838,0.05778 -0.399627,0.154059 -0.459529,0.213962 -0.0599,0.0599 -0.368159,0.174733 -0.685013,0.255179 -0.316854,0.08045 -0.6523,0.177592 -0.745433,0.215879 -0.09313,0.03829 -0.455083,0.127107 -0.804333,0.197377 -0.852894,0.171606 -1.42491,0.337363 -1.756834,0.509091 -0.266197,0.137722 -0.275092,0.159541 -0.272872,0.669355 0.0026,0.599968 0.128744,1.827556 0.258583,2.516659 0.195259,1.036317 0.194371,1.180125 -0.0084,1.355965 -0.130932,0.113558 -0.174135,0.222292 -0.141541,0.356241 0.52088,2.140639 0.674296,2.652476 1.009454,3.367794 0.163638,0.34925 0.362998,0.80645 0.443021,1.016 0.385494,1.009453 0.856602,1.944951 1.065934,2.116666 0.08515,0.06985 0.232403,0.33655 0.327223,0.592667 l 0.1724,0.465667 h 1.125657 c 1.011176,0 1.144268,0.01734 1.308658,0.170491 0.258846,0.241151 0.363358,0.56884 0.363358,1.139272 v 0.494406 l -0.486833,0.27189 c -0.267759,0.149541 -0.639234,0.383957 -0.8255,0.520926 -0.186267,0.136968 -0.546933,0.380204 -0.801479,0.540523 l -0.462813,0.291492 H 15.216445 13.675279 L 13.572842,31.61998 c -0.05634,-0.221192 -0.119797,-0.668867 -0.141015,-0.994833 -0.02122,-0.325967 -0.08807,-0.649817 -0.148554,-0.719667 -0.176736,-0.204091 -0.442525,-0.774672 -0.552376,-1.185809 -0.340759,-1.275357 -2.190025,-5.066162 -2.207232,-4.5246 -0.02105,0.662554 -0.211875,1.700262 -0.5907906,3.212742 -0.046665,0.186267 -0.1081157,0.481542 -0.1365579,0.656167 -0.028442,0.174625 -0.080355,0.3175 -0.1153617,0.3175 -0.035007,0 -0.081138,0.09149 -0.1025132,0.203308 -0.038017,0.198873 -0.02422,0.203972 0.6326644,0.233802 0.770212,0.03498 0.91046,0.139685 0.91046,0.679739 0,0.177367 0.0381,0.322484 0.08467,0.322484 0.04657,0 0.08467,0.214607 0.08467,0.476902 0,0.655844 -0.186236,0.808409 -1.280535,1.049008 -0.3170917,0.06972 -0.5690682,0.191492 -0.7541393,0.364456 -0.3174619,0.296694 -0.5658098,0.32432 -2.1139921,0.235163 z m 1.8762582,-0.504365 c 0.169679,-0.158579 0.4290818,-0.280814 0.7378728,-0.347698 0.5699014,-0.123441 1.0697334,-0.328467 0.8208804,-0.336718 -0.08983,-0.003 -0.280327,0.03063 -0.423334,0.07469 -0.143006,0.04406 -0.5730058,0.177408 -0.9555554,0.296333 -0.5843442,0.181659 -0.8594428,0.216228 -1.7207081,0.216228 -0.930674,0 -1.0225571,0.01366 -0.9968862,0.148167 0.024042,0.125972 0.1613074,0.155614 0.9163747,0.197882 1.1604494,0.06496 1.3101247,0.04199 1.6213558,-0.248885 z m 7.9903322,0.0086 c 0.281009,-0.174598 0.642959,-0.417871 0.804334,-0.540605 0.161375,-0.122733 0.519043,-0.349147 0.794817,-0.503141 0.275776,-0.153994 0.459031,-0.294116 0.407235,-0.311381 -0.05179,-0.01727 -0.31553,0.09062 -0.586075,0.239752 -0.270546,0.149129 -0.701452,0.38423 -0.957568,0.522446 -0.256117,0.138217 -0.600891,0.342346 -0.766163,0.453621 -0.413036,0.278089 -1.15839,0.401947 -2.049004,0.34049 -0.466456,-0.03219 -0.740833,-0.02011 -0.740833,0.03262 0,0.05156 0.496291,0.08373 1.291166,0.0837 l 1.291167,-4.7e-5 z m -1.308291,-0.107106 c 0.249376,-0.04729 0.587952,-0.176558 0.752389,-0.287254 0.28954,-0.194912 0.84657,-0.50873 1.590145,-0.895852 0.354397,-0.184507 0.424029,-0.327766 0.30724,-0.632114 -0.08836,-0.230265 -0.50541,-0.384793 -1.038505,-0.384793 h -0.50684 l -0.02653,0.267981 c -0.02479,0.250408 -0.06101,0.277669 -0.552226,0.415698 -0.289134,0.08124 -0.984458,0.175098 -1.545167,0.208565 l -1.019471,0.06085 v 0.403074 c 0,0.528782 0.193816,0.768804 0.684952,0.848246 0.563104,0.09108 0.855555,0.09013 1.354014,-0.0044 z M 8.8859203,30.879147 c 0.3467992,-0.116417 0.7041492,-0.211667 0.794111,-0.211667 0.3557487,0 0.5948677,-0.184746 0.5948677,-0.459603 0,-0.337248 -0.528969,-1.131864 -0.76313,-1.146371 -0.023905,-0.0015 -0.090509,0.195356 -0.1480082,0.437416 -0.0575,0.242059 -0.1427269,0.47829 -0.1893941,0.524958 C 9.1176787,30.08057 8.8562374,30.075 8.3866473,30.00711 8.000069,29.951211 7.495255,29.904571 7.2648385,29.90346 7.0344219,29.902351 6.7030243,29.868261 6.5283993,29.82771 l -0.3175,-0.07373 v 0.426418 c 0,0.363123 0.037588,0.462338 0.2532293,0.668417 0.2405395,0.229873 0.2917663,0.241999 1.0222385,0.241999 0.5956869,0 0.9111236,-0.04771 1.3995532,-0.211666 z M 10.963033,30.60398 c 0.105314,-0.134286 0.102319,-0.137281 -0.03197,-0.03197 -0.08149,0.06391 -0.148167,0.130586 -0.148167,0.148167 0,0.06968 0.06953,0.02483 0.180134,-0.1162 z m -0.09547,-0.82244 c 0,-0.437361 -0.130694,-0.619863 -0.495206,-0.691511 -0.278231,-0.05469 -0.281401,-0.052 -0.169333,0.143752 0.06281,0.109716 0.161831,0.251305 0.220039,0.314639 0.05821,0.06333 0.105833,0.289789 0.105833,0.50323 0,0.382711 0.0023,0.385957 0.169334,0.23483 0.117562,-0.106392 0.169333,-0.260771 0.169333,-0.50494 z M 9.0075942,29.602058 c 0.045744,-0.120314 0.1449147,-0.491789 0.2203798,-0.8255 0.075465,-0.333709 0.1645539,-0.625795 0.1979749,-0.649078 0.033421,-0.02328 0.085411,-0.175683 0.1155333,-0.338667 0.030122,-0.162983 0.092448,-0.448733 0.1385023,-0.635 0.2415777,-0.977066 0.4351905,-1.900309 0.4616405,-2.201333 0.01637,-0.186266 0.05744,-0.567266 0.09128,-0.846666 0.05769,-0.476322 0.04462,-0.535189 -0.209608,-0.943991 C 9.780806,22.771884 9.7133551,22.720011 9.3847359,22.670731 8.9303981,22.602599 8.4635682,22.299747 8.4275106,22.049738 c -0.03538,-0.24531 0.1124717,-0.237634 0.4208495,0.02185 0.3162602,0.266116 0.6813666,0.361637 1.6593729,0.434134 0.574356,0.04258 0.783166,0.08868 0.783166,0.172907 0,0.08475 -0.14225,0.114852 -0.542663,0.114852 h -0.542664 l 0.460381,0.76367 c 0.556696,0.923435 0.706462,1.188472 1.034731,1.831132 0.477784,0.935371 1.055908,2.316216 1.280373,3.058165 0.244774,0.809077 0.499938,1.221234 0.807509,1.304345 0.456844,0.123446 1.832516,-0.03848 2.642739,-0.311058 0.07482,-0.02517 0.05467,-0.150233 -0.07413,-0.460168 -0.100003,-0.240633 -0.214844,-0.402134 -0.264243,-0.371604 -0.05448,0.03367 -0.06938,-0.01479 -0.0396,-0.128693 0.02628,-0.100479 0.0217,-0.166574 -0.01017,-0.146878 -0.05913,0.03654 -1.059385,-1.969887 -1.3262,-2.660244 -0.137448,-0.355633 -0.207695,-0.520843 -0.621005,-1.4605 -0.08705,-0.197908 -0.205769,-0.531283 -0.263819,-0.740833 -0.05805,-0.20955 -0.136846,-0.47625 -0.1751,-0.592667 -0.03825,-0.116417 -0.09387,-0.345017 -0.123585,-0.508 -0.02972,-0.162983 -0.117621,-0.518365 -0.195342,-0.789736 -0.139298,-0.486375 -0.144935,-0.492519 -0.395763,-0.431341 -0.285723,0.06969 -2.187366,0.06567 -3.9881391,-0.0084 L 7.7605226,21.091528 7.6984,21.879005 c -0.227055,2.878192 -0.4383941,4.325461 -0.7208062,4.936144 -0.04307,0.09313 -0.181036,0.474133 -0.3065915,0.846666 -0.1255556,0.372533 -0.2750882,0.791633 -0.3322946,0.931333 -0.2613723,0.638278 -0.2971418,0.729489 -0.2971418,0.7577 0,0.102156 0.6941515,0.233546 1.6006736,0.302977 0.5776871,0.04425 1.0698121,0.09992 1.0936111,0.123718 0.095288,0.09529 0.1927173,0.03237 0.2717436,-0.175485 z m 9.9297188,0.112922 c 0.134635,-0.09933 0.134328,-0.123964 -0.005,-0.400989 -0.209555,-0.416705 -0.452205,-0.509134 -1.291429,-0.49192 -0.576851,0.01183 -0.618855,0.02011 -0.211667,0.04171 0.2794,0.01482 0.594694,0.04669 0.700654,0.07081 0.292061,0.06649 0.527015,0.348349 0.527015,0.632219 0,0.277371 0.06135,0.309789 0.280414,0.148167 z m -6.147671,-9.707295 c 0.19566,-0.09765 0.41969,-0.177538 0.497845,-0.177538 0.121019,0 0.133708,-0.05966 0.08553,-0.402167 -0.141815,-1.008125 -0.209204,-1.82015 -0.214121,-2.580159 l -0.0053,-0.823325 0.275166,-0.142363 c 0.331924,-0.171728 0.90394,-0.337485 1.756834,-0.509091 0.34925,-0.07027 0.7112,-0.159669 0.804333,-0.198664 0.09313,-0.039 0.448566,-0.139473 0.78985,-0.223286 0.703765,-0.17283 0.819782,-0.298359 0.750836,-0.812388 -0.05682,-0.423642 -0.233176,-0.615347 -0.855128,-0.929567 -0.555039,-0.280414 -0.637909,-0.279676 -1.659225,0.01478 -1.024647,0.295411 -2.100891,0.13072 -2.475203,-0.378765 -0.03421,-0.04657 -0.06279,0.03449 -0.0635,0.180133 -0.0016,0.319664 -0.0712,0.380089 -0.708969,0.615183 -0.562848,0.207477 -1.195677,0.615299 -1.322504,0.852276 -0.04696,0.08774 -0.133256,0.210134 -0.191769,0.271972 -0.05851,0.06184 -0.160451,0.217211 -0.226528,0.345269 -0.113392,0.219755 -0.1528199,0.232834 -0.7019284,0.232834 -0.4672487,0 -0.634707,-0.03751 -0.8505823,-0.1905 C 8.0616392,14.85918 7.912447,14.653382 7.8461177,14.28448 l -0.060893,-0.338666 -0.084063,0.423333 c -0.1270141,0.639629 -0.099943,1.563792 0.055802,1.905 0.2235296,0.489712 0.3356299,1.192484 0.2903644,1.820333 -0.050898,0.705974 -0.1378814,1.143 -0.2274968,1.143 -0.03585,0 -0.084353,0.06668 -0.1077847,0.148167 -0.023431,0.08149 -0.066769,0.20629 -0.096307,0.277328 -0.073329,0.176358 0.418171,0.305257 1.6008263,0.419824 2.0852491,0.202005 3.0588101,0.181538 3.5730761,-0.07511 z M 7.7859299,17.409282 C 7.7574659,17.335105 7.711715,17.17318 7.6842612,17.049448 7.6568075,16.925716 7.5729562,16.69113 7.497925,16.528147 7.3355195,16.175369 7.3075826,14.783496 7.4490677,14.09398 c 0.050165,-0.244475 0.074106,-0.4445 0.053201,-0.4445 -0.020904,0 -0.167956,0.142875 -0.3267815,0.3175 -0.3222863,0.354347 -0.8464222,1.356504 -0.9312253,1.780519 -0.030379,0.151895 -0.088413,0.296677 -0.1289653,0.32174 -0.040552,0.02506 -0.073731,0.247674 -0.073731,0.494692 0,0.369775 0.038555,0.48768 0.2182208,0.667346 0.2331752,0.233175 0.4092449,0.280184 1.1243376,0.300184 0.3830649,0.01071 0.4455148,-0.0083 0.4018059,-0.122179 z M 5.9568993,15.004147 c -0.093133,-0.09313 -0.1693334,-0.243284 -0.1693334,-0.333669 0,-0.09039 -0.0381,-0.187884 -0.084667,-0.216664 -0.1300032,-0.08035 -0.1065236,-0.719667 0.026431,-0.719667 0.1465576,0 0.7870746,-0.311095 1.1573902,-0.562137 L 7.1815407,12.972147 H 6.9475491 c -0.2790057,0 -1.1825643,0.294083 -1.4579476,0.474521 -0.2179596,0.142813 -0.2101369,0.20794 0.1260316,1.049267 0.1974506,0.49416 0.3155405,0.677545 0.4362998,0.677545 0.040865,0 -0.0019,-0.0762 -0.095034,-0.169333 z M 9.7737589,14.85598 c 0.066077,-0.128058 0.1680148,-0.283429 0.2265281,-0.345268 0.05851,-0.06184 0.144809,-0.184228 0.191769,-0.271973 0.126827,-0.236977 0.759656,-0.644799 1.322504,-0.852276 0.702432,-0.258931 0.760878,-0.318877 0.521986,-0.535382 -0.262874,-0.238239 -0.828904,-0.658818 -1.061998,-0.7891 -0.112419,-0.06283 -0.499413,-0.105834 -0.9525,-0.105834 -0.7049859,0 -0.7631488,0.01282 -0.7631488,0.168197 0,0.261012 0.5268174,0.444882 1.0775178,0.376076 0.365058,-0.04561 0.446482,-0.03265 0.446482,0.0711 0,0.253134 -0.9546038,0.319061 -1.4745048,0.101833 -0.2725896,-0.113895 -0.3425599,-0.114705 -0.5818399,-0.0067 -0.1495936,0.0675 -0.3577134,0.147379 -0.4624884,0.177503 -0.1801958,0.05181 -0.271072,0.212693 -0.1201403,0.212693 0.038698,0 0.1199914,0.09274 0.1806522,0.206083 0.2459142,0.459495 0.9413581,0.475172 1.5845762,0.03572 0.194657,-0.132991 0.396345,-0.241802 0.448195,-0.241802 0.05185,0 0.196997,-0.09525 0.322547,-0.211667 0.269334,-0.249741 0.44167,-0.272216 0.44167,-0.0576 0,0.16984 -0.361034,0.523269 -0.534528,0.523269 -0.06045,0 -0.239559,0.09565 -0.398023,0.212565 -0.7041729,0.519522 -1.8398666,0.514032 -2.1204542,-0.01025 -0.059551,-0.111273 -0.1399374,-0.202314 -0.1786352,-0.202314 -0.038698,0 -0.07036,-0.0762 -0.07036,-0.169333 0,-0.114507 -0.056444,-0.169334 -0.1743301,-0.169334 -0.1938842,0 -0.1787184,0.04262 0.1807814,0.508 0.1259014,0.162984 0.2522673,0.430604 0.2808131,0.594713 0.088114,0.506568 0.6851206,1.013954 1.1930501,1.013954 0.3003269,0 0.3718784,-0.03516 0.4738785,-0.232834 z M 6.737217,13.958833 c 0.1505021,-0.193427 0.3127247,-0.379677 0.3604945,-0.413889 0.1885718,-0.135052 -0.026381,-0.0524 -0.4920426,0.189203 -0.2692587,0.1397 -0.5444331,0.254 -0.6114988,0.254 -0.1421649,0 -0.1489749,0.03435 -0.046381,0.233982 0.041556,0.08086 0.1211351,0.261002 0.1768424,0.400316 l 0.101286,0.253298 0.1188296,-0.282613 c 0.065356,-0.155436 0.2419677,-0.44087 0.3924699,-0.634297 z m 11.40372,0.452647 c 0.03457,0 0.290714,-0.220896 0.569209,-0.490879 0.278494,-0.269984 0.628094,-0.541307 0.776887,-0.602939 0.252971,-0.104784 0.352358,-0.284951 0.206811,-0.374903 -0.03505,-0.02166 -0.216022,0.01362 -0.402167,0.07839 -0.524456,0.182508 -1.01331,0.156694 -1.15795,-0.06114 -0.114696,-0.172741 -0.141508,-0.176086 -0.557259,-0.06953 l -0.436766,0.11194 0.30573,0.264283 c 0.270694,0.233996 0.310362,0.320143 0.346154,0.751745 0.03164,0.381532 0.06716,0.477203 0.16346,0.44025 0.06767,-0.02597 0.151321,-0.04721 0.185891,-0.04721 z M 8.1675978,12.549291 C 8.4876243,12.452929 8.7780086,12.286983 8.8963732,12.132817 9.0520376,11.93007 9.0273786,11.419671 8.8528171,11.231279 8.5288308,10.881623 8.3275226,10.312214 8.3288624,9.7492493 8.3295736,9.4496265 8.3581505,9.162225 8.3923624,9.1105793 8.4265743,9.0589335 8.6069659,8.9656272 8.7932326,8.9032321 9.602506,8.6321437 9.4846953,8.4035061 8.5346747,8.4014438 7.9648708,8.4002068 7.924526,8.4134817 7.6559594,8.690572 7.4062806,8.9481752 7.3697979,9.0462781 7.333138,9.5586469 7.303242,9.9764904 7.329678,10.226927 7.428687,10.463895 c 0.075284,0.180179 0.1368792,0.505854 0.1368792,0.723721 0,0.385958 -0.00983,0.4009 -0.3832649,0.582327 -0.2107958,0.102412 -0.4789979,0.186204 -0.5960048,0.186204 -0.1606992,0 -0.1912047,0.02589 -0.1247053,0.105834 0.048419,0.05821 0.1546961,0.193389 0.2361714,0.300403 0.1501044,0.197154 0.8520464,0.38137 1.1218036,0.294404 0.06985,-0.02252 0.2264644,-0.07089 0.3480316,-0.107497 z m 3.7159682,-0.638456 c 0,-0.269685 -0.01621,-0.290637 -0.163768,-0.211667 -0.09007,0.0482 -0.251996,0.09065 -0.359833,0.09433 -0.128368,0.0044 -0.152215,0.02336 -0.06907,0.05498 0.06985,0.02656 0.217864,0.118802 0.328918,0.204982 0.111055,0.08618 0.21583,0.15669 0.232834,0.15669 0.017,0 0.03092,-0.13469 0.03092,-0.299312 z M 9.5763992,11.643784 c -0.081492,-0.0213 -0.1481667,-0.09724 -0.1481667,-0.168775 0,-0.104194 0.063132,-0.118474 0.3175,-0.07182 0.4959935,0.09098 1.5424885,0.148765 1.6873605,0.09317 0.08833,-0.03389 0.105071,-0.0843 0.0515,-0.155054 -0.131437,-0.173583 -0.278359,-0.779428 -0.278359,-1.147837 0,-0.3178014 0.133647,-0.7595847 0.260768,-0.8619944 0.142261,-0.1146061 0.275699,-0.4951578 0.259769,-0.7408333 -0.02791,-0.430407 0.174614,-0.3365358 0.456658,0.2116667 L 12.4339,9.2891403 12.45863,8.6329736 C 12.4807,8.0472873 12.50109,7.976807 12.648477,7.976807 c 0.09081,0 0.270188,0.1182822 0.398606,0.2628493 0.591544,0.6659359 0.699152,0.7582257 0.699152,0.5996228 0,-0.083593 -0.1143,-0.332219 -0.254,-0.5525031 -0.1397,-0.220284 -0.254,-0.4787421 -0.254,-0.5743514 0,-0.1570559 0.03405,-0.1680825 0.352749,-0.1142385 0.194012,0.032778 0.432137,0.1344912 0.529167,0.2260293 0.09703,0.091538 0.243093,0.2027589 0.324584,0.2471577 0.11836,0.064485 0.148167,0.047065 0.148167,-0.08659 0,-0.092024 -0.0381,-0.1908626 -0.08467,-0.2196424 -0.04657,-0.02878 -0.08467,-0.1126285 -0.08467,-0.1863305 0,-0.1823666 -0.451114,-0.600499 -0.720924,-0.6682172 C 13.581863,6.88028 13.288636,6.874159 13.051025,6.896991 12.682585,6.932393 12.534083,6.8965338 12.041965,6.6533218 11.510085,6.3904602 11.402417,6.3681411 10.666244,6.3681411 c -0.665111,0 -0.8581254,0.03173 -1.154135,0.1897313 -0.6099866,0.3255927 -1.2692138,1.0905111 -1.2692138,1.4727017 0,0.1257133 0.1025833,0.1356784 0.9613317,0.093385 1.0963011,-0.053993 1.2400021,0.013168 1.2400021,0.5795306 0,0.3858171 -0.135055,0.5151053 -0.6129383,0.5867684 C 9.5127003,9.3380406 9.4314136,9.3221296 9.3621952,9.1984429 9.2869765,9.0640346 9.2495119,9.0605531 8.9935171,9.1641824 8.8367939,9.2276255 8.6805743,9.3197966 8.6463624,9.3690071 c -0.1900033,0.2733008 0.072255,1.1893159 0.4604547,1.6082719 0.083645,0.09027 0.1520821,0.290297 0.1520821,0.4445 0,0.251793 0.023731,0.279367 0.2328333,0.270547 0.1432473,-0.006 0.1758241,-0.02472 0.084667,-0.04854 z m 2.4546358,-0.51534 c 0.246575,-0.213854 0.631399,-0.929878 0.532582,-0.99095 -0.04502,-0.02782 -0.130357,0.02709 -0.189648,0.122035 -0.05929,0.09494 -0.173045,0.172618 -0.252785,0.172618 -0.232389,0 -0.565287,-0.181236 -0.604861,-0.329297 -0.02551,-0.09546 -0.03939,-0.08301 -0.04627,0.0415 -0.01276,0.231086 0.283888,1.134468 0.372531,1.134468 0.0083,0 0.09309,-0.06767 0.18845,-0.15037 z m 1.347372,-0.808247 c 0.181115,-0.157477 0.184361,-0.176326 0.04818,-0.279759 -0.238125,-0.1808605 -0.331362,-0.13675 -0.29108,0.137709 0.02778,0.189278 0.0037,0.254 -0.09433,0.254 -0.07239,0 -0.152964,0.03455 -0.17906,0.07677 -0.08188,0.132479 0.312805,-0.01179 0.516294,-0.188721 z M 12.21954,9.7232803 C 12.21804,9.6242073 12.1594,9.4671329 12.089197,9.3742264 11.979695,9.2293216 11.950169,9.2233029 11.881519,9.3318934 c -0.116183,0.1837801 -0.100529,0.6563757 0.02321,0.7008296 0.155862,0.05599 0.317889,-0.1032709 0.314807,-0.3094423 z M 12.989376,8.7048806 12.730232,8.4457371 v 0.2833416 c 0,0.1558379 0.06645,0.4704434 0.147673,0.6991232 l 0.147673,0.4157815 0.11147,-0.4399796 c 0.111345,-0.439481 0.111178,-0.4402734 -0.147672,-0.6991232 z m -2.799143,-0.0084 c 0,-0.029936 -0.05715,-0.1115785 -0.127,-0.1814285 -0.1128893,-0.1128889 -0.1270005,-0.09273 -0.1270005,0.1814285 0,0.2741587 0.014111,0.2943174 0.1270005,0.1814286 0.06985,-0.06985 0.127,-0.1514929 0.127,-0.1814286 z"
         id="path1485"
         inkscape:label="main line" />
    </g>
  </g>
</svg>
