<?xml version="1.0" encoding="UTF-8" standalone="no"?>
<svg
   xmlns:dc="http://purl.org/dc/elements/1.1/"
   xmlns:cc="http://creativecommons.org/ns#"
   xmlns:rdf="http://www.w3.org/1999/02/22-rdf-syntax-ns#"
   xmlns:svg="http://www.w3.org/2000/svg"
   xmlns="http://www.w3.org/2000/svg"
   xmlns:sodipodi="http://sodipodi.sourceforge.net/DTD/sodipodi-0.dtd"
   xmlns:inkscape="http://www.inkscape.org/namespaces/inkscape"
   width="25.47595mm"
   height="32.672665mm"
   viewBox="0 0 25.47595 32.672665"
   version="1.1"
   id="svg8"
   inkscape:version="1.0.1 (3bc2e813f5, 2020-09-07)"
   sodipodi:docname="monster_absence_scr.svg">
  <defs
     id="defs2" />
  <sodipodi:namedview
     id="base"
     pagecolor="#ffffff"
     bordercolor="#666666"
     borderopacity="1.0"
     inkscape:pageopacity="0.0"
     inkscape:pageshadow="2"
     inkscape:zoom="3.959798"
     inkscape:cx="53.752343"
     inkscape:cy="64.979138"
     inkscape:document-units="mm"
     inkscape:current-layer="layer1"
     inkscape:document-rotation="0"
     showgrid="false"
     inkscape:window-width="1346"
     inkscape:window-height="1040"
     inkscape:window-x="26"
     inkscape:window-y="0"
     inkscape:window-maximized="0" />
  <metadata
     id="metadata5">
    <rdf:RDF>
      <cc:Work
         rdf:about="">
        <dc:format>image/svg+xml</dc:format>
        <dc:type
           rdf:resource="http://purl.org/dc/dcmitype/StillImage" />
        <dc:title></dc:title>
      </cc:Work>
    </rdf:RDF>
  </metadata>
  <g
     inkscape:label="Layer 1"
     inkscape:groupmode="layer"
     id="layer1"
     sodipodi:insensitive="true"
     transform="translate(-3.1310159,-5.5906431)">
    <g
       id="g863"
       inkscape:label="Absence">
      <path
         style="display:inline;fill:#7500a1;stroke-width:0.0846667"
         d="m 12.248452,38.206842 c -0.03105,-0.03104 -0.05645,-0.208095 -0.05645,-0.393446 0,-0.261958 0.06976,-0.423787 0.313281,-0.726722 0.322361,-0.401015 0.106333,-0.273653 -0.308331,0.18178 -0.142352,0.156347 -0.296453,0.232833 -0.469104,0.232833 -0.165419,0 -0.294827,0.06039 -0.362864,0.169333 -0.103657,0.165982 -0.595084,0.24301 -0.724527,0.113565 -0.03067,-0.03067 -0.237048,-0.05925 -0.458612,-0.0635 -0.388858,-0.0075 -0.4043125,-0.01744 -0.4451762,-0.287455 L 9.6943405,37.153507 9.3168788,37.539064 C 8.982414,37.880701 8.8971225,37.92462 8.568119,37.92462 c -0.2912541,0 -0.380208,-0.03407 -0.4126282,-0.158046 -0.039874,-0.15248 -0.06193,-0.151514 -0.6262583,0.02741 -0.3217107,0.102 -0.6106953,0.21122 -0.6421881,0.242713 -0.1110815,0.111081 -1.0336238,0.06238 -1.1043302,-0.0583 C 5.7454753,37.914837 5.4673571,37.819853 5.1646737,37.76732 4.4097646,37.636299 4.191007,37.460341 4.191007,36.98415 v -0.371863 l 0.5080001,-0.01447 c 0.68336,-0.01947 1.0184125,-0.0919 1.5399237,-0.332883 0.2415913,-0.111637 0.5438918,-0.202977 0.6717787,-0.202977 0.3748991,0 1.2161837,-0.265966 1.7940767,-0.567185 0.2949056,-0.153715 0.6610597,-0.279482 0.8136758,-0.279482 0.2336088,0 0.3473476,-0.08032 0.719329,-0.508 0.243015,-0.2794 0.491315,-0.508 0.551779,-0.508 0.159725,0 0.55577,-0.63618 0.55577,-0.892751 0,-0.120476 0.03719,-0.288538 0.08264,-0.373469 0.06539,-0.12219 0.04772,-0.163553 -0.08467,-0.198174 -0.220404,-0.05764 -0.221973,-0.478099 -0.0051,-1.376986 0.270384,-1.12087 0.27589,-1.199018 0.08794,-1.248169 -0.184681,-0.04829 -0.224169,-0.401639 -0.08561,-0.766069 0.06058,-0.159332 0.05037,-0.221281 -0.04233,-0.256855 -0.161684,-0.06204 -0.157041,-0.512924 0.0079,-0.764614 0.11694,-0.178473 0.11694,-0.203491 0,-0.248365 -0.08924,-0.03425 -0.130038,-0.164943 -0.130038,-0.416624 0,-0.201698 -0.04258,-0.409301 -0.09462,-0.461339 -0.0618,-0.0618 -0.07708,-0.29524 -0.04406,-0.6731 0.0278,-0.318167 0.05865,-0.673734 0.06854,-0.790151 0.0099,-0.116417 0.01068,-0.540598 0.0017,-0.942625 -0.01487,-0.668157 -0.03178,-0.735018 -0.196914,-0.778201 -0.173234,-0.0453 -0.179031,-0.0837 -0.141168,-0.935038 0.03595,-0.8083 0.02559,-0.89143 -0.115681,-0.928373 -0.14043,-0.03672 -0.155165,-0.145368 -0.155165,-1.144059 v -1.103482 l -0.3175,-0.02628 -0.3175002,-0.02628 v -0.606722 c 0,-0.421736 -0.027646,-0.58375 -0.090675,-0.531379 -0.049871,0.04144 -0.4308711,0.06681 -0.8466667,0.05639 l -0.755992,-0.01895 -0.042333,-0.448872 c -0.040843,-0.433066 -0.048296,-0.444341 -0.2116667,-0.320192 -0.093133,0.07077 -0.2550583,0.12989 -0.3598333,0.131372 -0.1879902,0.0027 -0.1905,0.01771 -0.1905,1.142714 0,1.061949 -0.011864,1.14637 -0.1732455,1.232739 -0.095285,0.05099 -0.2953099,0.08091 -0.4445,0.06648 -0.2376045,-0.02298 -0.2745458,-0.06037 -0.2977855,-0.301406 -0.029993,-0.311075 -0.177522,-0.357707 -0.3348202,-0.105833 -0.1581893,0.253302 0.024966,0.493533 0.4003564,0.52512 0.2860654,0.02407 0.3008233,0.04114 0.3252705,0.376334 0.019262,0.264103 0.066473,0.361806 0.1905,0.39424 0.2627648,0.06871 0.2151282,0.521508 -0.096223,0.914622 -0.2129589,0.268882 -0.3149432,0.329684 -0.5529906,0.329684 -0.1813412,0 -0.3103321,-0.0481 -0.3406106,-0.127 -0.027508,-0.07169 -0.153587,-0.127 -0.289469,-0.127 -0.132404,0 -0.2712027,-0.0529 -0.3084416,-0.117562 C 5.4068086,22.2484 5.3001404,22.181283 5.2070071,22.163911 5.053584,22.135293 5.035403,22.055372 5.0135074,21.313302 4.9907171,20.540914 4.9786649,20.492761 4.8018407,20.467617 4.6395948,20.444546 4.6146514,20.389637 4.6166493,20.059954 c 0.00127,-0.20955 0.029738,-0.51435 0.063262,-0.677333 0.060215,-0.292748 0.059393,-0.292261 -0.067997,0.04029 -0.070922,0.185141 -0.1660649,0.373736 -0.2114283,0.4191 -0.1366141,0.136614 -0.099837,1.213412 0.049213,1.44089 0.088451,0.134994 0.1232012,0.349464 0.1058333,0.653188 L 4.5296743,22.38829 H 4.1921666 c -0.2708764,0 -0.3435402,-0.03343 -0.3680661,-0.169334 C 3.8072931,22.125821 3.6973612,21.947449 3.5798076,21.82257 3.3932863,21.624428 3.3605722,21.499035 3.3228651,20.837708 c -0.033997,-0.596248 -0.01375,-0.816864 0.094967,-1.034791 0.099408,-0.199268 0.1381752,-0.508629 0.1381752,-1.102636 0,-0.632027 0.036949,-0.901993 0.1575549,-1.151159 0.2535339,-0.523789 0.458176,-1.146504 0.4965038,-1.510834 0.036144,-0.343571 0.2888297,-1.061476 0.5364127,-1.524 0.1353882,-0.252926 0.1394992,-0.254103 0.9727355,-0.278453 0.7866122,-0.02299 0.8457122,-0.01284 0.9859003,0.169333 0.086714,0.112682 0.1499156,0.34214 0.1510102,0.548255 0.00179,0.33661 0.015579,0.355806 0.273722,0.381 0.186706,0.01822 0.2861393,0.07956 0.3175,0.195865 0.035998,0.133501 0.1173254,0.169333 0.3843274,0.169333 h 0.3386666 l 0.025616,0.397516 0.025616,0.397516 0.3553843,0.02582 0.3553842,0.02582 0.042333,0.465667 c 0.025528,0.280808 0.069525,0.423653 0.1108301,0.359833 0.084912,-0.131196 0.6681025,-0.139701 0.7961927,-0.01161 0.053797,0.0538 0.142428,0.06443 0.206579,0.02478 0.08156,-0.05041 0.05457,-0.08301 -0.098456,-0.118958 C 9.7986746,17.221105 9.7724196,17.1603 9.7083945,16.614237 9.6511755,16.126222 9.6070119,16.003942 9.4755612,15.969566 9.3606889,15.939526 9.3133405,15.852186 9.3133405,15.670329 c 0,-0.235649 -0.026169,-0.258981 -0.3175,-0.283092 -0.3075797,-0.02546 -0.3183075,-0.0374 -0.3433447,-0.382222 -0.014215,-0.195769 0.03341,-0.530475 0.1058333,-0.743792 0.072423,-0.213317 0.1316781,-0.403153 0.1316781,-0.421859 0,-0.0187 -0.123825,-0.04595 -0.2751667,-0.06054 l -0.2751666,-0.02653 -0.0248,-0.610048 -0.0248,-0.610047 -0.5678672,-0.02495 -0.5678672,-0.02495 -0.023485,-0.338667 c -0.012917,-0.186266 0.028402,-0.535897 0.09182,-0.776956 0.1095001,-0.416225 0.106848,-0.440501 -0.052682,-0.482219 -0.1536132,-0.04017 -0.1637388,-0.0946 -0.1183408,-0.636103 L 7.1012985,9.656169 6.8738195,9.6298953 C 6.6764807,9.6071027 6.6427884,9.5603739 6.619532,9.2772179 6.604787,9.0976959 6.6205124,8.8881459 6.654477,8.8115512 6.688441,8.7349562 6.70826,8.4817882 6.698519,8.2489549 6.686109,7.9523377 6.732212,7.7369203 6.8525383,7.5292883 6.9469903,7.3663049 7.1432418,6.9948299 7.2886529,6.7037883 7.5334145,6.2138955 7.5739158,6.1746216 7.8343579,6.1746216 c 0.2195029,0 0.3359793,-0.06631 0.5300573,-0.3017598 C 8.5901357,5.5990233 8.6475033,5.5735625 8.9844124,5.5976951 9.3001651,5.6203123 9.3598799,5.653999 9.3838056,5.8230035 L 9.4119375,6.0217186 9.6073747,5.8381148 C 9.7459842,5.707898 9.8855167,5.6624265 10.087243,5.681733 c 0.274597,0.026281 0.285894,0.041858 0.326764,0.4505553 0.03143,0.3142761 0.05665,0.3742576 0.09791,0.2328333 0.04443,-0.1523007 0.117117,-0.1905 0.362491,-0.1905 0.203988,0 0.324453,0.045699 0.359207,0.1362675 0.04806,0.1252455 0.05846,0.1252455 0.12855,0 0.08401,-0.1501098 0.491407,-0.1825718 0.725161,-0.057781 0.08086,0.043167 0.213692,0.099122 0.295184,0.1243428 0.115043,0.035605 0.148167,0.139775 0.148167,0.4659584 0,0.3712004 0.02218,0.4232513 0.1905,0.4471573 0.17203,0.024432 0.193017,0.080412 0.216461,0.5773886 0.01428,0.3026833 -0.0159,0.7912415 -0.06705,1.0856848 -0.09088,0.5230245 -0.08806,0.5392496 0.122205,0.7046451 0.18996,0.1494227 0.215222,0.2321046 0.215222,0.7044229 0,0.397567 0.03265,0.547658 0.127,0.583864 0.08332,0.03197 0.127,0.16411 0.127,0.38417 0,0.283398 0.02955,0.339633 0.1905,0.362491 0.200257,0.02844 0.206395,0.06169 0.226674,1.227931 0.0056,0.321677 0.02754,0.35667 0.238993,0.381 0.21271,0.02448 0.235045,0.06109 0.258422,0.423648 0.02158,0.334741 0.05471,0.401002 0.211667,0.423333 0.160537,0.02284 0.189578,0.08714 0.211581,0.46844 0.01403,0.243079 -0.01589,0.519304 -0.06648,0.613833 -0.05143,0.0961 -0.05733,0.17187 -0.01339,0.17187 0.04322,0 0.101365,-0.05936 0.129204,-0.131906 0.03727,-0.09713 0.145698,-0.125031 0.411225,-0.105833 l 0.360608,0.02607 0.02559,0.39697 c 0.02325,0.360655 0.04649,0.399382 0.254,0.423333 0.197108,0.02275 0.232008,0.06987 0.254685,0.343864 0.03184,0.384718 0.225345,0.423796 0.524056,0.105833 0.143848,-0.153119 0.28706,-0.211666 0.517762,-0.211666 0.1754,0 0.343247,0.03938 0.372991,0.0875 0.06584,0.106529 0.379247,-0.270056 0.379247,-0.455694 0,-0.0714 0.0381,-0.153363 0.08467,-0.182143 0.04657,-0.02878 0.08467,-0.127766 0.08467,-0.21997 0,-0.124034 0.153892,-0.241393 0.591601,-0.45116 0.872077,-0.417931 1.358448,-0.754208 1.723649,-1.191733 0.291855,-0.349653 0.357637,-0.387389 0.635,-0.364266 l 0.309417,0.0258 0.02559,0.493432 0.02559,0.493432 0.252972,-0.349217 0.252972,-0.349218 0.525773,0.02512 0.525772,0.02512 0.02693,0.328391 c 0.01481,0.180616 -0.02021,0.442194 -0.07782,0.581285 -0.09017,0.217692 -0.08508,0.263901 0.03657,0.331982 0.105028,0.05878 0.141324,0.197606 0.141324,0.540549 0,0.387924 0.02429,0.461459 0.1524,0.461459 0.08382,0 0.188595,0.03538 0.232834,0.07863 0.04424,0.04325 0.213471,0.09087 0.376073,0.105833 0.216676,0.01994 0.303999,0.07243 0.326938,0.196537 0.01721,0.09313 0.0842,0.199802 0.14886,0.237041 0.07406,0.04265 0.117511,0.214954 0.117425,0.465666 l -1.7e-4,0.39796 h 0.402304 c 0.373718,0 0.404173,0.01618 0.4286,0.227704 0.02032,0.175979 0.07802,0.233678 0.254,0.254 0.182815,0.02111 0.233325,0.07637 0.256217,0.280296 0.01568,0.1397 0.08236,0.284468 0.148166,0.321707 0.06581,0.03724 0.119654,0.118887 0.119654,0.181441 0,0.06255 0.05715,0.135665 0.127,0.16247 0.160633,0.06164 0.178846,0.802155 0.02117,0.860571 -0.05821,0.02156 -0.467783,0.01084 -0.910167,-0.02382 l -0.804333,-0.06303 -0.02576,-0.308827 c -0.0185,-0.22178 -0.07219,-0.320968 -0.1905,-0.351906 -0.124622,-0.0326 -0.164707,-0.117114 -0.164707,-0.34734 0,-0.278682 -0.02046,-0.30426 -0.243416,-0.30426 -0.197711,0 -0.25224,0.04372 -0.290404,0.232833 -0.02584,0.128058 -0.07008,0.292463 -0.0983,0.365345 -0.04234,0.10934 0.01954,0.131548 0.353903,0.127 l 0.405218,-0.0055 0.0034,0.525491 c 0.0019,0.28902 0.03043,0.552545 0.0635,0.585611 0.08626,0.08626 0.07413,0.661353 -0.01912,0.906625 -0.05698,0.149859 -0.04584,0.252509 0.03964,0.365345 0.06538,0.08631 0.120092,0.322984 0.121574,0.525942 0.0024,0.33317 -0.03637,0.405041 -0.399474,0.73993 -0.303707,0.280108 -0.470185,0.371138 -0.679991,0.37182 -0.362867,0.0012 -0.397918,-0.11125 -0.298527,-0.957549 0.06716,-0.571853 0.06015,-0.708281 -0.04021,-0.782821 -0.08603,-0.06389 -0.112665,-0.217443 -0.09116,-0.525451 0.02998,-0.429342 0.02698,-0.435512 -0.223612,-0.46006 l -0.254,-0.02488 0.02685,-0.656166 c 0.02429,-0.593735 0.0118,-0.656167 -0.131233,-0.656167 -0.08694,0 -0.198977,-0.0409 -0.248965,-0.09089 -0.144832,-0.144833 -0.577096,0.679973 -0.457471,0.872903 0.126178,0.2035 0.116088,0.97058 -0.01382,1.05087 -0.07083,0.04378 -0.03641,0.08096 0.105833,0.114301 0.18868,0.04423 0.213414,0.09795 0.235576,0.511683 0.03639,0.679274 -0.04712,0.750368 -0.913762,0.777918 l -0.719667,0.02288 5.93e-4,-0.97832 c 5.08e-4,-0.752244 0.03185,-1.026159 0.135783,-1.185334 0.07435,-0.113857 0.157488,-0.321313 0.184759,-0.461013 0.114031,-0.584111 0.172877,-0.7692 0.285955,-0.899406 0.10478,-0.120654 0.09694,-0.143262 -0.06429,-0.185426 -0.167187,-0.04372 -0.180102,-0.09048 -0.144288,-0.522355 0.02164,-0.260885 0.0075,-0.494018 -0.03143,-0.518071 -0.170936,-0.105645 -0.06014,-0.717031 0.228554,-1.261218 0.325101,-0.612807 0.297707,-0.618249 -0.350779,-0.06968 -0.387413,0.327719 -0.477765,0.365827 -0.867373,0.365827 -0.421931,0 -0.450331,0.01579 -0.951611,0.529167 -0.284185,0.291041 -0.619656,0.681566 -0.745492,0.867833 -0.212472,0.314509 -0.258688,0.339506 -0.647927,0.350429 -0.230525,0.0065 -0.523911,0.016 -0.651969,0.02117 l -0.232815,0.0094 v 0.689166 c 0,0.547686 0.0292,0.710518 0.142238,0.793173 0.124113,0.09075 0.132204,0.183638 0.0635,0.729 -0.114723,0.910632 -0.08833,1.005994 0.278431,1.005994 0.234261,0 0.367466,0.06632 0.586778,0.292136 0.252671,0.260168 0.28372,0.343557 0.28372,0.762 v 0.469864 h 0.367877 c 0.407494,0 0.61379,0.158238 0.66157,0.507456 0.02179,0.159255 0.09129,0.221749 0.282886,0.25438 0.226489,0.03857 0.256975,0.0799 0.28147,0.381544 0.01554,0.19131 0.0836,0.369768 0.156659,0.410746 0.108654,0.06094 0.120148,0.208974 0.07231,0.931333 -0.03128,0.472381 -0.075,0.923142 -0.09717,1.001691 -0.03191,0.113122 0.02656,0.14833 0.281216,0.169333 0.314674,0.02595 0.322073,0.03442 0.348124,0.398257 0.0205,0.286343 -0.03299,0.483564 -0.232833,0.858518 -0.213463,0.400497 -0.25945,0.584978 -0.25945,1.040803 0,0.541451 0.0053,0.554633 0.232833,0.580815 0.195102,0.02245 0.2372,0.07228 0.259777,0.307487 0.01482,0.154384 -0.01842,0.335359 -0.07387,0.402167 -0.136339,0.164279 0.02483,0.356541 0.328286,0.39161 0.21961,0.02538 0.227405,0.04507 0.25141,0.634931 l 0.02477,0.608738 0.27156,0.02626 c 0.253428,0.02451 0.273284,0.04997 0.297363,0.381335 0.01486,0.204446 -0.03004,0.463061 -0.105833,0.609629 -0.180835,0.349696 -0.164937,0.412803 0.03876,0.153849 0.162609,-0.206725 0.206114,-0.215948 0.9525,-0.201918 l 0.782107,0.0147 0.02592,0.405062 c 0.01574,0.245933 -0.02588,0.508898 -0.105937,0.669382 -0.128738,0.258061 -0.128045,0.260868 0.02927,0.118499 0.108492,-0.09818 0.267568,-0.137075 0.486937,-0.119049 0.28027,0.02303 0.329403,0.05779 0.351542,0.248691 0.02439,0.21027 0.04575,0.219662 0.40707,0.178936 0.333935,-0.03764 0.387055,-0.02109 0.427384,0.133123 0.02934,0.112189 0.127431,0.185528 0.270264,0.202064 0.185528,0.02148 0.228861,0.0744 0.251159,0.306696 0.02173,0.226382 0.04934,0.262147 0.142635,0.184723 0.06363,-0.05281 0.242004,-0.08389 0.396388,-0.06907 0.264717,0.02541 0.282179,0.04743 0.306732,0.386779 l 0.02604,0.359836 0.385917,-0.215456 c 0.318151,-0.177621 0.477119,-0.211073 0.905298,-0.190502 0.496407,0.02385 0.520566,0.03524 0.546152,0.25758 0.02628,0.228353 0.08825,0.265186 0.565896,0.336338 0.136478,0.02033 0.174233,0.100479 0.194586,0.413086 0.02339,0.359322 1.4e-5,0.410664 -0.317744,0.697739 -0.344374,0.311121 -0.790487,0.4167 -0.981742,0.232345 -0.148854,-0.143486 -0.599268,-0.131915 -0.833263,0.0214 -0.133401,0.08741 -0.343923,0.139816 -0.50068,0.124643 -0.22379,-0.02166 -0.27509,-0.06612 -0.297135,-0.257501 l -0.02664,-0.231318 -0.234498,0.173372 c -0.325591,0.24072 -0.970265,0.203601 -1.007624,-0.05802 -0.01904,-0.133369 -0.07249,-0.168947 -0.213348,-0.142021 -0.103366,0.01976 -0.453881,-7.62e-4 -0.778923,-0.04554 -0.534809,-0.07372 -0.608212,-0.06568 -0.772221,0.08458 -0.123096,0.112776 -0.27248,0.157309 -0.465666,0.138819 -0.254951,-0.0244 -0.287272,-0.05696 -0.311836,-0.314104 -0.0366,-0.38311 0.02431,-0.596213 0.276707,-0.96814 0.116193,-0.171222 0.18717,-0.311311 0.157725,-0.311311 -0.114562,0 -0.935485,0.561055 -1.326351,0.906488 -0.309187,0.273248 -0.481392,0.363512 -0.693504,0.363512 -0.155198,0 -0.30726,-0.04058 -0.337914,-0.09018 -0.03673,-0.05944 -0.107904,-0.04297 -0.208744,0.04829 -0.09494,0.08592 -0.260437,0.128178 -0.436095,0.111348 -0.270145,-0.02588 -0.285022,-0.0454 -0.325419,-0.426936 -0.04892,-0.461996 -0.05994,-0.458221 -0.624218,0.213807 -0.379136,0.45153 -0.437426,0.489247 -0.719667,0.465666 -0.288374,-0.02409 -0.308719,-0.04503 -0.333393,-0.343158 -0.02421,-0.292463 -0.04684,-0.3175 -0.286999,-0.3175 -0.264035,0 -0.431275,0.140028 -0.574223,0.480786 -0.07145,0.170332 -0.136424,0.184452 -0.848738,0.184452 -0.692477,0 -0.777727,-0.01721 -0.833623,-0.168312 -0.05594,-0.151222 -0.08339,-0.135561 -0.270357,0.154214 -0.172809,0.267839 -0.263003,0.327048 -0.531927,0.349191 -0.269103,0.02216 -0.331639,-0.0032 -0.370019,-0.149951 -0.03844,-0.14698 -0.06769,-0.158766 -0.17436,-0.07024 -0.07049,0.05851 -0.21872,0.24981 -0.329387,0.425118 -0.166759,0.264162 -0.249359,0.318743 -0.482374,0.318743 -0.154638,0 -0.30656,-0.0254 -0.337604,-0.05644 z m 4.21652,-3.922888 c 0.234706,0 0.32,0.04192 0.372158,0.18292 0.05791,0.156553 0.07544,0.162655 0.121615,0.04233 0.02967,-0.07732 0.111415,-0.140587 0.181653,-0.140587 0.07024,0 0.190116,-0.09525 0.266395,-0.211666 0.170036,-0.259508 0.652985,-0.298339 0.789766,-0.0635 0.07557,0.129738 0.08662,0.131048 0.08887,0.01053 0.003,-0.161919 0.334907,-0.898447 0.632039,-1.402663 l 0.209176,-0.354962 -0.313487,-0.02604 -0.313487,-0.02604 V 31.82861 c 0,-0.363897 -0.03238,-0.478949 -0.148167,-0.526439 -0.263772,-0.108188 -0.194325,-0.719203 0.145975,-1.284326 0.310523,-0.515675 0.324445,-0.556728 0.308557,-0.909861 -0.0066,-0.146637 -0.068,-0.238116 -0.179365,-0.26724 -0.21112,-0.05521 -0.220045,-0.392067 -0.03749,-1.414801 0.244935,-1.372181 0.248623,-1.493319 0.04707,-1.546026 -0.154685,-0.04045 -0.178915,-0.109699 -0.178915,-0.511322 0,-0.320122 -0.03686,-0.478678 -0.118563,-0.510031 -0.06521,-0.02502 -0.143199,-0.191324 -0.173311,-0.369557 l -0.05475,-0.32406 -0.525189,6.78e-4 -0.525188,6.77e-4 v -0.656234 -0.656234 l -0.304492,6.8e-5 c -0.167471,3.6e-5 -0.419403,-0.05726 -0.559848,-0.127322 -0.283035,-0.141196 -0.292763,-0.189226 -0.41488,-2.04837 l -0.05671,-0.863427 -0.3057,-0.02557 c -0.259792,-0.02173 -0.309598,-0.05925 -0.331659,-0.249786 -0.01586,-0.137023 -0.08994,-0.240945 -0.1905,-0.26724 -0.132819,-0.03476 -0.164541,-0.118035 -0.164541,-0.431981 0,-0.373961 -0.0096,-0.388926 -0.249003,-0.388926 -0.136952,0 -0.27255,-0.0381 -0.30133,-0.08467 -0.02878,-0.04657 -0.234673,-0.08467 -0.457541,-0.08467 -0.304253,0 -0.445347,0.04435 -0.566287,0.177983 -0.13025,0.143925 -0.230393,0.17017 -0.523326,0.137153 -0.334446,-0.0377 -0.381583,-0.01738 -0.614054,0.264646 -0.240863,0.292208 -0.244446,0.308198 -0.08246,0.368119 0.155745,0.05761 0.169232,0.139316 0.168015,1.017871 -7.62e-4,0.539047 -0.05476,1.176558 -0.123984,1.463228 -0.06746,0.2794 -0.124019,0.705611 -0.125678,0.947136 -0.003,0.434267 3.5e-5,0.43943 0.272151,0.465666 l 0.275167,0.02653 0.0087,0.762 c 0.0048,0.4191 0.03874,0.832083 0.07546,0.91774 0.03673,0.08566 0.04371,0.454821 0.01552,0.820364 l -0.05125,0.664621 0.27212,0.0263 c 0.266761,0.02579 0.272099,0.03464 0.27104,0.449637 -5.93e-4,0.232833 -0.03024,0.504336 -0.06588,0.603338 -0.05051,0.140312 -0.02693,0.189905 0.106915,0.224907 0.129602,0.03389 0.171461,0.11432 0.170702,0.327995 -0.0015,0.437632 -0.224179,1.172841 -0.417435,1.378551 -0.236244,0.25147 -0.21898,0.369812 0.05861,0.401752 0.226468,0.02606 0.232557,0.04068 0.222729,0.53479 -0.0073,0.367123 -0.07187,0.628807 -0.232833,0.94363 -0.267333,0.522867 -0.272858,0.589845 -0.0534,0.647236 0.138423,0.0362 0.169333,0.115486 0.169333,0.434357 0,0.376838 -0.02051,0.450063 -0.247732,0.884593 -0.07519,0.143795 -0.07893,0.226387 -0.01322,0.2921 0.05039,0.05039 0.09162,0.160198 0.09162,0.244018 0,0.171817 0.09123,0.196636 0.2263,0.06157 0.04996,-0.04996 0.219505,-0.07854 0.376767,-0.0635 0.24285,0.02321 0.29006,0.06335 0.313324,0.266392 0.01506,0.131481 0.09824,0.309907 0.184834,0.3965 0.137795,0.137795 0.170446,0.141779 0.261622,0.03192 0.06866,-0.08273 0.222123,-0.116882 0.450165,-0.100168 0.303514,0.02225 0.349175,0.05288 0.371947,0.24957 0.01586,0.137023 0.08994,0.240944 0.1905,0.26724 0.0905,0.02367 0.165993,0.11327 0.167768,0.199122 0.0024,0.114068 0.114872,0.03642 0.417904,-0.288407 0.351662,-0.376955 0.460945,-0.4445 0.719167,-0.4445 z M 5.8980802,17.668121 c -0.023488,-0.05821 -0.042705,-0.01058 -0.042705,0.105834 0,0.116416 0.019217,0.164041 0.042705,0.105833 0.023487,-0.05821 0.023487,-0.153458 0,-0.211667 z m 1.1453294,-0.02117 c 0.029829,-0.255513 0.010121,-0.296334 -0.1430692,-0.296334 -0.1531902,0 -0.1728987,0.04082 -0.1430691,0.296334 0.019434,0.166468 0.082133,0.296333 0.1430691,0.296333 0.060936,0 0.123635,-0.129865 0.1430692,-0.296333 z M 6.5438725,17.181288 c -0.024355,-0.09313 -0.052983,-0.169333 -0.063618,-0.169333 -0.010635,0 -0.088296,0.0762 -0.1725809,0.169333 -0.1494548,0.165146 -0.1478816,0.169333 0.063618,0.169333 0.1751785,0 0.2083509,-0.03255 0.1725809,-0.169333 z m 5.4788015,-1.479551 c 0,-0.06869 0.165219,-0.200149 0.367154,-0.292141 0.201935,-0.09199 0.41615,-0.226295 0.476034,-0.29845 0.05988,-0.07216 0.199464,-0.131191 0.310178,-0.131191 0.15688,0 0.201301,-0.04552 0.201301,-0.206303 0,-0.170865 -0.04727,-0.210859 -0.275167,-0.232833 -0.263282,-0.02538 -0.276273,-0.04368 -0.300767,-0.423664 -0.0244,-0.378527 -0.03828,-0.39836 -0.296333,-0.423333 -0.254618,-0.02464 -0.272317,-0.0483 -0.297331,-0.397537 -0.01463,-0.204235 0.01395,-0.41188 0.0635,-0.461433 0.04955,-0.04955 0.0901,-0.23131 0.0901,-0.403904 0,-0.281274 -0.01975,-0.309507 -0.1905,-0.272333 -0.104775,0.02281 -0.268671,0.07879 -0.364215,0.124398 -0.09554,0.04561 -0.362244,0.071 -0.592667,0.05643 L 10.79501,12.312953 V 11.95301 c 0,-0.231568 -0.03775,-0.359904 -0.105833,-0.359833 -0.06215,6.4e-5 -0.10741,0.113685 -0.109652,0.275276 -0.0021,0.151341 -0.04973,0.381937 -0.105834,0.512433 -0.06143,0.142876 -0.09118,0.519804 -0.07477,0.947463 0.02683,0.699297 0.03073,0.710598 0.254,0.736399 0.212773,0.02459 0.228313,0.05593 0.252002,0.50817 l 0.02525,0.481966 0.31342,0.02603 c 0.303429,0.0252 0.31425,0.0375 0.339455,0.385868 0.02301,0.318013 0.05007,0.359833 0.232833,0.359833 0.125819,0 0.206799,-0.0489 0.206799,-0.124884 z M 9.1440071,10.323288 c 0.093133,-0.09313 0.1693333,-0.228988 0.1693333,-0.301899 0,-0.072912 0.040744,-0.2086971 0.090542,-0.3017457 0.065853,-0.1230482 0.063148,-0.2021868 -0.00992,-0.2902298 -0.069208,-0.08339 -0.08211,-0.2924321 -0.04147,-0.6719212 L 9.411485,8.2066216 H 9.1146139 c -0.2500132,0 -0.3184262,0.043208 -0.4334345,0.2737476 -0.07511,0.1505612 -0.158909,0.4875397 -0.1862204,0.748841 -0.040834,0.390683 -0.025194,0.4844807 0.088029,0.5279284 0.095631,0.036697 0.137686,0.1570906 0.137686,0.3941594 0,0.390142 0.1459042,0.449419 0.4233331,0.17199 z M 11.73548,10.090455 c 0.06186,-0.08149 0.113686,-0.2865982 0.115168,-0.4557921 0.0021,-0.2434731 -0.03475,-0.3174158 -0.176839,-0.3545737 -0.164759,-0.043085 -0.176621,-0.092666 -0.144154,-0.6025414 l 0.03538,-0.5555929 H 11.12152 c -0.243934,0 -0.469146,-0.04147 -0.500472,-0.092156 -0.116405,-0.188347 -0.248748,0.3034302 -0.2212,0.8219606 0.02491,0.4689439 0.04939,0.5332758 0.211666,0.5563911 0.138312,0.019702 0.190029,0.093894 0.210027,0.3013041 0.02434,0.2524484 0.05077,0.2751667 0.320157,0.2751667 0.182897,0 0.312005,0.047893 0.342361,0.1269996 0.06308,0.164391 0.113808,0.160121 0.251424,-0.02117 z"
         id="path869"
         inkscape:label="light purple" />
      <path
         style="display:inline;fill:#480661;stroke-width:0.0846667"
         d="m 15.130505,34.484897 c -0.03291,-0.03291 -0.05983,-0.173687 -0.05983,-0.312843 0,-0.236684 -0.0097,-0.24426 -0.149851,-0.117398 -0.105747,0.0957 -0.303785,0.133431 -0.67286,0.128197 -0.498494,-0.0071 -0.524211,-0.01777 -0.54865,-0.228324 -0.02111,-0.181849 -0.07527,-0.225673 -0.306336,-0.247852 -0.154384,-0.01482 -0.33628,0.01919 -0.404213,0.07556 -0.06793,0.05638 -0.148972,0.07705 -0.180085,0.04594 -0.09714,-0.09714 -0.06177,-0.894994 0.04438,-1.001145 0.05552,-0.05552 0.100949,-0.287396 0.100949,-0.515275 0,-0.343122 -0.0291,-0.421937 -0.169333,-0.458608 -0.219462,-0.05739 -0.213937,-0.124369 0.0534,-0.647236 0.160962,-0.314823 0.225531,-0.576507 0.232833,-0.94363 0.0098,-0.494111 0.0037,-0.508732 -0.222729,-0.53479 -0.277587,-0.03194 -0.294851,-0.150282 -0.05861,-0.401752 0.193256,-0.20571 0.415882,-0.940919 0.417435,-1.378551 7.62e-4,-0.213675 -0.0411,-0.294104 -0.170702,-0.327995 -0.133846,-0.035 -0.157421,-0.08459 -0.106915,-0.224907 0.03564,-0.099 0.06528,-0.370505 0.06588,-0.603338 0.0011,-0.414995 -0.0043,-0.423851 -0.27104,-0.449637 l -0.27212,-0.0263 0.05125,-0.664621 c 0.02819,-0.365543 0.02121,-0.734705 -0.01552,-0.820364 -0.03672,-0.08566 -0.07068,-0.49864 -0.07546,-0.91774 -0.0086,-0.756457 -0.01031,-0.762187 -0.230406,-0.787718 -0.19982,-0.02318 -0.226601,-0.06915 -0.271238,-0.465667 -0.02981,-0.264793 -0.0011,-0.642197 0.07222,-0.947949 0.137179,-0.572385 0.167965,-2.335562 0.04296,-2.460565 -0.05213,-0.05213 -0.0042,-0.180081 0.133137,-0.3556 0.174324,-0.222746 0.274476,-0.274168 0.533976,-0.274168 0.211882,0 0.370997,-0.057 0.472653,-0.169333 0.11258,-0.1244 0.260771,-0.169334 0.558459,-0.169334 0.222868,0 0.428761,0.0381 0.457541,0.08467 0.02878,0.04657 0.164378,0.08467 0.30133,0.08467 0.239422,0 0.249003,0.01496 0.249003,0.388926 0,0.313946 0.03172,0.397222 0.164541,0.431955 0.09958,0.02604 0.17479,0.130225 0.1905,0.263892 0.01759,0.149609 0.08903,0.235602 0.221456,0.266545 0.107524,0.02512 0.193249,0.07426 0.1905,0.109182 -0.02208,0.28061 0.01228,0.402166 0.11369,0.402166 0.121342,0 0.151421,0.181128 0.270446,1.628534 0.05121,0.622736 0.06647,0.661162 0.311034,0.783167 0.14145,0.07056 0.363295,0.128299 0.492987,0.128299 0.249404,0 0.285671,0.104769 0.351706,1.016 0.02101,0.289951 0.03014,0.296889 0.42364,0.322139 0.395256,0.02536 0.402167,0.03072 0.402167,0.311612 0,0.231929 0.03591,0.290905 0.1905,0.312861 0.153021,0.02173 0.19567,0.08952 0.216778,0.344555 0.01445,0.174625 0.06208,0.3175 0.105833,0.3175 0.04376,0 0.07956,0.07977 0.07956,0.17726 0,0.106055 0.06802,0.195047 0.169333,0.221541 0.191036,0.04996 0.227295,0.350694 0.0763,0.632833 -0.05117,0.09561 -0.102205,0.35028 -0.113415,0.565934 -0.01121,0.215654 -0.05131,0.689433 -0.08911,1.052841 -0.06585,0.633071 -0.0611,0.662739 0.113414,0.708375 0.12431,0.03251 0.185329,0.118426 0.192176,0.27059 0.01589,0.353133 0.002,0.394186 -0.308557,0.909861 -0.3403,0.565123 -0.409747,1.176138 -0.145975,1.284326 0.115785,0.04749 0.148167,0.162542 0.148167,0.526439 v 0.465666 l 0.313487,0.02604 0.313487,0.02604 -0.209176,0.354962 c -0.297132,0.504216 -0.62901,1.240744 -0.632039,1.402663 -0.0023,0.120513 -0.01331,0.119203 -0.08887,-0.01053 -0.129713,-0.222703 -0.616054,-0.196426 -0.783495,0.04233 -0.102745,0.146509 -0.150847,0.165135 -0.2083,0.08066 -0.06062,-0.08913 -0.09326,-0.08748 -0.173112,0.0087 -0.06968,0.08396 -0.221562,0.106741 -0.520269,0.07804 -0.317914,-0.03055 -0.433459,-0.01031 -0.468929,0.08212 -0.04967,0.129444 -0.800134,0.211372 -0.911949,0.09956 z m 0.25766,-2.381592 c 0.131825,-0.08637 0.307387,-0.11197 0.547297,-0.07979 0.262038,0.03515 0.409099,0.0077 0.569712,-0.106206 0.119076,-0.08447 0.291702,-0.167884 0.383615,-0.185366 0.121467,-0.0231 0.183484,-0.127671 0.22704,-0.382815 0.03296,-0.193067 0.141267,-0.529584 0.240683,-0.747816 0.169825,-0.372789 0.171935,-0.403237 0.03489,-0.503449 -0.115791,-0.08467 -0.135235,-0.184251 -0.09429,-0.482946 0.02837,-0.206956 0.07549,-0.438594 0.10471,-0.51475 0.04163,-0.108486 -0.0079,-0.144322 -0.228837,-0.165506 l -0.281972,-0.02704 0.0085,-0.46652 c 0.0047,-0.256587 0.06921,-0.583946 0.143429,-0.727467 0.09847,-0.190414 0.121704,-0.389205 0.08597,-0.735454 -0.04478,-0.433878 -0.06794,-0.476707 -0.27043,-0.5002 -0.205876,-0.02388 -0.221455,-0.05547 -0.221455,-0.449026 0,-0.323579 -0.03491,-0.437654 -0.148166,-0.484105 -0.100991,-0.04142 -0.148167,-0.154364 -0.148167,-0.354722 0,-0.27856 -0.01662,-0.295327 -0.3175,-0.320228 -0.314439,-0.02603 -0.317749,-0.03016 -0.343306,-0.428445 -0.02357,-0.367397 -0.04439,-0.402166 -0.24076,-0.402166 -0.141662,0 -0.229625,-0.0561 -0.257982,-0.164542 -0.0263,-0.100557 -0.130218,-0.174636 -0.26724,-0.1905 -0.178578,-0.02068 -0.230051,-0.07734 -0.252897,-0.278428 -0.01578,-0.138858 0.01616,-0.40216 0.07098,-0.585116 0.08521,-0.284389 0.08015,-0.343564 -0.03481,-0.407904 -0.07396,-0.04139 -0.134478,-0.145121 -0.134478,-0.230509 0,-0.08539 -0.0762,-0.175178 -0.169333,-0.199534 -0.143333,-0.03748 -0.169334,-0.115486 -0.169334,-0.507999 0,-0.399584 -0.02454,-0.470137 -0.17745,-0.510123 -0.149817,-0.03918 -0.174415,-0.103343 -0.157963,-0.412041 0.03878,-0.727702 0.05506,-0.705875 -0.514829,-0.690511 -0.794011,0.0214 -0.823212,0.08322 -0.70424,1.490656 0.04455,0.527053 0.08218,0.64832 0.211666,0.682182 0.136949,0.03581 0.157483,0.129349 0.157483,0.717384 0,0.522964 0.02878,0.687245 0.127,0.724936 0.159053,0.06103 0.171557,0.731692 0.02393,1.283646 -0.08098,0.302775 -0.08098,0.42073 0,0.5504 0.05669,0.09077 0.103068,0.351611 0.103068,0.579646 0,0.345874 0.02858,0.422082 0.172417,0.459695 0.163789,0.04283 0.171517,0.101842 0.154436,1.179189 -0.0099,0.623754 0.0035,1.169884 0.02967,1.213619 0.02621,0.04374 0.07436,0.423141 0.107005,0.843121 0.05111,0.657595 0.03381,0.842637 -0.124581,1.332927 -0.101161,0.313128 -0.218809,0.590882 -0.261439,0.617228 -0.188003,0.116192 -0.04619,0.207358 0.324657,0.208707 0.312138,0.0011 0.444811,0.04645 0.592666,0.202433 0.104775,0.110534 0.1905,0.234708 0.1905,0.275941 0,0.114698 0.690786,0.02325 0.910158,-0.120486 z M 11.583042,15.466788 c -0.02527,-0.349281 -0.03535,-0.360604 -0.343535,-0.386111 l -0.3175,-0.02628 v -0.495964 c 0,-0.629052 -0.05388,-0.763814 -0.305392,-0.763814 -0.192699,0 -0.203098,-0.02795 -0.212634,-0.5715 -0.0055,-0.314325 7.53e-4,-0.6096 0.01392,-0.656166 0.01317,-0.04657 0.06444,-0.246592 0.113943,-0.4445 0.107397,-0.42941 0.200191,-0.462611 0.236632,-0.08467 0.02593,0.268947 0.03673,0.275751 0.477904,0.300996 0.275989,0.01579 0.501609,-0.01586 0.580662,-0.08147 0.106245,-0.08818 0.148184,-0.08146 0.235295,0.03767 0.0583,0.07973 0.14943,0.144971 0.202504,0.144971 0.121753,0 0.126212,0.275087 0.0064,0.394897 -0.04955,0.04955 -0.07813,0.257198 -0.0635,0.461433 0.02501,0.349233 0.04271,0.372896 0.29733,0.397537 0.25805,0.02497 0.271933,0.04481 0.296334,0.423333 0.02449,0.37998 0.03748,0.398279 0.300766,0.423664 0.2279,0.02197 0.275167,0.06197 0.275167,0.232833 0,0.160778 -0.04442,0.206303 -0.2013,0.206303 -0.110715,0 -0.250295,0.05904 -0.310178,0.131191 -0.05988,0.07216 -0.274099,0.206458 -0.476034,0.29845 -0.201934,0.09199 -0.367153,0.223455 -0.367153,0.292141 0,0.07598 -0.08098,0.124884 -0.206799,0.124884 -0.182764,0 -0.209824,-0.04182 -0.232833,-0.359833 z"
         id="path867"
         inkscape:label="dark purple" />
      <path
         style="display:inline;fill:#141414;stroke-width:0.0846667"
         d="m 8.7206738,10.151298 c 0,-0.2370688 -0.042056,-0.3574625 -0.137686,-0.3941594 C 8.4697647,9.7136909 8.4541246,9.6198932 8.494959,9.2292102 8.5222704,8.9679089 8.6060696,8.6309304 8.6811794,8.4803692 8.7961877,8.2498297 8.8646007,8.2066216 9.1146139,8.2066216 H 9.411485 L 9.352492,8.7574923 c -0.04064,0.3794891 -0.027738,0.5885308 0.04147,0.6719212 0.073069,0.088043 0.075774,0.1671816 0.00992,0.2902298 -0.049798,0.093049 -0.090542,0.2288341 -0.090542,0.3017457 0,0.168649 -0.2990089,0.471232 -0.4656666,0.471232 -0.091887,0 -0.127,-0.09437 -0.1269996,-0.341323 z m 2.7633822,-0.03968 c -0.03036,-0.07911 -0.159464,-0.1269995 -0.342361,-0.1269995 -0.269383,0 -0.295816,-0.022718 -0.320157,-0.2751667 -0.02,-0.2074099 -0.07172,-0.2816026 -0.210027,-0.3013041 -0.162279,-0.023115 -0.186752,-0.087447 -0.211666,-0.5563911 -0.02755,-0.5185304 0.104795,-1.0103076 0.2212,-0.8219606 0.03133,0.050686 0.256538,0.092156 0.500472,0.092156 h 0.443515 l -0.03538,0.5555929 c -0.03247,0.5098756 -0.0206,0.559456 0.144154,0.6025414 0.142092,0.037158 0.17897,0.1111006 0.176839,0.3545737 -0.0024,0.2742688 -0.15129,0.603958 -0.27275,0.603958 -0.02481,0 -0.06704,-0.05715 -0.09384,-0.127 z"
         id="path865"
         inkscape:label="black" />
      <path
         style="display:inline;fill:#000000;stroke-width:0.0846667"
         d="M 4.4328502,37.722952 C 4.2371417,37.499476 4.064007,37.079461 4.064007,36.828158 c 0,-0.230708 0.027171,-0.258204 0.2551489,-0.258204 0.1403319,0 0.3250814,0.04367 0.4105545,0.09705 0.2252343,0.140661 0.5592749,0.02699 0.8886685,-0.302402 0.4312208,-0.431221 0.7814353,-0.574859 1.5770652,-0.646823 1.124724,-0.10173 1.3365498,-0.166057 2.0031751,-0.608327 0.19302,-0.128059 0.393045,-0.232834 0.4445,-0.232834 0.051455,0 0.093555,-0.02989 0.093555,-0.06641 0,-0.03653 0.1087934,-0.130678 0.2417629,-0.209225 0.3262959,-0.192748 1.1129029,-0.995508 1.1129029,-1.135758 0,-0.06193 0.0381,-0.112605 0.08467,-0.112605 0.04657,0 0.08467,-0.093 0.08467,-0.20667 0,-0.113668 0.03247,-0.226738 0.07216,-0.251266 0.127483,-0.07879 0.220697,-1.237354 0.222013,-2.759398 0.0011,-1.329061 -0.02322,-1.58631 -0.236562,-2.497666 -0.130813,-0.5588 -0.27349,-1.178472 -0.317059,-1.377048 -0.04357,-0.198577 -0.08055,-1.341577 -0.08219,-2.54 -0.003,-2.202902 -0.05387,-2.7024 -0.364043,-3.574969 -0.0743,-0.209009 -0.174511,-0.393159 -0.2227,-0.409222 -0.04819,-0.01606 -0.08766,-0.07366 -0.08772,-0.127983 -5.6e-5,-0.05433 -0.08578,-0.19581 -0.1905,-0.314406 C 9.9124302,19.133583 9.7119049,19.049589 9.2710071,18.965992 8.5784449,18.834678 8.3205065,18.667951 7.4745805,17.804814 7.1384792,17.461875 6.8051042,17.181288 6.7337471,17.181288 c -0.099244,0 -0.12974,0.09951 -0.12974,0.423333 0,0.232833 0.0381,0.423333 0.084667,0.423333 0.046567,0 0.084667,0.1 0.084667,0.222213 0,0.155521 0.1270545,0.34532 0.4233334,0.632392 0.3579468,0.346825 0.4233333,0.458607 0.4233333,0.723716 0,0.172446 -0.066675,0.46169 -0.1481667,0.642765 -0.1471023,0.326864 -0.151144,0.328968 -0.562654,0.292983 -0.4313422,-0.03772 -0.6797003,-0.237935 -0.755524,-0.609069 -0.020261,-0.09917 -0.039373,-0.05532 -0.046125,0.105834 -0.00634,0.151341 0.017906,0.275166 0.053883,0.275166 0.035977,0 0.1379933,0.134774 0.2267023,0.299496 0.093886,0.174336 0.2876893,0.35825 0.4637535,0.440089 0.3860623,0.179451 0.4265938,0.243072 0.4281679,0.672086 9.466e-4,0.257867 -0.057928,0.423722 -0.2178965,0.613833 -0.195397,0.232217 -0.2692955,0.260496 -0.6807063,0.260496 -0.8626754,0 -1.4651584,-0.545941 -1.4744837,-1.336107 -0.00204,-0.173191 -0.05862,-0.467293 -0.1257251,-0.653559 -0.067105,-0.186267 -0.1225827,-0.420018 -0.1232838,-0.519446 -7.028e-4,-0.09943 -0.056933,-0.308979 -0.1249608,-0.465667 -0.1217494,-0.280427 -0.1237378,-0.273991 -0.127,0.411037 -0.00259,0.543351 0.033811,0.762022 0.1660194,0.997409 0.167671,0.298525 0.2469447,1.227667 0.1047435,1.227667 -0.035524,0 -0.1021994,0.08573 -0.1481667,0.1905 -0.045967,0.104775 -0.1597769,0.200862 -0.2529102,0.213526 -0.1805725,0.02456 -0.635,-0.317071 -0.635,-0.477377 0,-0.05279 -0.040082,-0.09598 -0.089071,-0.09598 -0.048989,0 -0.1289162,-0.1143 -0.1776158,-0.254 -0.0487,-0.1397 -0.1229178,-0.254 -0.1649291,-0.254 -0.1314061,0 -0.086742,-1.378769 0.05847,-1.804942 0.1313861,-0.385597 0.1283976,-0.820325 -0.010952,-1.593199 -0.044479,-0.24669 -0.00861,-0.389585 0.1806315,-0.719667 0.4794254,-0.836216 0.8797487,-1.687165 0.880267,-1.871143 0.00121,-0.430953 0.2221951,-0.982221 0.5253772,-1.310627 l 0.3166747,-0.34302 0.6420646,0.0412 c 0.5282123,0.0339 0.6641228,0.0727 0.7664601,0.218805 0.068418,0.09768 0.1711718,0.227096 0.2283428,0.287594 0.057171,0.0605 0.217705,0.262395 0.3567423,0.448661 0.1390373,0.186267 0.5009873,0.590288 0.8043334,0.897825 0.303346,0.307536 0.631748,0.650436 0.7297822,0.762 0.342418,0.389672 0.9084601,0.837842 1.0582017,0.837842 0.2444123,0 0.4053978,-0.305665 0.3257238,-0.618455 -0.07031,-0.276029 -0.2821953,-0.896949 -0.4101335,-1.201878 -0.039076,-0.09313 -0.1092627,-0.264584 -0.1559713,-0.381 -0.5635309,-1.404546 -1.1059923,-2.54 -1.213481,-2.54 -0.043404,0 -0.078917,-0.05001 -0.078917,-0.111139 0,-0.06113 -0.1726724,-0.299252 -0.3837163,-0.529167 -0.211044,-0.229915 -0.477744,-0.606133 -0.5926667,-0.83604 -0.2032937,-0.406696 -0.2089504,-0.468803 -0.2089504,-2.2941584 0,-2.0383596 0.027281,-2.183483 0.4860124,-2.585415 0.4789363,-0.419635 1.031045,-0.5876297 1.9184552,-0.5837444 0.7841656,0.00343 2.0401576,0.1764142 2.3025576,0.3171187 0.462042,0.2477572 0.904793,1.1427698 1.035318,2.0928783 0.231903,1.6880448 0.40611,2.6822738 0.519231,2.9633328 0.236847,0.588467 0.346152,0.904824 0.468052,1.354667 0.07571,0.2794 0.173671,0.625005 0.217684,0.768011 0.04401,0.143006 0.08002,0.317229 0.08002,0.387163 0,0.06993 0.107109,0.352978 0.23802,0.628989 0.130911,0.27601 0.287878,0.673287 0.348816,0.882837 0.137088,0.471404 0.34992,0.912769 0.501423,1.039833 0.151238,0.126841 1.63442,0.189795 1.841609,0.07817 0.146488,-0.07892 1.1692,-0.813403 1.473078,-1.057919 0.07,-0.05633 0.298604,-0.235482 0.508,-0.398119 0.209397,-0.162637 0.393421,-0.324562 0.408943,-0.359833 0.01552,-0.03527 0.06022,-0.06413 0.09932,-0.06413 0.0391,0 0.180224,-0.104775 0.3136,-0.232833 0.70336,-0.675319 1.066145,-0.788859 2.105611,-0.658986 0.56529,0.07063 0.801354,0.267946 1.128811,0.943536 0.395197,0.815345 0.713823,1.430667 0.762378,1.472283 0.02717,0.02328 0.150145,0.229402 0.273289,0.45804 0.267402,0.496484 0.961943,1.333768 1.257769,1.516269 0.360904,0.222648 0.839918,0.720991 0.891828,0.927814 0.02723,0.108493 0.03773,0.404774 0.02334,0.658402 l -0.02617,0.461141 -0.437396,0.02535 c -0.387566,0.02246 -0.455085,5.93e-4 -0.592667,-0.192079 -0.0854,-0.119584 -0.240949,-0.321489 -0.345667,-0.448679 -0.104719,-0.127189 -0.190444,-0.278878 -0.1905,-0.337087 -5.7e-5,-0.05821 -0.03962,-0.105833 -0.08793,-0.105833 -0.0483,0 -0.257097,-0.174167 -0.463983,-0.387037 -0.35926,-0.369651 -0.548859,-0.423937 -0.548859,-0.15715 0,0.06773 0.03499,0.189309 0.07775,0.270169 0.164248,0.310587 0.414191,0.932692 0.603329,1.501685 0.243735,0.73324 0.292108,2.130648 0.08092,2.33773 -0.448375,0.439663 -1.09706,0.567744 -1.267022,0.250169 -0.0482,-0.09007 -0.08765,-0.652584 -0.08765,-1.250029 0,-0.864617 -0.03295,-1.172395 -0.16147,-1.508399 -0.08881,-0.232176 -0.212633,-0.555488 -0.275166,-0.718471 -0.06253,-0.162984 -0.161322,-0.34668 -0.219531,-0.408215 -0.05821,-0.06153 -0.105833,-0.154879 -0.105833,-0.207433 0,-0.05907 -0.02741,-0.06484 -0.07179,-0.01512 -0.175571,0.196721 -0.277572,1.316059 -0.218667,2.399638 l 0.06033,1.109795 -0.414105,-8.4e-5 c -0.466525,-8.5e-5 -0.756505,-0.19024 -0.99423,-0.651859 -0.153901,-0.298846 -0.19734,-1.5585 -0.0657,-1.905221 0.201739,-0.531365 0.259279,-0.872508 0.312854,-1.854865 l 0.05823,-1.067716 -0.370627,0.06825 c -0.769059,0.141624 -1.05777,0.223929 -1.386628,0.395289 -0.339327,0.176815 -0.635,0.461099 -0.635,0.61054 0,0.04384 -0.04422,0.176757 -0.09826,0.295365 -0.08564,0.187968 -0.151002,0.21565 -0.509148,0.21565 -0.22599,0 -0.47705,-0.03342 -0.55791,-0.07427 -0.217618,-0.10994 -0.733988,-0.264788 -0.872696,-0.261701 -0.06654,0.0015 -0.187072,0.05288 -0.267841,0.114207 -0.137134,0.104133 -0.138272,0.155784 -0.01719,0.780473 0.07131,0.367929 0.165971,0.831433 0.210352,1.030009 0.04438,0.198577 0.08127,0.484327 0.08197,0.635 0.002,0.437326 0.296804,1.14004 0.665403,1.586285 0.299691,0.362821 0.459144,0.513959 1.026655,0.973118 0.867618,0.701969 1.019332,0.919678 1.268909,1.820882 0.05803,0.20955 0.139168,0.491461 0.180301,0.626467 0.04114,0.135008 0.07479,0.620075 0.07479,1.077929 0,0.807861 0.04066,1.187989 0.288633,2.698271 0.188134,1.145844 0.218576,1.236224 0.685034,2.033811 0.194617,0.332773 1.157903,1.296553 1.502833,1.503602 0.128058,0.07687 0.232833,0.163135 0.232833,0.191702 0,0.02857 0.1905,0.141165 0.423334,0.250218 0.232833,0.109053 0.423333,0.229866 0.423333,0.268473 0,0.03861 0.04763,0.0707 0.105833,0.07133 0.133749,0.0014 0.456992,0.253052 1.089687,0.848225 0.352499,0.331593 0.615315,0.500548 0.900017,0.578588 0.221172,0.06062 0.47833,0.143547 0.571463,0.184272 0.09313,0.04072 0.340783,0.116282 0.550333,0.167904 1.296048,0.319278 1.65625,0.636952 1.59326,1.405151 -0.02661,0.324554 -0.03237,0.329532 -0.492593,0.42606 -0.569627,0.119474 -3.674638,0.134862 -5.249333,0.02602 -2.52888,-0.174804 -4.556784,-0.189484 -6.011334,-0.04352 -1.897206,0.190388 -3.212197,0.301042 -4.572,0.384725 -0.62865,0.03869 -1.7335495,0.129425 -2.4553328,0.201638 -1.667981,0.166878 -4.6565453,0.17984 -4.7958236,0.0208 z m 4.5418236,-0.270876 c 0.7217833,-0.07072 1.8457332,-0.16391 2.4976662,-0.207082 1.383113,-0.09159 2.467644,-0.181809 4.572001,-0.380333 1.661232,-0.156718 3.781317,-0.142398 6.604,0.04461 1.745922,0.11567 4.536468,0.07351 4.898359,-0.07401 0.206964,-0.08436 0.233946,-0.131793 0.187784,-0.330082 -0.08167,-0.350803 -0.474997,-0.634295 -1.172941,-0.845394 -0.34641,-0.104775 -0.673785,-0.1905 -0.727501,-0.1905 -0.05372,0 -0.163824,-0.03557 -0.244684,-0.07905 -0.08086,-0.04348 -0.327975,-0.127993 -0.549147,-0.187807 -0.286326,-0.07743 -0.545507,-0.243628 -0.900017,-0.577113 -0.632695,-0.595174 -0.955938,-0.84679 -1.089687,-0.848226 -0.05821,-5.92e-4 -0.105833,-0.03272 -0.105833,-0.07133 0,-0.03861 -0.1905,-0.15942 -0.423333,-0.268473 -0.232834,-0.109053 -0.423334,-0.221651 -0.423334,-0.250218 0,-0.02857 -0.104775,-0.114832 -0.232833,-0.191701 -0.328091,-0.196943 -1.304925,-1.164749 -1.479241,-1.465572 -0.08016,-0.13833 -0.180518,-0.308659 -0.223021,-0.378509 -0.227501,-0.373868 -0.417087,-1.038507 -0.519245,-1.820333 -0.04868,-0.372533 -0.125964,-0.910326 -0.171749,-1.195095 -0.04578,-0.284769 -0.08324,-0.898209 -0.08324,-1.363199 0,-0.464991 -0.03366,-0.955897 -0.07479,-1.090905 -0.04113,-0.135007 -0.122311,-0.416917 -0.180393,-0.626467 -0.208816,-0.75337 -0.409496,-1.079706 -0.945364,-1.537303 -1.537908,-1.313275 -1.859215,-1.769533 -2.017854,-2.865364 -0.177753,-1.227863 -0.276759,-1.759743 -0.385785,-2.07252 -0.06528,-0.187264 -0.119237,-0.421823 -0.119916,-0.521242 -0.0034,-0.497304 1.060395,-0.604643 1.881453,-0.189844 0.258631,0.13066 0.458092,0.08022 0.559058,-0.141377 0.05404,-0.118608 0.09826,-0.251523 0.09826,-0.295366 0,-0.149441 0.295673,-0.433724 0.635,-0.61054 0.331843,-0.172916 0.720377,-0.284213 1.312333,-0.375922 0.162983,-0.02525 0.360829,-0.102631 0.439656,-0.171955 0.134205,-0.118026 0.132858,-0.137278 -0.02117,-0.302604 -0.214418,-0.230152 -0.236463,-1.030227 -0.03056,-1.109238 0.223772,-0.08587 0.289408,-0.05912 0.289408,0.117942 0,0.09313 -0.0381,0.169333 -0.08467,0.169333 -0.164755,0 -0.08144,0.38445 0.137606,0.635 l 0.222066,0.254 -0.0528,1.515275 c -0.02904,0.833402 -0.08613,1.557302 -0.126865,1.608667 -0.09828,0.123912 -0.18555,0.568768 -0.236641,1.206229 -0.03127,0.390214 -0.0051,0.591164 0.104677,0.804333 0.17659,0.342839 0.532287,0.664917 0.734478,0.665059 0.1355,8.5e-5 0.143207,-0.09133 0.09456,-1.12173 -0.05147,-1.090264 -1.69e-4,-1.60743 0.243732,-2.455333 0.146531,-0.509472 0.337298,-0.417674 0.703789,0.338666 0.586765,1.210925 0.630725,1.392648 0.630725,2.607289 0,0.806972 0.03163,1.150099 0.116736,1.266492 0.114244,0.156238 0.121923,0.156252 0.359833,6.78e-4 0.458152,-0.299642 0.497631,-0.377929 0.488457,-0.968601 -0.01008,-0.649105 -0.366372,-1.825779 -0.802611,-2.650685 -0.08794,-0.166285 -0.10403,-0.744311 -0.02636,-0.946724 0.107232,-0.279442 0.516063,-0.156782 0.964609,0.289409 0.234061,0.232833 0.463164,0.423333 0.509116,0.423333 0.04595,0 0.0836,0.04763 0.08365,0.105833 5.6e-5,0.05821 0.08578,0.209897 0.1905,0.337087 0.104718,0.12719 0.260509,0.329414 0.346202,0.449388 0.308748,0.432258 0.669425,0.132484 0.526371,-0.437489 -0.05361,-0.21361 -0.527675,-0.709948 -0.893843,-0.935843 -0.295826,-0.182501 -0.990367,-1.019785 -1.257769,-1.51627 -0.123144,-0.228638 -0.246124,-0.434756 -0.273289,-0.458039 -0.04856,-0.04162 -0.367181,-0.656938 -0.762378,-1.472283 -0.314739,-0.649351 -0.564641,-0.868018 -1.071709,-0.937757 -0.72283,-0.09942 -0.974185,-1.95e-4 -1.654713,0.653206 -0.133376,0.128059 -0.261342,0.232834 -0.284369,0.232834 -0.02303,0 -0.09301,0.04763 -0.155508,0.105833 -0.0625,0.05821 -0.237936,0.201083 -0.389852,0.3175 -0.151917,0.116417 -0.323936,0.259292 -0.382265,0.3175 -0.05833,0.05821 -0.132062,0.105833 -0.163851,0.105833 -0.03179,0 -0.234535,0.146134 -0.450547,0.324743 -0.89797,0.742481 -0.980854,0.776019 -1.915237,0.774992 -1.291704,-0.0014 -1.418183,-0.03659 -1.625181,-0.451957 -0.09633,-0.193295 -0.22549,-0.522894 -0.287023,-0.732444 -0.06153,-0.20955 -0.2155,-0.6096 -0.342148,-0.889 -0.126648,-0.2794 -0.2543,-0.6223 -0.283672,-0.762 -0.137243,-0.652779 -0.349376,-1.389094 -0.634204,-2.201334 -0.277375,-0.791011 -0.320045,-0.966121 -0.422938,-1.7356898 -0.05292,-0.3958167 -0.138035,-1.0244667 -0.189139,-1.397 C 12.385234,7.4683334 11.942487,6.5732089 11.480366,6.3254099 11.257942,6.2061413 10.005622,6.012281 9.431808,6.0082912 8.8001603,6.0038992 8.1972894,6.2153333 7.7673528,6.5920356 7.3177882,6.9859355 7.2813404,7.1607766 7.2813404,8.9234506 c 0,1.5553024 0.00861,1.6393714 0.2089504,2.0401584 0.1149227,0.229907 0.3816227,0.606125 0.5926667,0.83604 0.2110439,0.229915 0.3837163,0.46804 0.3837163,0.529167 0,0.06113 0.035513,0.111139 0.078917,0.111139 0.1074887,0 0.6499501,1.135454 1.213481,2.54 0.046709,0.116416 0.1168958,0.287866 0.1559713,0.381 0.2032849,0.484511 0.3575959,0.980897 0.4384479,1.41039 0.07707,0.409389 0.06927,0.51097 -0.0536,0.6985 -0.121788,0.185871 -0.206172,0.219443 -0.5515861,0.219443 -0.3499925,0 -0.4594727,-0.04501 -0.7723042,-0.3175 C 8.7755213,17.197163 8.5312854,16.961326 8.4332511,16.847707 8.3352169,16.734088 8.0017808,16.384298 7.6922819,16.070396 7.3827832,15.756494 7.0208332,15.354155 6.8879486,15.17631 6.7550641,14.998464 6.5995641,14.803457 6.5423932,14.74296 6.4852222,14.682462 6.3864509,14.558732 6.3229015,14.468002 6.2495138,14.363227 6.0627088,14.283213 5.8109016,14.248699 5.4285641,14.196294 5.403215,14.206565 5.0990599,14.537127 c -0.317528,0.345096 -0.5270528,0.843966 -0.5270528,1.254889 0,0.198048 -0.4559078,1.282009 -0.5843201,1.389272 -0.027874,0.02328 -0.1521421,0.235945 -0.2761513,0.472582 -0.1516436,0.289369 -0.2005834,0.469568 -0.1494632,0.550333 0.1239029,0.195753 0.090907,1.460917 -0.048399,1.855751 -0.1384625,0.392445 -0.1734375,1.27 -0.050616,1.27 0.042011,0 0.1162294,0.1143 0.1649291,0.254 0.0487,0.1397 0.1286268,0.254 0.1776158,0.254 0.048989,0 0.089071,0.04082 0.089071,0.09071 0,0.117219 0.2154001,0.332619 0.332619,0.332619 0.049893,0 0.090714,-0.05715 0.090714,-0.127 0,-0.06985 0.0381,-0.127 0.084667,-0.127 0.1417914,0 0.094694,-0.400331 -0.084667,-0.719667 -0.1401884,-0.249594 -0.1693333,-0.458423 -0.1693333,-1.213309 0,-0.93736 0.055971,-1.115024 0.3512736,-1.115024 0.1076551,0 0.1861277,0.132887 0.287486,0.486833 0.076677,0.267758 0.1929236,0.672184 0.2583264,0.898722 0.065403,0.22654 0.118914,0.539692 0.118914,0.695893 0,0.433928 0.3086277,0.947785 0.6843837,1.139482 0.4614656,0.235422 0.7011902,0.211737 0.95909,-0.09476 0.3303985,-0.392656 0.28899,-0.54585 -0.2102714,-0.777919 C 6.4218118,21.2257 6.2280088,21.041786 6.1341225,20.86745 6.0454135,20.702728 5.9433974,20.567954 5.9074202,20.567954 c -0.035977,0 -0.065413,-0.4191 -0.065413,-0.931333 0,-0.771407 0.021808,-0.931333 0.127,-0.931333 0.06985,0 0.127,0.06397 0.127,0.142155 0,0.206204 0.1916867,0.704511 0.2710085,0.704511 0.037212,0 0.068505,0.06668 0.069541,0.148167 0.00251,0.197201 0.2530833,0.499372 0.463784,0.559276 0.1339989,0.0381 0.200251,-0.01881 0.3175,-0.272722 0.081492,-0.176475 0.1481667,-0.347654 0.1481667,-0.3804 0,-0.03274 -0.1905,-0.244117 -0.4233334,-0.469716 -0.2914085,-0.282354 -0.4233333,-0.477871 -0.4233333,-0.627395 0,-0.119469 -0.0381,-0.240763 -0.084667,-0.269543 -0.1037446,-0.06412 -0.112887,-1.173377 -0.011349,-1.376982 0.2944811,-0.590498 0.2636124,-0.807673 -0.1731456,-1.218154 -0.2539818,-0.238701 -0.3165485,-0.495197 -0.1207926,-0.495197 0.1435322,0 0.5787261,0.396252 0.7145392,0.650601 0.1189665,0.222798 0.1278758,0.576105 0.019628,0.778368 -0.061391,0.114709 -0.028189,0.184554 0.1481666,0.31169 0.1250077,0.09012 0.4368367,0.386121 0.6929534,0.65778 0.7241617,0.768109 1.1390202,1.033253 1.8203333,1.163414 0.4400967,0.08408 0.64168,0.168733 0.783063,0.328852 0.104719,0.118596 0.190444,0.260078 0.1905,0.314406 5.7e-5,0.05433 0.03847,0.111568 0.08537,0.1272 0.105245,0.03508 0.377442,0.802378 0.502663,1.41696 0.05338,0.261998 0.09291,1.365838 0.09248,2.582333 -4.15e-4,1.168601 0.03483,2.296179 0.07832,2.505729 0.0435,0.20955 0.185848,0.85725 0.31634,1.439333 0.21831,0.973817 0.236819,1.19356 0.231776,2.751667 -0.0056,1.745049 -0.08966,2.891317 -0.217714,2.970458 -0.04023,0.02486 -0.07314,0.138204 -0.07314,0.251872 0,0.113668 -0.0381,0.20667 -0.08467,0.20667 -0.04657,0 -0.08467,0.05067 -0.08467,0.112605 0,0.14025 -0.786607,0.94301 -1.112903,1.135758 -0.13297,0.07855 -0.2417633,0.172698 -0.2417633,0.209225 0,0.03653 -0.0762,0.06641 -0.1693333,0.06641 -0.093133,0 -0.1695743,0.02857 -0.1698687,0.0635 -4.826e-4,0.05741 -0.231964,0.213629 -0.7279643,0.491265 -0.2363374,0.13229 -0.6042069,0.203259 -1.4740634,0.284375 -0.771197,0.07192 -1.1789129,0.232323 -1.521713,0.598686 -0.1169983,0.12504 -0.2959443,0.271782 -0.397658,0.326093 -0.2453026,0.130983 -0.9798597,0.126337 -1.120139,-0.0071 -0.127218,-0.120999 0.1243658,0.407303 0.2769161,0.581498 0.137383,0.156875 2.6140579,0.147127 4.2878236,-0.01687 z m 6.1383332,-2.827422 c -1.31057,-0.129864 -2.28607,-0.636023 -2.574277,-1.335716 -0.130641,-0.317163 -0.08244,-1.486934 0.08983,-2.179984 0.06845,-0.275367 0.106721,-1.133569 0.109504,-2.455333 l 0.0043,-2.032 -0.235884,-0.48034 c -0.208,-0.423559 -0.245581,-0.628732 -0.31792,-1.735667 -0.04512,-0.69043 -0.103521,-1.350576 -0.129779,-1.466993 -0.265978,-1.179213 -0.379543,-3.521301 -0.188687,-3.891358 0.361514,-0.700952 0.920942,-1.014696 1.814187,-1.017449 1.004741,-0.0031 1.090109,0.03369 1.344207,0.579169 0.122285,0.262517 0.262183,0.550145 0.310881,0.639173 0.222615,0.406968 0.408773,1.137282 0.409937,1.60822 0.0021,0.839908 0.247291,1.361842 0.918616,1.955245 0.673292,0.595141 1.273895,1.242681 1.384621,1.492828 0.05912,0.133561 0.133335,0.242839 0.164923,0.242839 0.03159,0 0.103453,0.142875 0.159699,0.3175 0.05625,0.174625 0.144263,0.370181 0.195592,0.434569 0.09616,0.120622 0.252984,4.157213 0.26025,6.698597 0.0046,1.615894 -0.08134,1.829917 -0.96831,2.410933 -0.351256,0.230094 -0.447097,0.250878 -1.227666,0.266231 -0.465667,0.0092 -1.151467,-0.01355 -1.524,-0.05046 z m 2.497667,-0.472469 c 0.849308,-0.550321 0.96962,-0.818522 0.966362,-2.154231 -0.0056,-2.315337 -0.166536,-6.329483 -0.258302,-6.444597 -0.05133,-0.06439 -0.139346,-0.259944 -0.195592,-0.434569 -0.05625,-0.174625 -0.128112,-0.3175 -0.159699,-0.3175 -0.03159,0 -0.105804,-0.109278 -0.164923,-0.242839 -0.110727,-0.250147 -0.71133,-0.897687 -1.384621,-1.492828 -0.671326,-0.593403 -0.916542,-1.115337 -0.918617,-1.955245 -0.0012,-0.470938 -0.187321,-1.201252 -0.409936,-1.60822 -0.0487,-0.08903 -0.188596,-0.376656 -0.310882,-0.639173 -0.183429,-0.393775 -0.267717,-0.486381 -0.481647,-0.529167 -0.957658,-0.191531 -1.754463,0.164334 -2.169553,0.968954 -0.177488,0.344046 -0.05753,2.504291 0.185447,3.339518 0.02709,0.09313 0.0856,0.762966 0.130021,1.488518 0.06507,1.062838 0.113479,1.375438 0.249131,1.608667 0.295358,0.507815 0.362917,1.180621 0.326625,3.252814 -0.01876,1.071034 -0.07811,2.137834 -0.131902,2.370667 -0.33323,1.442456 -0.189411,1.963251 0.68325,2.474199 0.723718,0.423741 1.756697,0.622228 3.028838,0.581991 0.538283,-0.01703 0.69303,-0.05769 1.016,-0.266959 z m -3.852333,-1.858906 c -0.397156,-0.459202 -0.448597,-0.856066 -0.457539,-3.529841 -0.0045,-1.336601 -0.04245,-2.517701 -0.08439,-2.624667 -0.230755,-0.588466 -0.371275,-1.217659 -0.440523,-1.972483 -0.14279,-1.556455 -0.226596,-2.198728 -0.33143,-2.54 -0.176426,-0.574332 -0.19723,-1.180667 -0.04977,-1.450655 0.293437,-0.537276 0.630789,-0.793944 1.040591,-0.791716 0.492861,0.0027 0.635529,0.291937 0.709273,1.438037 0.04492,0.698112 0.100495,0.97081 0.25883,1.27 0.110896,0.20955 0.224646,0.40005 0.252778,0.423334 0.02813,0.02328 0.180532,0.289983 0.338667,0.592666 0.158134,0.302684 0.392116,0.664634 0.519959,0.804334 0.127843,0.1397 0.232618,0.301625 0.232833,0.359833 2.54e-4,0.05821 0.03028,0.105833 0.0668,0.105833 0.03653,0 0.133112,0.112914 0.214633,0.250919 0.08152,0.138006 0.194513,0.299931 0.251089,0.359834 0.05658,0.0599 0.207065,0.248491 0.334419,0.419085 0.127353,0.170594 0.279753,0.362567 0.338666,0.426607 0.192816,0.209596 0.318781,0.48478 0.318781,0.696409 0,0.114301 0.03271,0.228035 0.07269,0.252744 0.134239,0.08296 0.216284,1.09622 0.219978,2.716735 0.0036,1.562089 -0.0025,1.619603 -0.208,1.98639 -0.242661,0.433033 -0.634937,0.727621 -1.134622,0.85207 -0.190875,0.04754 -0.413202,0.123657 -0.494063,0.169153 -0.08086,0.0455 -0.49996,0.0819 -0.931333,0.08089 l -0.784315,-0.0018 -0.254,-0.293682 z m 1.715648,-0.03938 c 0.08086,-0.0455 0.299774,-0.120695 0.486475,-0.16711 0.563814,-0.140164 0.998269,-0.477349 1.186071,-0.92052 0.143206,-0.337935 0.167681,-0.588359 0.166956,-1.708316 -0.0012,-1.83524 -0.201868,-2.937148 -0.614265,-3.372829 -0.05891,-0.06224 -0.211313,-0.252739 -0.338666,-0.423333 -0.127354,-0.170594 -0.277843,-0.359182 -0.334419,-0.419085 -0.05658,-0.0599 -0.169567,-0.221828 -0.251089,-0.359834 -0.08152,-0.138005 -0.178106,-0.250919 -0.214633,-0.250919 -0.03653,0 -0.06659,-0.04763 -0.0668,-0.105833 -2.54e-4,-0.05821 -0.10499,-0.220133 -0.232833,-0.359833 -0.127843,-0.1397 -0.361825,-0.50165 -0.519959,-0.804334 -0.158135,-0.302683 -0.310535,-0.569383 -0.338667,-0.592666 -0.02813,-0.02328 -0.141882,-0.213784 -0.252778,-0.423334 -0.158335,-0.299191 -0.213911,-0.571888 -0.25883,-1.27 -0.07238,-1.124869 -0.263638,-1.533544 -0.626752,-1.339211 -0.40637,0.217482 -0.837706,1.016828 -0.683409,1.266484 0.163472,0.264505 0.270335,0.956095 0.449501,2.909061 0.06925,0.754824 0.209768,1.384017 0.440523,1.972483 0.04195,0.106966 0.07686,1.269016 0.07758,2.582333 0.0015,2.690076 0.06863,3.200658 0.474767,3.610514 0.215176,0.217148 0.305413,0.246579 0.773893,0.252406 0.291673,0.0036 0.596473,-0.03063 0.677333,-0.07612 z M 11.023607,15.894355 c -0.05588,-0.05588 -0.1016,-0.168321 -0.1016,-0.24987 0,-0.175125 -0.163546,-0.785235 -0.461832,-1.722864 -0.172785,-0.543132 -0.21548,-0.849277 -0.21549,-1.545166 l -1.1e-5,-0.867834 h 0.465666 c 0.256117,0 0.465667,0.0381 0.465667,0.08467 0,0.04657 0.06518,0.08467 0.144837,0.08467 0.151173,0 1.379163,1.215287 1.379163,1.364897 0,0.04715 0.101735,0.219115 0.226077,0.382136 0.583149,0.764548 0.777459,1.539155 0.474774,1.892666 -0.113942,0.133074 -0.24969,0.170301 -0.621005,0.170301 -0.421251,0 -0.500877,0.02883 -0.701504,0.254 -0.184991,0.207621 -0.292672,0.254 -0.589728,0.254 -0.199878,0 -0.409134,-0.04572 -0.465014,-0.1016 z m 0.800742,-0.4064 c 0.200627,-0.225169 0.280253,-0.254 0.701504,-0.254 0.371315,0 0.507063,-0.03723 0.621005,-0.170301 0.194345,-0.22698 0.183404,-0.306979 -0.109884,-0.803366 -0.137569,-0.232833 -0.29483,-0.509058 -0.34947,-0.613833 -0.05464,-0.104775 -0.131329,-0.1905 -0.170421,-0.1905 -0.03909,0 -0.07108,-0.05822 -0.07108,-0.129379 0,-0.178786 -1.203456,-1.394621 -1.380421,-1.394621 -0.07897,0 -0.143579,-0.0381 -0.143579,-0.08467 0,-0.04657 -0.09525,-0.08467 -0.211667,-0.08467 -0.205287,0 -0.211666,0.01757 -0.211666,0.583074 0,0.383354 0.07394,0.825618 0.215852,1.291167 0.118719,0.389451 0.277259,0.974793 0.35231,1.300759 0.204701,0.889071 0.357068,0.999765 0.757513,0.550334 z M 8.513808,10.389116 C 8.3032027,10.088435 8.3328287,8.7708724 8.5626286,8.2179121 8.6619705,7.978869 8.7787753,7.7832882 8.8221948,7.7832882 c 0.1340353,0 0.438976,0.1845806 0.6521027,0.3947177 0.1966181,0.1938602 0.2015258,0.2292771 0.149529,1.0790988 -0.07408,1.2107523 -0.1238088,1.3201833 -0.5999229,1.3201833 -0.2949393,0 -0.4073363,-0.04146 -0.5100956,-0.188172 z M 9.2218683,10.129521 C 9.2623868,10.02295 9.3232664,9.6398541 9.3571564,9.2781979 9.4146467,8.6646901 9.4057467,8.6067737 9.2242989,8.4136313 9.1173373,8.299776 9.0035408,8.2066216 8.9714178,8.2066216 c -0.1295778,0 -0.3354107,0.7565529 -0.3354107,1.2328251 0,0.5294904 0.1555161,0.8838413 0.3878965,0.8838413 0.068362,0 0.1574462,-0.08719 0.1979647,-0.193767 z M 10.81948,9.8364548 C 10.358129,9.3456811 10.245328,9.0547566 10.24499,8.3547882 l -3.16e-4,-0.6561666 h 0.239651 c 0.131808,0 0.427083,0.09509 0.656166,0.2113123 0.229084,0.1162218 0.458236,0.2114718 0.509227,0.2116667 0.05099,1.947e-4 0.155766,0.070029 0.232833,0.1551877 0.10653,0.1177135 0.140123,0.3221435 0.140123,0.8527142 0,0.8236995 -0.07573,0.9397855 -0.613112,0.9397855 -0.295449,0 -0.415877,-0.04752 -0.590082,-0.2328332 z m 0.828242,-0.142119 c 0.173237,-0.1732373 0.160186,-0.9653607 -0.01917,-1.1635475 -0.07707,-0.085158 -0.186568,-0.1548334 -0.243335,-0.1548334 -0.05677,0 -0.279463,-0.098507 -0.494878,-0.2189052 L 10.498674,7.9381445 v 0.3978774 c 0,0.2528404 0.06944,0.5250007 0.1905,0.7466123 0.370912,0.6790025 0.688547,0.8817024 0.958548,0.6117016 z"
         id="path861"
         inkscape:label="line" />
    </g>
  </g>
</svg>
