<?xml version="1.0" encoding="UTF-8" standalone="no"?>
<svg
   xmlns:dc="http://purl.org/dc/elements/1.1/"
   xmlns:cc="http://creativecommons.org/ns#"
   xmlns:rdf="http://www.w3.org/1999/02/22-rdf-syntax-ns#"
   xmlns:svg="http://www.w3.org/2000/svg"
   xmlns="http://www.w3.org/2000/svg"
   xmlns:sodipodi="http://sodipodi.sourceforge.net/DTD/sodipodi-0.dtd"
   xmlns:inkscape="http://www.inkscape.org/namespaces/inkscape"
   width="63.812611mm"
   height="63.812611mm"
   viewBox="0 0 63.812611 63.81261"
   version="1.1"
   id="svg841"
   inkscape:version="1.0.1 (3bc2e813f5, 2020-09-07)"
   sodipodi:docname="favicon_large.svg"
   inkscape:export-filename="Z:\Documents\Programming\Portfolio_Site\repo\static\images\google-touch-icon.png"
   inkscape:export-xdpi="203.79671"
   inkscape:export-ydpi="203.79671">
  <defs
     id="defs835" />
  <sodipodi:namedview
     id="base"
     pagecolor="#ffffff"
     bordercolor="#666666"
     borderopacity="1.0"
     inkscape:pageopacity="0"
     inkscape:pageshadow="2"
     inkscape:zoom="2.8"
     inkscape:cx="63.652788"
     inkscape:cy="118.99361"
     inkscape:document-units="mm"
     inkscape:current-layer="g848"
     inkscape:document-rotation="0"
     showgrid="false"
     inkscape:snap-global="false"
     inkscape:window-width="1920"
     inkscape:window-height="1017"
     inkscape:window-x="-8"
     inkscape:window-y="-8"
     inkscape:window-maximized="1"
     inkscape:pagecheckerboard="true" />
  <metadata
     id="metadata838">
    <rdf:RDF>
      <cc:Work
         rdf:about="">
        <dc:format>image/svg+xml</dc:format>
        <dc:type
           rdf:resource="http://purl.org/dc/dcmitype/StillImage" />
        <dc:title></dc:title>
      </cc:Work>
    </rdf:RDF>
  </metadata>
  <g
     inkscape:label="Layer 1"
     inkscape:groupmode="layer"
     id="layer1"
     transform="translate(-35.694543,-46.881164)"
     style="display:inline">
    <g
       id="g848"
       inkscape:label="mask"
       transform="translate(0,12.699886)"
       style="display:inline">
      <path
         id="path2688"
         style="display:inline;fill:#000000;fill-opacity:1;stroke:none;stroke-width:0.109467;stroke-opacity:1"
         inkscape:label="logo in black"
         d="m 90.738599,47.821109 c -0.235132,0.0047 -0.50305,0.03816 -0.90215,0.102614 -0.0042,6.67e-4 -0.0093,0.0021 -0.01331,0.0026 -0.378771,-0.05021 -0.686354,-0.03125 -1.336314,0.07372 -1.3313,0.214986 -3.967676,0.87282 -5.199734,1.297419 -2.108498,0.726654 -4.803257,2.228916 -7.309609,4.075448 -1.273032,0.93793 -2.106713,1.763197 -9.846004,9.741726 l -8.455815,8.71663 -4.865467,1.802946 c -9.77314,3.621274 -15.118099,5.999041 -17.54397,7.804283 -0.633848,0.471686 -1.153252,0.908638 -1.154352,0.971266 -0.0026,0.148922 -0.143836,0.149032 5.837584,0.01222 6.287845,-0.143842 34.19385,-0.752445 37.272922,-0.812782 1.2177,-0.02384 2.503153,-0.06066 2.856533,-0.08164 l 0.642763,-0.03808 -0.0171,-0.01163 c 0.280835,-0.0093 0.608073,-0.01904 0.723894,-0.02604 l 0.64226,-0.03867 -0.694628,-0.481493 c -1.19101,-0.825369 -2.502899,-2.056797 -2.956231,-2.775163 -0.527818,-0.836394 -1.030561,-2.083054 -1.575877,-3.90704 -0.436298,-1.45935 -1.212091,-4.601445 -1.147959,-4.650068 0.02052,-0.01559 2.329106,-0.738422 5.129923,-1.606151 2.800816,-0.867728 5.379668,-1.693334 5.730782,-1.834443 2.207022,-0.887004 3.215601,-2.705267 2.331185,-4.202612 -0.55028,-0.931658 -1.837898,-1.745062 -3.720692,-2.350927 -0.894677,-0.287906 -0.896034,-0.647562 -4.023312,-0.69622 l -3.20501,-0.04987 -0.806198,-0.121191 c -1.112204,-0.485082 -1.125732,-0.546523 -0.362486,-1.617769 0.762456,-1.070124 1.859756,-1.958117 4.072227,-3.296615 2.105069,-1.273522 4.991807,-2.204587 7.241155,-2.466878 0.537904,0.01176 1.001173,0.08273 1.356558,0.220149 1.559945,0.603217 2.35779,1.797262 2.328119,3.483647 -0.02132,1.211097 -0.465427,1.858415 -2.238388,3.262278 l -1.321916,1.04637 0.105842,-0.03434 -0.05906,0.03547 0.806708,-0.167397 c 2.740133,-0.568181 5.505834,-2.742426 6.239071,-5.266375 0.200279,-0.689413 0.308156,-1.144681 0.180237,-1.806407 -0.44311,-2.29191 -1.695489,-3.791073 -4.037264,-4.238304 -0.267583,-0.0511 -0.469766,-0.07526 -0.704897,-0.07056 z M 78.965935,61.715074 c 2.081637,0.05444 2.417249,0.170961 3.033805,0.562871 0.23369,0.148541 0.563076,0.443126 0.732259,0.654365 0.274719,0.343019 0.292074,0.419969 0.161744,0.717368 -0.428467,0.977741 -3.233917,2.227015 -6.946628,3.093432 -0.41226,0.09621 -0.772534,0.172543 -1.15856,0.257099 l -0.292734,-1.045431 c -0.400231,-1.430739 -1.126178,-4.14181 -1.152092,-4.299676 0.761606,9.26e-4 1.760673,0.0065 2.883247,0.01835 1.157013,0.01214 2.045078,0.02349 2.738959,0.04164 z m -9.397108,2.489876 c 0.268012,1.386255 0.669643,3.644597 0.636447,3.671959 -0.02161,0.01781 -1.587102,0.496179 -3.478779,1.062802 -1.109599,0.332367 -1.469033,0.433881 -2.155042,0.635335 0.06106,-0.06991 0.123896,-0.141179 0.210005,-0.233556 0.337672,-0.362264 1.795456,-1.932081 3.239315,-3.488663 0.598522,-0.645252 1.099389,-1.175261 1.548054,-1.647877 z m 1.67519,6.265857 c 0.261408,1.231295 1.241959,6.968931 1.273875,7.519485 0.03767,0.649753 0.0089,0.769712 -0.254148,1.066163 -0.201726,0.227258 -0.453206,0.365751 -0.786469,0.433282 -0.363253,0.07361 -2.101917,0.188544 -4.178682,0.303296 -2.677626,0.134712 -5.760344,0.258175 -7.935132,0.30259 -2.684527,0.05484 -2.53062,0.05619 -2.631939,-0.02772 -0.15341,-0.127128 -0.06336,-1.006298 0.144904,-1.416314 0.171129,-0.336933 3.771157,-4.544409 4.536597,-5.302061 0.153124,-0.151564 1.78409,-0.649414 5.652104,-1.725662 1.801961,-0.501382 3.181813,-0.881029 4.17889,-1.153033 z m -17.1197,5.737163 c -0.834264,0.823167 -2.457868,2.359757 -3.055639,2.873644 -0.546771,0.470039 -1.002826,0.751705 -1.561449,0.96443 -0.761582,0.29 -0.917927,0.308568 -4.515169,0.530826 -0.227756,0.01407 -0.371703,0.02098 -0.575062,0.03311 -1.237023,0.06285 -1.725522,0.06252 -1.642588,-3.21e-4 0.373794,-0.28342 3.055136,-1.389945 5.95424,-2.456846 2.135073,-0.785729 4.045985,-1.472377 5.395666,-1.944877 z" />
      <path
         style="display:inline;fill:#00de37;stroke-width:0.635144"
         d="M 87.192844,43.372602 C 83.030716,42.450016 77.360707,42.255938 44.790705,41.921708 39.161055,41.867073 34.311821,41.287735 34.014857,40.641332 33.3547,39.204244 33.170213,35.517235 33.757571,35.497124 c 0.234054,-0.008 0.401562,-0.683627 0.371949,-1.501611 -0.03652,-1.008678 1.439321,-1.277438 4.588416,-0.835295 2.553184,0.356625 18.929259,0.486061 36.39116,0.283944 26.658714,-0.310204 31.760184,-0.05545 31.819424,1.581113 0.13519,3.734368 -1.57543,5.125766 -6.50973,5.294733 -3.981626,0.136345 -4.970847,0.569892 -5.253872,2.311405 -0.38265,2.352041 -0.612673,2.373234 -7.972028,0.742372 z"
         id="path2699"
         inkscape:label="border north" />
      <path
         style="display:inline;fill:#00de37;stroke-width:0.635144"
         d="m 86.342398,102.05341 c -4.162128,-0.92259 -9.832137,-1.11667 -42.402139,-1.4509 -5.62965,-0.0546 -10.478884,-0.633971 -10.775848,-1.280374 -0.660157,-1.437088 -0.844644,-5.124097 -0.257286,-5.144208 0.234054,-0.008 0.401562,-0.683627 0.371949,-1.501611 -0.03652,-1.008678 1.439321,-1.277438 4.588416,-0.835295 2.553184,0.356625 18.929259,0.486061 36.39116,0.283944 26.65872,-0.310204 31.76019,-0.05545 31.81943,1.581113 0.13519,3.734368 -1.57543,5.125766 -6.509732,5.294733 -3.98163,0.136345 -4.970851,0.569892 -5.253876,2.311408 -0.38265,2.35204 -0.612673,2.37323 -7.972028,0.74237 z"
         id="path2701"
         inkscape:label="border south" />
      <path
         style="display:inline;fill:#00de37;stroke-width:0.635144"
         d="m 42.663787,40.766919 c -0.895005,4.168146 -1.051533,9.839316 -1.170086,42.410817 -0.01735,5.629888 -0.56457,10.482852 -1.208993,10.78409 -1.432685,0.669659 -5.118391,0.878556 -5.142391,0.291344 -0.0096,-0.233996 -0.686271,-0.397026 -1.504041,-0.361998 -1.008414,0.0432 -1.286941,-1.43083 -0.86566,-4.582784 0.33971,-2.555489 0.360705,-18.932062 0.04296,-36.392242 -0.48672,-26.656076 -0.265752,-31.759121 1.370382,-31.829197 3.733391,-0.159915 5.136086,1.541454 5.337723,6.474527 0.162708,3.980636 0.602795,4.966965 2.346144,5.238452 2.354524,0.367067 2.377239,0.596944 0.795145,7.966937 z"
         id="path2703"
         inkscape:label="border west" />
      <path
         style="display:inline;fill:#00de37;stroke-width:0.635144"
         d="m 102.762,42.467812 c -0.895,4.168146 -1.05153,9.839316 -1.17008,42.410817 -0.0174,5.629888 -0.56457,10.482852 -1.209,10.78409 -1.432683,0.669659 -5.118389,0.878556 -5.142389,0.291344 -0.0096,-0.233996 -0.686271,-0.397026 -1.504041,-0.361998 -1.008414,0.0432 -1.286941,-1.43083 -0.86566,-4.582784 0.33971,-2.555489 0.360705,-18.932062 0.04296,-36.392242 -0.48672,-26.656076 -0.265752,-31.759121 1.370382,-31.829197 3.733391,-0.159915 5.136086,1.541454 5.337723,6.474527 0.162708,3.980636 0.602795,4.966965 2.346145,5.238452 2.35452,0.367067 2.37724,0.596944 0.79514,7.966937 z"
         id="path2705"
         inkscape:label="border east" />
    </g>
  </g>
</svg>
