<?xml version="1.0" encoding="UTF-8" standalone="no"?>
<svg
   xmlns:dc="http://purl.org/dc/elements/1.1/"
   xmlns:cc="http://creativecommons.org/ns#"
   xmlns:rdf="http://www.w3.org/1999/02/22-rdf-syntax-ns#"
   xmlns:svg="http://www.w3.org/2000/svg"
   xmlns="http://www.w3.org/2000/svg"
   xmlns:sodipodi="http://sodipodi.sourceforge.net/DTD/sodipodi-0.dtd"
   xmlns:inkscape="http://www.inkscape.org/namespaces/inkscape"
   width="63.812611mm"
   height="63.812611mm"
   viewBox="0 0 63.812611 63.81261"
   version="1.1"
   id="svg841"
   inkscape:version="1.0.1 (3bc2e813f5, 2020-09-07)"
   sodipodi:docname="favicon-mask.svg"
   inkscape:export-filename="Z:\Documents\Programming\Portfolio_Site\repo\favicon.png"
   inkscape:export-xdpi="12.737294"
   inkscape:export-ydpi="12.737294">
  <defs
     id="defs835" />
  <sodipodi:namedview
     id="base"
     pagecolor="#ffffff"
     bordercolor="#666666"
     borderopacity="1.0"
     inkscape:pageopacity="0"
     inkscape:pageshadow="2"
     inkscape:zoom="2.8"
     inkscape:cx="63.652788"
     inkscape:cy="118.99361"
     inkscape:document-units="mm"
     inkscape:current-layer="g848"
     inkscape:document-rotation="0"
     showgrid="false"
     inkscape:snap-global="false"
     inkscape:window-width="1920"
     inkscape:window-height="1017"
     inkscape:window-x="-8"
     inkscape:window-y="-8"
     inkscape:window-maximized="1"
     inkscape:pagecheckerboard="true" />
  <metadata
     id="metadata838">
    <rdf:RDF>
      <cc:Work
         rdf:about="">
        <dc:format>image/svg+xml</dc:format>
        <dc:type
           rdf:resource="http://purl.org/dc/dcmitype/StillImage" />
        <dc:title></dc:title>
      </cc:Work>
    </rdf:RDF>
  </metadata>
  <g
     inkscape:label="Layer 1"
     inkscape:groupmode="layer"
     id="layer1"
     transform="translate(-35.694543,-46.881164)"
     style="display:inline">
    <g
       id="g848"
       inkscape:label="mask"
       transform="translate(0,12.699886)"
       style="display:inline">
      <path
         id="path2688"
         style="display:inline;fill:#000000;fill-opacity:1;stroke:none;stroke-width:0.229495;stroke-opacity:1"
         inkscape:label="logo in black"
         d="m 107.77882,30.371017 c -0.49294,0.0099 -1.05462,0.08 -1.89133,0.215139 -0.009,0.0014 -0.0194,0.0044 -0.0279,0.0054 -0.79409,-0.105261 -1.43893,-0.06553 -2.80156,0.154537 -2.79103,0.450711 -8.31813,1.829845 -10.901102,2.720004 -4.420414,1.523414 -10.069907,4.672867 -15.32441,8.544072 -2.668878,1.966348 -4.416668,3.6965 -20.641896,20.423283 L 38.46322,80.707644 28.262894,84.487473 C 7.773755,92.07938 -3.431817,97.064309 -8.5175939,100.84895 c -1.3288429,0.98887 -2.4177591,1.90494 -2.4200681,2.03623 -0.0055,0.31221 -0.301547,0.31245 12.2383467,0.0257 13.1823073,-0.30156 71.6865353,-1.57749 78.1417303,-1.70397 2.552878,-0.05 5.247798,-0.12713 5.988647,-0.17122 l 1.347537,-0.0798 -0.03586,-0.0244 c 0.588771,-0.0195 1.274818,-0.04 1.517633,-0.0545 l 1.346478,-0.0811 -1.456264,-1.009427 C 85.65366,98.05609 82.903319,95.474439 81.95292,93.968404 c -1.106559,-1.753479 -2.160547,-4.36707 -3.303788,-8.19101 -0.914687,-3.059491 -2.541116,-9.646813 -2.406667,-9.748749 0.04301,-0.03267 4.88291,-1.548084 10.754751,-3.367255 5.871849,-1.819169 11.278344,-3.550031 12.014437,-3.845864 4.626967,-1.859582 6.741437,-5.671522 4.887267,-8.810669 -1.15363,-1.953167 -3.85308,-3.658445 -7.800317,-4.928627 -1.875657,-0.603585 -1.878504,-1.357596 -8.434773,-1.459606 l -6.719215,-0.104558 -1.690174,-0.254073 c -2.331705,-1.016963 -2.360069,-1.145771 -0.759942,-3.391613 1.59847,-2.243486 3.898931,-4.10514 8.537327,-6.911269 4.413224,-2.669907 10.465184,-4.62186 15.180884,-5.171746 1.12771,0.02465 2.09895,0.173414 2.84399,0.461535 3.27039,1.264632 4.94305,3.767917 4.88084,7.303379 -0.0447,2.539036 -0.97575,3.896121 -4.69272,6.839282 l -2.77136,2.19369 0.22191,-0.07201 -0.12381,0.07437 1.69123,-0.350944 c 5.74463,-1.191176 11.54285,-5.749425 13.08006,-11.04082 0.41989,-1.445338 0.64604,-2.399796 0.37786,-3.787088 -0.92897,-4.80493 -3.55455,-7.947887 -8.46402,-8.885496 -0.56098,-0.10711 -0.98485,-0.157799 -1.4778,-0.147915 z M 83.097736,59.499361 c 4.364104,0.114132 5.06771,0.358417 6.360291,1.180045 0.489938,0.311412 1.180476,0.929003 1.535164,1.371859 0.575952,0.719133 0.612325,0.880455 0.339099,1.503944 -0.898272,2.049809 -6.779827,4.668881 -14.563433,6.485302 -0.864292,0.20169 -1.619599,0.361732 -2.428891,0.539002 l -0.61371,-2.191718 c -0.839074,-2.99951 -2.361004,-8.683202 -2.41533,-9.014164 1.596685,0.0019 3.691206,0.01377 6.044653,0.03849 2.42565,0.02546 4.287454,0.04926 5.742157,0.0873 z m -19.700797,5.219963 c 0.561879,2.906248 1.40389,7.640805 1.334296,7.698167 -0.04528,0.03732 -3.32732,1.040226 -7.293173,2.228138 -2.326244,0.696798 -3.079791,0.909621 -4.51799,1.331963 0.128009,-0.146559 0.259744,-0.295978 0.44027,-0.489642 0.707922,-0.759479 3.764127,-4.050558 6.791141,-7.313897 1.254787,-1.352753 2.304839,-2.463904 3.245456,-3.454729 z m 3.511992,13.136207 c 0.548038,2.58138 2.603737,14.610187 2.670646,15.764408 0.07896,1.362194 0.01864,1.613682 -0.532813,2.235185 -0.422913,0.47644 -0.950135,0.766788 -1.648811,0.908363 -0.761551,0.154315 -4.406618,0.39528 -8.760501,0.635856 -5.613577,0.282416 -12.076415,0.541261 -16.635801,0.634373 -5.628043,0.114929 -5.305382,0.117797 -5.517793,-0.05817 -0.321623,-0.266515 -0.132841,-2.109671 0.303786,-2.96926 0.358769,-0.70637 7.906134,-9.527238 9.51086,-11.115635 0.32102,-0.317752 3.740298,-1.361481 11.849492,-3.617805 3.777767,-1.051136 6.670591,-1.847056 8.760935,-2.417308 z M 31.017919,89.883347 c -1.749014,1.725751 -5.15286,4.947173 -6.40607,6.024522 -1.146292,0.985426 -2.1024,1.575932 -3.273541,2.021898 -1.596634,0.607992 -1.924408,0.646908 -9.465935,1.112871 -0.477484,0.02948 -0.779266,0.044 -1.205601,0.06947 -2.5933863,0.13177 -3.6175146,0.131124 -3.4436452,-6.86e-4 0.783649,-0.59417 6.4050172,-2.913978 12.4829132,-5.150708 4.476126,-1.647261 8.482304,-3.086801 11.311876,-4.077385 z" />
      <path
         style="display:inline;fill:#000000;stroke-width:0.635144"
         d="M 87.192844,43.372602 C 83.030716,42.450016 77.360707,42.255938 44.790705,41.921708 39.161055,41.867073 34.311821,41.287735 34.014857,40.641332 33.3547,39.204244 33.170213,35.517235 33.757571,35.497124 c 0.234054,-0.008 0.401562,-0.683627 0.371949,-1.501611 -0.03652,-1.008678 1.439321,-1.277438 4.588416,-0.835295 2.553184,0.356625 18.929259,0.486061 36.39116,0.283944 26.658714,-0.310204 31.760184,-0.05545 31.819424,1.581113 0.13519,3.734368 -1.57543,5.125766 -6.50973,5.294733 -3.981626,0.136345 -4.970847,0.569892 -5.253872,2.311405 -0.38265,2.352041 -0.612673,2.373234 -7.972028,0.742372 z"
         id="path2699"
         inkscape:label="border north" />
      <path
         style="display:inline;fill:#000000;stroke-width:0.635144"
         d="m 86.342398,102.05341 c -4.162128,-0.92259 -9.832137,-1.11667 -42.402139,-1.4509 -5.62965,-0.0546 -10.478884,-0.633971 -10.775848,-1.280374 -0.660157,-1.437088 -0.844644,-5.124097 -0.257286,-5.144208 0.234054,-0.008 0.401562,-0.683627 0.371949,-1.501611 -0.03652,-1.008678 1.439321,-1.277438 4.588416,-0.835295 2.553184,0.356625 18.929259,0.486061 36.39116,0.283944 26.65872,-0.310204 31.76019,-0.05545 31.81943,1.581113 0.13519,3.734368 -1.57543,5.125766 -6.509732,5.294733 -3.98163,0.136345 -4.970851,0.569892 -5.253876,2.311408 -0.38265,2.35204 -0.612673,2.37323 -7.972028,0.74237 z"
         id="path2701"
         inkscape:label="border south" />
      <path
         style="display:inline;fill:#000000;stroke-width:0.635144"
         d="m 42.663787,40.766919 c -0.895005,4.168146 -1.051533,9.839316 -1.170086,42.410817 -0.01735,5.629888 -0.56457,10.482852 -1.208993,10.78409 -1.432685,0.669659 -5.118391,0.878556 -5.142391,0.291344 -0.0096,-0.233996 -0.686271,-0.397026 -1.504041,-0.361998 -1.008414,0.0432 -1.286941,-1.43083 -0.86566,-4.582784 0.33971,-2.555489 0.360705,-18.932062 0.04296,-36.392242 -0.48672,-26.656076 -0.265752,-31.759121 1.370382,-31.829197 3.733391,-0.159915 5.136086,1.541454 5.337723,6.474527 0.162708,3.980636 0.602795,4.966965 2.346144,5.238452 2.354524,0.367067 2.377239,0.596944 0.795145,7.966937 z"
         id="path2703"
         inkscape:label="border west" />
      <path
         style="display:inline;fill:#000000;stroke-width:0.635144"
         d="m 102.762,42.467812 c -0.895,4.168146 -1.05153,9.839316 -1.17008,42.410817 -0.0174,5.629888 -0.56457,10.482852 -1.209,10.78409 -1.432683,0.669659 -5.118389,0.878556 -5.142389,0.291344 -0.0096,-0.233996 -0.686271,-0.397026 -1.504041,-0.361998 -1.008414,0.0432 -1.286941,-1.43083 -0.86566,-4.582784 0.33971,-2.555489 0.360705,-18.932062 0.04296,-36.392242 -0.48672,-26.656076 -0.265752,-31.759121 1.370382,-31.829197 3.733391,-0.159915 5.136086,1.541454 5.337723,6.474527 0.162708,3.980636 0.602795,4.966965 2.346145,5.238452 2.35452,0.367067 2.37724,0.596944 0.79514,7.966937 z"
         id="path2705"
         inkscape:label="border east" />
    </g>
  </g>
</svg>
