<?xml version="1.0" encoding="UTF-8" standalone="no"?>
<svg
   xmlns:dc="http://purl.org/dc/elements/1.1/"
   xmlns:cc="http://creativecommons.org/ns#"
   xmlns:rdf="http://www.w3.org/1999/02/22-rdf-syntax-ns#"
   xmlns:svg="http://www.w3.org/2000/svg"
   xmlns="http://www.w3.org/2000/svg"
   xmlns:sodipodi="http://sodipodi.sourceforge.net/DTD/sodipodi-0.dtd"
   xmlns:inkscape="http://www.inkscape.org/namespaces/inkscape"
   viewBox="0 0 21.925016 0.80557507"
   preserveAspectRatio="none"
   version="1.1"
   id="svg8"
   inkscape:version="1.0.1 (3bc2e813f5, 2020-09-07)"
   sodipodi:docname="sketchy-line.svg">
  <defs
     id="defs2" />
  <sodipodi:namedview
     id="base"
     pagecolor="#ffffff"
     bordercolor="#666666"
     borderopacity="1.0"
     inkscape:pageopacity="0.0"
     inkscape:pageshadow="2"
     inkscape:zoom="7.9195959"
     inkscape:cx="45.491434"
     inkscape:cy="20.893859"
     inkscape:document-units="mm"
     inkscape:current-layer="layer1"
     inkscape:document-rotation="0"
     showgrid="false"
     inkscape:window-width="1346"
     inkscape:window-height="1040"
     inkscape:window-x="208"
     inkscape:window-y="0"
     inkscape:window-maximized="0" />
  <metadata
     id="metadata5">
    <rdf:RDF>
      <cc:Work
         rdf:about="">
        <dc:format>image/svg+xml</dc:format>
        <dc:type
           rdf:resource="http://purl.org/dc/dcmitype/StillImage" />
        <dc:title></dc:title>
      </cc:Work>
    </rdf:RDF>
  </metadata>
  <g
     inkscape:label="Layer 1"
     inkscape:groupmode="layer"
     id="layer1"
     transform="translate(-140.98571,-57.05173)">
    <path
       style="display:inline;fill:#00de37;stroke-width:0.0846667"
       d="m 156.94177,57.776623 c -1.22989,-0.06347 -2.91681,-0.0866 -12.61534,-0.172941 -1.6764,-0.01492 -3.11467,-0.05915 -3.19616,-0.09828 -0.18116,-0.08698 -0.19633,-0.307024 -0.0212,-0.307024 0.0698,0 0.127,-0.03992 0.127,-0.08871 0,-0.06018 0.44253,-0.07317 1.37583,-0.04041 0.75671,0.02656 5.63351,0.06759 10.83734,0.09116 7.94459,0.03599 9.46149,0.06151 9.46149,0.159128 0,0.222759 -0.52457,0.302161 -1.99625,0.302161 -1.18754,0 -1.48689,0.02391 -1.58998,0.127 -0.13934,0.139332 -0.20811,0.140138 -2.38276,0.02791 z"
       id="path849" />
  </g>
</svg>
