<?xml version="1.0" encoding="UTF-8" standalone="no"?>
<svg
   xmlns:dc="http://purl.org/dc/elements/1.1/"
   xmlns:cc="http://creativecommons.org/ns#"
   xmlns:rdf="http://www.w3.org/1999/02/22-rdf-syntax-ns#"
   xmlns:svg="http://www.w3.org/2000/svg"
   xmlns="http://www.w3.org/2000/svg"
   xmlns:sodipodi="http://sodipodi.sourceforge.net/DTD/sodipodi-0.dtd"
   xmlns:inkscape="http://www.inkscape.org/namespaces/inkscape"
   width="47.904808mm"
   height="16.894865mm"
   viewBox="0 0 47.904807 16.894865"
   preserveAspectRatio="none"
   version="1.1"
   id="svg860"
   inkscape:version="1.0.1 (3bc2e813f5, 2020-09-07)"
   sodipodi:docname="sketch_circle1.svg">
  <defs
     id="defs854" />
  <sodipodi:namedview
     id="base"
     pagecolor="#ffffff"
     bordercolor="#666666"
     borderopacity="1.0"
     inkscape:pageopacity="0.0"
     inkscape:pageshadow="2"
     inkscape:zoom="1.979899"
     inkscape:cx="115.27897"
     inkscape:cy="35.252333"
     inkscape:document-units="mm"
     inkscape:current-layer="layer1"
     inkscape:document-rotation="0"
     showgrid="false"
     inkscape:window-width="1346"
     inkscape:window-height="1040"
     inkscape:window-x="156"
     inkscape:window-y="0"
     inkscape:window-maximized="0"
     units="mm" />
  <metadata
     id="metadata857">
    <rdf:RDF>
      <cc:Work
         rdf:about="">
        <dc:format>image/svg+xml</dc:format>
        <dc:type
           rdf:resource="http://purl.org/dc/dcmitype/StillImage" />
        <dc:title></dc:title>
      </cc:Work>
    </rdf:RDF>
  </metadata>
  <g
     inkscape:label="Layer 1"
     inkscape:groupmode="layer"
     id="layer1"
     transform="translate(-175.5019,-66.578054)">
    <path
       style="fill:#000000;stroke:none;stroke-width:0.217954"
       d="m 193.37409,83.365841 c -4.80155,-0.38759 -4.86763,-0.39898 -8.39122,-1.446248 -1.89817,-0.564174 -4.9699,-1.931201 -5.66397,-2.520672 -1.03582,-0.879712 -2.90275,-2.779171 -3.32709,-3.385076 -0.41287,-0.58954 -0.48991,-0.985486 -0.48991,-2.518284 0,-1.622431 0.0666,-1.923817 0.61723,-2.792015 1.36883,-2.158411 2.89089,-2.919425 6.73564,-3.367739 1.53008,-0.178422 3.51756,-0.422438 4.41662,-0.542274 0.89906,-0.119832 4.96934,-0.216804 9.04508,-0.215465 6.03418,0.002 8.09854,0.08372 11.11562,0.440174 2.03786,0.24077 3.99944,0.527701 4.35907,0.63764 0.35962,0.109946 1.09521,0.26295 1.63465,0.340023 1.46143,0.208798 1.74364,0.321408 1.74364,0.695718 0,0.270996 -0.16603,0.313474 -0.81733,0.209054 -2.1002,-0.336712 -2.22786,-0.318187 -0.70835,0.102793 0.89905,0.249084 1.9534,0.502651 2.343,0.563483 0.38959,0.06083 0.70833,0.19796 0.70833,0.304715 0,0.106753 0.25641,0.194098 0.56972,0.194098 0.31333,0 0.95085,0.196158 1.41669,0.435906 0.46585,0.23974 1.26382,0.645844 1.77329,0.902433 0.50947,0.256602 1.24507,0.766225 1.63466,1.132523 l 0.70836,0.665997 0.44885,1.675526 c 0.56204,2.098085 -0.50215,3.266442 -0.94736,3.92801 -0.52631,0.781927 -1.79534,1.552617 -3.42466,2.079824 -0.53944,0.174561 -1.17695,0.403819 -1.41669,0.509487 -0.23966,0.105672 -0.73016,0.239431 -1.08979,0.297256 -0.35962,0.05781 -1.34041,0.249935 -2.17951,0.426943 -1.84208,0.38855 -3.91047,0.713702 -6.5386,1.027869 -2.49813,0.298628 -11.56347,0.437238 -14.27597,0.21827 z m 14.38493,-0.971973 c 6.12995,-0.719728 10.23274,-1.698462 12.42335,-2.963633 1.54193,-0.890524 2.43406,-1.68911 2.43406,-3.732848 0,-0.984013 -0.58857,-1.90779 -0.74491,-2.168417 -0.26191,-0.43648 -2.38633,-1.937511 -2.7422,-1.937511 -0.095,0 -0.57879,-0.196157 -1.07501,-0.435905 -0.49624,-0.239741 -1.09735,-0.435906 -1.3358,-0.435906 -0.23838,0 -0.4872,-0.08677 -0.55275,-0.192811 -0.0657,-0.10606 -0.3901,-0.244272 -0.7212,-0.307143 -0.33113,-0.06287 -1.19051,-0.27172 -1.90976,-0.464099 -1.63933,-0.438478 -5.58811,-0.944785 -9.69894,-1.243586 -3.71807,-0.270256 -16.32692,-0.11718 -19.50685,0.236806 -5.57835,0.620987 -5.80619,0.664154 -6.56663,1.244175 -0.40413,0.308252 -0.73479,0.695934 -0.73479,0.861518 0,0.165576 -0.0886,0.301062 -0.19668,0.301062 -0.31954,0 -0.6752,1.290954 -0.6752,2.450854 0,1.214018 0.71716,2.460508 2.15024,3.737353 1.41217,1.2582 1.89458,1.651453 2.02981,1.654635 0.0814,0.0019 0.2775,0.12879 0.43589,0.281934 0.57126,0.552299 3.45293,1.702468 6.17276,2.463757 3.97712,1.113203 14.16015,1.431092 20.81456,0.64978 z m 3.48727,-14.077396 c -0.29969,-0.104078 -1.77088,-0.358867 -3.2693,-0.566203 -3.37184,-0.46656 -17.20526,-0.694672 -19.94274,-0.328855 -0.95902,0.128146 -2.87156,0.379387 -4.2501,0.558303 -1.37856,0.178912 -1.81993,0.274568 -0.98079,0.212557 5.47731,-0.404722 8.08182,-0.502883 13.40414,-0.505189 5.5641,-0.0024 9.55462,0.190082 12.75028,0.61503 0.71924,0.09563 1.65099,0.180584 2.07055,0.188743 0.69797,0.01365 0.71649,-0.0012 0.21804,-0.174379 z"
       id="path1439"
       sodipodi:nodetypes="ccccsccccscsssssssccccscccccscccsscscscsssccssscccccccscccccccc" />
  </g>
</svg>
