<?xml version="1.0" encoding="UTF-8" standalone="no"?>
<svg
   xmlns:dc="http://purl.org/dc/elements/1.1/"
   xmlns:cc="http://creativecommons.org/ns#"
   xmlns:rdf="http://www.w3.org/1999/02/22-rdf-syntax-ns#"
   xmlns:svg="http://www.w3.org/2000/svg"
   xmlns="http://www.w3.org/2000/svg"
   xmlns:sodipodi="http://sodipodi.sourceforge.net/DTD/sodipodi-0.dtd"
   xmlns:inkscape="http://www.inkscape.org/namespaces/inkscape"
   width="22.775345mm"
   height="7.4506698mm"
   viewBox="0 0 22.775345 7.4506698"
   preserveAspectRatio="none"
   version="1.1"
   id="svg8"
   inkscape:version="1.0.1 (3bc2e813f5, 2020-09-07)"
   sodipodi:docname="sketch_circle2.svg">
  <defs
     id="defs2" />
  <sodipodi:namedview
     id="base"
     pagecolor="#ffffff"
     bordercolor="#666666"
     borderopacity="1.0"
     inkscape:pageopacity="0.0"
     inkscape:pageshadow="2"
     inkscape:zoom="2.8"
     inkscape:cx="74.407932"
     inkscape:cy="99.444793"
     inkscape:document-units="mm"
     inkscape:current-layer="layer1"
     inkscape:document-rotation="0"
     showgrid="false"
     inkscape:window-width="1346"
     inkscape:window-height="1040"
     inkscape:window-x="78"
     inkscape:window-y="0"
     inkscape:window-maximized="0" />
  <metadata
     id="metadata5">
    <rdf:RDF>
      <cc:Work
         rdf:about="">
        <dc:format>image/svg+xml</dc:format>
        <dc:type
           rdf:resource="http://purl.org/dc/dcmitype/StillImage" />
        <dc:title></dc:title>
      </cc:Work>
    </rdf:RDF>
  </metadata>
  <g
     inkscape:label="Layer 1"
     inkscape:groupmode="layer"
     id="layer1"
     transform="translate(-3.7313879,-3.8341912)">
    <path
       style="fill:#000000;stroke-width:0.0846667;stroke:none"
       d="M 11.732388,11.202711 C 9.5790671,11.122427 8.2476596,10.912071 6.9063879,10.440225 5.2528823,9.8585387 4.4087212,8.976133 4.4087212,7.8294017 c 0,-0.2837501 0.042844,-0.622477 0.095209,-0.7527264 C 4.6558709,6.698745 4.7860622,6.4199031 4.8319196,6.3741915 5.0344813,6.1722736 5.6048836,5.4254651 5.5774769,5.3980583 5.5582505,5.378832 5.2397902,5.4408027 4.8697872,5.5357711 3.820773,5.8050206 3.7313879,5.816435 3.7313879,5.6811431 c 0,-0.065781 0.123825,-0.1632105 0.2751667,-0.2165109 0.4685342,-0.165011 1.6468753,-0.4451073 1.8725287,-0.4451073 0.1179652,0 0.3802074,-0.1118466 0.5827604,-0.248548 1.2842017,-0.8666972 3.2526157,-1.1061638 6.7137553,-0.816759 0.7895,0.066014 2.788005,0.1446388 4.441122,0.1747209 4.209942,0.076609 5.217571,0.2314634 6.713091,1.0316816 0.12985,0.06948 0.321539,0.170932 0.425974,0.2254491 0.328626,0.1715484 1.079448,0.8444983 1.421811,1.2743485 0.290216,0.3643767 0.329124,0.4669682 0.329124,0.8678333 0,0.2500338 -0.0381,0.4546068 -0.08467,0.4546068 -0.04657,0 -0.08467,0.0762 -0.08467,0.1693333 0,0.093133 -0.04326,0.1693334 -0.09613,0.1693334 -0.05287,0 -0.176793,0.085725 -0.275386,0.1905 -0.196461,0.2087778 -1.214815,0.902829 -1.618156,1.1028414 -0.26662,0.1322137 -1.090067,0.4634918 -1.735667,0.6982688 -0.685669,0.249349 -2.063042,0.536311 -3.852333,0.802595 -0.832699,0.123923 -4.73951,0.172279 -7.027333,0.08698 z m 6.815666,-0.340457 c 2.307003,-0.317588 3.3198,-0.564045 4.920679,-1.1974123 1.452025,-0.5744747 2.783988,-1.6233754 2.783988,-2.1923475 0,-0.3575855 -1.049973,-1.5132967 -1.664487,-1.8321105 C 24.482819,5.5856937 24.290329,5.4853124 24.160479,5.417314 23.958297,5.3114377 23.521367,5.1243367 22.823721,4.8448909 22.298312,4.6344355 20.441664,4.4439706 18.548054,4.4062701 c -1.04775,-0.02086 -1.80975,-0.024383 -1.693333,-0.00783 1.670133,0.2374823 2.997491,0.5605681 3.033041,0.7382576 0.03292,0.1645484 0.03041,0.1645513 -0.662374,7.874e-4 -1.385062,-0.327411 -3.939266,-0.708947 -5.122334,-0.7651528 -0.916802,-0.043556 -2.643522,0.042377 -4.3603329,0.2169991 -0.5738887,0.058372 -1.4636903,0.2176943 -2.4293253,0.4349801 -0.1952457,0.043934 -0.4726664,0.07988 -0.6164906,0.07988 -0.1543389,0 -0.2814695,0.052043 -0.310233,0.1269999 -0.026804,0.06985 -0.089578,0.127 -0.1394976,0.127 -0.099684,0 -0.5493623,0.4672589 -0.8962923,0.9313333 -0.1218421,0.1629834 -0.2408585,0.3153834 -0.264481,0.3386667 -0.023623,0.023283 -0.08577,0.1375833 -0.1381064,0.254 -0.3488262,0.7759324 -0.3704975,1.1074504 -0.1067622,1.6332062 0.2009287,0.400551 0.7620236,0.9709494 1.1382683,1.157142 0.1370895,0.067842 0.3064035,0.1672119 0.3762535,0.2208229 0.236384,0.1814285 1.7832985,0.6322235 2.7782318,0.8096195 1.7038407,0.303795 7.6349857,0.404144 9.4137677,0.159272 z M 8.2187212,4.5496385 C 8.9513785,4.3984685 9.917243,4.2785718 11.182054,4.1817879 l 0.889,-0.068027 -1.227666,-0.012514 c -1.3243318,-0.0135 -2.4360419,0.132563 -3.1181208,0.409676 -0.4874991,0.1980598 -0.3363104,0.2099218 0.493454,0.038716 z"
       id="path849" />
  </g>
</svg>
