<?xml version="1.0" encoding="UTF-8"?>
<svg width="15.671mm" height="25.241mm" version="1.1" viewBox="0 0 15.671 25.241" xmlns="http://www.w3.org/2000/svg"><g transform="translate(-50.862 -135.11)"><g stroke-width=".084667"><path d="m57.275 142.29c-0.0055-0.20703 0.15917-0.90538 0.26594-1.1281 0.04758-0.0992 0.06064-0.26191 0.02902-0.36152-0.06548-0.2063 0.17904-1.0244 0.30618-1.0244 0.08465 0 0.02143 0.3071-0.09586 0.46567-0.11175 0.15106-0.18501 0.5692-0.08937 0.51009 0.04843-0.0299 0.08806-0.14742 0.08806-0.26109s0.04302-0.20667 0.0956-0.20667c0.15489 0 0.0061 1.0264-0.17796 1.2277-0.08517 0.0931-0.21396 0.34078-0.28621 0.55033-0.07225 0.20955-0.13318 0.31215-0.1354 0.22799zm-0.25107-1.1115c0.0039-0.94474 0.03633-1.1485 0.18292-1.1485 0.0554 0 0.06659 0.14644 0.03075 0.40217-0.031 0.22119-0.07244 0.66384-0.09208 0.98368-0.05559 0.90524-0.12573 0.76831-0.1216-0.23739zm1.8681 0.72368c-0.08797-0.0557-0.09288-0.11313-0.02117-0.24714 0.05138-0.096 0.09169-0.28182 0.08959-0.41294l-0.0038-0.23839-0.1163 0.254c-0.1125 0.24569-0.11625 0.24707-0.11474 0.0423 8.64e-4 -0.11642 0.02963-0.30692 0.06393-0.42333 0.06078-0.2063 0.06594-0.20336 0.20323 0.11617 0.14261 0.33191 0.19404 0.98558 0.07736 0.9832-0.03493-6.8e-4 -0.11506-0.034-0.17808-0.0739zm-1.5939-0.87298c0.0083-0.21881 0.04449-0.36848 0.08041-0.33261 0.03592 0.0359 0.02913 0.21489-0.0151 0.39783l-0.08041 0.33262zm0.88002 0.24446c-0.1916-0.0756-0.22811-0.13337-0.19498-0.30849 0.02242-0.1185 0.06639-0.42266 0.09772-0.6759l0.05695-0.46044 0.2862 0.32162c0.15741 0.17689 0.2862 0.40043 0.2862 0.49676 0 0.20743-0.18314 0.74141-0.24984 0.72849-0.02557-5e-3 -0.15258-0.0509-0.28224-0.10204zm-0.81571-1.0531c-0.0051-0.26646 0.02608-0.35983 0.12012-0.35983 0.15513 0 0.156 0.13165 0.0031 0.46566l-0.1163 0.254-0.0069-0.35983zm-2.0624-0.2254c-0.13595-0.10315-0.14141-0.17279-0.05648-0.72019 0.06933-0.44683 0.15034-0.66631 0.30844-0.83562l0.21442-0.22962-0.06168 0.889c-0.07617 1.0979-0.09223 1.1335-0.40471 0.89643zm0.51457 0.018c0.05588-0.0559 0.10149-0.17971 0.10136-0.27517-3.39e-4 -0.22316 0.42626-1.2319 0.52094-1.2319 0.09625 0 0.09077 0.17028-0.02693 0.8369-0.11641 0.65927-0.18619 0.77177-0.47874 0.77177-0.16974 0-0.19566-0.0226-0.11663-0.1016zm-0.94801-0.39229c-0.07965-0.12887-0.02418-0.5155 0.06596-0.45979 0.04697 0.029 0.0573-0.0119 0.02456-0.0972-0.08745-0.2279 0.12167-1.7431 0.24057-1.7431 0.11106 0 0.08365 0.62774-0.05359 1.2277-0.04261 0.18627-0.09345 0.50453-0.11298 0.70725-0.03802 0.39468-0.08366 0.49601-0.16451 0.3652zm0.93085-0.43745c0.08838-1.0289 0.13619-1.27 0.25185-1.27 0.14756 0 0.14816-0.0434-0.0088 0.63345-0.07134 0.30761-0.10355 0.60161-0.07158 0.65334 0.03383 0.0547 0.01979 0.0704-0.03357 0.0374-0.05043-0.0312-0.10782 0.0106-0.12752 0.0927-0.0197 0.0822-0.02437 0.0161-0.01037-0.14691zm0.34098-0.635c0.06294-0.39294 0.0912-0.44097 0.19596-0.33302 0.04613 0.0475 0.01155 0.19711-0.08676 0.37536l-0.16345 0.29633zm1.4462 0.23284c-0.05146-0.0935 0.12102-1.5454 0.18341-1.5439 0.02926 6.7e-4 0.10592 0.0347 0.17035 0.0755 0.09781 0.0619 0.10006 0.17008 0.01368 0.65487-0.05691 0.31937-0.12172 0.64735-0.14402 0.72884-0.04164 0.15216-0.16133 0.19752-0.22341 0.0847zm0.41568-0.55034c0.06439-0.33761 0.11711-0.64241 0.11716-0.67733 5.5e-5 -0.0349 0.03747-0.0635 0.08315-0.0635 0.07723 0 0.06134 0.34911-0.04911 1.0795-0.02309 0.15267-0.09206 0.27517-0.15494 0.27517-0.09432 0-0.09369-0.10298 0.0037-0.61384zm0.25964 0.21167c0.06161-0.67129 0.10197-0.78317 0.28257-0.78317 0.12553 0 0.16772 0.0572 0.16772 0.22727 0 0.24678-0.31218 0.95807-0.42049 0.95807-0.03669 0-0.05011-0.18098-0.02981-0.40217zm-2.9093-0.127c0.02499-0.10478 0.07181-0.37323 0.10404-0.59656 0.05675-0.39317 0.06374-0.40142 0.22026-0.25976 0.11327 0.1025 0.15604 0.24155 0.14288 0.46451-0.01033 0.17501-0.04831 0.29995-0.08442 0.27764-0.0361-0.0223-0.11415 0.0371-0.17344 0.13205-0.14373 0.23015-0.26599 0.21971-0.20932-0.0179zm1.8801-0.0593c-0.07104-0.13738-0.12917-0.44218-0.12917-0.67733 0-0.42281 0.0029-0.42754 0.26579-0.42754h0.26579l-0.05339 0.4445c-0.02936 0.24448-0.05372 0.54928-0.05413 0.67734-9.56e-4 0.30403-0.13282 0.29645-0.2949-0.017z" fill="#8e0000"/><path d="m53.125 160.16c0.0017-0.10478 0.09674-0.3048 0.21125-0.4445 0.22893-0.27929 0.26162-0.19273 0.11992 0.3175-0.09687 0.34881-0.33618 0.44058-0.33117 0.127zm0.50432-0.48338c0.03371-0.18437 0.13337-0.44154 0.22146-0.5715l0.16017-0.23629 0.02618 0.22657c0.02176 0.18825-0.32723 0.91643-0.43921 0.91643-0.01645 0-0.0023-0.15084 0.0314-0.33521zm0.50863-0.4028c0-0.0877 0.0344-0.19565 0.07645-0.23989 0.04205-0.0442 0.09612-0.15663 0.12017-0.24976 0.02405-0.0931 0.03727-8.5e-4 0.02938 0.20508-0.01371 0.35802-0.226 0.62533-0.226 0.28457zm0.33967-0.25682c5.93e-4 -0.12806 0.05176-0.42333 0.11379-0.65617 0.13982-0.52481 0.93435-2.0604 0.87617-1.6933-0.04174 0.26331-0.23779 0.81491-0.31596 0.889-0.07383 0.07-0.31112 0.68796-0.46326 1.2065-0.15798 0.53846-0.21225 0.60386-0.21074 0.254zm0.253 3e-3c0-0.18161 0.45034-1.3785 0.51883-1.3789 0.05315-3.4e-4 -0.12053 0.9322-0.22343 1.1996-0.05365 0.13944-0.2954 0.28612-0.2954 0.17923zm0.55102-0.42185c0.01633-0.0841 0.07603-0.40065 0.13267-0.70333 0.05663-0.30269 0.13436-0.60749 0.17273-0.67734 0.11504-0.20942 0.0833 1.037-0.03217 1.2633-0.12788 0.25063-0.31467 0.33086-0.27323 0.11735zm-0.883-0.16006c0.0041-0.0986 0.02412-0.11869 0.05115-0.0511 0.02446 0.0611 0.02145 0.13415-0.0067 0.16228-0.02813 0.0281-0.04814-0.0219-0.04447-0.11113zm1.3903-0.0353c0.02878-0.0466 0.09043-0.0847 0.13699-0.0847 0.04657 0 0.06112 0.0381 0.03234 0.0847s-0.09043 0.0847-0.13699 0.0847c-0.04657 0-0.06112-0.0381-0.03234-0.0847zm0.49969-0.7043c0.17976-0.73005 0.27579-0.68693 0.17987 0.0808-0.03782 0.30273-0.10591 0.48107-0.20363 0.53336-0.13587 0.0727-0.1341 0.027 0.02376-0.61413zm-0.44871 0.16987c-0.01227-0.33807 0.32198-1.8327 0.47353-2.1174 0.06991-0.13134 0.10732-0.31449 0.08313-0.407-0.0531-0.20305 0.18115-1.7439 0.2996-1.9708 0.04631-0.0887 0.11488-0.33634 0.15238-0.55034 0.04344-0.2479 0.05297-0.0204 0.02626 0.62693-0.03486 0.84481-0.07569 1.0838-0.24235 1.4182-0.20484 0.41104-0.19583 0.51883 0.02125 0.254 0.11112-0.13557 0.11661-0.13017 0.06455 0.0635-0.0313 0.11642-0.10842 0.44027-0.17138 0.71967-0.06296 0.2794-0.20844 0.75565-0.32328 1.0583-0.11484 0.30269-0.24621 0.68369-0.29193 0.84667-0.07934 0.28285-0.08352 0.2855-0.09177 0.0582zm1.0431-0.0294c0.02689-0.0701 0.04889-0.14333 0.04889-0.16281 0-0.0195 0.0369-0.0354 0.08201-0.0354 0.0451 0 0.05768 0.0634 0.02794 0.14088-0.04027 0.10495-0.02339 0.12309 0.06616 0.0711 0.06626-0.0385 0.09062-0.0373 0.05427 3e-3 -0.12037 0.13227-0.33156 0.11983-0.27927-0.0164zm-0.28221-0.40988c5e-3 -0.34012 0.1302-1.1745 0.15246-1.016 0.0065 0.0466 0.05191 0.0275 0.10081-0.0423 0.07257-0.10366 0.08139-0.0959 0.04797 0.0423-0.02252 0.0931-0.06471 0.37921-0.09375 0.63573-0.0672 0.59349-0.2146 0.86363-0.20749 0.38027zm-0.46704 0.0423c0.03114-0.11641 0.09193-0.26881 0.13509-0.33866 0.05453-0.0883 0.0612-0.0624 0.02185 0.0847-0.03114 0.11642-0.09193 0.26882-0.13508 0.33867-0.05454 0.0883-0.0612 0.0624-0.02185-0.0847zm0.75789-0.1755c0.07002-0.4399 0.29104-1.5992 0.38244-2.0059 0.04462-0.19858 0.08113-0.48098 0.08113-0.62756 0-0.27037 0.20997-1.0911 0.34787-1.3597 0.04151-0.0809 0.07547-0.25959 0.07547-0.39717 0-0.23329 0.12693-0.41544 0.22273-0.31964 0.042 0.042-0.17957 1.5559-0.4326 2.9557-0.07329 0.40546-0.25084 1.0151-0.39455 1.3547-0.31103 0.735-0.3431 0.78036-0.2825 0.39964zm0.4639 0.0443c-1.7e-4 -0.0955 0.04063-0.21452 0.09068-0.26457 0.05005-0.05 0.14701-0.23864 0.21547-0.4191l0.12447-0.3281-0.03842 0.30277c-0.04599 0.36241-0.39169 0.98735-0.3922 0.709zm-1.5956-0.12277c0-0.11641 0.01922-0.16404 0.0427-0.10583 0.02349 0.0582 0.02349 0.15346 0 0.21167-0.02349 0.0582-0.0427 0.0106-0.0427-0.10584zm2.4486-0.0494c0.0041-0.0986 0.02412-0.11869 0.05115-0.0512 0.02446 0.0611 0.02145 0.13415-0.0067 0.16228-0.02813 0.0281-0.04814-0.0219-0.04447-0.11113zm-0.26068-0.10995c0-0.0466 0.0381-0.10821 0.08467-0.13699 0.04657-0.0288 0.08467-0.0142 0.08467 0.0323 0 0.0466-0.0381 0.10821-0.08467 0.13699-0.04657 0.0288-0.08467 0.0142-0.08467-0.0323zm-2.11-0.31131c-0.0037-0.14244 0.04894-0.33294 0.11693-0.42333 0.11147-0.14821 0.11514-0.13109 0.03734 0.17432-0.1281 0.50287-0.14693 0.53328-0.15427 0.24901zm-0.20492-0.47764c0.07131-0.37433 0.11356-0.40663 0.11356-0.0868 0 0.14471-0.03753 0.2863-0.08339 0.31465-0.05211 0.0322-0.06343-0.0533-0.03017-0.22784zm2.9402-0.0827c0.09203-0.46013 0.22934-0.46545 0.15939-6e-3 -0.02305 0.15134-0.08045 0.27516-0.12755 0.27516-0.05106 0-0.06392-0.10861-0.03184-0.26899zm-0.2387-0.0908c0.11104-0.35646 0.20179-0.5715 0.24116-0.5715 0.02161 0-0.01913 0.17145-0.09053 0.381-0.13005 0.38169-0.26229 0.54892-0.15064 0.1905zm-1.7346-0.11289c0.0041-0.0986 0.02412-0.11869 0.05115-0.0512 0.02446 0.0611 0.02145 0.13414-0.0067 0.16228-0.02813 0.0281-0.04814-0.0219-0.04447-0.11113zm0.34637 0.0494c0.0014-0.0699 0.03299-0.22225 0.07027-0.33867 0.05449-0.17015 0.06828-0.17846 0.07028-0.0423 0.0014 0.0931-0.03025 0.24553-0.07028 0.33867-0.04458 0.10374-0.0718 0.12014-0.07027 0.0423zm0.71184-0.064c-0.02986-0.0941 0.0016-0.45153 0.06999-0.79435 0.12738-0.63892 0.47751-2.8151 0.518-3.2197 0.01243-0.12412 0.05276-0.42892 0.08964-0.67733s0.059-0.48307 0.04916-0.52145c-0.0098-0.0384 0.02542-0.043 0.07835-0.0103 0.08925 0.0552 0.08031 0.27571-0.0427 1.0538-0.06494 0.41077-0.2132 1.5764-0.30692 2.413-0.05216 0.46566-0.16795 1.0096-0.2573 1.2088-0.1721 0.38359-0.22154 0.66468-0.07779 0.44224 0.04514-0.0699 0.08207-0.0889 0.08207-0.0423s-0.03335 0.13733-0.07411 0.20169c-0.05871 0.0927-0.08539 0.0815-0.1284-0.054zm-1.705-0.39207c-0.02885-0.11495-0.0084-0.27843 0.04549-0.3633 0.08223-0.12955 0.09045-0.10949 0.05125 0.12508-0.02889 0.17282-0.01489 0.25972 0.0367 0.22783 0.04587-0.0283 0.08339-0.0134 0.08339 0.0331 0 0.18936-0.16801 0.17173-0.21682-0.0227zm0.85712-0.22126c0.03194-0.25612 0.09379-0.50377 0.13744-0.55034 0.04958-0.0529 0.05757 0.0901 0.0213 0.381-0.03194 0.25612-0.09379 0.50377-0.13744 0.55034-0.04958 0.0529-0.05757-0.0901-0.0213-0.381zm2.0009 0.21166c0.0017-0.1397 0.0207-0.1866 0.04217-0.10422 0.02147 0.0824 0.02005 0.19668-0.0031 0.254-0.02319 0.0573-0.04076-0.0101-0.03903-0.14978zm0.1604-0.19534c-0.0108-0.27866 0.16665-0.94069 0.26912-1.004 0.09429-0.0583 0.0688 0.0874-0.13578 0.77602-0.07533 0.25356-0.1288 0.34499-0.13334 0.22799zm-2.8105-0.20088c-0.02219-0.17136-0.01021-0.29294 0.02663-0.27018 0.03684 0.0228 0.06697-5e-3 0.06697-0.0624 0-0.0571 0.01503-0.0879 0.03341-0.0685 0.01837 0.0194 0.0064 0.18768-0.02663 0.37395l-0.06003 0.33867zm3.2289 0.14222c0-0.0466 0.03693-0.14181 0.08207-0.21166 0.04514-0.0699 0.08207-0.0889 0.08207-0.0423s-0.03693 0.14182-0.08207 0.21167c-0.04514 0.0699-0.08207 0.0889-0.08207 0.0423zm-1.2213-0.71966c0.02482-0.20955 0.07779-0.6858 0.1177-1.0583 0.09539-0.89045 0.25154-1.8464 0.31078-1.9026 0.06361-0.0603-0.04965 0.98072-0.14712 1.3522-0.04276 0.16298-0.07973 0.42968-0.08217 0.59267-0.0024 0.16298-0.0584 0.54398-0.12438 0.84666-0.0807 0.37024-0.10518 0.42565-0.07482 0.16934zm-1.8751-0.25964c-0.03069-0.0497-0.03765-0.10845-0.01546-0.13065s0.06291 0.0184 0.09049 0.0903c0.05725 0.14919 0.0084 0.17544-0.07503 0.0403zm0.64517-0.29957c-0.01409-0.55429 0.17442-2.4498 0.25128-2.5266 0.04438-0.0444 0.0807-0.1561 0.0807-0.24825 0-0.0922 0.03579-0.28456 0.07953-0.42757 0.32165-1.0516 0.41415-1.4314 0.37898-1.5561-0.02222-0.0788 0.0044-0.0582 0.05913 0.0457 0.07883 0.14965 0.05972 0.49298-0.09184 1.6501-0.10526 0.80361-0.22535 1.5504-0.26686 1.6596-0.04151 0.10918-0.05027 0.23931-0.01945 0.28916 0.03314 0.0536 0.0161 0.066-0.04173 0.0302-0.06276-0.0388-0.09775 7e-3 -0.09775 0.12908 0 0.10421-0.03698 0.30648-0.08219 0.44949-0.0452 0.14301-0.11839 0.37431-0.16265 0.51401l-0.08046 0.254-0.0067-0.26287zm-0.56894-0.16046c0.02761-0.1397 0.11089-0.68015 0.18507-1.201 0.07418-0.52084 0.16082-1.044 0.19253-1.1626 0.0947-0.35409 0.22618-0.28796 0.23838 0.11988l0.01139 0.381-0.05679-0.381c-0.05349-0.35891-0.06075-0.33927-0.1251 0.33867-0.03758 0.39582-0.14535 1.0245-0.2395 1.397-0.16916 0.66936-0.3032 0.99993-0.20598 0.508zm2.1776 0.0776c0.0041-0.0986 0.02412-0.11869 0.05115-0.0512 0.02446 0.0611 0.02145 0.13414-0.0067 0.16228-0.02813 0.0281-0.04814-0.0219-0.04447-0.11113zm-1.3547-0.254c0.0041-0.0986 0.02412-0.11869 0.05115-0.0512 0.02446 0.0611 0.02145 0.13414-0.0067 0.16228-0.02813 0.0281-0.04815-0.0219-0.04447-0.11113zm1.2798-0.24694c0.0017-0.1397 0.0207-0.1866 0.04217-0.10423 0.02147 0.0824 0.02005 0.19668-0.0031 0.254-0.02319 0.0573-0.04076-0.0101-0.03903-0.14977zm1.9872-0.14817c0.02868-0.15134 0.08474-0.33908 0.12458-0.4172 0.03984-0.0781 0.04993-0.21147 0.02242-0.29633-0.03683-0.11364-0.0287-0.12454 0.03086-0.0414 0.06533 0.0912 0.09127 0.0858 0.13499-0.0281 0.08627-0.22483 0.06207-0.35351-0.03984-0.21184-0.07306 0.10157-0.07883 0.0931-0.0288-0.0423 0.03441-0.0931 0.06521-0.23321 0.06846-0.31128 0.0033-0.0781 0.03584-0.12345 0.07243-0.10084 0.03659 0.0226 0.06652-0.016 0.06652-0.0859s0.0441-0.15426 0.098-0.18757c0.0695-0.043 0.08006-1e-3 0.0363 0.14317-0.03393 0.11205-0.07921 0.3301-0.10062 0.48455-0.03776 0.2724-0.44335 1.3702-0.50624 1.3702-0.01717 0-0.0077-0.12383 0.02093-0.27517zm-1.7725-0.0567c-0.03683-0.14083-0.02581-0.17389 0.03702-0.11106 0.0492 0.0492 0.0728 0.13943 0.05244 0.20051-0.02114 0.0634-0.05952 0.025-0.08946-0.0895zm1.3908-0.0915c0-0.11641 0.01922-0.16404 0.0427-0.10583 0.02349 0.0582 0.02349 0.15346 0 0.21167-0.02349 0.0582-0.0427 0.0106-0.0427-0.10584zm-0.48043-0.0869c0.01658-0.22507 0.09014-0.28132 0.10527-0.0805 0.0068 0.0902-0.01682 0.18206-0.05249 0.2041-0.03566 0.022-0.05941-0.0336-0.05278-0.12361zm-0.82742-1.0695c0.04571-0.80126 0.18716-1.299 0.36917-1.299 0.05297 0 0.06534 0.12268 0.03201 0.3175-0.07314 0.42749-0.38408 1.7496-0.42 1.7858-0.01579 0.0159-0.0073-0.34602 0.01883-0.80433zm1.3925 0.64837c0-0.11641 0.01922-0.16404 0.0427-0.10583 0.02349 0.0582 0.02349 0.15346 0 0.21167-0.02349 0.0582-0.0427 0.0106-0.0427-0.10584zm-0.42333-0.0847c0-0.11642 0.01922-0.16405 0.0427-0.10584 0.02349 0.0582 0.02349 0.15346 0 0.21167-0.02349 0.0582-0.0427 0.0106-0.0427-0.10583zm-2.1167-0.16934c0-0.11641 0.01922-0.16404 0.0427-0.10583 0.02349 0.0582 0.02349 0.15346 0 0.21167-0.02349 0.0582-0.0427 0.0106-0.0427-0.10584zm0.24732 0.0732c-0.0037-0.0296 0.04855-0.18198 0.11605-0.33866l0.12273-0.28489-0.0169 0.26692c-0.0093 0.1468-0.04222 0.25134-0.07317 0.2323-0.03095-0.019-0.07556 0.0132-0.09915 0.0717-0.02358 0.0585-0.04589 0.0822-0.04956 0.0526zm-1.016-0.29194c0.0041-0.0986 0.02412-0.11869 0.05115-0.0512 0.02446 0.0611 0.02145 0.13414-0.0067 0.16228-0.02813 0.0281-0.04814-0.0219-0.04447-0.11113zm0.95601-0.38626c6e-3 -0.21633 0.04602-0.37201 0.08886-0.34595 0.04284 0.0261 0.056-0.01 0.02924-0.0794-0.02706-0.0705-0.0021-0.12678 0.05617-0.12678 0.06065 0 0.10482 0.11001 0.10482 0.26106 0 0.14358-0.01891 0.20433-0.04202 0.13501-0.02489-0.0747-0.084 0.0116-0.14503 0.21166l-0.10301 0.33772zm1.33 0.13226c0.0041-0.0986 0.02412-0.11869 0.05115-0.0511 0.02446 0.0611 0.02145 0.13414-0.0067 0.16228-0.02813 0.0281-0.04814-0.0219-0.04447-0.11113zm0.41794-0.33867c6.77e-4 -0.0893 0.03997-0.21942 0.08724-0.28927 0.06276-0.0927 0.07062-0.0585 0.02913 0.127-0.06964 0.31131-0.1181 0.37889-0.11636 0.16227zm0.86188-0.16227c0.0017-0.1397 0.0207-0.1866 0.04217-0.10423 0.02147 0.0824 0.02005 0.19668-0.0031 0.254-0.02319 0.0573-0.04076-0.0101-0.03903-0.14977zm0.3785-0.46567c0.02738-0.30268 0.10185-0.67821 0.1655-0.8345 0.06364-0.15628 0.09103-0.3241 0.06086-0.37291-0.03017-0.0488-0.01862-0.0664 0.02566-0.039 0.04512 0.0279 0.08219-0.0873 0.08433-0.26208 0.0065-0.53406 0.13515-1.2356 0.25896-1.4125 0.10554-0.15082 0.11252-0.11842 0.06387 0.29633-0.03004 0.25612-0.09502 0.61807-0.14441 0.80434-0.04938 0.18626-0.10143 0.50733-0.11566 0.71348-0.01423 0.20615-0.08326 0.54905-0.1534 0.762-0.07014 0.21295-0.16531 0.50148-0.2115 0.64118-0.06531 0.19752-0.07291 0.13163-0.0342-0.29633zm-3.6558 0.0847c0.02226-0.20955 0.06334-0.6096 0.09127-0.889s0.12562-0.8128 0.21709-1.1853c0.09147-0.37253 0.18087-0.77258 0.19867-0.889 0.05536-0.36204 0.47994-2.072 0.52555-2.1167 0.06802-0.0666-0.06035 0.95415-0.14376 1.143-0.08593 0.19457-0.33732 0.95766-0.33732 1.024 0 0.0244 0.0381 0.0208 0.08467-8e-3s0.08467-0.14308 0.08467-0.254 0.0381-0.22522 0.08467-0.254c0.04657-0.0288 0.08467-0.0166 0.08467 0.0269 0 0.14596-0.26582 1.3256-0.33734 1.497-0.12222 0.29297-0.18162 0.49983-0.21881 0.762-0.01982 0.1397-0.11219 0.53975-0.20527 0.889-0.13135 0.49285-0.16017 0.54971-0.12876 0.254zm1.5379-0.33867c0.0282-0.30268 0.08414-0.60748 0.12431-0.67733 0.09078-0.15785-0.0066 0.8205-0.10529 1.0583-0.04083 0.0984-0.04881-0.0614-0.01903-0.381zm2.3275 0.42333c0-0.0699 0.03274-0.2032 0.07277-0.29633 0.04586-0.10674 0.07276-0.12238 0.07276-0.0423 0 0.0699-0.03274 0.2032-0.07276 0.29633-0.04587 0.10673-0.07277 0.12238-0.07277 0.0423zm-2.8491-0.17081c-0.06857-0.11095 0.03951-1.0089 0.14606-1.2135 0.06697-0.1286 0.14541-0.82244 0.18077-1.5989 0.0037-0.0808 0.03476-0.11889 0.06906-0.0846 0.0343 0.0343 0.03015 0.20521-0.0092 0.37979-0.03937 0.17458-0.04429 0.31743-0.01093 0.31743 0.07266 0-0.11401 1.4457-0.23933 1.8536-0.04854 0.15797-0.06806 0.3199-0.04338 0.35983 0.02468 0.0399 0.02583 0.0726 0.0025 0.0726-0.02328 0-0.06629-0.0388-0.09557-0.0862zm2.2565 1e-3c0-0.0699 0.03274-0.2032 0.07277-0.29633 0.04587-0.10674 0.07276-0.12239 0.07276-0.0423 0 0.0699-0.03274 0.2032-0.07276 0.29634-0.04587 0.10673-0.07277 0.12238-0.07277 0.0423zm-3.5565-0.48683c0.12214-0.47031 0.15734-0.55795 0.20494-0.51035 0.05897 0.059-0.15197 0.82785-0.22712 0.82785-0.03315 0-0.02318-0.14288 0.02218-0.3175zm2.0235 0.21666c0.0016-0.061 0.05745-0.35848 0.12402-0.66116 0.06658-0.30269 0.12239-0.65263 0.12403-0.77766 0.0016-0.12503 0.04945-0.33458 0.10626-0.46567 0.05681-0.13109 0.10969-0.44789 0.11752-0.70401 0.01798-0.58801 0.1119-1.016 0.22296-1.016 0.05498 0 0.06204 0.12945 0.0196 0.35984-0.03645 0.1979-0.05985 0.49058-0.05199 0.65038 0.02359 0.48012-0.22618 2.0646-0.37132 2.3556-0.14992 0.30053-0.29568 0.43007-0.29108 0.2587zm-2.1884-1.4956c-0.01213-1.3295 0.04602-1.8312 0.22693-1.9578 0.03461-0.0242 0.14967-0.21551 0.2557-0.42506l0.19277-0.381-0.05546 0.71967c-0.0326 0.42307-0.14278 0.96392-0.26734 1.3123-0.27939 0.78154-0.33523 1.0373-0.11094 0.50826 0.09865-0.23269 0.20059-0.44224 0.22654-0.46567 0.09456-0.0854-0.08275 0.81765-0.33862 1.7245-0.11117 0.394-0.11696 0.34772-0.12957-1.0352zm1.7688 1.2931c0.0041-0.0986 0.02412-0.1187 0.05115-0.0512 0.02446 0.0611 0.02145 0.13415-0.0067 0.16228-0.02813 0.0281-0.04814-0.0219-0.04447-0.11112zm1.2863-0.31788c0.02729-0.26439 0.12268-0.58262 0.21332-0.71166 0.09018-0.12837 0.24322-0.41438 0.34008-0.63557 0.09687-0.2212 0.20144-0.40217 0.23239-0.40217 0.09288 0-0.04121 0.42696-0.34902 1.1113-0.15972 0.35511-0.2904 0.72434-0.2904 0.8205 0 0.0962-0.04404 0.20207-0.09787 0.23534-0.07171 0.0443-0.08468-0.0673-0.04851-0.41776zm0.32296 0.4096c0.0088-0.16038 0.14992-0.43043 0.15484-0.29633 0.0026 0.0699-0.03228 0.18415-0.07742 0.254-0.04514 0.0699-0.07998 0.0889-0.07742 0.0423zm0.51921-0.33867c-8.63e-4 -0.1397 0.02893-0.34925 0.06621-0.46566l0.06779-0.21167-0.0016 0.21167c-8.72e-4 0.11641-0.03066 0.32596-0.06621 0.46566l-0.06463 0.254-0.0016-0.254zm-2.7211-7e-3c0.0041-0.0986 0.02413-0.11869 0.05115-0.0511 0.02446 0.0611 0.02145 0.13414-0.0067 0.16227-0.02813 0.0281-0.04814-0.0219-0.04447-0.11112zm0.6779-0.16228c-0.0026-0.1397 0.03228-0.31115 0.07742-0.381 0.06469-0.1001 0.08109-0.0822 0.07742 0.0847-0.0026 0.11641-0.0374 0.28786-0.07742 0.381-0.06247 0.14538-0.07342 0.13341-0.07742-0.0847zm-0.54939-0.63347c0.02485-0.25527 0.06175-0.48069 0.082-0.50094 0.08917-0.0892 0.08357 0.0662-0.018 0.49941l-0.10918 0.46567zm2.8348 0.28775c0.0041-0.0986 0.02412-0.1187 0.05115-0.0512 0.02446 0.0611 0.02145 0.13415-0.0067 0.16228-0.02813 0.0281-0.04815-0.0219-0.04447-0.11112zm-0.41665-0.11995c0-0.11641 0.01922-0.16404 0.0427-0.10583 0.02349 0.0582 0.02349 0.15346 0 0.21167-0.02349 0.0582-0.0427 0.0106-0.0427-0.10584zm1.0093-0.13405c0.0041-0.0986 0.02412-0.1187 0.05115-0.0512 0.02446 0.0611 0.02145 0.13415-0.0067 0.16228-0.02813 0.0281-0.04814-0.0219-0.04447-0.11112zm-2.6288-0.11995c0-0.11641 0.03693-0.26881 0.08207-0.33866 0.06497-0.10053 0.08207-0.0829 0.08207 0.0847 0 0.11642-0.03693 0.26882-0.08207 0.33867-0.06497 0.10053-0.08207 0.0829-0.08207-0.0847zm-0.15347-0.127c-8.64e-4 -0.1397 0.02893-0.34925 0.06621-0.46566l0.06779-0.21167-0.0016 0.21167c-8.72e-4 0.11641-0.03066 0.32596-0.06621 0.46566l-0.06463 0.254-0.0016-0.254zm-4.183-0.40216c-0.15329-0.51516-0.12494-2.5695 0.04645-3.3655 0.18141-0.84256 0.29127-1.1969 0.30082-0.97029 4e-3 0.095 0.06672 0.39979 0.13937 0.67733 0.11402 0.43558 0.11948 0.71892 0.0399 2.071-0.0507 0.86148-0.11087 1.652-0.1337 1.7568-0.06789 0.31153-0.27651 0.2216-0.39284-0.16933zm5.5733 0.10583c0.02681-0.16298 0.1068-0.52493 0.17776-0.80433 0.07097-0.2794 0.1781-0.7366 0.23808-1.016 0.14113-0.65747 0.36018-1.5403 0.46216-1.8627 0.10894-0.34436 0.04316 0.79516-0.11641 2.0166-0.08878 0.67959-0.16324 0.9636-0.28856 1.1007-0.0929 0.1016-0.2483 0.33713-0.34534 0.5234l-0.17644 0.33866zm-2.7634-0.0656c0-0.14471 0.03753-0.28631 0.08339-0.31465 0.05211-0.0322 0.06343 0.0533 0.03017 0.22783-0.07131 0.37434-0.11356 0.40664-0.11356 0.0868zm0.59935 0.0162c0.0041-0.0986 0.02413-0.11869 0.05115-0.0511 0.02446 0.0611 0.02145 0.13414-0.0067 0.16228-0.02813 0.0281-0.04814-0.0219-0.04447-0.11113zm3.1327-0.0847c0.0041-0.0986 0.02413-0.11869 0.05115-0.0512 0.02446 0.0611 0.02145 0.13414-0.0067 0.16228-0.02813 0.0281-0.04815-0.0219-0.04447-0.11113zm-2.9303-0.42795c0.09284-0.84877 0.45422-2.4888 0.57577-2.613 0.13479-0.13771-0.0282 1.0186-0.33779 2.3963-0.17224 0.7665-0.31204 0.89381-0.23798 0.21671zm0.97627 0.24245c0-0.14471 0.03753-0.28631 0.08339-0.31465 0.05211-0.0322 0.06343 0.0533 0.03017 0.22783-0.07131 0.37434-0.11356 0.40664-0.11356 0.0868zm-0.15218-0.10377c-0.0013-0.16299 0.02735-0.48684 0.06362-0.71967l0.06594-0.42333 0.0064 0.381c0.0035 0.20955-0.02509 0.5334-0.06362 0.71966l-0.07005 0.33867-0.0023-0.29633zm0.79076-0.381c0.05379-0.67831 0.11529-0.97367 0.20274-0.97367 0.06119 0-0.11913 1.3009-0.20431 1.474-0.02498 0.0508-0.02428-0.17437 0.0016-0.50033zm1.2143 0.42333c-0.02668-0.0466-1e-3 -0.25612 0.05698-0.46567 0.06564-0.23707 0.10484-0.30104 0.10378-0.16933-0.0026 0.32193-0.10604 0.73052-0.16077 0.635zm-5.8822-0.46567c0.02395-0.25611 0.06915-0.96096 0.10045-1.5663 0.05079-0.98235 0.088-1.178 0.34615-1.8203 0.15908-0.39582 0.27059-0.62442 0.24781-0.508-0.02279 0.11641-0.10446 0.70696-0.18149 1.3123-0.07703 0.60537-0.16912 1.1388-0.20463 1.1853-0.1196 0.15683-0.1565 0.45729-0.0601 0.48942 0.06997 0.0233 0.0655 0.17773-0.01666 0.57556-0.15318 0.7418-0.2879 0.93499-0.23152 0.33202zm-2.0879-0.0184c-0.08149-0.17313-0.15084-0.40173-0.15412-0.508-0.0033-0.10628-0.03497-0.26738-0.07044-0.35802-0.05973-0.15263-0.06858-0.14951-0.11989 0.0423-0.03047 0.11392-0.05592 0.35001-0.05656 0.52463-7.62e-4 0.2186-0.03894 0.3175-0.12245 0.3175-0.12187 0-0.27175-0.30759-0.2269-0.46566 0.01321-0.0466 0.05802-0.33232 0.09957-0.635 0.40668-2.9623 0.61979-3.9751 0.7988-3.796 0.02475 0.0247 0.03491 1.2033 0.02258 2.619-0.02198 2.5232-0.02535 2.5678-0.17059 2.2592zm0.29069-2.3311c-0.0099-1.6853 0.01465-2.6458 0.0676-2.6458 0.04572 0 0.22044-0.13335 0.38827-0.29633 0.30301-0.29427 0.62986-0.39331 0.62863-0.1905-0.0027 0.44539-0.34289 2.1802-0.42754 2.1802-0.0365 0-0.09292 0.12383-0.12537 0.27517-0.03245 0.15134-0.13073 0.4252-0.21839 0.60857-0.08767 0.18337-0.1542 0.45007-0.14786 0.59267 0.0074 0.16712 0.02372 0.19802 0.04584 0.0869 0.01887-0.0948 0.10202-0.21461 0.18477-0.26629 0.14327-0.0895 0.14505-0.0488 0.03732 0.84965-0.1246 1.0391-0.17736 1.2667-0.18927 0.81663-0.01828-0.69096-0.13266-0.71778-0.1805-0.0423-0.02638 0.37254-0.05496-0.51329-0.0635-1.9685zm0.39641 2.4792c-0.02179-0.0218 0.0079-0.35516 0.06594-0.74083 0.05806-0.38567 0.10764-0.86089 0.11018-1.056 0.0025-0.19516 0.04272-0.37838 0.08928-0.40716 0.04657-0.0288 0.08467-0.16438 0.08467-0.30133s0.03228-0.249 0.07173-0.249 0.11574-0.0857 0.16953-0.1905c0.09149-0.17822 0.09521-0.17413 0.05761 0.0635-0.06989 0.44171-0.32514 2.4492-0.33025 2.5973-0.0027 0.0781-0.03483 0.12345-0.07142 0.10084-0.03659-0.0226-0.06652 0.0183-0.06652 0.0909 0 0.12634-0.09713 0.17598-0.18073 0.0924zm3.7908-0.89046c0.05133-0.91301 0.13093-1.2712 0.28248-1.2712 0.04772 0 0.08676-0.0572 0.08676-0.127 0-0.0699 0.0381-0.127 0.08467-0.127s0.08467-0.0762 0.08467-0.16933c0-0.0931 0.0381-0.16933 0.08467-0.16933s0.08467-0.0549 0.08467-0.12201c0-0.0671 0.03403-0.14303 0.07562-0.16873 0.09245-0.0571-0.01144 0.43595-0.14406 0.68376-0.05221 0.0976-0.06769 0.20755-0.03441 0.24442 0.03329 0.0369 0.01707 0.0422-0.03603 0.0119-0.06151-0.0351-0.11807 0.0595-0.15585 0.26095-0.03262 0.17386-0.08411 0.3545-0.11443 0.40142-0.07636 0.11817-0.26545 0.65956-0.26637 0.76265-4.23e-4 0.0466 0.05616-0.0245 0.12572-0.15785 0.06956-0.13338 0.12648-0.3207 0.12648-0.41627 0-0.0956 0.02446-0.14931 0.05435-0.11942 0.07774 0.0777-0.14022 1.0451-0.27538 1.2222-0.09617 0.12603-0.10585 0.0135-0.06354-0.73908zm1.1312 0.38803c0-0.11736 0.0762-0.54019 0.16933-0.93961 0.09313-0.39942 0.17313-0.90572 0.17777-1.1251 0.0046-0.21939 0.04099-0.49414 0.08078-0.61056 0.11856-0.34691-0.05168 1.978-0.18108 2.4729-0.09877 0.3778-0.2468 0.49917-0.2468 0.20235zm0.59524-0.14026c-0.0014-0.11916 0.05516-0.29061 0.12572-0.381 0.12095-0.15494 0.12515-0.14981 0.07324 0.0897-0.08493 0.39183-0.19584 0.55424-0.19896 0.29135zm-7.4574-0.27239c0.04121-0.34882 0.04298-0.35059 0.07169-0.0717 0.01619 0.15726-0.0028 0.31819-0.04225 0.35762-0.03943 0.0394-0.05268-0.0892-0.02944-0.28593zm3.7479 0.0657c-8.63e-4 -0.1397 0.02893-0.34925 0.06621-0.46567l0.06779-0.21167-0.0016 0.21167c-8.72e-4 0.11642-0.03066 0.32597-0.06621 0.46567l-0.06463 0.254-0.0016-0.254zm1.1409-0.29634c0.02663-0.30268 0.06243-0.56621 0.07954-0.58561 0.0612-0.0694 0.01283 0.71679-0.05687 0.92428-0.04458 0.13273-0.05304 6e-3 -0.02267-0.33867zm1.4787 0.254c0-0.11641 0.01922-0.16404 0.0427-0.10583 0.02349 0.0582 0.02349 0.15346 0 0.21167-0.02349 0.0582-0.0427 0.0106-0.0427-0.10584zm-6.9025-0.37298c-0.32173-0.6922-0.3479-0.89988-0.17883-1.4191 0.18199-0.55888 0.6221-1.493 0.7368-1.5639 0.09707-0.06 0.04347 0.68911-0.14927 2.086-0.06746 0.48895-0.13473 1.0033-0.14949 1.143-0.02521 0.23868-0.04084 0.22385-0.25922-0.24598zm0.8396 0.0691c-0.0782-0.41682 0.0282-1.6978 0.16969-2.0431 0.06145-0.14995 0.13825-0.54185 0.17067-0.87087 0.04518-0.45847 0.09588-0.618 0.21704-0.68284 0.20738-0.11098 0.20673-0.0942-0.06224 1.6147-0.12093 0.76835-0.23882 1.5684-0.26198 1.778-0.0558 0.5049-0.1597 0.59584-0.23319 0.2041zm6.9927 0.1769c0-0.0931 0.03274-0.24553 0.07276-0.33866l0.07277-0.16934v0.16934c0 0.0931-0.03274 0.24553-0.07277 0.33866l-0.07276 0.16934zm1.1801-7e-3c0.0041-0.0986 0.02412-0.11869 0.05115-0.0511 0.02446 0.0611 0.02145 0.13414-0.0067 0.16227-0.02813 0.0281-0.04814-0.0219-0.04447-0.11112zm-8.6213-0.24695c9.4e-4 -0.18626 0.01828-0.25249 0.03853-0.14718 0.02025 0.10532 0.01948 0.25772-0.0017 0.33867-0.02119 0.081-0.03776-5e-3 -0.03682-0.19149zm4.1588-0.27057c0.02997-0.21867 0.08577-0.41869 0.124-0.4445 0.03823-0.0258 0.17275-0.23743 0.29893-0.47026s0.30331-0.51858 0.39362-0.635l0.1642-0.21167-0.0054 0.29634c-0.0029 0.16298-0.05151 0.65828-0.1079 1.1007l-0.10254 0.80434-0.25038-0.8418-0.23426 0.39973c-0.12884 0.21985-0.25688 0.39973-0.28453 0.39973s-0.02575-0.17891 0.0042-0.39757zm1.0691 0.27057c-0.0076-0.47295 0.21191-2.4977 0.27076-2.4977 0.03741 0 0.06802-0.0398 0.06802-0.0884s0.09525-0.19108 0.21167-0.31663 0.21167-0.27629 0.21167-0.33497c0-0.0587 0.03038-0.1067 0.06751-0.1067 0.087 0 0.02083 1.098-0.07747 1.2856-0.04109 0.0784-0.07471 0.24119-0.07471 0.36169s-0.1143 0.47118-0.254 0.77928-0.25458 0.62159-0.2553 0.69664c-6.78e-4 0.0751-0.03823 0.19361-0.08337 0.26346-0.06808 0.10535-0.08254 0.0981-0.08479-0.0423zm3.0155-0.1905c0.05984-0.45904 0.21553-0.96897 0.35543-1.1642 0.0743-0.10367 0.10399-0.11721 0.07655-0.0349-0.02465 0.0739-0.11472 0.44541-0.20015 0.8255-0.15889 0.70693-0.30624 0.94438-0.23183 0.37358zm-0.56043-0.0658c-4.89e-4 -0.41955 0.26676-1.7333 0.3526-1.7333 0.0349 0 0.09016-0.14238 0.12281-0.31639 0.03265-0.17401 0.1483-0.50738 0.25701-0.74083 0.10871-0.23345 0.20384-0.5197 0.21139-0.63612 0.0076-0.11641 0.04012 0.036 0.07236 0.33867 0.03224 0.30268 0.02114 0.72178-0.02466 0.93133-0.17991 0.82305-0.32348 1.274-0.39209 1.2316-0.11769-0.0727-0.23454 0.1422-0.28243 0.51949-0.02472 0.19474-0.10606 0.44135-0.18077 0.548-0.13442 0.19191-0.13583 0.19044-0.13622-0.14242zm1.7249 0.0553c0.02944-0.15716 0.05353-0.36354 0.05353-0.45861 0-0.0951 0.02523-0.14763 0.05607-0.1168 0.09058 0.0906 0.0414 0.67118-0.06524 0.77024-0.07331 0.0681-0.08444 0.0192-0.04435-0.19483zm-3.9248-0.0106c4.8e-5 -0.0699 0.0614-0.2413 0.13633-0.381 0.07494-0.1397 0.16668-0.34925 0.20387-0.46567 0.06607-0.20682 0.06773-0.20585 0.07226 0.0423 0.0025 0.1397-0.08923 0.4064-0.20396 0.59267-0.11472 0.18627-0.20855 0.28152-0.2085 0.21167zm2.6371-0.0847c0-0.11642 0.01922-0.16404 0.0427-0.10583 0.02349 0.0582 0.02349 0.15345 0 0.21166-0.02349 0.0582-0.0427 0.0106-0.0427-0.10583zm0.62782-0.16933c0.02339-0.20955 0.0969-0.59055 0.16335-0.84667 0.11871-0.45756 0.12007-0.45904 0.07828-0.0847-0.02339 0.20955-0.0969 0.59055-0.16335 0.84667-0.11871 0.45756-0.12007 0.45903-0.07828 0.0847zm-8.5865 0.0847c0-0.11641 0.01922-0.16404 0.0427-0.10583 0.02349 0.0582 0.02349 0.15346 0 0.21167-0.02349 0.0582-0.0427 0.0106-0.0427-0.10584zm7.952-0.47272c0.0041-0.0986 0.02413-0.11869 0.05115-0.0512 0.02446 0.0611 0.02145 0.13414-0.0067 0.16228-0.02813 0.0281-0.04815-0.0219-0.04447-0.11113zm-7.8389-0.71261c0.08812-1.463 0.12079-1.6484 0.31139-1.7674 0.17382-0.10855 0.17533-0.10249 0.11511 0.45985-0.03356 0.31341-0.11456 0.72157-0.17999 0.90701-0.06543 0.18544-0.11954 0.47526-0.12026 0.64403-6.77e-4 0.16877-0.04031 0.364-0.088 0.43385-0.06053 0.0887-0.07208-0.1158-0.03826-0.67733zm4.8854 0.55033c0.0017-0.1397 0.0207-0.1866 0.04217-0.10422 0.02147 0.0824 0.02005 0.19668-0.0031 0.254-0.02319 0.0573-0.04076-0.0101-0.03903-0.14978zm2.4138-0.508c0.02777-0.4191 0.05429-0.99695 0.05892-1.2841 0.0046-0.28716 0.04237-0.55386 0.08384-0.59266 0.04371-0.0409 0.05193 0.0273 0.01955 0.16228-0.06734 0.28069 0.0067 0.3077 0.11596 0.0423 0.06405-0.15549 0.07522-0.12587 0.06077 0.16113-0.0097 0.1934-0.043 0.33605-0.07392 0.317-0.03093-0.019-0.08305 0.26086-0.11583 0.62203-0.09274 1.0218-0.20848 1.4652-0.1493 0.572zm-5.592 0.54542c0.05388-0.0671 0.17499-0.35068 0.26913-0.63008 0.12473-0.37019 0.17281-0.44555 0.17721-0.27778 0.0064 0.24367-0.28356 0.87371-0.44723 0.97178-0.0717 0.043-0.07147 0.0263 8.98e-4 -0.0639zm4.7746-0.0797c-9.48e-4 -0.11642 0.05318-0.36407 0.12028-0.55033l0.12201-0.33867 6.77e-4 0.33867c4.23e-4 0.18626-0.05373 0.43391-0.12028 0.55033l-0.121 0.21167-0.0017-0.21167zm2.8094-0.0847c0-0.16298 0.01743-0.22966 0.03872-0.14816 0.0213 0.0815 0.0213 0.21484 0 0.29633-0.0213 0.0815-0.03872 0.0148-0.03872-0.14817zm-5.4649-0.254c0.07442-0.78617 0.34098-2.3749 0.40905-2.438 0.03539-0.0328 0.03722 0.16896 0.0041 0.44836-0.08254 0.69547-0.22252 1.9164-0.23954 2.0893-0.0077 0.0781-0.04102 0.12523-0.07409 0.1048-0.03306-0.0204-0.07889 0.03-0.10184 0.11205-0.02295 0.0821-0.02189-0.0603 0.0024-0.31647zm0.30254-0.062c0.04481-0.26859 0.11534-0.52455 0.15674-0.56878 0.0414-0.0442 0.07527-0.14902 0.07527-0.23284 0-0.0838 0.0381-0.1524 0.08467-0.1524s0.08467-0.0925 0.08467-0.20562c0-0.11309 0.04763-0.25596 0.10583-0.3175 0.13786-0.14574 0.31417-0.60912 0.41038-1.0786 0.13273-0.64769 0.18251-0.50264 0.11383 0.33171-0.03641 0.44239-0.06788 0.86821-0.06993 0.94629-2e-3 0.0781-0.03366 0.12345-0.07025 0.10083-0.03659-0.0226-0.06652 0.0415-0.06652 0.14238 0 0.13481-0.67129 1.2729-0.88483 1.5002-0.01172 0.0125 0.01534-0.19707 0.06016-0.46567zm1.5867 0.0987c0-0.21261 0.04238-0.46576 0.09419-0.56256s0.10634-0.53255 0.12118-0.96833c0.01973-0.5791 0.06274-0.82809 0.15981-0.92516 0.07305-0.0731 0.13282-0.20404 0.13282-0.2911 0-0.0871 0.04218-0.18436 0.09374-0.21622 0.06278-0.0388 0.07527 2.5e-4 0.03783 0.11821-0.03075 0.0969-0.09005 0.35883-0.13178 0.58211-0.04173 0.22327-0.11259 0.5774-0.15748 0.78695-0.04489 0.20955-0.06841 0.39434-0.05226 0.41064 0.0691 0.0698 0.23706-0.11475 0.36391-0.39981l0.13668-0.30716 0.0312 0.24902c0.05475 0.43704-0.06552 0.93554-0.28206 1.1691-0.11501 0.12403-0.20911 0.28433-0.20911 0.35621 0 0.0719-0.0381 0.1307-0.08467 0.1307s-0.08467 0.0572-0.08467 0.127-0.0381 0.127-0.08467 0.127-0.08467-0.17396-0.08467-0.38657zm1.1357-0.34208c-0.0397-0.21164-0.01475-0.38699 0.08132-0.5715l0.1386-0.26619-0.05672 0.381c-0.0312 0.20955-0.05089 0.46673-0.04377 0.5715 0.02019 0.29701-0.05589 0.22387-0.11943-0.11481zm1.4956 2e-3c0.0041-0.0986 0.02412-0.11869 0.05115-0.0511 0.02446 0.0611 0.02145 0.13414-0.0067 0.16228-0.02813 0.0281-0.04814-0.0219-0.04447-0.11113zm-3.38-0.11994c0-0.11642 0.01922-0.16404 0.04271-0.10583 0.02349 0.0582 0.02349 0.15345 0 0.21166-0.02349 0.0582-0.04271 0.0106-0.04271-0.10583zm-2.6688-0.31162c0.02862-0.22401 0.10874-0.5311 0.17804-0.68241 0.08523-0.1861 0.10825-0.39348 0.07114-0.64094-0.03052-0.20353-0.01514-0.4571 0.03467-0.57155 0.07705-0.17704 0.08448-0.15555 0.05329 0.15412-0.02334 0.23181-0.0054 0.34082 0.05033 0.30635 0.16193-0.10008-0.15319 1.5504-0.33044 1.7308-0.08914 0.0907-0.09956 0.0365-0.05703-0.29633zm6.5568 0.26298c0.0041-0.0986 0.02412-0.11869 0.05115-0.0511 0.02446 0.0611 0.02145 0.13414-0.0067 0.16228-0.02813 0.0281-0.04814-0.0219-0.04447-0.11113zm1.4326-0.16228c0-0.12115-0.02265-0.12893-0.12592-0.0432-0.22859 0.18971-0.34277 0.0477-0.33372-0.41518 0.0047-0.24018 0.05222-0.48036 0.10561-0.53376 0.07299-0.073 0.07679-0.0264 0.01533 0.18794-0.08532 0.29749-0.04217 0.4824 0.04726 0.20252 0.15865-0.49652 0.20168-0.54997 0.37017-0.4598 0.09027 0.0483 0.24284 0.0879 0.33904 0.0879 0.18161 0 0.21601 0.13443 0.12307 0.48097-0.03048 0.11365-0.09514 0.16714-0.16818 0.13911-0.0772-0.0296-0.11866 0.0132-0.11866 0.12249 0 0.0924-0.05715 0.21546-0.127 0.27343-0.10464 0.0868-0.127 0.0794-0.127-0.0423zm0.85335-7e-3c0.0041-0.0986 0.02412-0.11869 0.05115-0.0511 0.02446 0.0611 0.02145 0.13414-0.0067 0.16227-0.02813 0.0281-0.04815-0.0219-0.04447-0.11112zm-6.947-0.16228c-7.62e-4 -0.0466 0.07182-0.63882 0.16137-1.3161 0.15071-1.1398 0.34207-1.7721 0.53683-1.7737 0.03608-2.5e-4 0.11197-0.10531 0.16864-0.23337 0.09533-0.21539 0.10499-0.18945 0.12895 0.34629 0.01424 0.31852-0.01208 0.62487-0.05848 0.6808-0.04641 0.0559-0.12572 0.28612-0.17624 0.51155-0.05052 0.22544-0.18188 0.60488-0.29191 0.84321-0.11003 0.23832-0.26027 0.56667-0.33388 0.72965-0.0736 0.16299-0.13448 0.25824-0.13528 0.21167zm5.0548-0.12021c-0.03683-0.14083-0.02581-0.17389 0.03702-0.11106 0.0492 0.0492 0.0728 0.13943 0.05244 0.20051-0.02114 0.0634-0.05952 0.025-0.08946-0.0894zm0.19209-0.0928c0-0.31636 0.18564-0.93 0.28134-0.93 0.03893 0 0.05074 0.10477 0.02625 0.23283s-0.06897 0.39476-0.09884 0.59267c-0.06226 0.41255-0.20876 0.48588-0.20876 0.1045zm2.2536 1e-3c0.02761-0.16298 0.08428-0.33253 0.12594-0.37676 0.11751-0.12479 0.08456 0.13088-0.05401 0.4191l-0.12212 0.254zm-0.4692 0c-0.0024-0.22136 0.26058-1.0767 0.40979-1.3329 0.14079-0.24176 0.11641 0.25443-0.02895 0.58924-0.06639 0.15292-0.17873 0.43044-0.24964 0.6167-0.10494 0.27566-0.12935 0.29929-0.1312 0.127zm-4.5344-0.55033c0.02568-0.37253 0.06594-0.94403 0.08946-1.27 0.04488-0.62197 0.16452-0.8471 0.40179-0.75605 0.18182 0.0698 0.17156 0.2663-0.03062 0.58672-0.33446 0.53005-0.34381 0.55033-0.25366 0.55033 0.04821 0 0.08765-0.0553 0.08765-0.12279 0-0.0675 0.05156-0.15326 0.11458-0.1905 0.06302-0.0372 0.13621-0.12486 0.16265-0.19471 0.08841-0.23362 0.06264 0.40936-0.03462 0.86367-0.08986 0.41972-0.40475 1.1396-0.4179 0.95541-0.0033-0.0459-0.04197-7e-3 -0.08599 0.0859-0.0539 0.11404-0.06479-0.0518-0.03334-0.508zm0.47732 0.46567c0-0.11642 0.01922-0.16405 0.0427-0.10584 0.02349 0.0582 0.02349 0.15346 0 0.21167-0.02349 0.0582-0.0427 0.0106-0.0427-0.10583zm-4.3593-0.381c0.06416-0.41853 0.11304-0.48978 0.11132-0.16228-6.77e-4 0.13582-0.03773 0.30409-0.08227 0.37394-0.05514 0.0865-0.06441 0.019-0.02905-0.21166zm8.762 0.127c0-0.11642 0.01922-0.16405 0.0427-0.10584 0.02349 0.0582 0.02349 0.15346 0 0.21167-0.02349 0.0582-0.0427 0.0106-0.0427-0.10583zm-2.2968 0.0423c0-0.0466 0.03693-0.14182 0.08207-0.21167 0.04514-0.0699 0.08207-0.0889 0.08207-0.0423s-0.03693 0.14182-0.08207 0.21167c-0.04514 0.0699-0.08207 0.0889-0.08207 0.0423zm-3.9617-0.78317c0.09085-0.81562 0.37201-1.7448 0.5868-1.9391 0.15773-0.14274 0.16104-0.13753 0.11862 0.18706-0.024 0.18365-0.06703 0.62976-0.09564 0.99137-0.0309 0.39061-0.10057 0.70603-0.17166 0.77712-0.06581 0.0658-0.11965 0.15465-0.11965 0.19741 0 0.0815-0.2887 0.44234-0.35388 0.44234-0.02073 0-0.0048-0.29528 0.0354-0.65617zm0.91782 0.60235c-0.0037-0.0529 0.05023-0.20529 0.11979-0.33867 0.06956-0.13338 0.12671-0.34729 0.127-0.47534 2.54e-4 -0.12806 0.03862-0.23284 0.08519-0.23284 0.1433 0 0.09366 0.47358-0.07202 0.68708-0.08618 0.11106-0.17842 0.25907-0.20498 0.32892-0.02656 0.0699-0.0513 0.0837-0.05498 0.0309zm2.7122-0.15785c-0.0023-0.1397 0.05175-0.32795 0.12012-0.41835 0.12305-0.16268 0.12427-0.16268 0.12049 0-0.0021 0.0904-0.05616 0.27865-0.12012 0.41835l-0.1163 0.254-0.0042-0.254zm-1.1922-0.18651c-0.0027-0.36197 0.03317-0.47904 0.39416-1.285 0.11221-0.25051 0.19041-0.51721 0.17378-0.59267-0.02664-0.12089-0.2832 0.33645-0.42174 0.7518-0.0233 0.0698-0.02238-0.21412 2e-3 -0.63104 0.0441-0.75274 0.26722-1.3818 0.45002-1.2688 0.09992 0.0618 0.0989 1.5161-0.0013 1.8515-0.26602 0.89052-0.33288 1.1867-0.28633 1.2685 0.02886 0.0507 0.02157 0.0642-0.01622 0.03s-0.11888 4e-3 -0.18022 0.0847c-0.09792 0.12896-0.11184 0.10349-0.1142-0.20899zm-5.3233 0.0595c0-0.11641 0.01922-0.16404 0.0427-0.10583 0.02349 0.0582 0.02349 0.15346 0 0.21167-0.02349 0.0582-0.0427 0.0106-0.0427-0.10584zm6.2601 0.16934c-0.0031-0.0233 0.04843-0.21379 0.11446-0.42334 0.06603-0.20955 0.12088-0.3048 0.1219-0.21166 0.0016 0.14752-0.22155 0.74707-0.23636 0.635zm-0.13838-1.087c0.01779-0.48144 0.05894-0.90054 0.09145-0.93134 0.0325-0.0308 0.04312 0.0869 0.0236 0.26151-0.01952 0.17463-5e-3 0.3175 0.03217 0.3175 0.11183 0 0.06879 0.70108-0.05977 0.97367-0.11014 0.23352-0.11719 0.18344-0.08745-0.62134zm-2.2338 0.44495c0.0041-0.0986 0.02412-0.11869 0.05115-0.0512 0.02446 0.0611 0.02145 0.13414-0.0067 0.16228-0.02813 0.0281-0.04814-0.0219-0.04447-0.11113zm1.099-0.16461c0.0028-0.18498 0.04307-0.52683 0.08955-0.75967 0.04648-0.23283 0.09987-0.59478 0.11865-0.80433 0.01878-0.20955 0.07277-0.51435 0.11998-0.67733 0.04721-0.16299 0.10461-0.37254 0.12757-0.46567 0.02296-0.0931 0.0185 0.0593-0.0099 0.33867-0.0284 0.2794-0.04493 0.66642-0.03673 0.86004 0.02131 0.50329-0.14559 1.4612-0.29069 1.6684-0.11688 0.16686-0.12321 0.15831-0.11843-0.16006zm3.6184 0.17001c-0.2147-0.3474-0.2573-1.659-0.05787-1.7823 0.04129-0.0255 0.07507-0.12034 0.07507-0.21073 0-0.0904 0.04223-0.16433 0.09385-0.16433 0.0572 0 0.07361-0.0806 0.04202-0.20648-0.05821-0.23193 0.09072-0.3868 0.17094-0.17776 0.05063 0.13195-0.1008 1.7937-0.21381 2.3462-0.03158 0.15441-0.08117 0.24232-0.1102 0.19536zm-5.016-0.54868c0.01883-0.20955 0.05713-0.63817 0.08511-0.9525 0.02798-0.31432 0.08844-0.5715 0.13436-0.5715 0.21444 0 0.41103 0.1909 0.41103 0.39914 0 0.29594-0.18305 0.81093-0.31894 0.8973-0.05951 0.0378-0.16167 0.19023-0.22701 0.33867l-0.1188 0.26989zm-1.751 0.10584c-0.05423-0.31867-0.03345-0.61563 0.09924-1.4182 0.08469-0.51223 0.25494-1.579 0.37833-2.3707 0.23873-1.5315 0.27418-1.7003 0.34278-1.6317 0.02395 0.0239-0.07194 0.72907-0.2131 1.5669-0.14116 0.83785-0.29557 1.8987-0.34314 2.3574-0.04757 0.45872-0.1209 0.86845-0.16295 0.91051-0.04206 0.0421-0.05556 0.20532-0.03 0.36281s0.02243 0.28635-0.0069 0.28635c-0.02938 0-0.05827-0.0286-0.06422-0.0635zm2.2281-0.21167c0.0505-0.15134 0.13033-0.31327 0.17739-0.35983 0.05754-0.0569 0.06405-0.0292 0.01989 0.0847-0.03612 0.0931-0.08427 0.25506-0.107 0.35984-0.02272 0.10477-0.07299 0.1905-0.11171 0.1905-0.03872 0-0.02907-0.12383 0.02143-0.27517zm1.8534 0.14111c0.0041-0.0986 0.02412-0.11869 0.05115-0.0511 0.02446 0.0611 0.02145 0.13414-0.0067 0.16228-0.02813 0.0281-0.04814-0.0219-0.04447-0.11113zm2.9633-0.33867c0.0041-0.0986 0.02413-0.11869 0.05115-0.0512 0.02446 0.0611 0.02145 0.13414-0.0067 0.16228-0.02813 0.0281-0.04814-0.0219-0.04447-0.11113zm-7.4064-0.12869c-0.14902-0.14489-0.15517-0.22871-0.08467-1.1532 0.07437-0.97521 0.08066-0.99764 0.2877-1.0263 0.11642-0.0161 0.26169-0.0704 0.32282-0.12062 0.08788-0.0722 0.10138-0.0483 0.06445 0.11395-0.02569 0.1129-0.12573 0.68075-0.22231 1.2619-0.09658 0.58113-0.18274 1.062-0.19145 1.0686-0.0087 7e-3 -0.08816-0.0583-0.17654-0.14426zm7.5279-0.83792c0.03214-0.39581 0.09028-0.87001 0.12919-1.0538 0.03892-0.18376 0.05575-0.35839 0.03742-0.38806-0.01834-0.0297 0.02467-0.0539 0.09557-0.0539 0.08753 0 0.11553 0.0566 0.08722 0.17639-0.02293 0.097-0.10658 0.57644-0.18588 1.0654-0.0793 0.48895-0.16168 0.90805-0.18307 0.93134-0.02139 0.0233-0.01259-0.28152 0.01955-0.67734zm-7.8593 0.14817c0.06791-0.60121 0.11115-0.61493 0.11115-0.0353 0 0.26388-0.03631 0.47978-0.08068 0.47978-0.04725 0-0.05988-0.18414-0.03047-0.4445zm-0.26205 0.20312c-0.03188-0.0516-0.0181-0.16827 0.03062-0.25931 0.04872-0.091 0.08706-0.19659 0.08519-0.23458-0.0019-0.038-0.062 0.0391-0.13363 0.17125-0.07163 0.13218-0.14221 0.22743-0.15684 0.21167-0.0344-0.037 0.19656-1.6952 0.24252-1.7412 0.01916-0.0192 0.11447 0.0149 0.21179 0.0757 0.1262 0.0788 0.16056 0.15941 0.11982 0.28104-0.03142 0.0938-0.05835 0.2344-0.05984 0.31248-0.0015 0.0781-0.0283 0.12614-0.05956 0.10682-0.08378-0.0518-0.15374 0.39344-0.10261 0.653 0.05007 0.25415-0.08414 0.57418-0.17746 0.42318zm1.3045-0.33012c-4.1e-5 -0.17463 0.14192-1.1748 0.31546-2.2225 0.26252-1.5849 0.32339-1.8398 0.36226-1.5167 0.0257 0.21357 0.10583 0.48027 0.17808 0.59266 0.17281 0.26885 0.08044 1.5239-0.12745 1.7318-0.0844 0.0844-0.13561 0.28025-0.13561 0.51866 0 0.381-0.16164 0.76638-0.4445 1.0598-0.1421 0.1474-0.14817 0.14069-0.14824-0.1638zm3.9081 0.14817c0-0.11642 0.01922-0.16405 0.0427-0.10584 0.02349 0.0582 0.02349 0.15346 0 0.21167-0.02349 0.0582-0.0427 0.0106-0.0427-0.10583zm-1.0657-0.46534c0.02469-0.32597 0.0398-0.92559 0.03357-1.3325-0.0084-0.54813 0.02076-0.77191 0.11249-0.86364 0.06809-0.0681 0.1498-0.29714 0.18157-0.509 0.05732-0.38226 0.15738-0.49262 0.2434-0.26847 0.02463 0.0642 0.01102 0.26423-0.03026 0.4445-0.04128 0.18028-0.11704 0.68973-0.16836 1.1321-0.05131 0.44238-0.1662 1.071-0.2553 1.397l-0.162 0.59267zm3.2244 0.168c-0.06841-0.36573 0.0805-1.091 0.31846-1.5512 0.07377-0.14265 0.13413-0.33429 0.13413-0.42585 0-0.0916 0.04246-0.18064 0.09436-0.19794s0.09952-0.20703 0.10583-0.42162c0.0063-0.2146 0.04037-0.37262 0.07569-0.35116 0.03532 0.0214 0.10241-0.0492 0.1491-0.15694 0.06141-0.14176 0.0713-9e-3 0.03575 0.4814-0.04469 0.61613-0.40397 1.9495-0.63402 2.3529-0.04754 0.0834-0.06022 0.19405-0.02816 0.24592 0.03398 0.055 0.02005 0.0707-0.03341 0.0376-0.05326-0.0329-0.10478 0.0237-0.12291 0.13508-0.02284 0.14034-0.04827 0.10058-0.09481-0.14824zm-7.8985-0.18917c0.16583-1.4122 0.2058-1.5964 0.32146-1.4807 0.08479 0.0848 0.07472 0.19466-0.14742 1.6077-0.07021 0.44658-0.22788 0.33152-0.17404-0.127zm-0.41188 0.0436c-0.1397-0.0979-0.37972-0.29515-0.53338-0.43837-0.26066-0.24295-0.27778-0.29263-0.25556-0.74118 0.01323-0.26697 0.06217-0.47426 0.11005-0.46614 0.04742 8e-3 0.09828-0.0901 0.11301-0.2182 0.01474-0.12806 0.06236-0.23283 0.10583-0.23283 0.04347 0 0.07904-0.0762 0.07904-0.16934 0-0.0931 0.0381-0.16933 0.08467-0.16933s0.08467-0.0762 0.08467-0.16933c0-0.0931 0.0381-0.16934 0.08467-0.16934s0.08467-0.093 0.08467-0.20667 0.03478-0.22817 0.0773-0.25444c0.04252-0.0263 0.10301-0.19998 0.13444-0.386 0.03143-0.18602 0.09017-0.33822 0.13053-0.33822 0.04036 0 0.09841-0.13335 0.12898-0.29633 0.03057-0.16299 0.08159-0.29634 0.11337-0.29634 0.03178 0 0.10849-0.2286 0.17048-0.508 0.06198-0.2794 0.14287-0.508 0.17974-0.508 0.03687 0 0.10787-0.10477 0.15777-0.23283l0.09072-0.23283-0.04219 0.254c-0.0232 0.1397-0.07784 0.5207-0.12142 0.84666-0.06957 0.5204-0.21398 1.5264-0.39502 2.7517-0.04095 0.27715-0.14581 0.47912-0.38472 0.74099-0.18064 0.19799-0.3718 0.45516-0.4248 0.5715-0.053 0.11633-0.14741 0.21151-0.20978 0.21151-0.06238 0-0.11341 0.0345-0.11341 0.0767 0 0.19384 0.32618-0.0376 0.45068-0.31981 0.07645-0.17328 0.25091-0.42227 0.38769-0.55331l0.24869-0.23826-0.03851 0.36915c-0.02118 0.20304-0.07481 0.55966-0.11918 0.79249-0.04437 0.23283-0.09065 0.48746-0.10285 0.56585-0.01985 0.12758-0.0488 0.12386-0.27618-0.0355zm4.875-0.11411c0.0041-0.0986 0.02413-0.1187 0.05115-0.0512 0.02446 0.0611 0.02145 0.13415-0.0067 0.16228-0.02813 0.0281-0.04814-0.0219-0.04447-0.11112zm4.4873-0.16934c0.0041-0.0986 0.02412-0.11869 0.05115-0.0512 0.02446 0.0611 0.02145 0.13414-0.0067 0.16228-0.02813 0.0281-0.04814-0.0219-0.04447-0.11113zm-4.6125-0.10617c-0.03149-0.051-6.78e-4 -0.29397 0.06841-0.54004 0.06912-0.24607 0.14473-0.54265 0.16803-0.65906 0.0233-0.11642 0.02762 0.0639 0.0096 0.40065-0.03354 0.62658-0.13957 0.9707-0.24604 0.79845zm0.88349-0.19245c-0.0052-0.52922 0.0995-1.1145 0.17739-0.99166 0.11257 0.17754 0.07933 0.85351-0.05339 1.0857l-0.121 0.21167zm2.3365-0.0279c-0.13347-0.20371-0.13841-0.2768-0.04364-0.64656 0.05877-0.22929 0.13774-0.41689 0.17551-0.41689 0.03776 0 0.06866-0.0953 0.06866-0.21167 0-0.11641 0.03323-0.21166 0.07385-0.21166s0.09736-0.14707 0.12611-0.32683c0.02874-0.17975 0.11021-0.45597 0.18104-0.61383 0.1284-0.28618 0.1287-0.28529 0.10029 0.30566-0.02623 0.54564-0.23 1.5412-0.39861 1.9473-0.03866 0.0931-0.08434 0.22216-0.1015 0.28673-0.02076 0.0781-0.0816 0.0405-0.1817-0.11228zm1.8341-0.20587c0.02549-0.20355 0.08941-0.4131 0.14203-0.46567 0.07112-0.0711 0.08093 2e-3 0.03819 0.28542-0.0773 0.51229-0.2425 0.67751-0.18022 0.18025zm-0.86903 0.0738c0-0.0699 0.03693-0.18415 0.08207-0.254 0.07295-0.11289 0.08207-0.11289 0.08207 0 0 0.0699-0.03693 0.18415-0.08207 0.254-0.07296 0.11289-0.08207 0.11289-0.08207 0zm-4.7203-0.32669c-0.27604-0.31207-0.34745-0.5515-0.19296-0.64697 0.04657-0.0288 0.08467-0.12628 0.08467-0.21667 0-0.0904 0.0381-0.16433 0.08467-0.16433s0.08467-0.0571 0.08467-0.127 0.03057-0.127 0.06794-0.127 0.1365-0.19065 0.22029-0.42367c0.19388-0.53916 0.34175-0.64719 0.27557-0.20132-0.02683 0.18076-0.1067 0.74376-0.17748 1.2511-0.07078 0.50735-0.13904 0.93184-0.15168 0.94331-0.01264 0.0115-0.1457-0.1179-0.29569-0.28747zm0.43738 0.15736c0.01867-0.11642 0.06051-0.51647 0.09297-0.889s0.09027-0.71659 0.12846-0.76457c0.03819-0.048 0.08372-0.29563 0.10118-0.55033 0.0192-0.28006 0.03793-0.12206 0.0474 0.39974 0.0091 0.50161-0.01978 0.88474-0.069 0.91516-0.04657 0.0288-0.08759 0.1358-0.09117 0.23783-0.0036 0.10203-0.05989 0.3379-0.12514 0.52417s-0.10336 0.24342-0.08469 0.127zm5.3877 0.0353c0.0041-0.0986 0.02412-0.1187 0.05115-0.0512 0.02446 0.0611 0.02145 0.13415-0.0067 0.16228-0.02813 0.0281-0.04815-0.0219-0.04447-0.11112zm0.50132-0.0662c0-0.10748 0.24441-0.64639 0.29315-0.64639 0.02628 0-0.01109 0.14091-0.08305 0.31315-0.13281 0.31786-0.2101 0.44044-0.2101 0.33324zm-11.767-0.51151c-0.37031-0.80645-0.3343-1.4603 0.10509-1.9083 0.15078-0.15374 0.34261-0.37958 0.42628-0.50187l0.15213-0.22235-0.04409 0.29633c-0.02425 0.16299-0.10361 0.71544-0.17635 1.2277-0.07275 0.51223-0.16377 1.0647-0.20227 1.2277l-0.07001 0.29633zm11.344 0.10635c0-0.35835 0.15214-0.82798 0.3241-1.0004 0.10873-0.10903 0.11802-0.0935 0.07612 0.127-0.17815 0.93776-0.40022 1.4224-0.40022 0.87342zm-0.50541 0.0551c0-0.0931 0.03693-0.22648 0.08207-0.29633 0.06796-0.10517 0.08207-0.0979 0.08207 0.0423 0 0.0931-0.03693 0.22648-0.08207 0.29633-0.06796 0.10517-0.08207 0.0979-0.08207-0.0423zm-4.052-0.127c-0.0027-0.11642 0.02667-0.36407 0.06519-0.55033 0.04494-0.21725 0.07179-0.26278 0.07491-0.127 0.0027 0.11641-0.02667 0.36406-0.06519 0.55033-0.04494 0.21725-0.07179 0.26278-0.07491 0.127zm1.882 0.051c-0.02497-0.0651 0.03457-0.36036 0.13232-0.65617l0.17773-0.53783-0.04499 0.41398c-0.02475 0.22769-0.04499 0.52297-0.04499 0.65617 0 0.25138-0.14072 0.33059-0.22006 0.12385zm-4.197-0.55528c0.02655-0.55921 0.03638-0.58409 0.1924-0.48702 0.12052 0.075 0.15261 0.16447 0.12019 0.33513-0.02433 0.12806-0.06631 0.34714-0.09329 0.48684s-0.09366 0.25408-0.14817 0.25419c-0.0689 1.7e-4 -0.09058-0.17945-0.07113-0.58914zm6.0705-0.13072c0.04463-1.035 0.11409-1.5026 0.29979-2.0184l0.15729-0.43688 1e-3 0.59266c5.92e-4 0.32597-0.04004 0.74507-0.09023 0.93134-0.0502 0.18626-0.09106 0.43023-0.09079 0.54214 3.38e-4 0.15124-0.01884 0.17298-0.07475 0.0847-0.04639-0.0733-0.07572-0.0809-0.07652-0.0199-6.77e-4 0.0544-0.02682 0.16543-0.05802 0.24673-0.03867 0.10077-0.0252 0.12833 0.04233 0.0866 0.12781-0.079 0.1234-2.5e-4 -0.02324 0.41444-0.11662 0.32982-0.11889 0.31876-0.08689-0.42333zm-5.7081 0.26575c0.03734-0.19273 0.06955-0.39804 0.07158-0.45625 2e-3 -0.0582 0.06516-0.10583 0.1403-0.10583 0.10878 0 0.12558 0.056 0.08248 0.27516-0.02977 0.15134-0.06559 0.34817-0.0796 0.43738-0.01401 0.0892-0.08334 0.17071-0.15406 0.18109-0.10642 0.0156-0.11688-0.0415-0.06069-0.33155zm4.1842-2e-3c0.02183-0.22769 0.04027-0.49439 0.04098-0.59267 0.0011-0.14639 0.01613-0.15573 0.08337-0.0517 0.0583 0.0902 0.08245-0.0128 0.08337-0.35567 0.0019-0.71705 0.15371-1.3984 0.43451-1.9504 0.04113-0.0809 0.07211-0.29041 0.06884-0.46567-0.0048-0.25534-0.0204-0.285-0.07871-0.14931-0.04002 0.0931-0.07544 0.12482-0.07872 0.0704-0.01139-0.18932 0.09767-0.36675 0.22543-0.36675 0.1098 0 0.12267 0.13924 0.08808 0.9525-0.02275 0.53496-0.09591 1.101-0.16688 1.2912-0.0695 0.18627-0.21636 0.62442-0.32634 0.97367-0.10998 0.34925-0.22577 0.65405-0.25731 0.67733-0.03154 0.0233-0.07961 0.11854-0.10683 0.21167-0.02722 0.0931-0.03162-0.017-0.0098-0.24465zm-0.60052-0.26335c0.03901-0.42776 0.20589-0.88712 0.32271-0.88834 0.09064-9.4e-4 0.07777 0.14986-0.0555 0.6504-0.06434 0.24167-0.09247 0.46686-0.0625 0.50041 0.02997 0.0336 0.01012 0.0356-0.04411 5e-3 -0.05423-0.031-0.12124-9e-3 -0.14891 0.0499-0.02767 0.0585-0.03293-0.0841-0.0117-0.31697zm-7.8589 0.0847c0.02536-0.1397 0.06425-0.4064 0.08643-0.59267s0.07223-0.41487 0.11123-0.508c0.15489-0.36989 0.33065-0.94856 0.38486-1.2671 0.0643-0.37778 0.26342-0.80725 0.37429-0.80725 0.04032 0 0.09722-0.0952 0.12644-0.21167 0.02922-0.11642 0.10955-0.21167 0.17851-0.21167 0.06896 0 0.12539-0.0721 0.12539-0.16027 0-0.0881 0.05715-0.18221 0.127-0.20901 0.16469-0.0632 0.16065-0.0312-0.04396 0.34842-0.09403 0.17446-0.19415 0.46007-0.22249 0.6347-0.02834 0.17462-0.08476 0.3175-0.12538 0.3175-0.04061 0-0.07408 0.0667-0.07437 0.14816-2.54e-4 0.0815-0.05191 0.24665-0.11472 0.36701-0.06281 0.12036-0.18454 0.44421-0.27053 0.71966-0.08598 0.27546-0.25973 0.69858-0.3861 0.94028-0.12637 0.24169-0.25068 0.50839-0.27624 0.59266-0.02556 0.0843-0.02572 0.0389-3.38e-4 -0.10077zm10.284 0.0776c0.0041-0.0986 0.02412-0.1187 0.05115-0.0512 0.02446 0.0611 0.02145 0.13415-0.0067 0.16228-0.02813 0.0281-0.04814-0.0219-0.04447-0.11112zm-2.6721-0.28928c-0.11903-0.34139-0.14313-0.50933-0.18529-1.2912-0.03247-0.60207-0.01745-0.74083 0.0802-0.74083 0.06608 0 0.18904 0.15276 0.27323 0.33947 0.13026 0.28886 0.13699 0.37407 0.04517 0.5715-0.17021 0.366-0.2521 0.6977-0.17225 0.6977 0.04022 0 0.08901-0.10478 0.1084-0.23284 0.02879-0.19005 0.03576-0.17838 0.03794 0.0635 0.0015 0.16299-0.02349 0.41064-0.05547 0.55034l-0.05814 0.254zm3.9354 0.0423c0-0.0699 0.03691-0.127 0.08201-0.127 0.04511 0 0.06008 0.0571 0.03328 0.127s-0.06371 0.127-0.08201 0.127-0.03328-0.0572-0.03328-0.127zm0.85391-0.0847c0.0088-0.16038 0.14992-0.43044 0.15484-0.29634 0.0026 0.0699-0.03228 0.18415-0.07742 0.254-0.04514 0.0698-0.07998 0.0889-0.07742 0.0423zm-6.61-1.1077c-6.77e-4 -0.60924 0.0259-1.1349 0.05914-1.1682 0.06896-0.069 0.3569 0.74363 0.36051 1.0174 0.0013 0.0995-0.05453 0.28996-0.12409 0.42334-0.06956 0.13338-0.1273 0.31871-0.1283 0.41184-9.99e-4 0.0931-0.03875 0.22649-0.08389 0.29634-0.05531 0.0856-0.0825-0.23425-0.08337-0.98073zm4.5841 0.89606c0-0.11642 0.01922-0.16404 0.04271-0.10583 0.02349 0.0582 0.02349 0.15345 0 0.21166-0.02349 0.0582-0.04271 0.0106-0.04271-0.10583zm1.3472-0.10583c-0.0033-0.12806 0.03215-0.23284 0.07872-0.23284 0.09937 0 0.09937 0.0651 0 0.29634-0.06448 0.15005-0.07344 0.14281-0.07872-0.0635zm-2.2006-0.0282c0.0041-0.0986 0.02412-0.11869 0.05115-0.0512 0.02446 0.0611 0.02145 0.13414-0.0067 0.16228-0.02813 0.0281-0.04814-0.0219-0.04447-0.11113zm1.778 0c0.0041-0.0986 0.02412-0.11869 0.05115-0.0512 0.02446 0.0611 0.02145 0.13414-0.0067 0.16228-0.02813 0.0281-0.04814-0.0219-0.04447-0.11113zm-8.3874-0.17844c7.13e-4 -0.0377 0.03823-0.12565 0.08337-0.1955 0.07073-0.10945 0.08225-0.10721 0.08337 0.0162 6.77e-4 0.0787-0.0368 0.16672-0.08337 0.1955-0.04657 0.0288-0.08408 0.0215-0.08337-0.0162zm7.6699-0.40717c0.13999-1.9204 0.15299-1.9897 0.37376-1.9897 0.24732 0 0.21821 0.39863-0.08035 1.1002-0.13644 0.32062-0.22189 0.59475-0.1899 0.60919 0.03199 0.0144 0.01346 0.19769-0.04119 0.40724l-0.09935 0.381zm-2.6615 0.29634c0.0014-0.0699 0.03299-0.22225 0.07028-0.33867 0.05449-0.17016 0.06827-0.17846 0.07028-0.0423 0.0014 0.0931-0.03026 0.24553-0.07028 0.33866-0.04458 0.10375-0.0718 0.12014-0.07028 0.0423zm3.7587-0.10949c0.03179-0.0835 0.07914-0.13049 0.1052-0.10442 0.02607 0.0261 5.4e-5 0.0944-0.05781 0.15182-0.08362 0.083-0.09334 0.0733-0.0474-0.0474zm-8.8873-0.0466c-0.03044-0.0493 0.01892-0.30951 0.10968-0.57835 0.09076-0.26885 0.15068-0.51203 0.13315-0.54039-0.01753-0.0284 0.02699-0.0516 0.09894-0.0516 0.10159 0 0.11852 0.0583 0.07576 0.26106-0.03028 0.14358-0.05583 0.37535-0.05676 0.51505-0.0015 0.21628-0.01237 0.22886-0.07353 0.0847l-0.07182-0.16933-0.0072 0.16933c-0.01002 0.23407-0.13757 0.42375-0.20816 0.30954zm6.8989-0.0626c0.0041-0.0986 0.02412-0.11869 0.05115-0.0512 0.02446 0.0611 0.02145 0.13414-0.0067 0.16228-0.02813 0.0281-0.04814-0.0219-0.04447-0.11113zm2.96 0.0856c-0.0054-0.14493 0.25973-0.87856 0.33415-0.92455 0.09985-0.0617-0.03481 0.46825-0.19354 0.76165-0.07547 0.13951-0.13875 0.21281-0.14061 0.1629zm-12.527-0.25497c0.0041-0.0986 0.02412-0.11869 0.05115-0.0512 0.02446 0.0611 0.02145 0.13414-0.0067 0.16228-0.02813 0.0281-0.04814-0.0219-0.04447-0.11113zm12.27 0.0544c0-0.0438 0.03766-0.10295 0.0837-0.1314 0.04799-0.0297 0.06219 4e-3 0.03328 0.0797-0.05629 0.14668-0.11697 0.17351-0.11697 0.0517zm-13.092-0.53748c0.04544-0.44347 0.12303-0.67301 0.34314-1.0151 0.24358-0.37859 0.72979-0.92649 0.7247-0.81666-9.14e-4 0.0198-0.05315 0.32793-0.11607 0.68484-0.11658 0.66123-0.28317 0.98241-0.76088 1.4669l-0.24959 0.25311zm5.8977 0.38431c-0.0015-0.13333-0.053-0.1905-0.17151-0.1905-0.15971 0-0.17018-0.0614-0.18413-1.0795-0.0081-0.59372-0.02641-0.90805-0.04062-0.6985-0.0142 0.20955-0.07018 0.63486-0.1244 0.94513-0.09694 0.55481-0.10196 0.56259-0.3037 0.47067-0.15099-0.0688-0.19258-0.13947-0.1576-0.26779 0.02614-0.0959 0.0692-0.44104 0.09568-0.76701 0.06848-0.84281 0.10504-0.97371 0.27187-0.97335 0.24678 5.1e-4 0.64192 0.29199 0.89902 0.66314 0.2207 0.31859 0.23921 0.39761 0.19041 0.81287-0.05772 0.49108-0.47103 1.435-0.47503 1.0848zm-2.5724-0.0645c0.03406-0.0888 0.01016-0.11302-0.07802-0.0792-0.10762 0.0413-0.12105-0.0397-0.08754-0.5282 0.02177-0.31735 0.07473-0.78401 0.11769-1.037 0.04296-0.25303 0.07812-0.5864 0.07812-0.74083v-0.28079h0.635c0.73368 0 0.73709 6e-3 0.45704 0.762-0.09484 0.25612-0.17148 0.54139-0.17032 0.63393 0.0016 0.12966-0.01474 0.14099-0.07135 0.0494-0.0419-0.0678-0.0403-0.20611 0.0038-0.32195 0.08732-0.22967 0.10646-1.0115 0.02272-0.92778-0.10661 0.1066-0.45273 1.0351-0.45311 1.2155-2.54e-4 0.10091-0.07374 0.35459-0.16339 0.56373-0.08965 0.20914-0.13727 0.4089-0.10583 0.44393 0.03144 0.035 8e-3 0.0353-0.05207 6.7e-4 -0.08226-0.0474-0.09567-9e-3 -0.05432 0.15576 0.03358 0.13381 0.0195 0.21876-0.03628 0.21876-0.05015 0-0.06909-0.0576-0.04209-0.12796zm-2.4191-0.22636c-0.0033-0.12503 0.03438-0.33345 0.0837-0.46316 0.04931-0.12971 0.1088-0.40841 0.13219-0.61934 0.0782-0.70534 0.16127-0.97427 0.30977-1.0029 0.11992-0.0231 0.13527 0.0191 0.09215 0.25349-0.02846 0.15466-0.11 0.37436-0.1812 0.48823-0.07121 0.11386-0.14261 0.36483-0.15868 0.55771-0.01607 0.19288-0.08383 0.49977-0.15059 0.68198-0.10824 0.29543-0.12202 0.30668-0.12734 0.10396zm1.9122-0.13918c-0.1093-0.12077-0.12341-0.21144-0.06268-0.40268 0.04311-0.13575 0.14209-0.61829 0.21996-1.0723 0.1593-0.92882 0.35935-1.1602 0.25621-0.29633-0.03475 0.29104-0.08819 0.82166-0.11877 1.1792-0.03057 0.35749-0.07765 0.67205-0.10462 0.69902-0.02697 0.027-0.11251-0.0211-0.1901-0.10684zm2.5857-0.1415c0.0017-0.1397 0.0207-0.1866 0.04217-0.10422 0.02147 0.0824 0.02005 0.19668-0.0031 0.254-0.02319 0.0573-0.04076-0.0101-0.03903-0.14978zm-3.0616-0.3175c0.03689-0.19791 0.11242-0.69321 0.16784-1.1007 0.08877-0.65262 0.12106-0.74084 0.2712-0.74084 0.13636 0 0.1596 0.0381 0.11625 0.1905-0.06362 0.22365-0.27 1.2378-0.34458 1.6933-0.02983 0.18216-0.10011 0.3175-0.16488 0.3175-0.0869 0-0.09745-0.0829-0.04583-0.35984zm1.7817 0.22578c0.0041-0.0986 0.02413-0.11869 0.05115-0.0512 0.02446 0.0611 0.02145 0.13414-0.0067 0.16228-0.02813 0.0281-0.04814-0.0219-0.04447-0.11113zm7.1295-0.33161c6.77e-4 -0.23283 0.01708-0.31804 0.03654-0.18934s0.01894 0.3192-0.0012 0.42334c-0.0201 0.10413-0.03602-1e-3 -0.03538-0.234zm-6.9348 0.14817c0.02394-0.0815 0.06885-0.29105 0.0998-0.46567 0.03095-0.17463 0.09013-0.3175 0.13152-0.3175 0.04138 0 0.07524-0.0762 0.07524-0.16933 0-0.0931 0.03228-0.16934 0.07173-0.16934s0.11654-0.0857 0.1713-0.1905c0.08153-0.15596 0.0916-0.0754 0.05559 0.4445-0.06361 0.91829-0.10197 1.016-0.39887 1.016-0.19807 0-0.24081-0.0307-0.20631-0.14816zm-0.44772-0.32943c-0.0042-0.14625 0.06764-0.432 0.15975-0.635 0.21259-0.4685 0.21691-0.2671 0.0084 0.39293-0.1342 0.42485-0.16172 0.46447-0.16818 0.24207zm-2.2548-0.95753c0.04436-0.26831 0.16082-0.42298 0.32092-0.42625 0.03493-6.8e-4 0.0635 0.0559 0.0635 0.12571 0 0.0699-0.03688 0.127-0.08196 0.127s-0.14244 0.10477-0.21636 0.23283l-0.1344 0.23283zm3.0938-0.42255c0-0.0959 0.0381-0.17433 0.08467-0.17433s0.08467 0.0549 0.08467 0.12201c0 0.0671-0.0381 0.14555-0.08467 0.17433-0.04657 0.0288-0.08467-0.0261-0.08467-0.12201z"/></g></g></svg>
