<?xml version="1.0" encoding="UTF-8"?>
<svg width="22.35mm" height="35.688mm" version="1.1" viewBox="0 0 22.35 35.688" xmlns="http://www.w3.org/2000/svg">
 <g transform="translate(-114.85 -116.83)">
  <g stroke-width=".084667">
   <path d="m126.08 119.32c-0.10061-0.1006-0.0597-0.28222 0.0635-0.28222 0.066 0 0.13916-0.0476 0.16265-0.10583 0.0235-0.0582 0.0457 0.018 0.0494 0.16933 6e-3 0.25953-0.12807 0.36619-0.27554 0.21872zm-0.42072-0.21872c-0.0802-0.0595-0.16645-0.28187-0.19703-0.508-0.0476-0.35203-0.0352-0.40217 0.0993-0.40217 0.0845 0 0.27542 0.13293 0.42424 0.29541l0.27058 0.2954-0.19702 0.2126c-0.22924 0.24734-0.21552 0.24368-0.40006 0.10676zm-0.39772-0.27517c0-0.0699 0.0381-0.127 0.0847-0.127s0.0847 0.0572 0.0847 0.127-0.0381 0.127-0.0847 0.127-0.0847-0.0572-0.0847-0.127zm-0.33867-0.11388c0-0.0859 0.0762-0.22517 0.16933-0.30945 0.19584-0.17724 0.20198-0.16125 0.0764 0.19903-0.102 0.29258-0.24572 0.35716-0.24572 0.11042z" fill="#8e0000"/>
   <path d="m124.36 151.76c0.0286-0.4191 0.0901-2.1122 0.13662-3.7624 0.0465-1.6502 0.1028-3.0186 0.12513-3.0409 0.0223-0.0223 0.0406 1.5695 0.0406 3.5373 0 3.5028-4e-3 3.5826-0.17722 3.8029l-0.1772 0.22503zm-1.9814-0.0212c1e-3 -0.12806 0.0743-0.38523 0.16248-0.5715 0.14523-0.30691 0.16209-0.31882 0.17982-0.127 0.0116 0.12493 0.0404 0.0555 0.0704-0.16933 0.0279-0.20955 0.0276-0.6096-8.4e-4 -0.889-0.0283-0.2794-0.0243-0.5387 9e-3 -0.57622 0.0699-0.079 0.17537 0.7283 0.13607 1.0419-0.0146 0.11642-0.0554 0.45932-0.0906 0.762-0.0353 0.30269-0.10266 0.59796-0.14973 0.65617-0.15139 0.18716-0.31901 0.11993-0.31666-0.127zm-1.1029-0.078c0-0.12441 0.0975-0.46999 0.21674-0.76796 0.11921-0.29796 0.20361-0.58114 0.18757-0.62927-0.016-0.0481-0.0975 0.12935-0.18108 0.39439-0.17876 0.56711-0.2639 0.56045-0.18383-0.0144 0.0593-0.42563 0.25132-0.78056 0.3619-0.66886 0.0959 0.0969 0.0564 1.4108-0.0505 1.6794-0.12125 0.30471-0.35084 0.30906-0.35084 7e-3zm3.4988-3.3722c1e-3 -2.4388 0.0205-3.1969 0.0618-2.413 0.0784 1.4888 0.0775 4.7163-2e-3 5.4187-0.034 0.30268-0.0611-1.0499-0.0603-3.0057zm0.25663 2.6247c0-0.4191 0.0141-0.60123 0.0318-0.40472 0.0178 0.1965 0.018 0.5394 8.5e-4 0.762-0.0175 0.22259-0.032 0.0618-0.0323-0.35728zm-1.9778-0.52523c-0.0231-0.61485-0.0122-1.088 0.0242-1.0514 0.0364 0.0366 0.0553 0.53964 0.042 1.1179l-0.0242 1.0514zm2.117 0.71387c0-0.20559 0.0781-0.59884 0.17362-0.87389 0.0955-0.27504 0.23096-0.74773 0.30105-1.0504 0.0701-0.30268 0.1656-0.70273 0.21225-0.889 0.0466-0.18626 0.11791-0.54223 0.15837-0.79104 0.0405-0.24881 0.0894-0.46818 0.1087-0.4875 0.0193-0.0193 0.0609 0.79385 0.0924 1.807 0.053 1.7039 0.046 1.8499-0.0924 1.9451-0.0823 0.0566-0.19016 0.1372-0.23967 0.17905-0.0495 0.0419-0.17035 0.11911-0.26856 0.17167-0.0982 0.0526-0.23869 0.15568-0.31217 0.22917-0.12169 0.12169-0.1336 0.10028-0.1336-0.24019zm-4.2541 0.0685c-0.16156-0.22221-0.13145-0.38837 0.13097-0.72282l0.16608-0.21166-0.0695 0.33866c-0.0382 0.18627-0.0678 0.44344-0.0657 0.5715 2e-3 0.12806 0 0.23164-5e-3 0.23018-5e-3 -1e-3 -0.0755-0.0941-0.15675-0.20586zm2.3067-0.92348v-1.1582l0.25576-0.0511c0.14067-0.0281 0.27626-0.0843 0.30132-0.12488 0.14786-0.23923 0.20492 0.0355 0.20492 0.98669v1.0604l-0.23269 0.0885c-0.12797 0.0487-0.29942 0.14887-0.381 0.22269-0.14063 0.12727-0.14831 0.0742-0.14831-1.024zm-2.6103-0.011c1e-3 -0.37254 0.033-0.77259 0.0703-0.889 0.0455-0.14212 0.0686 0.0248 0.0703 0.508 1e-3 0.39581-0.0302 0.79586-0.0703 0.889-0.0484 0.11266-0.0719-0.0573-0.0703-0.508zm3.51-1.9473c0.0519-3.3594 0.1101-5.1446 0.16953-5.203 0.0666-0.0655-0.0591 6.2386-0.1417 7.108-0.0416 0.43731-0.0525-0.3101-0.0278-1.905zm-1.6891 2.015c0.0557-0.6053 0.10784-0.79992 0.19924-0.74343 0.15385 0.0951 0.096 0.84875-0.0772 1.0055-0.15433 0.13967-0.15821 0.13134-0.12202-0.26204zm-2.1739 0.28075c0-0.0179 0.0557-0.16081 0.12369-0.3175l0.12368-0.28488 3e-3 0.3175c2e-3 0.22725-0.0328 0.3175-0.12369 0.3175-0.0699 0-0.127-0.0147-0.127-0.0326zm4.0036-0.34838c8.5e-4 -0.23284 0.0171-0.31804 0.0365-0.18934 0.0195 0.1287 0.0189 0.3192-1e-3 0.42333-0.0201 0.10414-0.036-1e-3 -0.0354-0.23399zm2.0637-0.56772c-0.11164-1.9374-0.0705-3.3921 0.11237-3.9756 0.0925-0.29519 0.16873-0.65866 0.16933-0.80771 2e-3 -0.39983 0.1722-1.126 0.26452-1.126 0.14193 0 2e-3 3.8046-0.19599 5.334-0.0995 0.76835-0.20666 1.4273-0.23805 1.4643-0.0314 0.037-0.0819-0.36305-0.11218-0.889zm-5.425 0.31372c0.0312-0.32597 0.10434-0.87842 0.1626-1.2277l0.10592-0.635 8e-3 1.016c7e-3 0.90051-0.011 1.0401-0.16259 1.2277l-0.17104 0.21166 0.0567-0.59266zm1.4032 0.29633c0-0.11642 0.0192-0.16404 0.0427-0.10583 0.0235 0.0582 0.0235 0.15345 0 0.21166-0.0235 0.0582-0.0427 0.0106-0.0427-0.10583zm4.3243-0.0847c0-0.16298 0.0174-0.22966 0.0387-0.14816s0.0213 0.21484 0 0.29633c-0.0213 0.0815-0.0387 0.0148-0.0387-0.14817zm-1.4534-0.33866c-9e-3 -0.67552 0.24307-3.4838 0.33094-3.683 0.0411-0.0931 0.0979-0.55034 0.12636-1.016 0.0862-1.4131 0.22105-2.2234 0.39642-2.3821 0.15211-0.13766 0.15674-0.0849 0.15674 1.7835 0 1.425-0.0331 2.061-0.12722 2.4473-0.07 0.28704-0.24635 1.0161-0.39194 1.6202-0.14558 0.60406-0.31425 1.2327-0.3748 1.397l-0.11011 0.29872-6e-3 -0.46566zm1.6878-0.11289c0-0.57364 0.0334-0.66348 0.21995-0.59189 0.0847 0.0325 0.11872 0.20058 0.11872 0.58683 0 0.48483-0.0177 0.54128-0.16933 0.54128-0.15152 0-0.16934-0.0564-0.16934-0.53622zm0.42334-0.0232c0-0.43929 0.0249-0.54982 0.11617-0.51481 0.0639 0.0245 0.29249 0.071 0.508 0.10334 0.45086 0.0676 0.48533 0.16941 0.18016 0.53209-0.11642 0.13835-0.21167 0.29367-0.21167 0.34516 0 0.0515-0.13335 0.0936-0.29633 0.0936h-0.29633zm0.67733 0.44551c0-0.0626 0.0752-0.18196 0.16717-0.26516 0.0919-0.0832 0.1906-0.2251 0.21923-0.3153 0.0501-0.15775 0.0565-0.15813 0.1688-0.01 0.0642 0.0847 0.11796 0.27783 0.11944 0.42917 3e-3 0.26503-0.01 0.27517-0.33597 0.27517-0.22725 0-0.33867-0.0375-0.33867-0.11388zm0.762-0.1563c0-0.25575 7e-3 -0.2614 0.12431-0.10584 0.16143 0.21344 0.1626 0.37602 3e-3 0.37602-0.0864 0-0.127-0.0865-0.127-0.27018zm-8.4324-0.18604c-0.0557-0.14505 0.0909-1.5101 0.20557-1.9144 0.0693-0.24443 0.0817-0.1596 0.0705 0.48432-7e-3 0.42936-0.0395 0.71511-0.0713 0.635-0.0541-0.13646-0.0993 0.17786-0.10378 0.72218-2e-3 0.21792-0.0359 0.24256-0.101 0.0729zm-0.53257-1.4064c4e-3 -0.81491 0.036-1.6912 0.0715-1.9473 0.0433-0.3132 0.0678 0.13036 0.075 1.3547 6e-3 1.0512-0.0241 1.874-0.0714 1.9473-0.0546 0.0844-0.0797-0.36965-0.075-1.3547zm-0.1519 0.762c0-0.30268 0.0154-0.42651 0.0342-0.27516 0.0188 0.15134 0.0188 0.39899 0 0.55033s-0.0342 0.0275-0.0342-0.27517zm-0.29991 0.28012c-0.13802-0.15262-0.13694-0.24681 0.0202-1.7658 0.0913-0.88253 0.16643-1.6332 0.16697-1.6681 8.4e-4 -0.0349 0.0391-0.0635 0.0856-0.0635 0.11166 0 0.0979 1.2773-0.0282 2.6125-0.0943 0.99896-0.10537 1.0389-0.2446 0.88495zm0.71749-0.15312c9.4e-4 -0.18626 0.0183-0.25249 0.0385-0.14718 0.0203 0.10532 0.0195 0.25772-2e-3 0.33867-0.0212 0.081-0.0378-5e-3 -0.0368-0.19149zm1.4252-0.29633c-9e-3 -0.405 0.19646-2.4784 0.3-3.0303 0.0658-0.35061 0.17486-0.1184 0.22492 0.47883 0.0332 0.39584 0.01 0.71782-0.0722 0.98986-0.0667 0.22175-0.12368 0.55906-0.12652 0.74957-3e-3 0.1905-0.0751 0.55592-0.16065 0.81204l-0.15547 0.46567zm-2.5651-0.27511c0.041-0.74529 0.0789-0.81581 0.091-0.16939 6e-3 0.33761-0.017 0.61386-0.052 0.61389-0.0349 2e-5 -0.0525-0.2-0.0391-0.4445zm1.9779 0.10578c-3e-3 -0.20955 0.0468-0.59055 0.11067-0.84667 0.14803-0.59315 0.15181-0.23659 6e-3 0.59267-0.0978 0.55742-0.11211 0.58845-0.11697 0.254zm3.4931-1.1007c0-0.76835 0.0128-1.0827 0.0285-0.6985 0.0157 0.38417 0.0157 1.0128 0 1.397-0.0157 0.38417-0.0285 0.0699-0.0285-0.6985zm-5.9204 1.1642c-0.0212-0.0582-6e-3 -0.35349 0.0343-0.65617l0.0729-0.55033 0.0107 0.65616c0.0101 0.61617-0.0284 0.79563-0.11786 0.55034zm0.3264-0.48684c0-0.34925 0.0149-0.49212 0.0332-0.3175 0.0183 0.17463 0.0183 0.46038 0 0.635-0.0183 0.17463-0.0332 0.0317-0.0332-0.3175zm3.0234 0.46567c2e-3 -0.0931 0.0952-0.37888 0.20785-0.635l0.20487-0.46567v0.381c0 0.27976-0.055 0.4485-0.20785 0.635-0.17885 0.2182-0.20778 0.23013-0.20523 0.0847zm-2.7016-1.27c-9e-3 -1.3785 0.0895-1.9983 0.3068-1.9259 0.0638 0.0213 0.0853 0.11215 0.055 0.23281-0.0273 0.10887-0.11785 0.83914-0.20119 1.6228l-0.15152 1.4249zm0.94446 0.67733c-3e-3 -0.37253 0.0219-1.0393 0.0557-1.4817l0.0615-0.80434 0.0143 0.67734c8e-3 0.37253 0.0281 0.92498 0.0449 1.2277 0.0198 0.35558 0.0132 0.4155-0.0186 0.16934-0.0463-0.35807-0.0524-0.34277-0.10066 0.254l-0.0514 0.635-6e-3 -0.67734zm4.9184-1.5452c-0.0526-1.4685-0.0499-2.22 8e-3 -2.3023 0.0554-0.0784 0.056-0.10398 2e-3 -0.0715-0.056 0.0334-0.0735-0.81445-0.0517-2.5026 0.0206-1.5934 0.0578-2.4099 0.0989-2.1721 0.0623 0.36012 0.10968 9.2287 0.0494 9.2287-0.0156 0-0.0635-0.98107-0.10645-2.1802zm-6.9963 2.0461c-0.0349-0.0349-0.0597-0.23815-0.0551-0.45158 7e-3 -0.32044 0.0203-0.35117 0.0762-0.17639 0.065 0.20307 0.0681 0.20393 0.0762 0.0212 5e-3 -0.10478 0.0488-0.1905 0.0981-0.1905s0.0665 0.0375 0.0381 0.0834c-0.0283 0.0459-0.0782 0.23953-0.11083 0.43041-0.0326 0.19087-0.0879 0.31845-0.12281 0.28352zm-1.3335-0.2102c0-0.14476 0.16793-0.41777 0.25698-0.41777 0.0449 0 0.0817 0.1143 0.0817 0.254 0 0.19756-0.0376 0.254-0.16933 0.254-0.0931 0-0.16934-0.0406-0.16934-0.0902zm0.52936-0.2061c9.3e-4 -0.18627 0.0183-0.2525 0.0385-0.14718 0.0203 0.10532 0.0195 0.25772-2e-3 0.33867-0.0212 0.081-0.0378-5e-3 -0.0368-0.19149zm0.16933 0c9.3e-4 -0.18627 0.0183-0.2525 0.0385-0.14718 0.0203 0.10532 0.0195 0.25772-2e-3 0.33867-0.0212 0.081-0.0378-5e-3 -0.0368-0.19149zm0.28237-0.0212c0.0589-0.32562 0.0967-0.41468 0.14993-0.35278 0.0623 0.0725-0.052 0.67028-0.12808 0.67028-0.0453 0-0.0547-0.13588-0.0219-0.3175zm9.3806-1.016c0.0233-0.73342 0.0447-1.8002 0.0474-2.3707 3e-3 -0.6714 0.0366-1.0372 0.0948-1.0372 0.0908 0 0.0642 2.788-0.0335 3.5137-0.0434 0.322-0.0422 0.32408 0.0226 0.0423 0.0534-0.23229 0.0706-0.13623 0.0793 0.4445 9e-3 0.61942-0.0105 0.74083-0.12091 0.74083-0.11582 0-0.12684-0.16382-0.0896-1.3335zm0.32093-0.99945c0-1.7369 0.0252-2.3244 0.0985-2.2995 0.0638 0.0217 0.10271 0.29933 0.11041 0.78779 7e-3 0.41488 0.0218 1.1353 0.034 1.601l0.0221 0.84666 0.0652-1.016c0.0578-0.90006 0.1967-1.8821 0.27772-1.9632 0.0158-0.0158 0.16794 0.0294 0.33808 0.10051l0.30933 0.12925 1e-3 1.8827c8.5e-4 1.0355 0.0241 1.9684 0.0522 2.0732 0.0498 0.18598 0.0349 0.1905-0.62887 0.1905h-0.6799v-2.333zm0.12615-0.65155c-0.0235-0.0582-0.0427-0.0106-0.0427 0.10584 0 0.11641 0.0192 0.16404 0.0427 0.10583 0.0235-0.0582 0.0235-0.15346 0-0.21167zm1.269 2.8006c-0.029-0.10841-0.0533-1.0413-0.0539-2.073-1e-3 -1.8345 3e-3 -1.8749 0.16818-1.8316 0.11989 0.0314 0.16933 3e-3 0.16933-0.0985 0-0.17129 0.48227-0.89297 0.59673-0.89297 0.10985 0 0.10701 3.4111-3e-3 3.521-0.0459 0.0459-0.25027 0.41849-0.45406 0.82789-0.31334 0.62945-0.37869 0.71393-0.42332 0.54724zm0.19928 0.12038c0-0.0684 0.65408-1.3812 0.72115-1.4482 0.0223-0.0223 0.0405 0.30877 0.0405 0.73563v0.77611h-0.381c-0.20955 0-0.38084-0.0286-0.38063-0.0635zm0.85025-2.5988c-2e-3 -1.6082 0.0286-2.5971 0.0808-2.6294 0.0543-0.0336 0.083 0.86844 0.082 2.5777-9.3e-4 1.5742-0.0334 2.6294-0.0808 2.6294-0.0473 0-0.0803-1.0364-0.082-2.5777zm0.28346 1.4347c0-0.65194 0.0134-0.90745 0.0295-0.5678s0.016 0.87305 0 1.1853c-0.0162 0.31229-0.0294 0.0344-0.0293-0.61753zm0.23557-0.21167c-7e-3 -0.78149 0.0238-1.453 0.0697-1.524 0.0957-0.14815 0.0974 1.2816 3e-3 2.286-0.0491 0.52009-0.0622 0.38219-0.0723-0.762zm0.20699-0.13745c0.0605-1.6977 0.18097-2.2319 0.56854-2.5213 0.33862-0.25282 0.40226-0.0941 0.38707 0.96538-7e-3 0.48895 0.0161 1.3557 0.0515 1.9262l0.0642 1.0372h-0.29737c-0.16356 0-0.41673 0.0239-0.56261 0.053l-0.26524 0.0531zm-6.6143 1.2593c-0.0341-0.10477-0.0924-0.1905-0.12945-0.1905-0.037 0-0.0937-0.15605-0.12595-0.34678-0.0425-0.25143-0.0841-0.32127-0.15137-0.254-0.32389 0.32389-0.31089-0.31446 0.014-0.68744 0.13325-0.15296 0.31423-0.41146 0.40217-0.57444l0.15991-0.29634 0.0237 0.67734c0.0291 0.83239-0.10054 1.9557-0.19299 1.6722zm7.7125-0.93133c-0.032-0.54716-0.0658-1.4734-0.0753-2.0582l-0.0172-1.0634 1.2277-0.61756v2.1186c0 1.2357-0.0349 2.1838-0.0838 2.2751-0.065 0.12141-0.68692 0.3403-0.96691 0.3403-0.0145 0-0.0525-0.44767-0.0845-0.99483zm-9.2686-0.35981c2e-3 -0.70999 0.0371-1.3719 0.079-1.471 0.047-0.11129 0.0606 0.36712 0.0356 1.2524-0.0222 0.78785-0.0578 1.4498-0.079 1.471-0.0212 0.0212-0.0372-0.5424-0.0356-1.2524zm-0.38783 0.84918c0.0258-0.20815 0.0803-0.39915 0.12125-0.42443 0.0409-0.0253 0.0914-0.17883 0.11226-0.34121 0.0208-0.16238 0.0273-0.10388 0.0144 0.13-0.0129 0.23387-0.0845 0.55772-0.15913 0.71966l-0.13566 0.29444zm-0.5443-0.26215c-5e-3 -0.25921 0.0285-0.67831 0.0749-0.93134 0.0464-0.25302 0.10129-2.0222 0.12202-3.9314 0.0207-1.9092 0.0748-3.5856 0.12006-3.7253 0.11154-0.34394 0.12667 4.4694 0.0153 4.8578-0.0554 0.19333-0.0506 0.40074 0.0151 0.64635 0.0731 0.27316 0.0722 0.53485-4e-3 1.0694-0.0553 0.38927-0.15303 1.1078-0.2173 1.5968-0.0993 0.75523-0.11828 0.81808-0.1263 0.41772zm0.30062-2.9789c-0.0235-0.0582-0.0427-0.0106-0.0427 0.10584 0 0.11641 0.0192 0.16404 0.0427 0.10583 0.0235-0.0582 0.0235-0.15346 0-0.21167zm11.205 3.1484c0-0.1427 0.085-0.45703 0.18896-0.6985l0.18898-0.43902 0.0602 0.33866c0.11704 0.65899 0.0875 0.85382-0.14575 0.96008-0.29245 0.13325-0.29234 0.1333-0.29234-0.16122zm-12.179 5e-3c0-0.11642 0.0192-0.16405 0.0427-0.10584 0.0235 0.0582 0.0235 0.15346 0 0.21167-0.0235 0.0582-0.0427 0.0106-0.0427-0.10583zm1.8109 0.0123c-0.0274-0.0864-0.0158-0.24831 0.0258-0.35984 0.0633-0.16956 0.0742-0.14384 0.0667 0.15707-0.01 0.40319-0.0211 0.42769-0.0925 0.20277zm0.23467-0.0334c-0.0918-0.14339-0.13381-5.1948-0.0498-5.9902 0.0494-0.46784 0.0693-0.0778 0.0755 1.4817 5e-3 1.1642 0.0302 2.6786 0.0568 3.3655s0.0341 1.2488 0.0168 1.2488c-0.0174 0-0.0621-0.0476-0.0993-0.10583zm0.0292-0.84667c-0.0235-0.0582-0.0427-0.0106-0.0427 0.10584 0 0.11641 0.0192 0.16404 0.0427 0.10583 0.0235-0.0582 0.0235-0.15346 0-0.21167zm-4.6762 0.7762c-0.0637-0.0846-0.0643-0.25764-2e-3 -0.5857 0.0863-0.45405 0.0892-0.4577 0.11683-0.14628 0.0156 0.17567 0.0164 0.43923 2e-3 0.5857-0.0208 0.20996-0.0455 0.24092-0.11683 0.14628zm15.308-0.613c-0.099-0.70921-0.0222-1.3099 0.20329-1.5907 0.052-0.0647 0.12332-0.21289 0.15858-0.32931 0.0353-0.11642 0.11612-0.28682 0.17969-0.37867 0.0636-0.0919 0.11618-0.24426 0.11689-0.33867 8.5e-4 -0.0944 0.0414-0.22881 0.0903-0.29866 0.11789-0.16817 0.0495 1.8267-0.0938 2.7339-0.0915 0.57952-0.1317 0.67383-0.33126 0.77703l-0.22713 0.11745zm-10.421-0.24786c-1e-3 -0.47731-0.0474-1.1536-0.10257-1.5028-0.0683-0.43246-0.0839-1.2483-0.0489-2.5577 0.0439-1.6415 0.0772-1.9973 0.22791-2.4327 0.0971-0.2805 0.1599-0.59639 0.13961-0.70197-0.0299-0.15541-0.0398-0.1436-0.0522 0.062-8e-3 0.1397-0.0677 0.3683-0.13166 0.508l-0.1163 0.254-7e-3 -0.22784c-4e-3 -0.12531 0.0356-0.25407 0.0875-0.28614 0.0576-0.0356 0.0763-0.19261 0.0481-0.40276-0.0254-0.18945-0.016-0.29562 0.0209-0.23593 0.0515 0.0833 0.0797 0.0758 0.12119-0.0325 0.0812-0.21148 0.0535-0.36504-0.0305-0.16951-0.12023 0.27978-0.0949-0.0437 0.0365-0.46566 0.10632-0.34149 0.11641-0.1 0.0973 2.3283-0.0163 2.0756-0.0493 2.7886-0.14107 3.048-0.11683 0.3303-0.12098 0.31044-0.16828-0.80433l-0.0485-1.143-9e-5 1.4986c-4e-5 0.82424 0.0282 1.4811 0.0628 1.4598 0.0346-0.0214 0.0836 0.0663 0.1089 0.19473 0.072 0.36522 0.0441 2.4772-0.0327 2.4772-0.0378 0-0.0697-0.39053-0.071-0.86783zm-4.6166 0.59266c-0.0281-0.10477-0.0516-0.69413-0.0522-1.3097-1e-3 -0.99236 0.0142-1.1133 0.13458-1.0671 0.11816 0.0453 0.12879 0.17937 0.0821 1.0345-0.0295 0.54033-0.0552 1.1062-0.0571 1.2576-4e-3 0.32291-0.0366 0.34862-0.10734 0.0847zm2.4274-0.3175c0-0.25611 0.0159-0.36089 0.0353-0.23283s0.0194 0.33761 0 0.46567c-0.0194 0.12805-0.0353 0.0233-0.0353-0.23284zm-2.8974 0.20461c4e-3 -0.0986 0.0241-0.11869 0.0512-0.0512 0.0245 0.0611 0.0215 0.13415-7e-3 0.16228-0.0281 0.0281-0.0482-0.0219-0.0445-0.11113zm3.048 0c4e-3 -0.0986 0.0241-0.11869 0.0512-0.0512 0.0245 0.0611 0.0215 0.13415-7e-3 0.16228-0.0281 0.0281-0.0481-0.0219-0.0445-0.11113zm13.176-0.30548c0.0542-0.58621 0.13471-0.66736 0.0918-0.0925-0.0181 0.24286-0.0555 0.46417-0.0832 0.49179-0.0276 0.0276-0.0315-0.15204-9e-3 -0.39924zm-16.653 0.0847c8.4e-4 -0.10752 0.0382-0.25264 0.0834-0.32249 0.0624-0.0966 0.0824-0.0624 0.0834 0.14317 8.5e-4 0.14859-0.0368 0.29371-0.0834 0.32249-0.0472 0.0292-0.0841-0.0342-0.0834-0.14317zm16.885-1.1039c0.0386-2.0517 0.15364-3.039 0.4121-3.5372 0.12102-0.23327 0.24579-0.56671 0.27724-0.74097 0.0315-0.17427 0.10563-0.41166 0.16483-0.52755 0.10477-0.20508 0.10888-0.20057 0.15445 0.16934 0.0257 0.20901 0.0691 1.0738 0.0964 1.9217l0.0496 1.5417-0.36334 0.57487c-0.35655 0.56414-0.79044 1.5026-0.65642 1.4197 0.0374-0.0232 0.13623-0.22267 0.21952-0.44338 0.0833-0.22071 0.29186-0.62011 0.46349-0.88756 0.34983-0.54514 0.41441-0.50988 0.41441 0.22621 0 0.3912-0.0348 0.48155-0.28406 0.73824-0.15622 0.16086-0.43895 0.41516-0.62828 0.56511l-0.34423 0.27264zm-17.03 0.73903c8.4e-4 -0.2794 0.0163-0.38349 0.0351-0.23131 0.0188 0.15217 0.0185 0.38077-8.5e-4 0.508-0.0193 0.12722-0.0347 3e-3 -0.0343-0.27669zm15.526-1.3009c-0.0295-0.98355-0.0328-1.8427-7e-3 -1.9093 0.0255-0.0666 0.0961-0.14009 0.15682-0.16338 0.0871-0.0334 0.12327 0.30139 0.17155 1.589 0.0569 1.5174 0.0497 1.6537-0.10316 1.9517l-0.16434 0.32032-0.0537-1.7883zm-11.854 1.5338c-0.0892-0.34955-0.0514-2.0985 0.0672-3.1122 0.0707-0.60441 0.13305-1.1754 0.13856-1.2688 7e-3 -0.11456 0.0314-0.0872 0.0756 0.0842 0.037 0.14327 0.0505-0.17045 0.031-0.71966-0.0493-1.3857-0.0804-1.8027-0.14528-1.9473-0.0313-0.0699 4e-3 -0.56515 0.0776-1.1007 0.074-0.53552 0.14089-1.0558 0.14864-1.1561 8e-3 -0.10032 0.0468-0.16218 0.0869-0.13745 0.04 0.0247 0.0507-0.10273 0.0238-0.28325s-0.0162-0.55681 0.0238-0.83621c0.0512-0.35683 0.0652-4e-3 0.0471 1.1853-0.0144 0.94927-0.0662 1.7981-0.11778 1.9317-0.0623 0.16141-0.0647 0.28946-7e-3 0.3966 0.0466 0.087 0.0785 0.3417 0.0709 0.56596l-0.0138 0.40773-0.0497-0.46567c-0.0273-0.25611-0.047 0.66586-0.0436 2.0488 4e-3 1.5869-0.0239 2.496-0.0752 2.4643-0.05-0.0309-0.0595 0.0661-0.0246 0.25173 0.0312 0.16608 0.0209 0.32404-0.0227 0.35102-0.0442 0.0273-0.062-0.0355-0.0403-0.14156 0.0226-0.11016-0.0165-0.0704-0.0926 0.0943-0.0724 0.15668-0.12784 0.34718-0.1232 0.42333 5e-3 0.0764 0.0363 0.0436 0.0705-0.0732 0.0414-0.14116 0.0597-0.0383 0.0551 0.30876-4e-3 0.30081-0.0368 0.47945-0.0776 0.42333-0.0401-0.0551-0.0501 0.022-0.0233 0.17808 0.0496 0.2884 6e-3 0.3823-0.0595 0.127zm-3.8469-0.23284c9.3e-4 -0.18626 0.0183-0.25249 0.0385-0.14718 0.0203 0.10532 0.0195 0.25772-2e-3 0.33867-0.0212 0.081-0.0378-5e-3 -0.0368-0.19149zm0.88311-0.381c0.0278-0.34925 0.082-0.7112 0.1204-0.80433 0.0868-0.21064-0.01 0.93406-0.10337 1.2277-0.038 0.11901-0.0455-0.0663-0.017-0.42334zm-1.4944 0.40217c3e-3 -0.12069 0.20031-0.40217 0.2818-0.40217 0.0298 0 0.0542 0.1143 0.0542 0.254 0 0.19756-0.0376 0.254-0.16933 0.254-0.0931 0-0.16812-0.0476-0.16664-0.10583zm1.1893-0.0282c4e-3 -0.0986 0.0241-0.1187 0.0512-0.0512 0.0245 0.0611 0.0215 0.13415-7e-3 0.16228-0.0281 0.0281-0.0482-0.0219-0.0445-0.11112zm2.8851-0.11995c-8e-3 -0.16298-0.035-0.39158-0.0589-0.508l-0.0436-0.21166 0.0911 0.20875c0.0501 0.11481 0.0766 0.34341 0.059 0.508l-0.0321 0.29925zm0.68076 0.0423c2e-3 -0.1397 0.0207-0.1866 0.0422-0.10423 0.0215 0.0824 0.02 0.19668-3e-3 0.254-0.0232 0.0573-0.0408-0.0101-0.039-0.14977zm2.0319-0.9326c0.0324-0.97581 0.0699-1.2436 0.2131-1.5227 0.0956-0.18626 0.19992-0.54821 0.23191-0.80433 0.032-0.25612 0.11063-0.63712 0.17476-0.84667 0.0641-0.20955 0.13573-0.47625 0.15909-0.59266 0.0234-0.11642 0.0246 0.69536 3e-3 1.804l-0.0398 2.0156-0.25622 0.454c-0.49189 0.8716-0.52995 0.83184-0.48546-0.50716zm1.9923-0.16807c0.0249-0.74507 0.0812-1.4001 0.12527-1.4556 0.044-0.0555 0.0766-0.67126 0.0723-1.3683-8e-3 -1.2309-3e-3 -1.266 0.16299-1.2226 0.19755 0.0517 0.21368 0.26567 0.0849 1.1256-0.0453 0.30268-0.10313 0.85513-0.12845 1.2277-0.0663 0.97493-0.19134 2.1349-0.283 2.6247-0.0567 0.30292-0.0664 0.038-0.034-0.93133zm-9.5283 1.0795c0.0173-0.0915 0.12127-0.15884 0.27185-0.17608 0.19805-0.0227 0.23364-2e-3 0.18978 0.11276-0.0297 0.0774-0.054 0.1566-0.054 0.17608 0 0.0195-0.098 0.0354-0.21787 0.0354-0.16177 0-0.21064-0.0382-0.18978-0.14817zm2.9707-0.1905c0-0.20955 0.0165-0.29528 0.0367-0.1905 0.0202 0.10477 0.0202 0.27622 0 0.381-0.0202 0.10477-0.0367 0.019-0.0367-0.1905zm1.4851-0.61383c-0.0145-0.52388-4e-3 -1.1811 0.0241-1.4605 0.0314-0.31519 0.0555 0.0463 0.0635 0.9525 7e-3 0.80327-4e-3 1.4605-0.0241 1.4605-0.0204 0-0.049-0.42863-0.0635-0.9525zm0.55291 0.14816c0-0.37253 0.0152-0.5144 0.0331-0.31526s0.0176 0.50394-8.4e-4 0.67733c-0.0182 0.1734-0.0328 0.0105-0.0325-0.36207zm1.2068-0.14816c-0.0275-0.43075-0.017-1.0118 0.0233-1.2912 0.062-0.42941 0.0751-0.30826 0.0845 0.78317 6e-3 0.71014-4e-3 1.2912-0.0233 1.2912-0.0189 0-0.0569-0.35242-0.0844-0.78316zm-4.0719-0.0118c0.0232-0.22769 0.0421-0.54964 0.0421-0.71543 0-0.22242 0.0249-0.2766 0.0948-0.20667 0.0699 0.0699 0.0589 0.25751-0.0421 0.71543-0.10624 0.48177-0.12745 0.52801-0.0948 0.20667zm12.083-1.0277c-0.0149-1.1887 5e-3 -1.4747 0.11367-1.6298 0.18686-0.26678 0.32597-0.24166 0.24732 0.0447-0.0352 0.12806-0.0894 0.72813-0.12054 1.3335l-0.0566 1.1007-0.0345-1.1853-0.0345-1.1853-0.0484 1.4817-0.0484 1.4817zm-12.288 1.0959c4e-3 -0.0986 0.0241-0.11869 0.0512-0.0512 0.0245 0.0611 0.0215 0.13414-7e-3 0.16228-0.0281 0.0281-0.0482-0.0219-0.0445-0.11113zm15.549-0.88194c-0.0961-1.7533-0.12868-3.3867-0.0676-3.3867 0.0316 0 0.1866 0.0952 0.34439 0.21167 0.15779 0.11641 0.30011 0.21166 0.31625 0.21166 0.0162 0 0.10237-0.16192 0.1916-0.35983l0.16223-0.35983-0.0205 1.3123c-0.0205 1.3136-0.0461 1.4553-0.40736 2.2529-0.0867 0.19137-0.15758 0.38673-0.15758 0.43413s-0.0549 0.13175-0.12198 0.18742c-0.0671 0.0557-0.13537 0.20322-0.15173 0.32787-0.0164 0.12465-0.0559-0.24961-0.0878-0.83169zm-13.517 0.79727c4e-3 -0.0986 0.0241-0.11869 0.0512-0.0512 0.0245 0.0611 0.0214 0.13415-7e-3 0.16228-0.0281 0.0281-0.0482-0.0219-0.0445-0.11113zm15.885-0.40111c-0.0498-0.53291-0.0381-0.58038 0.28796-1.1743 0.43617-0.79438 0.49626-0.85152 0.51283-0.48767 0.0124 0.2723 0.0175 0.26627 0.0748-0.0889 0.0487-0.30137 0.0547-0.26227 0.0288 0.18712-0.018 0.31247-0.0756 0.67442-0.12787 0.80434-0.17998 0.44709-0.41967 0.91396-0.572 1.1141l-0.15264 0.20059zm-14.991-0.22683c0.014-0.34925 0.0584-0.9398 0.0986-1.3123l0.0732-0.67734 0.014 0.78817c9e-3 0.48298-0.0173 0.7688-0.0669 0.73816-0.0473-0.0293-0.0941 0.18822-0.11263 0.52417-0.0206 0.37332-0.0228 0.35205-6e-3 -0.0608zm5.6274-1.0892c-9e-3 -1.7142-8e-3 -1.7266 0.21624-2.1378 0.12381-0.2275 0.25284-0.41363 0.28672-0.41363 0.0339 0 0.088 0.17581 0.12018 0.39068 0.0507 0.33832 0.0235 0.45649-0.20319 0.88182-0.24456 0.45884-0.25247 0.50043-0.12033 0.63257 0.12434 0.12434 0.12959 0.20569 0.0435 0.67311-0.0539 0.29242-0.10089 0.64159-0.10448 0.77592-4e-3 0.13433-0.0567 0.39664-0.11811 0.5829-0.10028 0.30426-0.11252 0.16351-0.12049-1.3855zm-8.6382 1.2c-4e-3 -0.24173 0.0267-0.46011 0.0674-0.4853 0.0408-0.0252 0.0567 0.1345 0.0353 0.35484-0.0564 0.58297-0.0951 0.6321-0.10274 0.13046zm7.5451-2.3545c-0.01-1.5367-0.0522-3.0055-0.0945-3.264-0.0715-0.43696-0.0436-2.8307 0.0346-2.9572 0.0192-0.0311 0.0937-0.32046 0.16549-0.64302 0.0718-0.32255 0.18655-0.77695 0.255-1.0098 0.11827-0.40219 0.12246-0.35145 0.0839 1.016-0.0223 0.79164-0.0793 1.8013-0.12663 2.2437-0.0473 0.44238-0.10265 1.9092-0.12291 3.2597-0.059 3.9348-0.1738 4.7322-0.19497 1.3547zm5.1482 1.534c0-0.55779 0.0362-0.99602 0.0847-1.026 0.0546-0.0337 0.0847 0.29379 0.0847 0.92134 0 0.55778-0.0362 0.99602-0.0847 1.026-0.0546 0.0337-0.0847-0.29379-0.0847-0.92134zm-8.0314-0.22166c0-0.62865 0.0327-1.2192 0.0728-1.3123 0.0453-0.10552 0.0728 0.26139 0.0728 0.97367 0 0.62865-0.0327 1.2192-0.0728 1.3123-0.0453 0.10552-0.0728-0.26139-0.0728-0.97366zm0.80132 0.74083c-0.0385-0.17463-0.0385-0.46038 0-0.635l0.0701-0.3175 0.0291 0.3175c0.016 0.17462 0.016 0.46037 0 0.635l-0.0291 0.3175zm-5.9712-0.0282c4e-3 -0.0986 0.0241-0.1187 0.0512-0.0512 0.0245 0.0611 0.0215 0.13415-7e-3 0.16228-0.0281 0.0281-0.0482-0.0219-0.0445-0.11112zm0.34536-0.11995c0-0.11641 0.0192-0.16404 0.0427-0.10583 0.0235 0.0582 0.0235 0.15346 0 0.21167-0.0235 0.0582-0.0427 0.0106-0.0427-0.10584zm13.115-0.86783c-4e-3 -0.87492 0.0173-1.0795 0.11399-1.0795 0.0965 0 0.11464 0.16592 0.0947 0.86783-0.039 1.3725-0.20209 1.538-0.20869 0.21167zm-2.9456 0.52917c0-0.20955 0.0165-0.29528 0.0367-0.1905 0.0202 0.10477 0.0202 0.27622 0 0.381-0.0202 0.10477-0.0367 0.019-0.0367-0.1905zm-3.0213-0.55034c0.0382-0.46566 0.0712-1.9013 0.0733-3.1903 2e-3 -1.343 0.0348-2.2884 0.0763-2.2142 0.0398 0.0712 0.0588 1.4573 0.0423 3.0802-0.0239 2.3544-0.0534 2.9731-0.14567 3.0609-0.0976 0.0929-0.10484-0.0221-0.0463-0.73662zm0.091-0.40216c-0.0235-0.0582-0.0427-0.0106-0.0427 0.10583 0 0.11642 0.0192 0.16404 0.0427 0.10583 0.0235-0.0582 0.0235-0.15346 0-0.21166zm10.867 0.9525c-3e-3 -0.11642-0.0417-1.0287-0.085-2.0274-0.0459-1.0578-0.0474-1.8535-4e-3 -1.9062 0.0413-0.0498 0.18558-0.42307 0.32055-0.82948 0.13496-0.4064 0.2731-0.76663 0.30696-0.8005 0.0339-0.0339 0.0368 3e-3 7e-3 0.0816-0.0501 0.13066 0.0339 1.5419 0.20788 3.4923 0.066 0.73939 0.0611 0.77331-0.16491 1.143-0.12808 0.20955-0.31147 0.5334-0.40752 0.71967-0.15521 0.30099-0.17534 0.31512-0.18093 0.127zm-12.232-0.71967c0.0293-0.37253 0.0494-1.5155 0.0447-2.54-8e-3 -1.8452-6e-3 -1.8693 0.23574-2.5639 0.24317-0.69798 0.24453-0.69974 0.29335-0.381 0.027 0.17612 0.0745 0.68217 0.10563 1.1246 0.0496 0.70506 0.029 0.91405-0.16663 1.6933-0.12277 0.48895-0.25982 1.0008-0.30457 1.1374-0.0447 0.13663-0.0681 0.26167-0.0519 0.27788 0.0479 0.0479 0.19203-0.39635 0.35605-1.0978 0.0844-0.36089 0.1821-0.6275 0.21712-0.59247 0.0799 0.0799-0.0664 1.2066-0.22275 1.7143-0.0645 0.20955-0.14342 0.59055-0.17535 0.84667-0.0319 0.25612-0.13156 0.59902-0.22138 0.762l-0.16332 0.29633zm10.988 0.16933c8.4e-4 -0.2794 0.0163-0.38349 0.0351-0.23131 0.0188 0.15217 0.0185 0.38077-8.5e-4 0.508-0.0193 0.12722-0.0347 3e-3 -0.0343-0.27669zm-14.783 0.29634c-0.0941-0.26423-0.12667-0.50669-0.0627-0.46716 0.0365 0.0226 0.0883-0.0682 0.11501-0.20167 0.12988-0.64939 0.13309-0.71507 0.019-0.38951-0.0652 0.18627-0.11936 0.26247-0.12026 0.16934-2e-3 -0.22276 0.13523-0.88401 0.1495-0.71967 0.01 0.1128 0.02 0.11282 0.0912 1.7e-4 0.0527-0.0834 0.0671 0.10507 0.0421 0.55033-0.0416 0.73955-0.15873 1.2693-0.23393 1.0582zm2.317-0.38806c4e-3 -0.0986 0.0241-0.11869 0.0512-0.0512 0.0245 0.0611 0.0215 0.13414-7e-3 0.16228-0.0281 0.0281-0.0482-0.0219-0.0445-0.11113zm-2.0253-0.20461c0-0.11642 0.0192-0.16404 0.0427-0.10583 0.0235 0.0582 0.0235 0.15345 0 0.21166-0.0235 0.0582-0.0427 0.0106-0.0427-0.10583zm1.0969-0.762c-0.0102-1.1914 0.0729-2.1713 0.17121-2.0164 0.1046 0.16494 0.0796 1.2694-0.0495 2.1857l-0.11332 0.80434-8e-3 -0.97367zm15.716 0.53603c-0.0257-0.19744 4e-3 -0.3989 0.0746-0.51486 0.0642-0.10478 0.17795-0.29528 0.25271-0.42334 0.12693-0.2174 0.12668-0.22161-4e-3 -0.0635-0.0768 0.0931-0.18725 0.24105-0.24548 0.3287-0.0882 0.13277-0.13833-0.20212-0.30042-2.006-0.10701-1.191-0.16981-2.2781-0.13955-2.4159 0.0303-0.13779 0.12902-0.39565 0.21945-0.57303 0.0904-0.17737 0.16177-0.40017 0.15852-0.4951-3e-3 -0.0949-0.061 6e-3 -0.12835 0.22541-0.0673 0.2189-0.15994 0.42117-0.20576 0.44949-0.0458 0.0283-0.0833 0.1318-0.0833 0.22994 0 0.41778-0.10222 0.0247-0.17344-0.66698-0.0424-0.41202-0.10221-0.92057-0.13285-1.1301l-0.0557-0.381 0.20893 0.19172c0.29153 0.26753 0.78576 1.3034 0.95759 2.0072 0.11338 0.46435 0.14103 0.9338 0.12967 2.2013-0.0162 1.8078-0.0311 1.9851-0.22738 2.7072-0.17761 0.65346-0.25279 0.7344-0.30552 0.32892zm-17.454 0.0162c-0.0496-0.19761 0.10585-1.5532 0.29635-2.5843 0.0473-0.25612 0.12243-0.75142 0.1669-1.1007 0.0445-0.34925 0.0998-0.6731 0.12285-0.71966 0.0753-0.15187-0.0433 1.6683-0.17651 2.7093-0.0715 0.5588-0.15245 1.216-0.17985 1.4605-0.0536 0.47821-0.14516 0.57177-0.22974 0.23477zm2.8448-0.17127c2e-3 -0.1397 0.0207-0.1866 0.0422-0.10422 0.0215 0.0824 0.02 0.19668-3e-3 0.254-0.0232 0.0573-0.0408-0.0101-0.039-0.14978zm2.3783-2.0516c-4e-3 -1.2132 0.0218-1.9762 0.0609-1.8102 0.10985 0.46574 0.14061 3.7119 0.0362 3.8166-0.0641 0.0643-0.0924-0.51908-0.0971-2.0064zm0.11892 1.0991c-0.0213-0.0815-0.0387-0.0148-0.0387 0.14817 0 0.16298 0.0174 0.22965 0.0387 0.14816 0.0213-0.0815 0.0213-0.21484 0-0.29633zm8.474 0.80327c-0.11559-0.28162-0.17336-1.2218-0.0848-1.3801 0.069-0.12336 0.0985-0.0438 0.14481 0.39086 0.0688 0.64603 0.0341 1.2184-0.06 0.9892zm-13.088-0.18944c2e-3 -0.1397 0.0207-0.1866 0.0422-0.10422 0.0215 0.0824 0.0201 0.19668-3e-3 0.254-0.0232 0.0573-0.0408-0.0101-0.039-0.14978zm14.383-0.78003c-5e-3 -0.84276 0.0255-1.1132 0.16308-1.4623 0.0928-0.23555 0.19294-0.63372 0.22246-0.88483 0.051-0.43426 0.0438-0.45796-0.14764-0.48504-0.25593-0.0362-0.3046-0.35366-0.12141-0.79209 0.0725-0.17347 0.13293-0.49172 0.13434-0.70722 2e-3 -0.29196 0.0783-0.52132 0.29963-0.89983 0.27849-0.47623 0.29442-0.48947 0.25466-0.21167-0.0233 0.16299-0.0646 0.67734-0.0918 1.143-0.0272 0.46567-0.086 1.2086-0.13077 1.651-0.0448 0.44239-0.11766 1.2425-0.16197 1.778-0.0727 0.8789-0.13842 1.2067-0.34785 1.7357-0.0389 0.0983-0.0694-0.26436-0.0728-0.8647zm2.1208 0.63519c-5e-3 -0.21937-0.0508-0.77536-0.10085-1.2355-0.0501-0.46018-0.0781-0.9665-0.0624-1.1252 0.0158-0.15865 0.0802 0.32238 0.14311 1.069 0.063 0.74657 0.0954 1.4324 0.0722 1.524-0.0232 0.0916-0.0467-0.0129-0.0521-0.23225zm-14.526-2.5645c0.0174-1.5833 0.0477-3.1454 0.0673-3.4713 0.0354-0.58896 0.0352-0.58949-0.0259-0.0847-0.0339 0.2794-0.0499-0.72025-0.0357-2.2214 0.0243-2.5711 0.0168-2.7342-0.12885-2.8122-0.085-0.0455-0.17869-0.0587-0.20809-0.0293-0.12403 0.12402-0.0395-0.0952 0.12664-0.32856 0.0991-0.13912 0.2468-0.39004 0.32831-0.5576 0.14375-0.29556 0.14691-0.23021 0.10569 2.1872-0.0234 1.3705-0.07 2.5433-0.10354 2.6061-0.0336 0.0628-0.0251 0.31049 0.019 0.55034 0.044 0.23984 0.058 0.79803 0.0312 1.2404-0.0269 0.44238-0.0507 1.7759-0.0529 2.9633-2e-3 1.1874-0.0379 2.3114-0.0793 2.4977-0.047 0.2117-0.0634-0.74056-0.0436-2.54zm-2.9114 1.524c8.5e-4 -0.60537 0.0311-1.2912 0.0674-1.524 0.0472-0.30288 0.0675-0.0379 0.0713 0.93133 3e-3 0.74507-0.0274 1.4309-0.0674 1.524-0.0454 0.10575-0.0722-0.24394-0.0713-0.93133zm6.8945 0.49372c0.0684-0.70638 0.16405-0.84422 0.23899-0.34449 0.0568 0.37854-0.0324 0.7606-0.20206 0.86543-0.066 0.0408-0.0767-0.11008-0.0369-0.52094zm-3.5925 0.31061c0-0.11641 0.0192-0.16404 0.0427-0.10583 0.0235 0.0582 0.0235 0.15346 0 0.21167-0.0235 0.0582-0.0427 0.0106-0.0427-0.10584zm12.473-0.59266c0.0807-0.78115 0.30943-3.4596 0.36877-4.318 0.0585-0.84668 0.0645-0.79527 0.12637 1.0795 0.0608 1.8444 0.0546 1.992-0.0993 2.3397-0.0903 0.20413-0.18919 0.51922-0.21977 0.70019-0.0848 0.50215-0.22363 0.65865-0.1761 0.19858zm-15.97 0.0635c-0.0173-0.10478-8e-3 -0.36195 0.0198-0.5715 0.0467-0.34763 0.0523-0.33094 0.0639 0.1905 0.0127 0.57129-0.0244 0.74006-0.0837 0.381zm1.2884-0.0282c4e-3 -0.0986 0.0241-0.11869 0.0511-0.0512 0.0245 0.0611 0.0215 0.13415-7e-3 0.16228-0.0281 0.0281-0.0481-0.0219-0.0445-0.11113zm6.1425 5e-3c-0.11526-0.30038-0.0595-0.46335 0.15852-0.46335 0.25355 0 0.25499 9e-3 0.0532 0.34122-0.12796 0.21041-0.16875 0.23395-0.21167 0.12213zm-1.9727-0.50568c0-0.32597 0.0157-0.44894 0.034-0.27328s0.018 0.44236-8.4e-4 0.59267c-0.0187 0.1503-0.0337 7e-3 -0.0333-0.31939zm2.6882 0.33161c4e-3 -0.0986 0.0241-0.11869 0.0512-0.0512 0.0245 0.0611 0.0215 0.13414-7e-3 0.16228-0.0281 0.0281-0.0481-0.0219-0.0445-0.11113zm-7.1967-0.0847c4e-3 -0.0986 0.0241-0.11869 0.0512-0.0512 0.0245 0.0611 0.0214 0.13415-7e-3 0.16228-0.0281 0.0281-0.0482-0.0219-0.0445-0.11113zm0.762 0c4e-3 -0.0986 0.0241-0.11869 0.0512-0.0512 0.0245 0.0611 0.0215 0.13415-7e-3 0.16228-0.0281 0.0281-0.0482-0.0219-0.0445-0.11113zm-1.2441-1.3053c3e-3 -0.72579 0.029-1.142 0.0583-0.93134l0.053 0.381 0.014-0.42333c8e-3 -0.23283 0.0896-0.72343 0.18205-1.0902 0.0924-0.36679 0.16514-0.69064 0.16159-0.71967-0.0149-0.12251-0.23524 0.55766-0.24112 0.7445-4e-3 0.11254-0.0318 0.17931-0.0627 0.14838-0.0309-0.0309 0.0115-0.37065 0.0943-0.75494 0.24405-1.1331 0.28149-1.1914 0.28545-0.44472 4e-3 0.71682-0.17033 2.2291-0.37046 3.2173-0.066 0.32596-0.13346 0.72601-0.14987 0.889-0.0164 0.16298-0.0275-0.29422-0.0246-1.016zm0.66439 0.93133c0-0.16298 0.0174-0.22966 0.0387-0.14817 0.0213 0.0815 0.0213 0.21484 0 0.29634s-0.0387 0.0148-0.0387-0.14817zm2.3992-0.127c0.0222-0.18627 0.0746-1.1769 0.11646-2.2013 0.1058-2.5904 0.0917-2.4159 0.17403-2.159 0.0934 0.29167 0.096 1.1994 3e-3 0.97366-0.042-0.10164-0.0859 0.47375-0.11001 1.4393-0.022 0.88476-0.0814 1.7611-0.13188 1.9473l-0.0918 0.33867 0.0404-0.33867zm0.4665-0.59972c4e-3 -0.0986 0.0241-0.1187 0.0512-0.0512 0.0245 0.0611 0.0215 0.13415-7e-3 0.16228-0.0281 0.0281-0.0482-0.0219-0.0445-0.11112zm1.3625-0.28928c0-0.37688 0.0134-0.42127 0.0701-0.23283 0.0385 0.12805 0.0385 0.3376 0 0.46566-0.0567 0.18844-0.0701 0.14405-0.0701-0.23283zm-3.8879 0.0423c9.4e-4 -0.18626 0.0183-0.25249 0.0385-0.14718 0.0203 0.10532 0.0195 0.25772-2e-3 0.33867-0.0212 0.081-0.0378-5e-3 -0.0368-0.19149zm-1.4461-0.42333c-3e-3 -0.37253 0.0267-0.82973 0.0652-1.016 0.0601-0.29052 0.0708-0.24237 0.0749 0.33867 3e-3 0.37253-0.0267 0.82973-0.0652 1.016-0.0601 0.29051-0.0707 0.24236-0.0749-0.33867zm2.2001 0.46567c0-0.11642 0.0192-0.16405 0.0427-0.10584 0.0235 0.0582 0.0235 0.15346 0 0.21167-0.0235 0.0582-0.0427 0.0106-0.0427-0.10583zm-1.0927-0.21167c9.3e-4 -0.18627 0.0183-0.2525 0.0385-0.14718s0.0195 0.25772-2e-3 0.33867c-0.0212 0.081-0.0378-5e-3 -0.0368-0.19149zm2.3845-1.2277c0-0.86148 0.0126-1.2139 0.0279-0.78316 0.0154 0.43074 0.0154 1.1356 0 1.5663s-0.0279 0.0783-0.0279-0.78317zm13.058 0.3201c-0.11028-2.4932-0.0967-3.1398 0.0712-3.3961 0.23494-0.35856 0.3277-0.16875 0.43974 0.8998 0.16554 1.5789 0.14419 1.9927-0.14818 2.8728-0.14322 0.43107-0.27138 0.79476-0.28482 0.80819-0.0134 0.0134-0.0485-0.51967-0.0779-1.1847zm-15.288 0.98518c4e-3 -0.0986 0.0241-0.11869 0.0511-0.0512 0.0245 0.0611 0.0215 0.13414-7e-3 0.16228-0.0281 0.0281-0.0481-0.0219-0.0445-0.11113zm0.60249-0.0776c2e-3 -0.1397 0.0207-0.1866 0.0422-0.10422 0.0215 0.0824 0.0201 0.19668-3e-3 0.254-0.0232 0.0573-0.0407-0.0101-0.039-0.14978zm2.0819-2.1638c0.0249-2.1418 0.0365-2.2235 0.43109-3.0268l0.13751-0.27997 0.0291 0.5763c0.0431 0.85206-0.14131 2.659-0.36982 3.6243-0.11024 0.46567-0.21204 0.92069-0.22621 1.0112-0.0142 0.0905-0.0149-0.76677-2e-3 -1.905zm13.419 1.5288c0-0.20955 0.0165-0.29528 0.0367-0.1905 0.0202 0.10477 0.0202 0.27622 0 0.381-0.0202 0.10477-0.0367 0.019-0.0367-0.1905zm-12.076-0.18659c-0.14703-1.0602-0.15941-1.8207-0.0329-2.0228 0.13261-0.21181 0.26581-0.66933 0.19487-0.66933-0.0224 0-0.0835 0.15895-0.1358 0.35321-0.0692 0.25695-0.11527 0.3206-0.16907 0.23354-0.0804-0.13012-0.0215-0.48269 0.10813-0.64756 0.0446-0.0567 0.13219-0.26629 0.19458-0.46567 0.10506-0.33568 0.11048-0.28731 0.0733 0.65348-0.0221 0.5588-0.0549 1.4291-0.0729 1.9339-0.018 0.50485-0.0501 0.93523-0.0712 0.95641-0.0212 0.0212-0.0612-0.12519-0.0889-0.32525zm-7.4504-0.0886c0.0923-0.58351 0.20613-0.8515 0.15677-0.36918-0.0233 0.22769-0.0424 0.48487-0.0424 0.5715 0 0.0866-0.0386 0.15752-0.0857 0.15752-0.0533 0-0.0641-0.13607-0.0287-0.35984zm0.25721-0.581c0.0262-0.53029 0.0955-1.2118 0.15417-1.5145l0.10659-0.55033 4e-3 0.42333c9e-3 0.82951-0.13182 2.4247-0.22157 2.5144-0.0652 0.0652-0.0777-0.1837-0.0436-0.8729zm3.6902 0.60217c0-0.20955 0.0165-0.29528 0.0367-0.1905 0.0202 0.10477 0.0202 0.27622 0 0.381-0.0202 0.10477-0.0367 0.019-0.0367-0.1905zm-0.25742 0c0-0.16298 0.0174-0.22966 0.0387-0.14817 0.0213 0.0815 0.0213 0.21484 0 0.29634s-0.0387 0.0148-0.0387-0.14817zm-3.9416-0.10583c-0.0484-0.20184-2e-3 -1.4175 0.0569-1.476 0.0189-0.0189 0.0371 0.34827 0.0404 0.81601 3e-3 0.46774-7e-3 0.85044-0.0228 0.85044-0.0159 0-0.0494-0.0857-0.0745-0.1905zm2.6825-0.65617c0-0.44238 0.0143-0.62336 0.0317-0.40217s0.0174 0.58314 0 0.80434c-0.0174 0.22119-0.0317 0.0402-0.0317-0.40217zm1.6945-0.127c0-0.51223 0.0141-0.71087 0.031-0.44141s0.0167 0.68856 0 0.93133c-0.017 0.24278-0.0308 0.0223-0.0306-0.48992zm13.24 0.68336c-0.1859-0.13721-0.18941-0.26841-9e-3 -0.33763 0.1823-0.0699 0.21804-0.0248 0.18475 0.23339-0.0242 0.18741-0.0457 0.20019-0.1757 0.10424zm-13.011-0.0978c4e-3 -0.0986 0.0241-0.11869 0.0512-0.0511 0.0245 0.0611 0.0215 0.13414-7e-3 0.16228-0.0281 0.0281-0.0481-0.0219-0.0445-0.11113zm-0.91495-0.28928c0-0.20955 0.0165-0.29527 0.0367-0.1905 0.0202 0.10478 0.0202 0.27623 0 0.381-0.0202 0.10478-0.0367 0.019-0.0367-0.1905zm3.2816-0.33866c-0.0247-0.93962-0.0256-0.89739 0.0589-2.667 0.04-0.8382 0.0413-1.6155 3e-3 -1.7273-0.0385-0.1118-0.0411-0.43565-6e-3 -0.71967 0.064-0.51567 0.0641-0.51509 0.12366 0.4113 0.0328 0.51024 0.1054 1.0913 0.16137 1.2912 0.10852 0.38758 0.0826 0.75256-0.116 1.6334-0.22046 0.97783-0.23587 1.0791-0.10958 0.71966 0.0654-0.18626 0.15635-0.51011 0.20201-0.71966l0.083-0.381 0.0273 0.55033c0.0412 0.83212 0.0198 1.0111-0.20318 1.6966l-0.20547 0.63173-0.0189-0.71966zm0.28389-0.50275c0.16564-0.50642 0.17672-0.77323 0.013-0.31415-0.14837 0.41619-0.22779 0.73223-0.18399 0.73223 0.0188 0 0.0957-0.18813 0.17095-0.41808zm-7.8447 0.93287c-0.0368-0.14083-0.0258-0.17389 0.037-0.11106 0.0492 0.0492 0.0728 0.13943 0.0524 0.20051-0.0211 0.0634-0.0595 0.025-0.0894-0.0894zm9.7109-0.15496c0.0308-0.12806 0.0912-1.0901 0.13433-2.1378 0.0431-1.0478 0.11943-2.1008 0.16957-2.3401 0.0502-0.23931 0.0695-0.54411 0.0429-0.67733-0.0477-0.23965-0.0472-0.23997 0.0453-0.0306 0.0606 0.13705 0.0857 0.79366 0.0713 1.8627-0.0122 0.90805 8e-3 1.9794 0.0445 2.3807 0.0629 0.68832 0.0557 0.74238-0.127 0.9525-0.26304 0.30252-0.45483 0.29745-0.38097-0.0101zm-8.9131-0.99483c-0.0126-1.3639 0.0345-1.7357 0.2199-1.7357 0.10972 0 0.12258 0.11125 0.0841 0.72774-0.025 0.40025-0.0875 0.76982-0.13894 0.82126-0.0514 0.0515-0.0908 0.15259-0.0876 0.22477 4e-3 0.0947 0.0278 0.0841 0.0844-0.0381 0.0534-0.11542 0.0623-0.0263 0.0278 0.27996-0.10985 0.97503-0.17898 0.87297-0.18963-0.27996zm3.6409 0.97367c0-0.11642 0.0192-0.16405 0.0427-0.10584 0.0235 0.0582 0.0235 0.15346 0 0.21167-0.0235 0.0582-0.0427 0.0106-0.0427-0.10583zm-4.2467-0.11482c0-0.26459 0.2094-1.4629 0.37941-2.1712l0.11178-0.46567 8e-3 0.41247c0.0129 0.63026-0.24049 2.196-0.37799 2.3362-0.10626 0.10834-0.1216 0.0942-0.1216-0.11179zm1.2527-0.68952c0.0299-0.51223 0.0499-1.0837 0.0445-1.27-8e-3 -0.28175 1e-3 -0.30309 0.0577-0.127 0.0635 0.19889 0.0681 0.19476 0.076-0.0685 5e-3 -0.15711 0.0444-0.25794 0.0903-0.22955 0.0906 0.056 0.0227 0.54804-0.0931 0.67481-0.0404 0.0442-0.0768 0.31094-0.0809 0.59267-4e-3 0.28172-0.0392 0.70273-0.0781 0.93556-0.0455 0.27207-0.0513 0.0906-0.0164-0.508zm18.82 0.75495c4e-3 -0.0986 0.0241-0.1187 0.0511-0.0512 0.0245 0.0611 0.0215 0.13415-7e-3 0.16228-0.0281 0.0281-0.0481-0.0219-0.0445-0.11112zm-16.817-1.0032c2e-3 -0.61484 0.0303-0.98607 0.064-0.84666 0.0406 0.16832 0.0512 0.10282 0.0329-0.20341-0.0161-0.26874 2e-3 -0.4059 0.0446-0.33867 0.0439 0.0693 0.0721-0.0753 0.0729-0.37383 8.4e-4 -0.26776 0.0364-0.48683 0.0792-0.48683 0.12326 0 0.20496 1.0509 0.10638 1.3683-0.0483 0.15549-0.11371 0.44962-0.14537 0.65363-0.0388 0.25035-0.0807 0.33355-0.12862 0.25597-0.0438-0.0708-0.0824 0.11176-0.10057 0.47574-0.0162 0.32489-0.0277 0.098-0.0255-0.50423zm5.0479 0.7986c2e-3 -0.16299 0.0351-0.44874 0.0736-0.635 0.0679-0.32833 0.0703-0.32316 0.0785 0.16933 5e-3 0.2794-0.0285 0.56515-0.0736 0.635-0.0613 0.0949-0.0812 0.0521-0.0785-0.16933zm-3.214-0.0506c-0.0102-0.28398 0.28437-4.0523 0.40314-5.1564 0.0709-0.65927 0.0732-0.64535 0.0841 0.52183 0.0103 1.0951-0.19947 3.4314-0.40544 4.5158-0.0602 0.31709-0.0739 0.337-0.0818 0.1187zm3.7218-0.0502c3e-3 -0.15409 0.0387-0.35636 0.0787-0.4495 0.0549-0.12781 0.0742-0.0719 0.0787 0.22784 3e-3 0.21844-0.0321 0.42072-0.0787 0.4495-0.0503 0.0311-0.0823-0.0614-0.0787-0.22784zm1.5498-0.50228c0.0308-0.33153 0.0868-0.65771 0.12434-0.72485 0.12292-0.21967 0.29683 0.11557 0.33521 0.64622 0.0353 0.48748 0.0344 0.4897-0.24009 0.58537l-0.27548 0.096zm-10.934 0.26445c0-0.16298 0.0174-0.22966 0.0387-0.14817 0.0213 0.0815 0.0213 0.21484 0 0.29634s-0.0387 0.0148-0.0387-0.14817zm10.663-0.54119c-0.0568-0.46064-0.0923-0.84856-0.0788-0.86205 0.0135-0.0135 0.10723 0.0396 0.20833 0.11786 0.17879 0.13849 0.18094 0.16205 0.0788 0.86205l-0.10503 0.71966zm0.892 0.36746c0.0265-0.20713 0.062-0.39248 0.0789-0.41188 0.0691-0.0794 0.0221 0.55273-0.0495 0.66588-0.0502 0.0793-0.0606-0.0104-0.0294-0.254zm0.1969 0.0256c3e-3 -0.29753 0.0105-0.30716 0.127-0.15315 0.16103 0.21289 0.15956 0.47065-3e-3 0.47065-0.0908 0-0.12623-0.0905-0.12431-0.3175zm-9.6812-0.40216c0.0735-0.93737 0.20671-1.2927 0.15762-0.42054-0.0211 0.37407-0.0771 0.77412-0.12451 0.889-0.0634 0.1535-0.0722 0.0293-0.0331-0.46846zm7.1179-0.46567c0.0397-1.4764 0.0857-1.6814 0.0855-0.381 0 0.5588-0.0263 1.1303-0.0582 1.27s-0.0442-0.26035-0.0273-0.889zm-2.9126 0.29633c0-0.4191 0.0141-0.60122 0.0318-0.40472 0.0178 0.1965 0.018 0.5394 8.5e-4 0.762-0.0175 0.2226-0.032 0.0618-0.0323-0.35728zm-5.774 0.46567c0-0.11642 0.0192-0.16404 0.0427-0.10583 0.0235 0.0582 0.0235 0.15345 0 0.21166-0.0235 0.0582-0.0427 0.0106-0.0427-0.10583zm2.6139-0.40217c-2e-3 -0.47658 0.0244-0.61383 0.11831-0.61383 0.0962 0 0.1112 0.0993 0.0734 0.48683-0.0735 0.75406-0.18877 0.8304-0.19173 0.127zm10.583 0.0423c0.0231-0.94763 0.0959-1.5329 0.17519-1.4077 0.10121 0.15978 0.0956 0.64505-8e-3 0.70921-0.0466 0.0288-0.082 0.11675-0.0787 0.19549 5e-3 0.11567 0.0191 0.11064 0.0743-0.0262 0.0532-0.13197 0.0811-0.0759 0.12642 0.254 0.0993 0.72339 0.11176 0.70348 0.0795-0.127-0.0172-0.44238-0.0623-0.95673-0.10017-1.143-0.0605-0.29755 0.0837-1.0583 0.20055-1.0583 0.0526 0 0.0367 2.8652-0.0166 3.0042-0.0271 0.0707-0.14283 0.12846-0.25714 0.12846-0.19989 0-0.20736-0.0203-0.19497-0.52916zm-10.773-0.0847c-0.0182-0.29104-8e-3 -0.55995 0.0228-0.59758 0.0307-0.0376 0.0626 0.20049 0.0709 0.52916 0.0187 0.73937-0.0487 0.78861-0.0937 0.0684zm1.9037 0.1905c0-0.20955 0.0165-0.29528 0.0367-0.1905 0.0202 0.10477 0.0202 0.27622 0 0.381-0.0202 0.10477-0.0367 0.0191-0.0367-0.1905zm-2.5318-0.0212c0.0281-0.10477 0.0527-0.43815 0.0548-0.74083 3e-3 -0.37883 0.0281-0.50858 0.0821-0.41636 0.0983 0.16808 6e-3 1.3477-0.10566 1.3477-0.0452 0-0.0593-0.0857-0.0312-0.1905zm0.24692-0.1905c8.4e-4 -0.23283 0.0171-0.31803 0.0365-0.18933s0.0189 0.3192-1e-3 0.42333c-0.0201 0.10413-0.036-1e-3 -0.0354-0.234zm2.1209-0.21166c0-0.34925 0.0149-0.49213 0.0332-0.3175 0.0183 0.17462 0.0183 0.46037 0 0.635-0.0183 0.17462-0.0332 0.0317-0.0332-0.3175zm0.82308-0.21873c3e-3 -0.46178 0.0374-0.99201 0.0771-1.1783 0.0456-0.21408 0.0552 0.0818 0.0259 0.80433-0.0254 0.62865-0.0601 1.1589-0.077 1.1783-0.017 0.0194-0.0286-0.34255-0.0259-0.80434zm8.8518 0.74127c-0.0722-0.11684-0.0396-3.0924 0.0358-3.2742 0.0401-0.0967 0.0668 0.58469 0.0621 1.5875-4e-3 0.96626-0.0186 1.7568-0.0314 1.7568s-0.0427-0.0316-0.0666-0.0701zm0.20268-0.18055c0-0.3521 0.49971-1.8307 0.69404-2.0536l0.16864-0.19341-0.0572 0.97366c-0.0315 0.53552-0.074 1.0349-0.0945 1.1097-0.0205 0.0748-0.18887 0.19559-0.37411 0.26836l-0.3368 0.1323zm-14.8-0.0457c2e-3 -0.1397 0.0207-0.1866 0.0422-0.10422 0.0215 0.0824 0.02 0.19668-3e-3 0.254-0.0232 0.0573-0.0408-0.0101-0.039-0.14978zm-0.34792 0c-3e-3 -0.0931 0.0323-0.22648 0.0774-0.29633 0.073-0.11289 0.0816-0.11289 0.0774 0-3e-3 0.0698-0.0374 0.2032-0.0774 0.29633l-0.0728 0.16933zm1.1946-0.254c2e-3 -0.1397 0.0207-0.1866 0.0422-0.10422 0.0215 0.0824 0.0201 0.19668-3e-3 0.254-0.0232 0.0573-0.0408-0.0101-0.039-0.14978zm14.8-0.249c0-0.25337 0.0381-0.48422 0.0847-0.513 0.0529-0.0327 0.0847 0.14023 0.0847 0.46067 0 0.28555-0.0375 0.513-0.0847 0.513-0.0466 0-0.0847-0.20731-0.0847-0.46067zm3.556-0.89821c0-1.4865-0.0236-1.439 0.49551-0.99609 0.24106 0.20567 0.26649 0.27337 0.26649 0.70954 0 0.39531-0.0566 0.58694-0.31415 1.0638-0.17279 0.31989-0.34424 0.58163-0.381 0.58163-0.0368 0-0.0669-0.6115-0.0669-1.3589zm-18.959 1.1402c4e-3 -0.0986 0.0241-0.11869 0.0512-0.0512 0.0245 0.0611 0.0215 0.13414-7e-3 0.16228-0.0281 0.0281-0.0482-0.0219-0.0445-0.11113zm15.628-0.55551c-0.10075-1.2945-0.0824-1.4788 0.16702-1.675 0.23167-0.18224 0.41466-0.22335 0.48531-0.10904 0.0226 0.0366 0.0679 0.30325 0.10061 0.59267l0.0595 0.52622-0.74153 0.00153 0.4445 0.25491c0.43214 0.24783 0.4445 0.26547 0.4445 0.63421 0 0.30443-0.0292 0.37947-0.14817 0.38022-0.0815 5.1e-4 -0.28508 0.0236-0.45242 0.0513l-0.30427 0.0503-0.0551-0.70743zm-6.199-0.55708c0.013-0.66237-6e-3 -1.1862-0.0415-1.164-0.0358 0.0222-0.0434-0.0427-0.0169-0.14411 0.1162-0.44435 0.16453 0.19052 0.10103 1.3271l-0.0662 1.1853zm7.2436 0.82332c0-0.34216 0.108-0.4513 0.2026-0.20475 0.0964 0.2511 0.0557 0.54341-0.0756 0.54341-0.0917 0-0.127-0.0941-0.127-0.33866zm1.9907 0.055c-0.13272-0.17692-0.24006-0.22456-0.508-0.22547-0.70096-2e-3 -0.67658 0.0394-0.69363-1.1886l-0.0152-1.0962 0.56556 3e-3c0.87355 4e-3 0.87088-5e-4 0.84304 1.4815l-0.0235 1.2504zm-15.944-0.0973c2e-3 -0.1397 0.0207-0.1866 0.0422-0.10422 0.0215 0.0824 0.0201 0.19668-3e-3 0.254-0.0232 0.0573-0.0408-0.0101-0.039-0.14978zm2.2013 0c2e-3 -0.1397 0.0207-0.1866 0.0422-0.10422 0.0215 0.0824 0.0201 0.19668-3e-3 0.254-0.0232 0.0573-0.0408-0.0101-0.039-0.14978zm1.9637-0.84666c0-0.60537 0.0136-0.84191 0.03-0.52565 0.0163 0.31626 0.0162 0.81156 0 1.1007-0.0165 0.2891-0.0299 0.0303-0.0297-0.57502zm7.6756 0.27721c-3e-3 -0.49051 0.0351-0.71809 0.15174-0.90986 0.32476-0.53402 0.359 7e-3 0.0588 0.92898l-0.20674 0.635-4e-3 -0.65412zm-14.13 0.35779c0-0.11642 0.0192-0.16405 0.0427-0.10584 0.0235 0.0582 0.0235 0.15346 0 0.21167-0.0235 0.0582-0.0427 0.0106-0.0427-0.10583zm4.0118-0.1533c-0.0287-0.13088-0.0151-0.3309 0.0302-0.4445 0.0698-0.17484 0.0833-0.13833 0.0879 0.23796 6e-3 0.49203-0.0384 0.56954-0.11811 0.20654zm4.0182-0.23692c0-0.31947 0.0467-0.5699 0.12563-0.6731 0.0691-0.0904 0.16793-0.31512 0.21965-0.49939 0.0805-0.2867 0.1063-0.3131 0.17909-0.18302 0.10543 0.18838 0.0529 0.53762-0.1795 1.193-0.25698 0.7248-0.34487 0.76621-0.34487 0.16248zm0.48322-1.154c-0.0203-0.10532-0.0376-0.0391-0.0385 0.14718-9.3e-4 0.18626 0.0156 0.27243 0.0368 0.19148 0.0212-0.081 0.022-0.23335 2e-3 -0.33866zm-8.6825 1.3748c0-0.11641 0.0192-0.16404 0.0427-0.10583 0.0235 0.0582 0.0235 0.15346 0 0.21167-0.0235 0.0582-0.0427 0.0106-0.0427-0.10584zm16.92-0.0373c0-0.11367 0.0381-0.23022 0.0847-0.259 0.13237-0.0818 0.0993-0.29633-0.0457-0.29633-0.10882 0-0.12636-0.11459-0.10583-0.69169 0.0335-0.94368 0.19431-0.96831 0.26561-0.0407 0.0581 0.75604-4e-3 1.4944-0.12553 1.4944-0.0403 0-0.0732-0.093-0.0732-0.20667zm-15.559-0.132c0-0.16298 0.0174-0.22966 0.0387-0.14817 0.0213 0.0815 0.0213 0.21484 0 0.29634s-0.0387 0.0148-0.0387-0.14817zm3.2505-0.71682c0.0221-0.55724 0.0583-1.0312 0.0802-1.0531 0.066-0.0659 0.0158 1.625-0.055 1.8542-0.036 0.11665-0.0474-0.24383-0.0252-0.80106zm1.4182-3e-3c0-0.51223 0.0141-0.71087 0.031-0.44141s0.0167 0.68856 0 0.93134c-0.017 0.24277-0.0308 0.0223-0.0306-0.48993zm3.3715 0.67733c2e-3 -0.1397 0.0207-0.1866 0.0422-0.10422 0.0215 0.0824 0.02 0.19668-3e-3 0.254-0.0232 0.0573-0.0408-0.0101-0.039-0.14978zm-2.6134-0.42333c0-0.32597 0.0157-0.44894 0.034-0.27328 0.0183 0.17567 0.018 0.44237-8.4e-4 0.59267-0.0187 0.1503-0.0337 7e-3 -0.0333-0.31939zm3.6189-1.1924c-5e-3 -1.4715 0.10314-2.7484 0.22296-2.6286 0.0644 0.0644 0.20205 1.0966 0.27734 2.0795 0.0683 0.89224 0.0606 0.99444-0.0992 1.3077-0.0953 0.18691-0.22325 0.47526-0.28424 0.64079-0.098 0.26595-0.11157 0.10315-0.11684-1.3994zm9.2027 1.1631c0.0216-0.14689 0.073-0.26707 0.11426-0.26707 0.11159 0 0.0908 0.20005-0.0392 0.37789-0.10318 0.14112-0.11045 0.13039-0.0751-0.11082zm-10.184-0.29774c-0.0571-0.45453 0.0258-1.2788 0.17156-1.705 0.0426-0.12454 0.0358-0.13838-0.0255-0.0523-0.13719 0.1925-0.17234-0.0923-0.17641-1.4294-4e-3 -1.2561 0.076-1.7941 0.30403-2.0497 0.071-0.0796 0.15319-0.26245 0.18262-0.40637 0.0294-0.14391 0.0916-0.25025 0.13818-0.2363 0.12139 0.0364 0.0942 0.90276-0.0394 1.253-0.0621 0.16298-0.14027 0.37253-0.17363 0.46567-0.0334 0.0931-0.10149 0.26458-0.15136 0.381-0.16493 0.38503-0.21125 0.61827-0.11038 0.55594 0.0516-0.0319 0.0937-0.14869 0.0937-0.25961s0.0381-0.22522 0.0847-0.254c0.0466-0.0288 0.0847-0.12628 0.0847-0.21666 0-0.0904 0.0381-0.16434 0.0847-0.16434s0.0852-0.10477 0.086-0.23283c8.5e-4 -0.12806 0.0401-0.28999 0.0875-0.35984 0.0612-0.0902 0.0792 0.0609 0.0622 0.52068-0.0132 0.35621-0.0485 0.6327-0.0785 0.61441-0.0805-0.0491-0.17202 0.38109-0.10437 0.49056 0.0327 0.0529 0.0198 0.0702-0.0295 0.0397-0.0876-0.0541-0.50834 1.0951-0.42969 1.1738 0.0219 0.0219 0.1048-0.19365 0.18415-0.47907 0.0793-0.28542 0.16289-0.50034 0.18563-0.47759 0.0228 0.0227 8e-5 0.14992-0.0504 0.28262-0.0505 0.1327-0.0694 0.33801-0.0421 0.45625 0.0395 0.17122 0.0304 0.18912-0.0445 0.088-0.074-0.1-0.0831-0.0767-0.0425 0.109 0.0284 0.12981 0.0154 0.37746-0.0288 0.55034s-0.10034 0.56197-0.12477 0.86466c-0.0434 0.53826-0.0426 0.54105 0.0371 0.127 0.27798-1.443 0.437-2.3917 0.44748-2.6696 7e-3 -0.17529 0.0433-0.29968 0.0814-0.27643 0.0841 0.0512 0.0198 2.0394-0.0687 2.1242-0.0343 0.0329-0.0347-0.11163-8.4e-4 -0.32118 0.0339-0.20955 0.0388-0.35936 0.011-0.3329-0.0279 0.0265-0.0903 0.33125-0.13874 0.67733-0.0484 0.34608-0.15919 0.85783-0.24617 1.1372l-0.15814 0.508-0.0624-0.49633zm6.7794-0.0757c-0.031-0.27374-0.0759-0.54885-0.0999-0.61135-0.0253-0.0658 0.0302-0.13466 0.13185-0.16361 0.5631-0.16041 0.51412-0.21065 0.51412 0.52737v0.67342l-0.24487 0.0359c-0.24139 0.0354-0.24568 0.0289-0.30119-0.46177zm-12.154 0.16566c0-0.1723-0.0386-0.31327-0.0857-0.31327-0.11326 0-0.0165-0.5966 0.1854-1.143l0.15641-0.42333-0.0222 0.99082c-0.0147 0.65307-0.0583 1.0268-0.12808 1.0964-0.0846 0.0844-0.10583 0.0428-0.10583-0.20766zm-0.49463 0.0254c0-0.11642 0.0192-0.16405 0.0427-0.10584 0.0235 0.0582 0.0235 0.15346 0 0.21167-0.0235 0.0582-0.0427 0.0106-0.0427-0.10583zm3.414-0.35984c-0.0703-0.4625-0.0738-0.64739-0.0361-1.9473 0.0144-0.49565 0.0452-0.70546 0.084-0.5715 0.0337 0.11642 0.0537 0.70697 0.0443 1.3123-0.0107 0.69291 7e-3 0.9752 0.0472 0.762 0.0353-0.18626 0.0664-0.67886 0.0691-1.0946 5e-3 -0.75381 0.0582-1.0202 0.34894-1.7417 0.0844-0.20955 0.17523-0.43815 0.20177-0.508 0.0265-0.0699 0.0219 0.3302-0.0103 0.889s-0.0509 1.2763-0.0415 1.5944c0.0139 0.47117-0.0214 0.65167-0.19035 0.97367-0.11406 0.2174-0.23162 0.481-0.26124 0.58577-0.0885 0.31292-0.18402 0.21806-0.2558-0.254zm-5.1751 0.0625c-0.0713-0.1858 0.0439-0.85089 0.19413-1.1212 0.1245-0.224 0.127-0.21559 0.0693 0.23328-0.0329 0.25612-0.0554 0.58949-0.0498 0.74084 0.0104 0.28227-0.12574 0.37602-0.21358 0.14712zm0.11228-0.14183c-0.027-0.0675-0.0471-0.0475-0.0512 0.0511-4e-3 0.0893 0.0163 0.13926 0.0445 0.11113 0.0281-0.0281 0.0311-0.10116 7e-3 -0.16228zm12.391-0.42863c-2e-3 -0.60341 0.0206-0.74083 0.124-0.74083 0.17093 0 0.17093 0.97099 0 1.27-0.11192 0.19578-0.12123 0.15606-0.124-0.52917zm-10.664 0.47978c4e-3 -0.0986 0.0241-0.11869 0.0511-0.0511 0.0245 0.0611 0.0215 0.13414-7e-3 0.16228-0.0281 0.0281-0.0481-0.0219-0.0445-0.11113zm1.8128-0.051c-0.0283-0.11277 4e-3 -0.48874 0.0727-0.83549l0.1242-0.63045-0.0463 0.80433c-0.0255 0.44238-0.0582 0.81835-0.0727 0.83549-0.0145 0.0171-0.0496-0.0611-0.0779-0.17388zm-3.2868-0.23828c0.0713-0.44943 0.0716-0.4731 0.0134-1.1853-0.0247-0.30268-0.0286-0.45508-9e-3 -0.33867 0.076 0.44323 0.19268 0.36764 0.20259-0.13123 6e-3 -0.27707 0.0393-0.61807 0.075-0.75777 0.0378-0.14783 0.0479 0.0291 0.0241 0.42334-0.0225 0.37253-0.0718 0.7998-0.10965 0.94949-0.0378 0.14969-0.0499 0.41639-0.0268 0.59267 0.0268 0.20452-7e-3 0.41242-0.0942 0.5745l-0.13617 0.254zm5.9131-0.14581c-0.0276-0.17592-0.0664-0.42329-0.0862-0.54972-0.039-0.24888 0.0992-0.69964 0.42744-1.3935 0.11462-0.24228 0.21141-0.49051 0.21508-0.5516 4e-3 -0.0611 0.0445-8e-3 0.0907 0.11861 0.0655 0.17923 0.0269 0.45203-0.17602 1.242-0.143 0.55676-0.26 1.0893-0.26 1.1835 0 0.313-0.15999 0.27562-0.21094-0.0493zm-3.2308-0.44685c0-0.39582 0.0146-0.55775 0.0324-0.35984s0.0178 0.52176 0 0.71967-0.0324 0.036-0.0324-0.35983zm-4.0771 0.29633c2e-3 -0.1397 0.0207-0.1866 0.0422-0.10422 0.0215 0.0824 0.02 0.19668-3e-3 0.254-0.0232 0.0573-0.0407-0.0101-0.039-0.14978zm7.6601 0.0913c-0.0323-0.084-0.0203-0.12122 0.029-0.0907 0.0802 0.0496 0.12607-0.23137 0.0968-0.59327-0.0114-0.14181 9.3e-4 -0.14869 0.0764-0.0423 0.068 0.0958 0.0785 0.0542 0.0428-0.16933-0.0353-0.22167-0.0275-0.25367 0.0312-0.127 0.12159 0.26229 0.0977 0.56562-0.0692 0.87886-0.12248 0.22986-0.16326 0.25816-0.20716 0.14377zm2.6514 0.12037c-4e-3 -0.0233-0.0394-0.40429-0.0791-0.84667s-0.11712-1.1137-0.17203-1.4918c-0.0916-0.63053-0.0847-0.73569 0.0824-1.27 0.1741-0.55654 0.35623-1.3258 0.5088-2.1489 0.15094-0.81435 0.0143 2.6946-0.15652 4.0186-0.0959 0.74335-0.15952 1.3664-0.14141 1.3845 0.0398 0.0398 0.10738-0.33306 0.2042-1.1274l0.0722-0.59267 0.0107 0.85846c9e-3 0.73911-0.0124 0.88624-0.1558 1.0583-0.0916 0.10993-0.16964 0.18083-0.17345 0.15755zm-2.0912-0.46567c8.5e-4 -0.23283 0.0171-0.31804 0.0366-0.18934 0.0194 0.1287 0.0189 0.3192-1e-3 0.42334-0.0201 0.10413-0.036-1e-3 -0.0354-0.234zm-6.5369 0.16228c4e-3 -0.0986 0.0241-0.1187 0.0512-0.0512 0.0245 0.0611 0.0215 0.13415-7e-3 0.16228-0.0281 0.0281-0.0481-0.0219-0.0445-0.11112zm1.2148-1.8133c-8.5e-4 -1.8109 4e-3 -1.8718 0.0484-0.67733l0.0492 1.3123 0.0178-1.2538c0.0185-1.3035 0.0686-1.4337 0.32163-0.83588 0.18444 0.4358 0.24154 1.9064 0.0905 2.3311l-0.11595 0.3261-0.0484-0.3261c-0.0266-0.17935-0.0142-0.47849 0.0275-0.66475 0.0703-0.31345 0.0732-0.30399 0.0396 0.127-0.0239 0.30632-0.01 0.41991 0.0411 0.33195 0.0658-0.11378 0.085-1.4603 0.0199-1.3955-0.0524 0.0521-0.27444 1.3597-0.28614 1.6848-0.0113 0.31357-0.018 0.32441-0.0612 0.0984-0.0355-0.18583-0.0612-0.0949-0.0958 0.33867-0.026 0.32597-0.0477-0.30268-0.0482-1.397zm9.249 1.8062c-0.0812-0.0812-0.0672-0.89622 0.0177-1.0302 0.0961-0.15152 0.14634-0.0152 0.22417 0.60766 0.0486 0.38926 0.0369 0.47894-0.0628 0.47894-0.0674 0-0.14805-0.0254-0.17909-0.0564zm-9.5071-0.95955c0-0.53552 0.0137-0.7546 0.0306-0.48684 0.0168 0.26776 0.0168 0.70591 0 0.97367s-0.0306 0.0487-0.0306-0.48683zm-2.8095 0.635c2e-3 -0.1397 0.0207-0.1866 0.0422-0.10423 0.0215 0.0824 0.0201 0.19668-3e-3 0.254-0.0232 0.0573-0.0408-0.0101-0.039-0.14977zm8.5397-0.0917c3e-3 -0.18238 0.038-0.48401 0.0785-0.67027 0.0546-0.25106 0.0614-0.1744 0.0264 0.29633-0.0512 0.68855-0.11281 0.90811-0.10495 0.37394zm-7.961 7e-3c0-0.1397 0.0369-0.31115 0.0821-0.381 0.063-0.0974 0.0821-0.0679 0.0821 0.127 0 0.1397-0.0369 0.31115-0.0821 0.381-0.063 0.0974-0.0821 0.0679-0.0821-0.127zm8.1517-0.0652c5e-3 -0.20742 0.0311-0.27676 0.0752-0.19796 0.0373 0.0667 0.034 0.21036-7e-3 0.31924-0.0647 0.17024-0.0742 0.15326-0.0679-0.12128zm2.1874-0.32379c-0.0178-0.9212 0.15686-3.3215 0.24866-3.4167 0.0471-0.0488 0.0776 0.70686 0.0776 1.9212 0 1.4056-0.0287 2.0194-0.0964 2.0612-0.0714 0.0441-0.0852-0.3559-0.0532-1.5402 0.0453-1.6791 0.016-1.5482-0.0967 0.43224-0.0492 0.86427-0.0708 1.0112-0.0799 0.54231zm0.72839 0.53902-0.3175-0.0332v-2.5456c0-1.7878 0.036-2.7755 0.12084-3.3181 0.0665-0.42487 0.18436-1.3059 0.262-1.9578 0.0776-0.65193 0.15493-1.2234 0.17175-1.27 0.0168-0.0466 0.0293 1.7822 0.0277 4.064-2e-3 2.7359 0.0282 4.2494 0.0884 4.4444 0.10563 0.34215 0.11996 0.68432 0.0278 0.66366-0.0349-8e-3 -0.20637-0.0292-0.381-0.0474zm-9.5178-0.42025c8e-3 -0.24177 0.0419-0.4119 0.0762-0.37806 0.0342 0.0338 0.0279 0.23164-0.014 0.43958l-0.0762 0.37807zm-0.86167 0.14326c0-0.11642 0.0192-0.16404 0.0427-0.10583 0.0235 0.0582 0.0235 0.15345 0 0.21166-0.0235 0.0582-0.0427 0.0106-0.0427-0.10583zm2.5508-0.21167c8.5e-4 -0.23283 0.0171-0.31803 0.0365-0.18933 0.0195 0.12869 0.0189 0.31919-1e-3 0.42333-0.0201 0.10413-0.036-1e-3 -0.0354-0.234zm0.99847 0.24695c4e-3 -0.0986 0.0241-0.1187 0.0512-0.0512 0.0245 0.0611 0.0215 0.13415-7e-3 0.16228-0.0281 0.0281-0.0481-0.0219-0.0445-0.11112zm-0.85335-0.24195c0-0.16024 0.0293-0.30943 0.0651-0.33155 0.0358-0.0221 0.0508 0.10899 0.0334 0.29134-0.0391 0.4094-0.0985 0.43367-0.0985 0.0402zm-3.1184-0.39219c0.0109-0.40381 0.04-0.55798 0.0854-0.45162 0.0395 0.0924 0.0505-0.092 0.0258-0.43119-0.0279-0.38352 8.5e-4 -0.757 0.0811-1.0583l0.12425-0.46567-0.0377 0.635c-0.0207 0.34925-0.0354 0.9685-0.0327 1.3761 4e-3 0.56767-0.0263 0.77244-0.12886 0.87496-0.12202 0.12202-0.1324 0.0797-0.11738-0.47927zm1.0997 0.42953c0-0.11642 0.0192-0.16405 0.0427-0.10584 0.0235 0.0582 0.0235 0.15346 0 0.21167-0.0235 0.0582-0.0427 0.0106-0.0427-0.10583zm0.42333 0c0-0.11642 0.0192-0.16405 0.0427-0.10584 0.0235 0.0582 0.0235 0.15346 0 0.21167-0.0235 0.0582-0.0427 0.0106-0.0427-0.10583zm0.18134-0.254c0-0.25612 0.0159-0.3609 0.0353-0.23284s0.0194 0.33761 0 0.46567-0.0353 0.0233-0.0353-0.23283zm2.8862-0.635c0-0.60537 0.0136-0.84191 0.03-0.52565 0.0163 0.31626 0.0162 0.81156 0 1.1007-0.0165 0.2891-0.0299 0.0303-0.0297-0.57502zm0.59029 0.21166c0-0.44238 0.0143-0.62336 0.0317-0.40216 0.0174 0.22119 0.0174 0.58314 0 0.80433s-0.0317 0.0402-0.0317-0.40217zm-5.5688 0.127c0.0285-0.32596 0.0851-0.64981 0.12594-0.71966 0.0943-0.16144-4e-3 0.90949-0.10455 1.143-0.0445 0.1029-0.0529-0.0632-0.0214-0.42334zm4.2879 0.29634c0-0.16299 0.0174-0.22966 0.0387-0.14817 0.0213 0.0815 0.0213 0.21484 0 0.29633-0.0213 0.0815-0.0387 0.0148-0.0387-0.14816zm7.2973-0.0936c-0.0521-0.23306-0.0627-1.6377-0.0283-3.7588 0.0302-1.8627 0.0356-3.8452 0.0118-4.4056-0.0387-0.91349-0.0244-1.0614 0.13817-1.4289 0.0997-0.22548 0.18134-0.48183 0.18134-0.56967 0-0.0879 0.0381-0.23541 0.0847-0.32791s0.12277-0.24386 0.16933-0.33637c0.0466-0.0925 0.0859-0.23537 0.0874-0.3175 1e-3 -0.0821 0.0551-0.2184 0.11909-0.30285 0.10808-0.14255 0.12049-0.13493 0.17353 0.10654 0.0314 0.14304 0.13562 0.30209 0.23156 0.35343 0.16848 0.0902 0.17294 0.14299 0.13051 1.5445-0.0323 1.0664-0.0803 1.538-0.18122 1.7787-0.0808 0.19288-0.20824 1.0286-0.30978 2.032-0.21403 2.1151-0.26377 2.3323-0.34007 1.4848-0.0533-0.59181-0.10276-0.86607-0.32693-1.8124-0.0726-0.30668-0.0756-0.29468-0.0318 0.127 0.0266 0.25612 0.0807 0.55281 0.12019 0.65932 0.0395 0.1065 0.11347 0.6399 0.16447 1.1853 0.11485 1.2282 0.0355 2.525-0.18046 2.9485-0.14219 0.2789-0.14441 0.32339-0.0252 0.50527 0.11438 0.17456 0.11597 0.24357 0.0128 0.5531l-0.11789 0.35366zm-10.841-0.24822c0.0306-0.25441 0.0601-0.85308 0.0655-1.3304 0.0104-0.92203 0.10075-1.187 0.13497-0.39596 0.0112 0.25949 0.0506 0.5258 0.0876 0.5918 0.0963 0.17216-0.0776 1.326-0.22205 1.4732-0.10589 0.10786-0.11442 0.064-0.066-0.33867zm3.7052 3e-3c-5e-3 -0.44273 0.17358-1.3987 0.28186-1.5069 0.0689-0.0689-0.0356 0.83953-0.16841 1.4646l-0.10796 0.508-6e-3 -0.46567zm2.4026-1.0498c-0.0549-1.2781-0.0452-1.5499 0.0621-1.7357 0.07-0.12113 0.15469-0.40998 0.18827-0.64189 0.0336-0.23191 0.13764-0.52923 0.23126-0.66071 0.0996-0.13993 0.15442-0.32175 0.13211-0.43845-0.0259-0.13542-4e-3 -0.18638 0.0676-0.15882 0.15154 0.0582 0.24-0.42788 0.11901-0.65395-0.0578-0.10807-0.0627-0.16223-0.0117-0.13071 0.0479 0.0296 0.10418-0.0325 0.1251-0.13795 0.0209-0.10547 0.0319 0.76074 0.0243 1.9249l-0.0137 2.1167-0.27966 0.67733c-0.15382 0.37253-0.30932 0.71543-0.34557 0.762-0.0362 0.0466-0.10374 0.19897-0.15 0.33867-0.0656 0.19819-0.0984-0.0789-0.14918-1.2614zm1.0772 0.88043c0-0.34925 0.0291-0.7493 0.0646-0.889 0.0466-0.183 0.0646-0.0765 0.0646 0.381 0 0.34925-0.0291 0.7493-0.0646 0.889-0.0466 0.18299-0.0646 0.0765-0.0646-0.381zm-6.4026-0.86411c6e-3 -0.81727 0.0437-1.2975 0.10583-1.3597 0.14042-0.14041 0.13148 2.0355-0.01 2.3714-0.0907 0.21578-0.10445 0.0711-0.0961-1.0118zm0.37794 1.0687c4e-3 -0.0986 0.0241-0.1187 0.0512-0.0512 0.0245 0.0611 0.0215 0.13415-7e-3 0.16228-0.0281 0.0281-0.0482-0.0219-0.0445-0.11112zm-2.1167-0.0847c4e-3 -0.0986 0.0241-0.11869 0.0511-0.0512 0.0245 0.0611 0.0215 0.13414-7e-3 0.16228-0.0281 0.0281-0.0481-0.0219-0.0445-0.11113zm0.43002-0.0353c0-0.11641 0.0192-0.16404 0.0427-0.10583 0.0235 0.0582 0.0235 0.15346 0 0.21167-0.0235 0.0582-0.0427 0.0106-0.0427-0.10584zm0.93447-0.29633c2e-3 -0.1397 0.0207-0.1866 0.0422-0.10422 0.0215 0.0824 0.0201 0.19668-3e-3 0.254-0.0232 0.0573-0.0408-0.0101-0.039-0.14978zm0.78936-0.67733c0.0226-0.51224 0.0789-1.0456 0.12498-1.1853 0.0644-0.19503 0.0735-0.10659 0.0394 0.381-0.0245 0.34925-0.0431 0.76835-0.0414 0.93134 2e-3 0.16298-0.0345 0.41063-0.0805 0.55033-0.0611 0.18561-0.0725 3e-3 -0.0425-0.67733zm1.4074 0.71966c0-0.0699 0.0327-0.2032 0.0728-0.29633 0.0459-0.10674 0.0728-0.12238 0.0728-0.0423 0 0.0699-0.0327 0.2032-0.0728 0.29633-0.0459 0.10673-0.0728 0.12238-0.0728 0.0423zm0.59413-0.16933c0-0.11642 0.0192-0.16404 0.0427-0.10583 0.0235 0.0582 0.0235 0.15345 0 0.21166-0.0235 0.0582-0.0427 0.0106-0.0427-0.10583zm2.1031-0.127c-6e-3 -0.1397-0.043-0.3302-0.0813-0.42333-0.0774-0.18832-0.13684-0.0984-0.19578 0.29633-0.0174 0.11642-0.0188-0.51223-3e-3 -1.397 0.0156-0.88477 0.0328-1.8563 0.0381-2.159 5e-3 -0.30268-0.0179-0.66965-0.0515-0.81547-0.0377-0.16345-0.026-0.28684 0.0304-0.32171 0.0613-0.0379 0.078 0.0356 0.0504 0.2228-0.0357 0.24273-0.0316 0.25096 0.032 0.0628 0.0402-0.11914 0.11778-0.30011 0.1724-0.40217 0.0745-0.13923 0.0753-0.23038 3e-3 -0.36511-0.075-0.14004-0.073-0.16529 9e-3 -0.11476 0.0795 0.0491 0.0923-0.0149 0.0528-0.26495-0.0364-0.23067-0.029-0.27886 0.0247-0.1604 0.0677 0.14936 0.0786 0.13937 0.0925-0.0847 9e-3 -0.14029 0.0327-0.18979 0.0536-0.11059 0.0208 0.0789-2e-3 0.28674-0.0501 0.46192-0.0637 0.23061-0.0615 0.33484 8e-3 0.37771 0.0679 0.042 0.0764 0.27711 0.0291 0.80808-0.0367 0.41189-0.0781 1.0918-0.092 1.5109s-0.0644 1.0964-0.1122 1.5051c-0.0487 0.41658-0.0557 0.82578-0.0158 0.93133 0.0799 0.21159 0.13008-0.13641 0.21705-1.505 0.0266-0.4191 0.0992-0.9525 0.16116-1.1853l0.11275-0.42333 0.0619 0.762c0.0902 1.1087 0.08 1.4-0.0623 1.778-0.0701 0.18627-0.17497 0.47202-0.23302 0.635-0.22856 0.6416-0.23864 0.65689-0.25133 0.381zm3.1329-0.20199c0-0.18094 0.0569-0.43812 0.12647-0.5715 0.0696-0.13338 0.12672-0.30919 0.127-0.39068 0-0.0815 0.0428-0.14816 0.0945-0.14816 0.10069 0 0.0757 0.2344-0.10588 0.99483-0.12511 0.52386-0.24205 0.57967-0.24205 0.11551zm1.205-0.17901c0-0.16298 0.0174-0.22966 0.0387-0.14817 0.0213 0.0815 0.0213 0.21484 0 0.29634s-0.0387 0.0148-0.0387-0.14817zm-10.712-0.18025c0.0258-0.20355 0.082-0.42723 0.1249-0.49708 0.0501-0.0816 0.0588 0.0243 0.0241 0.29633-0.0296 0.23283-0.0858 0.45652-0.12491 0.49708-0.039 0.0406-0.0499-0.0928-0.0241-0.29633zm1.5497 0.20641c-8.5e-4 -0.10202 0.0368-0.20905 0.0834-0.23783 0.1078-0.0666 0.1078 0.12953 0 0.29634-0.0667 0.10324-0.0823 0.0923-0.0834-0.0585zm3.1988-0.11634c0.0202-0.13781 0.0636-0.26713 0.0964-0.28739 0.0328-0.0203 0.043 0.0759 0.0228 0.21374-0.0202 0.13781-0.0636 0.26714-0.0964 0.28739-0.0328 0.0203-0.043-0.0759-0.0228-0.21374zm-4.9721-0.0953c-3e-3 -0.17188 0.0322-0.33605 0.0787-0.36483 0.10217-0.0632 0.10217 0.27024 0 0.508-0.0586 0.13647-0.0739 0.10868-0.0787-0.14317zm0.50873 0.0514c4e-3 -0.0986 0.0241-0.11869 0.0512-0.0512 0.0245 0.0611 0.0215 0.13414-7e-3 0.16228-0.0281 0.0281-0.0481-0.0219-0.0445-0.11113zm0.16265 0.0544c0-0.0438 0.0377-0.10295 0.0837-0.1314 0.048-0.0297 0.0622 4e-3 0.0333 0.0797-0.0563 0.14668-0.11698 0.17352-0.11698 0.0517zm5.4417-0.34366c0-0.20955 0.0165-0.29528 0.0367-0.1905 0.0202 0.10477 0.0202 0.27622 0 0.381-0.0202 0.10477-0.0367 0.019-0.0367-0.1905zm-4.4826-0.29634c0-0.32596 0.0157-0.44894 0.034-0.27328 0.0183 0.17567 0.018 0.44237-8.5e-4 0.59267-0.0187 0.1503-0.0337 7e-3 -0.0333-0.31939zm11 0.16934c9.3e-4 -0.18627 0.0183-0.2525 0.0385-0.14718 0.0203 0.10531 0.0195 0.25771-2e-3 0.33866-0.0212 0.081-0.0378-5e-3 -0.0368-0.19148zm-11.938-0.0847c9.3e-4 -0.18627 0.0183-0.2525 0.0385-0.14718s0.0195 0.25772-2e-3 0.33867c-0.0212 0.081-0.0378-5e-3 -0.0368-0.19149zm1.089-0.14317c-5e-3 -0.26501 0.0284-0.50538 0.0749-0.53416 0.10048-0.0621 0.1024 0.20573 5e-3 0.67733-0.0696 0.33652-0.0701 0.33562-0.0798-0.14317zm6.6856 0.30545c4e-3 -0.0986 0.0241-0.1187 0.0511-0.0512 0.0245 0.0611 0.0215 0.13415-7e-3 0.16228-0.0281 0.0281-0.0481-0.0219-0.0445-0.11112zm1.271-0.18901c-4e-3 -0.20097 0.0361-0.44732 0.0897-0.54743 0.0536-0.10012 0.0897-0.42146 0.0802-0.7141-0.0107-0.33021 0.0169-0.53207 0.0728-0.53207 0.13971 0 0.079 1.1597-0.0887 1.6933l-0.14631 0.46567-8e-3 -0.3654zm-6.8631 0.0267c0-0.0931 0.0369-0.22648 0.0821-0.29633 0.068-0.10517 0.0821-0.0979 0.0821 0.0423 0 0.0931-0.0369 0.22648-0.0821 0.29633-0.068 0.10517-0.0821 0.0979-0.0821-0.0423zm5.6393-0.93133c0.058-0.93247 0.0903-1.845 0.13074-3.7005 0.0128-0.58648 0.0515-0.94943 0.0949-0.889 0.0424 0.0591 0.0467-0.0228 0.0102-0.19421-0.10186-0.47816-0.0886-0.95455 0.0278-0.99412 0.0587-0.02 0.0901 0.0143 0.0706 0.0769-0.0984 0.31469-0.1329 0.58781-0.0692 0.54844 0.0394-0.0244 0.0807 0.23591 0.0916 0.5784 0.0116 0.36237-0.017 0.6455-0.0683 0.67722-0.0485 0.03-0.0855 0.11893-0.0823 0.19768 5e-3 0.11788 0.0198 0.11326 0.0844-0.0262 0.0583-0.12595 0.0685-0.0826 0.0398 0.16934-0.0212 0.18626-0.0617 0.96731-0.0899 1.7357-0.0689 1.877-0.10418 2.3063-0.20927 2.5473-0.0652 0.14957-0.0736-0.0454-0.0311-0.72696zm0.0868-0.3175c-0.0235-0.0582-0.0427-0.0106-0.0427 0.10583 0 0.11642 0.0192 0.16404 0.0427 0.10583 0.0235-0.0582 0.0235-0.15346 0-0.21166zm4.1491 0.7687c-0.031-0.26399-0.0391-0.53066-0.0179-0.59259 0.0212-0.0619 0.13894-1.0836 0.26163-2.2703 0.13165-1.2733 0.27122-2.245 0.34054-2.3707 0.10212-0.1852 0.11469 0.0853 0.0963 2.073-0.0202 2.1812-0.0304 2.3093-0.2223 2.794-0.11062 0.2794-0.22789 0.52705-0.26061 0.55034-0.0327 0.0233-0.0779 0.0994-0.10038 0.16925-0.0225 0.0698-0.0663-0.0891-0.0973-0.35305zm-2.5372 0.21125c-0.15273-0.24712 0.0728-1.7545 0.32711-2.1864 0.0548-0.0931 0.20801-0.56939 0.34039-1.0583 0.13237-0.48895 0.25484-0.82005 0.27212-0.73577 0.033 0.16074-0.27943 1.2954-0.63387 2.3021-0.28116 0.79858-0.32599 1.0009-0.13135 0.59266 0.0888-0.18626 0.18871-0.44794 0.22201-0.58149 0.11732-0.4706 0.12351-0.1711 9e-3 0.41321-0.16809 0.85435-0.33416 1.3686-0.40496 1.2541zm-7.842-0.16151c4e-3 -0.0986 0.0241-0.11869 0.0511-0.0512 0.0245 0.0611 0.0215 0.13414-7e-3 0.16228-0.0281 0.0281-0.0481-0.0219-0.0445-0.11113zm0.51469-0.20461c0-0.11642 0.0192-0.16404 0.0427-0.10583 0.0235 0.0582 0.0235 0.15345 0 0.21166-0.0235 0.0582-0.0427 0.0106-0.0427-0.10583zm5.945-1.143c0-0.51223 0.0141-0.71087 0.031-0.44141 0.0168 0.26946 0.0167 0.68856 0 0.93133-0.0171 0.24278-0.0308 0.0223-0.0306-0.48992zm0.90634 0.75494c4e-3 -0.0986 0.0241-0.11869 0.0511-0.0512 0.0245 0.0611 0.0215 0.13414-7e-3 0.16228-0.0281 0.0281-0.0482-0.0219-0.0445-0.11113zm5.1695-0.52211c0.0119-0.59223 0.0474-0.52638 0.0913 0.16934 0.0139 0.22119-3e-3 0.40216-0.0387 0.40216-0.0353 0-0.0589-0.25717-0.0526-0.5715zm-0.19852 0.40217c-0.0767-0.17254-0.12963-1.859-0.0569-1.8141 0.13818 0.0854 0.19845 0.55281 0.15748 1.2214-0.0243 0.39582-0.0695 0.66252-0.10056 0.59267zm-7.3517-0.21167c-7e-3 -0.21391-0.019-0.22727-0.0752-0.0847-0.0459 0.11678-0.0663 0.0379-0.0655-0.254 8.5e-4 -0.23284-5e-3 -0.78529-0.0127-1.2277-8e-3 -0.44238 0.0192-0.91863 0.0595-1.0583 0.1249-0.43247 0.22696 0.81987 0.10861 1.3326-0.11801 0.51126-0.11306 0.70311 9e-3 0.3607 0.0499-0.1397 0.1009-0.84455 0.11329-1.5663 0.0243-1.4182 0.12698-2.2679 0.24255-2.008 0.0575 0.12945 0.105 0.0994 0.33215-0.21011l0.26501-0.36113 0.0275 0.5911c0.0273 0.58577-0.055 1.1376-0.2887 1.9363-0.0666 0.22762-0.14434 0.62767-0.17277 0.889-0.0284 0.26133-0.10105 0.55452-0.16139 0.65152-0.0603 0.097-0.13678 0.3637-0.16988 0.59267-0.0768 0.53153-0.19984 0.77328-0.21182 0.41629zm6.8741 0.01c-0.2682-0.0773-0.28091-0.0982-0.23357-0.38456 0.0275-0.16655 0.13974-0.58857 0.24935-0.93782l0.19929-0.635 0.0617 0.55033c0.0339 0.30269 0.0494 0.76149 0.0343 1.0196l-0.0274 0.46922zm0.85533-0.17938c9.3e-4 -0.18627 0.0183-0.2525 0.0385-0.14718 0.0203 0.10532 0.0195 0.25772-2e-3 0.33867-0.0212 0.081-0.0378-5e-3 -0.0368-0.19149zm-6.0801-0.082c-0.0344-0.18359-0.0333-1.0404 3e-3 -1.9039 0.0986-2.3733 0.12886-3.2275 0.12834-3.6233 0-0.19791 0.0355-0.35983 0.0794-0.35983s0.0962-0.0857 0.11615-0.1905c0.0272-0.14253 0.0306-0.1372 0.0135 0.0212-0.0125 0.11641-0.0465 0.30691-0.0754 0.42333l-0.0526 0.21167 0.10709-0.21167c0.0982-0.1941 0.10925-0.16456 0.13316 0.3558 0.0203 0.44141-0.0124 0.64285-0.14703 0.9068-0.21517 0.42176-0.2239 0.58178-0.01 0.17969l0.15621-0.29338 0.0516 1.0554c0.0587 1.2004 0.0391 1.8599-0.0536 1.8036-0.0349-0.0212-0.0635 0.0555-0.0635 0.17056 0 0.11502-0.0757 0.45064-0.16824 0.74583-0.0925 0.29519-0.16493 0.59386-0.16089 0.66371 4e-3 0.0699 0.0952-0.1397 0.20265-0.46567 0.178-0.54015 0.20065-0.57173 0.2556-0.35642 0.0423 0.16578 0.0194 0.28141-0.0768 0.38767-0.0754 0.0833-0.13704 0.22686-0.13704 0.31907 0 0.0922-0.0537 0.24113-0.11939 0.33093-0.11175 0.15283-0.12341 0.14191-0.18201-0.17053zm2.1308 0.075c-0.0726-0.18929-0.045-1.6357 0.0371-1.9404 0.0421-0.15652 0.0627 0.19275 0.0535 0.91005-8e-3 0.64023-0.0204 1.1641-0.027 1.1642-7e-3 7e-5 -0.0352-0.0602-0.0635-0.13381zm2.4056-2.7659c2e-3 -2.5033 0.04-3.2776 0.21261-4.2765 0.0401-0.23215 0.0715-0.26329 0.19723-0.19598 0.14283 0.0764 0.14266 0.12295-4e-3 1.038-0.11117 0.69386-0.16866 1.6875-0.20855 3.6038-0.0303 1.4552-0.0875 2.6458-0.12704 2.6458-0.0396 0-0.0712-1.2668-0.0703-2.8152zm0.26344 0.86783c8.4e-4 -1.0943 0.0353-2.0659 0.0774-2.159 0.0496-0.10948 0.0699 0.21126 0.0576 0.90734-0.0184 1.0394-0.0125 1.0802 0.1714 1.1785 0.24007 0.12829 0.23709 0.18717-0.0615 1.2162l-0.24568 0.84667 8.4e-4 -1.9897zm-4.1039 1.5125c-0.0754-0.28154-0.058-0.40214 0.0288-0.20016 0.061 0.14191 0.0737 0.12476 0.0787-0.10583 3e-3 -0.15134 0.0431-0.27517 0.0885-0.27517 0.0848 0 0.029 0.45483-0.0818 0.66582-0.0437 0.0832-0.0756 0.0596-0.1142-0.0847zm0.43095 0.13202c-0.0984-0.0992-0.0749-0.78082 0.0291-0.84509 0.0509-0.0315 0.0788-0.20197 0.0619-0.37887s-1e-3 -0.30355 0.0344-0.28143c0.0358 0.0221 0.0651 2e-3 0.0651-0.0451 0-0.0469 0.0953-0.18807 0.21166-0.31369 0.11642-0.12561 0.21167-0.26365 0.21167-0.30674 0-0.0431 0.0645-0.14231 0.14342-0.22047 0.12473-0.12359 0.13678-0.12452 0.0924-7e-3 -0.0281 0.0743-0.13611 0.45526-0.24007 0.84667-0.10395 0.39141-0.23087 0.78786-0.28204 0.88099-0.0512 0.0931-0.13151 0.29659-0.17854 0.45212-0.047 0.15553-0.11406 0.25396-0.14898 0.21872zm-3.3072-0.67084c0.0378-0.32597 0.0651-0.9451 0.0606-1.3758-5e-3 -0.44771 0.0266-0.78316 0.0729-0.78316 0.12485 0 0.0386 2.3758-0.0938 2.5823-0.0908 0.14174-0.0973 0.0728-0.0398-0.42333zm1.6635-0.21167c0-0.34925 0.0149-0.49213 0.0332-0.3175 0.0183 0.17462 0.0183 0.46037 0 0.635-0.0183 0.17462-0.0332 0.0317-0.0332-0.3175zm1.1159 0.14713c-0.0344-0.0821-0.0339-0.32972 1e-3 -0.55034l0.0638-0.40112 0.0751 0.27516c0.089 0.32616-0.0353 0.92612-0.14007 0.6763zm0.38633-0.45052c4e-3 -0.0986 0.0241-0.11869 0.0512-0.0512 0.0245 0.0611 0.0215 0.13414-7e-3 0.16228-0.0281 0.0281-0.0481-0.0219-0.0445-0.11113zm-0.15466-0.41628c9.3e-4 -0.18626 0.0183-0.25249 0.0385-0.14718 0.0203 0.10532 0.0195 0.25772-2e-3 0.33867-0.0212 0.081-0.0378-5e-3 -0.0368-0.19149zm0.14298-0.16933c-0.0347-0.47644 8e-3 -1.0007 0.0896-1.1007 0.038-0.0466 0.12713-0.30744 0.19803-0.57972 0.12476-0.47917 0.30248-0.82849 0.19688-0.38701-0.0512 0.21401-0.24536 1.7596-0.25628 2.04-3e-3 0.0781-0.0326 0.12523-0.0657 0.10479-0.0331-0.0204-0.0776 0.03-0.099 0.11205-0.0214 0.0821-0.05-3e-3 -0.0636-0.18946zm1.4732-0.68944c7e-3 -0.56546 0.0395-0.98654 0.0712-0.93575 0.0629 0.10074 0.11459-0.0903 0.19804-0.73207 0.0293-0.22546 0.0723-0.39094 0.0955-0.36773 0.0387 0.0387-0.13042 1.477-0.30552 2.598-0.0597 0.3823-0.0703 0.28162-0.0592-0.56244zm-5.844-0.47555c0.0297-0.71903 0.0905-1.3988 0.13521-1.5105 0.0984-0.2461 0.0931-0.29382 0.13891 1.2362 0.0182 0.60536 0.0436 1.1959 0.0565 1.3123 0.0186 0.16757-0.019 0.21767-0.18053 0.2405l-0.20407 0.0288zm-1.4648 0.93216c8.5e-4 -0.15135 0.0382-0.33232 0.0834-0.40217 0.0594-0.0919 0.0824-0.0157 0.0834 0.27517 8.4e-4 0.22119-0.0368 0.40216-0.0834 0.40216s-0.0841-0.12382-0.0834-0.27516zm0.25939 0.14111c4e-3 -0.0986 0.0241-0.1187 0.0512-0.0512 0.0245 0.0611 0.0215 0.13415-7e-3 0.16228-0.0281 0.0281-0.0482-0.0219-0.0445-0.11112zm0.53391 0.0122c-0.0257-0.067-5e-3 -0.19084 0.0462-0.27516 0.0768-0.12667 0.0844-0.10917 0.0441 0.10069-0.0338 0.17567-0.0246 0.21483 0.0299 0.127 0.0433-0.0699 0.10067-0.3515 0.12747-0.6259 0.0268-0.27439 0.0933-0.54109 0.14773-0.59266 0.0753-0.0714 0.0854 0.0479 0.042 0.49889-0.0313 0.32597-0.0763 0.65934-0.0998 0.74084-0.0517 0.17884-0.2724 0.19604-0.33753 0.0263zm-1.4316-0.0507c-0.0299-0.0483-8e-3 -0.28648 0.0483-0.52917 0.20318-0.87386 0.23645-0.89078 0.24337-0.12377 5e-3 0.59168-0.0179 0.74084-0.11532 0.74084-0.0671 0-0.14645-0.0396-0.17633-0.0879zm0.3974-1.0726c0.0205-0.88258 0.059-1.2314 0.14462-1.312 0.0989-0.0931 0.10669 0 0.0512 0.60984-0.036 0.39582-0.0708 0.95598-0.0774 1.2448-7e-3 0.28883-0.0421 0.5554-0.0791 0.59238-0.037 0.037-0.0547-0.47377-0.0393-1.135zm0.68428 0.77947c9.4e-4 -0.18627 0.0183-0.2525 0.0385-0.14718 0.0203 0.10531 0.0195 0.25771-2e-3 0.33866-0.0212 0.081-0.0378-5e-3 -0.0368-0.19148zm5.0775-0.0847c5e-3 -0.23283-0.0217-0.86148-0.0591-1.397s-0.0442-0.95194-0.015-0.92539c0.0964 0.0878 0.22236 2.3567 0.14192 2.5558-0.0599 0.1483-0.0748 0.0972-0.0678-0.23345zm0.71039 0.31186c-0.0407-0.0658-0.0131-0.3728 0.18764-2.0848 0.0379-0.32319 0.11378-0.60259 0.16865-0.62089 0.0549-0.0183 0.0998-0.12584 0.0998-0.23901s0.0349-0.27192 0.0775-0.35278c0.0426-0.0809 0.11494-0.28037 0.16069-0.44335 0.0666-0.23722 0.0848-0.0852 0.091 0.762 8e-3 1.0463 4e-3 1.0679-0.33171 1.903-0.18674 0.46459-0.32139 0.89199-0.29921 0.94978 0.0469 0.12219-0.0884 0.23268-0.15435 0.12603zm-3.2693-0.41924c0-0.19099-0.0405-0.45372-0.0899-0.58383-0.0495-0.13011-0.0628-0.2094-0.0296-0.1762s0.14686-0.12 0.25259-0.34045c0.23466-0.48927 0.25228-0.32582 0.0702 0.65093-0.15548 0.834-0.20327 0.93969-0.20327 0.44955zm-0.79502-0.18895c0.026-0.25612 0.0701-0.52282 0.0979-0.59267 0.0278-0.0698 0.0543-0.4699 0.059-0.889 6e-3 -0.5435 0.0492-0.83483 0.15058-1.016 0.14055-0.25111 0.14218-0.25159 0.14348-0.0423 1e-3 0.18777-0.0402 0.41792-0.21288 1.1853-0.029 0.12906-0.0178 0.17862 0.0289 0.127 0.0421-0.0466 0.14501-0.38947 0.22875-0.762 0.19566-0.8704 0.21075-0.92122 0.25918-0.87279 0.0222 0.0222 0.0136 0.34202-0.0192 0.71061-0.0461 0.51746-0.0728 0.6123-0.11708 0.41618-0.0512-0.22645-0.0585-0.21333-0.0674 0.12099-0.0104 0.38753-0.16947 0.93734-0.27127 0.93734-0.0318 0-0.0829 0.20036-0.11353 0.44523-0.0778 0.62295-0.22715 0.83142-0.16624 0.23211zm2.5864 0.16933c0-0.11642 0.0192-0.16404 0.0427-0.10583 0.0235 0.0582 0.0235 0.15345 0 0.21166-0.0235 0.0582-0.0427 0.0106-0.0427-0.10583zm-2.8007-0.0494c4e-3 -0.0986 0.0241-0.11869 0.0512-0.0512 0.0245 0.0611 0.0215 0.13414-7e-3 0.16228-0.0281 0.0281-0.0482-0.0219-0.0445-0.11113zm-1.6787-0.24694c9.3e-4 -0.18627 0.0183-0.2525 0.0385-0.14718 0.0203 0.10531 0.0195 0.25771-2e-3 0.33866-0.0212 0.081-0.0378-5e-3 -0.0368-0.19148zm6.4666-0.27517c0.26262-0.69792 0.28537-0.72426 0.28537-0.33042 0 0.28872-0.29824 0.89837-0.44071 0.90087-0.0328 5.9e-4 0.0371-0.25613 0.15534-0.57045zm-6.8155 0.40217c-2e-3 -0.0699 0.0461-0.45085 0.1074-0.84667 0.0909-0.58748 0.12313-0.67661 0.17532-0.48527 0.067 0.2455 0.0523 0.34457-0.15297 1.0356-0.0692 0.23284-0.12756 0.36619-0.12975 0.29634zm-1.5968-0.33867c0-0.20955 0.0165-0.29528 0.0367-0.1905 0.0202 0.10477 0.0202 0.27622 0 0.381-0.0202 0.10477-0.0367 0.0191-0.0367-0.1905zm0.99961 0.20461c4e-3 -0.0986 0.0241-0.11869 0.0512-0.0512 0.0245 0.0611 0.0215 0.13414-7e-3 0.16228-0.0281 0.0281-0.0481-0.0219-0.0445-0.11113zm1.2767-0.11994c0-0.11642 0.0192-0.16405 0.0427-0.10584 0.0235 0.0582 0.0235 0.15346 0 0.21167-0.0235 0.0582-0.0427 0.0106-0.0427-0.10583zm1.1998-0.381c0-0.32597 0.0157-0.44895 0.034-0.27328 0.0183 0.17566 0.018 0.44236-8.5e-4 0.59266-0.0187 0.15031-0.0337 7e-3 -0.0333-0.31938zm-2.6018-0.21167c0.0664-1.0466 0.0625-1.0214 0.14687-0.93703 0.0456 0.0456 0.0222 0.39571-0.058 0.86663l-0.13455 0.79007zm-0.71714 0.0847c-8.5e-4 -0.25612 0.0305-0.61807 0.069-0.80434 0.0614-0.29693 0.0705-0.26042 0.0738 0.29634 2e-3 0.34925-0.0289 0.7112-0.069 0.80433-0.0524 0.12192-0.0731 0.0389-0.0738-0.29633zm1.953 0.21166c2e-3 -0.1397 0.0207-0.1866 0.0422-0.10422 0.0215 0.0824 0.0201 0.19668-3e-3 0.254-0.0232 0.0573-0.0408-0.0101-0.039-0.14978zm5.4089 0.127c-4e-3 -0.0699 0.0364-0.5461 0.0889-1.0583 0.0526-0.51223 0.0988-0.99521 0.10274-1.0733 4e-3 -0.0781 0.036-0.12414 0.0712-0.10238 0.081 0.0501 0.16628-0.28383 0.18307-0.71685 7e-3 -0.18356 0.0415-0.31637 0.0764-0.29512 0.0349 0.0212 0.0635-0.0351 0.0635-0.12517 0-0.17263 0.39138-1.1162 0.46298-1.1162 0.12441 0-0.31036 2.1938-0.68794 3.4713-0.29487 0.99765-0.35334 1.1622-0.36096 1.016zm-6.5194-0.21872c4e-3 -0.0986 0.0241-0.11869 0.0512-0.0512 0.0245 0.0611 0.0215 0.13414-7e-3 0.16228-0.0281 0.0281-0.0481-0.0219-0.0445-0.11113zm1.7832-0.11994c0-0.0699 0.0327-0.2032 0.0728-0.29634 0.0459-0.10673 0.0728-0.12238 0.0728-0.0423 0 0.0699-0.0327 0.2032-0.0728 0.29633-0.0459 0.10674-0.0728 0.12239-0.0728 0.0423zm4.5264-0.60911c-0.0604-0.68037-0.024-1.0639 0.11096-1.1689 0.0299-0.0233 0.10218-0.13759 0.16054-0.254 0.0584-0.11642 0.0826-0.13547 0.0539-0.0423-0.0287 0.0931-0.0881 0.56939-0.13191 1.0583-0.10958 1.2229-0.11919 1.2431-0.19345 0.40689zm-7.4005 0.39744c2e-3 -0.1397 0.0207-0.1866 0.0422-0.10422 0.0215 0.0824 0.0201 0.19667-3e-3 0.254-0.0232 0.0573-0.0407-0.0101-0.039-0.14978zm1.2178 0.13777c-0.0251-0.0406 1e-3 -0.41211 0.0585-0.8255l0.10418-0.7516 0.025 0.62166c0.0151 0.37501-0.013 0.66748-0.0708 0.73713-0.0527 0.0635-0.0712 0.15522-0.0412 0.20383 0.03 0.0486 0.0356 0.0884 0.0123 0.0884s-0.0629-0.0333-0.088-0.0739zm1.1528-0.13777c2e-3 -0.1397 0.0207-0.1866 0.0422-0.10422 0.0215 0.0824 0.0201 0.19667-3e-3 0.254-0.0232 0.0573-0.0408-0.0101-0.039-0.14978zm2.2173 0.0896c-0.0258-0.0671-0.0319-0.19095-0.0137-0.27517 0.0207-0.0956 0.0497-0.0498 0.0772 0.12206 0.0461 0.28833 0.0161 0.36061-0.0635 0.15311zm4.3109-0.38594c0-0.25612 0.0159-0.3609 0.0353-0.23284s0.0194 0.33761 0 0.46567-0.0353 0.0233-0.0353-0.23283zm-4.9976 0c0-0.20955 0.0165-0.29528 0.0367-0.1905 0.0202 0.10477 0.0202 0.27622 0 0.381-0.0202 0.10477-0.0367 0.0191-0.0367-0.1905zm0.82462 0.0252c-1e-3 -0.36487 0.14109-0.78715 0.26496-0.78715 0.18056 0 0.15459 0.41077-0.0484 0.76596l-0.21551 0.37704-1e-3 -0.35585zm-4.9596-0.15215c0.11051-0.82802 0.15193-0.98822 0.23424-0.90592 0.0508 0.0508 0.0426 0.27941-0.022 0.62016-0.12711 0.66971-0.2933 0.89352-0.21219 0.28576zm2.4253 0.24694c4e-3 -0.0986 0.0241-0.11869 0.0512-0.0511 0.0245 0.0611 0.0215 0.13414-7e-3 0.16228-0.0281 0.0281-0.0482-0.0219-0.0445-0.11113zm6.8919-0.12775c-0.0838-0.38168 0.0184-0.91369 0.26761-1.3926l0.21852-0.41993-0.0556 0.3778c-0.0306 0.20779-0.12713 0.59577-0.21458 0.86218-0.0875 0.26641-0.13843 0.56312-0.11325 0.65937 0.0252 0.0962 0.0253 0.17499 0 0.17499-0.025 0-0.0714-0.11782-0.10299-0.26181zm-6.4634 8e-3c0-0.0699 0.0327-0.2032 0.0728-0.29634 0.0459-0.10673 0.0728-0.12238 0.0728-0.0423 0 0.0699-0.0327 0.2032-0.0728 0.29633-0.0459 0.10674-0.0728 0.12239-0.0728 0.0423zm-0.21451-0.13393c-0.0898-0.23407-0.0497-0.74762 0.0756-0.96674 0.11946-0.20896 0.12104-0.20713 0.12401 0.14317 2e-3 0.19516-0.0389 0.38075-0.0902 0.41243-0.053 0.0328-0.0722 0.16274-0.0444 0.30133 0.0529 0.26455 0.0174 0.32452-0.065 0.10981zm0.55566-0.71274c-1e-3 -0.16298 0.0303-0.37253 0.0703-0.46567 0.0618-0.14378 0.0724-0.131 0.0703 0.0847-1e-3 0.1397-0.033 0.34925-0.0703 0.46567-0.0616 0.19242-0.068 0.18472-0.0703-0.0847zm5.9446-0.71967c0-0.5588 0.0139-0.77638 0.0305-0.48351 0.0166 0.29286 0.0164 0.75006 0 1.016-0.0168 0.26593-0.0303 0.0263-0.0301-0.53249zm-7.8144 0.635c-3e-3 -0.16298 0.0323-0.35348 0.0774-0.42333 0.0627-0.097 0.081-0.067 0.0774 0.127-3e-3 0.1397-0.0374 0.3302-0.0774 0.42333-0.0594 0.13836-0.0736 0.11514-0.0774-0.127zm3.6401 0.0353c4e-3 -0.0986 0.0241-0.11869 0.0512-0.0512 0.0245 0.0611 0.0215 0.13414-7e-3 0.16228-0.0281 0.0281-0.0481-0.0219-0.0445-0.11113zm2.5132-0.59294c0.0225-0.32999 3e-3 -0.67289-0.0423-0.762-0.0615-0.11983-0.0208-0.34935 0.15651-0.88167 0.13185-0.39582 0.24081-0.78199 0.24215-0.85816 1e-3 -0.0762 0.0593-0.24761 0.1289-0.381 0.0696-0.13338 0.12672-0.32598 0.127-0.42801 0-0.10203 0.0297-0.20356 0.0654-0.22562 0.12537-0.0775-0.12827 2.9368-0.27876 3.3129-0.0788 0.19684-0.17399 0.3579-0.21162 0.3579-0.0376 0-0.10437 0.10477-0.1483 0.23283-0.0588 0.17148-0.0691 0.0747-0.039-0.36716zm-4.4991 0.34272c-0.029-0.0757-0.0504-0.18208-0.0474-0.23648s0.0419-8e-3 0.0865 0.10388c0.0446 0.11154 0.066 0.21795 0.0474 0.23649-0.0185 0.0185-0.0574-0.0282-0.0865-0.10389zm-1.8112-0.20839c0-0.16298 0.0174-0.22966 0.0387-0.14817 0.0213 0.0815 0.0213 0.21484 0 0.29634s-0.0387 0.0148-0.0387-0.14817zm8.1625-0.6985c0.0376-0.52388 0.0518-1.1049 0.0315-1.2912-0.066-0.60611-0.0191-2.2774 0.0736-2.6247 0.0898-0.33619 0.0901-0.33557 0.0368 0.0847-0.0822 0.64858-0.0804 2.1499 2e-3 2.0986 0.0405-0.025 0.0506 0.0831 0.0224 0.24029-0.0337 0.18851-0.0272 0.22935 0.0194 0.12003 0.052-0.12223 0.0853-0.0245 0.12679 0.37225 0.089 0.8516 0.0643 1.2069-0.11083 1.5926-0.0898 0.1979-0.18745 0.35983-0.21694 0.35983-0.0295 0-0.0228-0.42863 0.0148-0.9525zm-0.73143 0.67441c0-0.0288 0.0608-0.27325 0.13505-0.54328 0.0743-0.27003 0.16673-0.71956 0.20545-0.99896l0.0704-0.508-0.0298 0.59266c-0.0287 0.57127-0.19519 1.324-0.32059 1.4493-0.0333 0.0333-0.0605 0.037-0.0605 8e-3zm3.2474-0.29171c0.029-0.17556 0.0532-0.40717 0.0537-0.5147 8.4e-4 -0.1086 0.0386-0.17224 0.0856-0.14317 0.0513 0.0317 0.0847-0.0885 0.0847-0.30545 0-0.19677 0.0214-0.33641 0.0475-0.31029 0.0261 0.0261 0.021 0.37323-0.0113 0.77137-0.0427 0.52583-0.0935 0.73724-0.18583 0.77267-0.10436 0.04-0.11766-8e-3 -0.0743-0.27043zm-3.7331-0.26305c3e-3 -0.24852 0.033-0.40092 0.0672-0.33867 0.0341 0.0623 0.0318 0.26559-5e-3 0.45185-0.0664 0.33453-0.0671 0.33315-0.0621-0.11318zm4.1264-0.31015v-0.65163l0.27516 0.17422c0.22678 0.14359 0.27517 0.22754 0.27517 0.47741s-0.0484 0.33382-0.27517 0.4774l-0.27516 0.17423zm-5.5778 0.0715c-0.12795-0.38562-0.0802-0.81865 0.11942-1.0825 0.11587-0.15315 0.12377-0.14161 0.11596 0.16934-5e-3 0.18352-0.0332 0.54323-0.0635 0.79935l-0.0551 0.46566zm0.33978-1.1065c-1e-3 -0.83729 0.0314-1.3944 0.0836-1.4267 0.0547-0.0338 0.0797 0.12615 0.0692 0.44239-9e-3 0.27243 0.0131 0.77309 0.0491 1.1126 0.0425 0.4004 0.0336 0.68298-0.0254 0.80434-0.05 0.10289-0.10977 0.24423-0.1328 0.31408-0.023 0.0699-0.0427-0.49118-0.0438-1.2467zm2.7336 0.37889c-0.0368-0.43074-0.0549-0.82126-0.0402-0.86783 0.0147-0.0466 0.056-0.19897 0.0917-0.33867 0.0405-0.15856 0.0681 0.16752 0.0735 0.86784 5e-3 0.617-6e-3 1.1218-0.0247 1.1218-0.0183 0-0.0635-0.35243-0.10032-0.78317zm0.39748 0.25285c-5e-3 -0.12869 0.0283-0.30966 0.0748-0.40216 0.0466-0.0925 0.12276-0.24387 0.16933-0.33637 0.0466-0.0925 0.0847-0.2449 0.0847-0.33867 0-0.0938 0.0354-0.17048 0.0788-0.17048 0.0847 0 0.0259 0.24792-0.19071 0.80433-0.0725 0.18627-0.14878 0.41487-0.16947 0.508-0.0274 0.12338-0.0403 0.10584-0.0474-0.0647zm1.2602-0.21757c0-0.24059 0.0374-0.43744 0.083-0.43744 0.05 0 0.0621 0.15995 0.0304 0.40216-0.0716 0.54708-0.11345 0.56009-0.11345 0.0353zm-3.217 7e-3c8.5e-4 -0.59278 0.1787-2.6777 0.23637-2.7678 0.0316-0.0493 0.0626-0.39501 0.0689-0.76821 6e-3 -0.37321 0.0391-0.84243 0.073-1.0427 0.0594-0.3514 0.0672-0.35905 0.22247-0.21849 0.1681 0.15213 0.22301 0.54275 0.0763 0.54275-0.0466 0-0.0847 0.0876-0.0847 0.19474 0 0.1071-0.0332 0.23092-0.0737 0.27516-0.11579 0.12631-0.20259 0.5699-0.099 0.50587 0.0484-0.0299 0.0881-0.14743 0.0881-0.2611s0.0381-0.20667 0.0847-0.20667 0.0847-0.0952 0.0847-0.21166c0-0.11642 0.0353-0.21167 0.0785-0.21167 0.0431 0 0.0984-0.0667 0.12273-0.14817 0.0244-0.0815 0.0343 0.32809 0.0221 0.91017-0.016 0.76321-0.0594 1.1292-0.1554 1.3123-0.0733 0.1397-0.17713 0.4826-0.23082 0.762-0.29038 1.5111-0.51486 2.0934-0.51403 1.3335zm-1.8508-0.23283c0-0.23283 0.0308-0.59478 0.0681-0.80433 0.0625-0.35137 0.0682-0.33161 0.0724 0.254 3e-3 0.34925-0.0281 0.7112-0.0681 0.80433-0.0534 0.12431-0.0727 0.0568-0.0725-0.254zm-1.8615 0.127c0-0.11642 0.0192-0.16404 0.0427-0.10583 0.0235 0.0582 0.0235 0.15345 0 0.21166-0.0235 0.0582-0.0427 0.0106-0.0427-0.10583zm0.1575-0.28967c-9.3e-4 -0.3013 0.0442-0.55466 0.11306-0.635 0.063-0.0735 0.16383-0.38131 0.224-0.684 0.17663-0.88855 0.24362-0.8623 0.19196 0.0752-0.0413 0.74977-0.0828 0.93876-0.28788 1.3106l-0.23961 0.43451-2e-3 -0.50134zm4.5148-0.17599c0-0.37254 0.0152-0.51441 0.0331-0.31527s0.0176 0.50394-8.5e-4 0.67734c-0.0182 0.17339-0.0328 0.0105-0.0325-0.36207zm0.85322-0.29634c0.035-1.2429 0.2398-2.2013 0.47033-2.2013 0.0477 0 0.0868-0.0952 0.0868-0.21167 0-0.24795 2e-3 -0.24844 0.38372-0.089 0.36695 0.15333 0.38655 0.39863 0.0568 0.71119-0.46003 0.43608-0.52464 0.58612-0.39056 0.90702 0.0657 0.15712 0.11486 0.37263 0.10935 0.4789-8e-3 0.15937-0.0213 0.14872-0.0746-0.0608l-0.0646-0.254-0.01 0.22783c-6e-3 0.12531-0.0481 0.25139-0.0947 0.28017-0.0466 0.0288-0.087 0.11675-0.0899 0.19549-3e-3 0.0787-0.0963 0.33367-0.20759 0.56651l-0.20241 0.42333zm-3.91 0.77628c-0.0852-0.0541-0.0821-0.13519 0.0152-0.40087l0.12199-0.33307 6e-3 0.40216c3e-3 0.22119-4e-3 0.40159-0.0152 0.40087-0.0116-6.7e-4 -0.0692-0.0318-0.12796-0.0691zm1.2343-0.52228c-0.0376-0.59131-0.021-0.67354 0.24156-1.1952 0.15507-0.30811 0.28195-0.60339 0.28195-0.65617 0-0.0528 0.0353-0.096 0.0785-0.096 0.0431 0 0.0983-0.0667 0.12256-0.14817 0.0243-0.0815 0.0248 0.0233 1e-3 0.23284-0.0438 0.38831-0.16424 0.84899-0.49796 1.905l-0.18729 0.59266-0.0404-0.635zm-4.5004 0.23284c0.0929-0.49295 0.19257-0.55775 0.19533-0.127 2e-3 0.29917-0.0294 0.40216-0.12231 0.40216-0.0951 0-0.11251-0.0656-0.073-0.27516zm0.29231-0.381c-6e-3 -0.35927 0.0254-0.61384 0.0749-0.61384 0.0466 0 0.0873-0.10477 0.0906-0.23283 3e-3 -0.12806 0.0352-0.30765 0.0709-0.39908 0.13957-0.35697 0.17253 0.24789 0.0415 0.76094-0.0711 0.27829-0.16052 0.63932-0.19874 0.80231-0.0585 0.2494-0.071 0.19911-0.0792-0.3175zm2.6812 0.47639c-0.0278-0.0724 0.0558-0.49024 0.18586-0.92846l0.2364-0.79677-0.0114 0.47824c-6e-3 0.26302-0.0394 0.43447-0.0737 0.381-0.0342-0.0535-0.0645 0.0361-0.0673 0.1991-7e-3 0.38207-0.19782 0.85463-0.26986 0.66689zm-1.5896-0.26473c1e-3 -0.40639 0.23467-2.1052 0.29819-2.1682 0.0507-0.0503 0.0166 0.62549-0.0966 1.9142-0.048 0.54648-0.20286 0.7416-0.20162 0.254zm2.4131-0.55033c0.0365-0.45403 0.0689-0.88583 0.0721-0.95956 3e-3 -0.0737 0.0547-0.13405 0.11458-0.13405 0.16405 0 0.14768 1.3444-0.0203 1.6693-0.071 0.13739-0.15247 0.2498-0.18093 0.2498-0.0285 0-0.0219-0.37148 0.0146-0.8255zm-5.53 0.52917c2e-3 -0.1397 0.0207-0.1866 0.0422-0.10423 0.0215 0.0824 0.0201 0.19668-3e-3 0.254-0.0232 0.0573-0.0408-0.0101-0.039-0.14977zm1.6139-0.60565c0.0113-0.47281 0.0466-0.8177 0.0783-0.76642 0.0319 0.0515 0.0807-0.0184 0.10911-0.15635 0.0283-0.13727 0.10346-0.42103 0.16705-0.63058l0.11563-0.381 3e-3 0.381c5e-3 0.51841-0.19265 1.6607-0.35843 2.0743l-0.13575 0.33867 0.0206-0.85965zm2.8973 0.41515c0.0199-0.12806 0.0569-0.51859 0.0823-0.86784s0.15965-1.0732 0.29832-1.6087l0.25213-0.97367-0.0236 1.0583c-0.0196 0.87773-0.0646 1.192-0.26389 1.8415-0.22776 0.74239-0.42343 1.0543-0.34525 0.55034zm-3.1788 0.127c-0.0519-0.18814-0.0525-0.5291-1e-3 -0.71554 0.0503-0.18355 0.0652-0.12722 0.0663 0.24987 8.5e-4 0.26776-0.0122 0.48683-0.0288 0.48683s-0.0329-0.01-0.0361-0.0212zm6.2752-0.1905c-2e-3 -0.22809 0.21472-1.136 0.28859-1.2098 0.0325-0.0325 0.0478 0.21502 0.0342 0.54997-0.0137 0.33495-0.0414 0.59246-0.0616 0.57225-0.0202-0.0202-0.0869 0.0293-0.14826 0.1101-0.10403 0.137-0.1116 0.1355-0.11288-0.0225zm-7.9326-0.67734c0-0.4191 0.0141-0.60122 0.0318-0.40472 0.0178 0.1965 0.018 0.5394 8.5e-4 0.762-0.0175 0.2226-0.032 0.0618-0.0323-0.35728zm4.6279 0.48684c8.5e-4 -0.12806 0.0382-0.28999 0.0834-0.35984 0.0601-0.093 0.0824-0.0307 0.0834 0.23284 8.5e-4 0.1979-0.0368 0.35983-0.0834 0.35983s-0.0841-0.10478-0.0834-0.23283zm-0.13776-0.72669c0.056-0.82953 0.17395-1.4905 0.3158-1.7698 0.0411-0.0809 0.0747-0.22149 0.0747-0.31251 0-0.091 0.0422-0.19155 0.0937-0.2234 0.0639-0.0395 0.0785 0.0196 0.0459 0.1855-0.0263 0.13388-0.0721 0.51013-0.10173 0.83609-0.0525 0.57743-0.35243 1.9896-0.44053 2.0743-0.0242 0.0233-0.0187-0.33231 0.0122-0.79019zm-3.8416 0.40213c8.4e-4 -0.18239 0.0347-0.38437 0.0756-0.44886 0.0454-0.0717 0.057 0.0435 0.0298 0.29633-0.0555 0.51579-0.10703 0.59045-0.10532 0.15253zm3.2186-0.81345c-2e-3 -0.68435 0.0321-1.1806 0.0821-1.2115 0.0466-0.0288 0.0847-0.11241 0.0847-0.18584 0-0.0734 0.0857-0.35638 0.1905-0.62876 0.13122-0.34115 0.2366-0.49564 0.33867-0.4965 0.098-8.4e-4 0.14765 0.0632 0.14665 0.18926-3e-3 0.42882-0.24516 1.7512-0.36168 1.9786-0.0688 0.13417-0.17366 0.47255-0.2331 0.75195-0.18849 0.88608-0.24515 0.79527-0.2478-0.39717zm-4.1315 0.73584c0-0.18627 0.0294-0.45297 0.0649-0.59267l0.0646-0.254 5e-3 0.254c3e-3 0.1397-0.0264 0.4064-0.0649 0.59267l-0.07 0.33867v-0.33867zm9.1122 0c-0.0761-1.323-0.0263-1.9897 0.14881-1.9897 0.15399 0 0.14821 0.40101-0.01 0.67734-0.0665 0.11641-0.121 0.24976-0.121 0.29633 0 0.0466 0.0545-0.0106 0.121-0.127 0.11504-0.20125 0.12108-0.18667 0.12272 0.29633 9.3e-4 0.2794-0.0532 0.6604-0.12028 0.84667l-0.12201 0.33867zm-10.554-0.33867c-4e-5 -0.32596 0.0289-0.80221 0.0643-1.0583 0.0568-0.41068 0.0648-0.36569 0.0679 0.381 2e-3 0.46567-0.027 0.94192-0.0643 1.0583-0.0477 0.14879-0.0678 0.0356-0.0679-0.381zm4.5752 0.29634c0-0.11642 0.0291-0.32597 0.0646-0.46567 0.0577-0.22657 0.0646-0.23114 0.0646-0.0423 0 0.11641-0.0291 0.32596-0.0646 0.46566-0.0576 0.22657-0.0646 0.23114-0.0646 0.0423zm-1.3693-0.93632c-4e-3 -0.84501 0.0219-1.0971 0.12733-1.2277 0.12165-0.15064 0.12851-0.0779 0.0824 0.87171-0.0716 1.4735-0.20292 1.6964-0.20968 0.35596zm-2.0475 0.84948c-0.0236-0.0687-3e-3 -0.33438 0.0453-0.5905 0.0837-0.44241 0.0895-0.45023 0.11575-0.1566 0.0317 0.35397-0.0947 0.94037-0.16102 0.7471zm1.8415-0.10366c-0.0674-0.25138-0.0499-0.97207 0.0313-1.2912 0.0433-0.17032 0.0679 0.0319 0.0747 0.61383 0.0101 0.87688-0.013 1.0244-0.10596 0.67734zm5.1836-0.52917c-0.0165-0.4191-1e-3 -0.7747 0.0335-0.79022 0.0349-0.0155 0.0635-0.11834 0.0635-0.22847 0-0.25437 0.3335-0.60858 0.53301-0.56611 0.12912 0.0275 0.14893-0.0197 0.13159-0.31361-0.0112-0.19029 0.0251-0.39154 0.0808-0.44722 0.0557-0.0557 0.10125-0.18442 0.10125-0.2861 0-0.11365 0.0652-0.20191 0.16933-0.22914 0.0931-0.0243 0.16933-0.0272 0.16933-6e-3 0 0.0209-0.0596 0.57864-0.1325 1.2394-0.12557 1.1384-0.20616 1.5486-0.20616 1.0492 0-0.4054-0.16093-0.23946-0.54055 0.55739l-0.37311 0.78316-0.03-0.762zm-6.1617 0.41628c4e-3 -0.0986 0.0241-0.1187 0.0512-0.0512 0.0245 0.0611 0.0215 0.13415-7e-3 0.16228-0.0281 0.0281-0.0481-0.0219-0.0445-0.11112zm5.3487-0.24695c9.3e-4 -0.18626 0.0183-0.2525 0.0385-0.14718 0.0203 0.10532 0.0195 0.25772-2e-3 0.33867-0.0212 0.081-0.0378-5e-3 -0.0368-0.19149zm-5.1805-0.0847c-8e-3 -0.46085 0.26707-2.4842 0.31733-2.3335 0.0544 0.16305-0.14919 2.2901-0.2395 2.5028-0.0563 0.13259-0.0732 0.0958-0.0778-0.16933zm0.53843-0.84667c0.0415-1.2533 0.2104-2.986 0.30943-3.175 0.0747-0.14257 0.018 1.1486-0.10415 2.3707-0.0442 0.44238-0.0772 0.9864-0.0733 1.2089 4e-3 0.22254-0.0324 0.47019-0.0807 0.55033-0.0624 0.10364-0.0772-0.17213-0.0513-0.95494zm-2.9012 0.80433c0-0.11641 0.0192-0.16404 0.0427-0.10583 0.0235 0.0582 0.0235 0.15346 0 0.21167-0.0235 0.0582-0.0427 0.0106-0.0427-0.10584zm1.1795-0.25823c-4e-3 -0.25845 0.0276-0.5061 0.0706-0.55033 0.043-0.0442 0.0906-0.1918 0.10583-0.32791 0.0152-0.13611 0.079-0.26434 0.14174-0.28496 0.09-0.0296 0.0945-9.2e-4 0.0212 0.13607-0.0511 0.0955-0.0936 0.28084-0.0945 0.41196-9.3e-4 0.13112-0.0546 0.4289-0.11943 0.66174l-0.1178 0.42333-8e-3 -0.4699zm4.0637 0.21931c-0.0125-0.28411 0.24984-2.2913 0.33335-2.5509 0.0889-0.27616 0.0854-0.22035-0.0858 1.3679-0.091 0.84388-0.23268 1.5212-0.24751 1.183zm5.8462-0.27172c-7e-3 -0.27989 0.0419-0.53119 0.13663-0.69717 0.18126-0.31752 0.35984-0.40429 0.35984-0.17486 0 0.0917-0.0329 0.16667-0.0732 0.16667-0.0796 0-0.31817 0.59112-0.37587 0.93134-0.0198 0.11641-0.0411 0.0147-0.0474-0.22598zm-10.649-0.49369c0-0.46567 0.0144-0.64537 0.0316-0.39933s0.017 0.62704 0 0.84667c-0.0174 0.21963-0.0314 0.0183-0.0312-0.44734zm0.26389 0.59267c0.0197-0.1397 0.0714-0.4064 0.11482-0.59267 0.07-0.30069 0.0793-0.31019 0.0821-0.0847 2e-3 0.1397-0.0499 0.4064-0.11482 0.59267-0.095 0.27264-0.11105 0.28914-0.0821 0.0847zm3.2388-1.0132c0.0304-0.90551 0.0776-1.3208 0.16546-1.4548 0.0871-0.13297 0.0988-0.23271 0.0401-0.34238-0.0952-0.1778-0.0336-0.6186 0.0864-0.6186 0.0443 0 0.0545 0.0857 0.0227 0.1905-0.0318 0.10477-0.0579 0.20955-0.0581 0.23283-1e-3 0.18896 0.0376 0.24185 0.14677 0.19995 0.17687-0.0679 0.17263 0.62916-6e-3 1.0516-0.21594 0.50953-0.38954 1.0477-0.35055 1.0867 0.0199 0.0199 0.10668-0.18372 0.19277-0.45253 0.0914-0.28519 0.16989-0.42526 0.18857-0.33631 0.0176 0.0838-0.0648 0.42674-0.18305 0.762-0.11828 0.33526-0.2313 0.68576-0.25115 0.77889-0.0199 0.0931-0.017-0.4009 6e-3 -1.0979zm-1.3152 0.92853c-1e-3 -0.1397 0.0274-0.4445 0.0636-0.67733 0.0646-0.41468 0.0661-0.41641 0.0724-0.0847 4e-3 0.18627-0.0251 0.49107-0.0636 0.67733-0.06 0.28998-0.0704 0.30215-0.0724 0.0847zm1.7806-0.29633c0-0.30269 0.0294-0.66464 0.0649-0.80434 0.0535-0.21017 0.0655-0.17365 0.0698 0.21167 3e-3 0.25612-0.0264 0.61807-0.0649 0.80433-0.0645 0.31166-0.07 0.29478-0.0698-0.21166zm-0.68058 0.21166c2e-3 -0.1397 0.0207-0.1866 0.0422-0.10422 0.0215 0.0824 0.0201 0.19668-3e-3 0.254-0.0232 0.0573-0.0408-0.0101-0.039-0.14978zm3.9998-0.33866c0.054-1.0743 0.48141-1.8458 0.46126-0.83256-5e-3 0.27164-0.0276 0.42511-0.0494 0.34104-0.0798-0.30776-0.23966-0.073-0.33933 0.49813l-0.10226 0.58605zm0.14324 0.381c-8.5e-4 -0.11642 0.0305-0.36407 0.069-0.55034l0.07-0.33866 4e-3 0.381c2e-3 0.20955-0.029 0.4572-0.069 0.55033-0.0664 0.15452-0.0729 0.15082-0.0738-0.0423zm-3.1322-0.33867c-5e-3 -0.16298 0.0282-0.35348 0.0733-0.42333 0.0675-0.1045 0.0805-0.097 0.0734 0.0423-5e-3 0.0931-0.0378 0.28363-0.0734 0.42333l-0.0646 0.254zm-4.7231-0.508c0-0.39582 0.0146-0.55774 0.0324-0.35983 0.0178 0.1979 0.0178 0.52175 0 0.71966s-0.0324 0.036-0.0324-0.35983zm0.59237-0.62192c7e-3 -0.73787 0.0472-1.3627 0.0889-1.3885 0.0427-0.0264 0.0505 0.0542 0.0178 0.18451-0.0405 0.16131-0.0293 0.21358 0.0371 0.17258 0.0695-0.0429 0.0785 0.15515 0.0335 0.73374-0.12178 1.5661-0.19075 1.6819-0.17727 0.29763zm0.50561 0.28639c0.0297-0.38553 0.0894-0.74398 0.13265-0.79656 0.0432-0.0526 0.10563-0.27702 0.13864-0.49879 0.033-0.22176 0.0984-0.4269 0.14523-0.45586 0.0558-0.0345 0.0734 0.24107 0.051 0.79953-0.0262 0.65185-0.0684 0.88997-0.17964 1.0129-0.08 0.0884-0.14541 0.24115-0.14541 0.33951 0 0.0984-0.0442 0.20616-0.0982 0.23956-0.0731 0.0452-0.0844-0.11852-0.0442-0.64026zm6.3548-0.2148c0-0.51224 0.0141-0.71087 0.031-0.44141 0.0169 0.26945 0.0167 0.68856 0 0.93133-0.017 0.24277-0.0308 0.0223-0.0306-0.48992zm0.82263 0.31931-8e-3 -0.52735 0.21167 0.0964c0.24448 0.11139 0.26146 0.17654 0.0843 0.32354-0.07 0.0581-0.16185 0.22472-0.20403 0.3702-0.0669 0.23063-0.0777 0.19695-0.0843-0.26283zm2.7864 0.28746c0-0.14654 0.0456-0.22577 0.12998-0.22577 0.10771 0 0.113 0.0326 0.0309 0.1905-0.14577 0.28018-0.16084 0.28349-0.16084 0.0353zm-4.0903-0.60677c0.0484-0.75971 0.12836-1.0583 0.28325-1.0583 0.12066 0 0.0947 0.21193-0.12976 1.0583l-0.20208 0.762zm-3.7182-0.635c0.0234-0.62865 0.0563-1.1589 0.0732-1.1783 0.0586-0.0676 0.0176 1.562-0.0489 1.9403-0.0399 0.22729-0.0497-0.0801-0.0243-0.762zm1.5123 0.508c0.0315-0.34925 0.0614-0.75616 0.0663-0.90423 5e-3 -0.14807 0.0391-0.29931 0.0759-0.33608 0.0368-0.0368 0.0393 5e-3 6e-3 0.0926-0.0426 0.11096-0.0311 0.14085 0.0379 0.0982 0.16059-0.0992 0.11034 0.68983-0.0776 1.2188l-0.16547 0.46567 0.0574-0.635zm0.12213 0.45861c4e-3 -0.0986 0.0241-0.1187 0.0511-0.0512 0.0245 0.0611 0.0215 0.13415-7e-3 0.16228-0.0281 0.0281-0.0482-0.0219-0.0445-0.11112zm-2.4956-0.50095c0.0584-0.72122 0.26434-1.8013 0.27441-1.4393 4e-3 0.1397-0.0671 0.65405-0.15768 1.143-0.14977 0.80816-0.16039 0.8351-0.11673 0.29633zm1.2809 0.35984c-0.0226-0.10478-0.0482-0.67603-0.057-1.2694-0.0143-0.96807-2e-3 -1.0735 0.12259-1.0258 0.11782 0.0452 0.13195 0.156 0.0944 0.74027-0.0243 0.3779-0.0436 0.92523-0.0429 1.2163 1e-3 0.54303-0.0446 0.67549-0.11712 0.33867zm1.5632-0.0212c2e-3 -0.1397 0.0207-0.1866 0.0422-0.10422 0.0215 0.0824 0.0201 0.19667-3e-3 0.254-0.0232 0.0573-0.0408-0.0101-0.039-0.14978zm-4.3581-0.635c0.0255-0.39582 0.0749-0.89112 0.10974-1.1007l0.0633-0.381 4e-3 0.381c2e-3 0.20955-0.0474 0.70485-0.10973 1.1007l-0.11331 0.71967 0.0464-0.71967zm5.7367 0.43392c0.0243-0.15717 0.0442-0.41434 0.0442-0.5715 0-0.19756 0.0392-0.28575 0.127-0.28575 0.16175 0 0.15409 0.10399-0.0498 0.67733-0.11546 0.32463-0.15223 0.37912-0.1214 0.17992zm1.0602-0.0811c0-0.14746 0.0388-0.26811 0.0863-0.26811 0.0512 0 0.0636 0.0946 0.0304 0.23283-0.0797 0.3324-0.1167 0.34357-0.1167 0.0353zm-7.444 0.0212c4e-3 -0.0986 0.0241-0.11869 0.0512-0.0512 0.0245 0.0611 0.0215 0.13414-7e-3 0.16228-0.0281 0.0281-0.0481-0.0219-0.0445-0.11113zm4.24-0.11994c0-0.11642 0.0192-0.16404 0.0427-0.10583 0.0235 0.0582 0.0235 0.15345 0 0.21166-0.0235 0.0582-0.0427 0.0106-0.0427-0.10583zm-0.99647-0.97367c0-0.60536 0.0136-0.84191 0.03-0.52564 0.0163 0.31626 0.0162 0.81156 0 1.1007-0.0165 0.28911-0.0298 0.0303-0.0297-0.57502zm-3.3184 0.67734c2e-3 -0.1397 0.0207-0.1866 0.0422-0.10423 0.0215 0.0824 0.0201 0.19668-3e-3 0.254-0.0232 0.0573-0.0408-0.0101-0.039-0.14977zm5.6646-0.14817c-5e-3 -0.17463 0.0297-0.3175 0.0762-0.3175 0.0969 0 0.0969 0.12069 0 0.42333-0.0605 0.18891-0.0687 0.17752-0.0762-0.10583zm0.1728 0.1905c0-0.0699 0.0327-0.2032 0.0728-0.29633 0.0459-0.10674 0.0728-0.12239 0.0728-0.0423 0 0.0698-0.0327 0.2032-0.0728 0.29634-0.0459 0.10673-0.0728 0.12238-0.0728 0.0423zm-4.3103-0.254c0-0.16298 0.0174-0.22966 0.0387-0.14817 0.0213 0.0815 0.0213 0.21484 0 0.29634s-0.0387 0.0148-0.0387-0.14817zm2.9145-0.35544c0.0357-0.68516 0.11634-0.74848 0.0978-0.0768-8e-3 0.28917-0.0393 0.5411-0.0696 0.55984-0.0303 0.0187-0.043-0.19865-0.0282-0.48307zm0.715 0.20727c-5e-3 -0.19791 0.0297-0.35983 0.0762-0.35983 0.0976 0 0.0976 0.20331 0 0.508-0.0576 0.17981-0.0691 0.15751-0.0762-0.14817zm3.3812 0.0677c-0.10364-0.14555-0.26439-0.26106-0.36855-0.26483-0.1016-4e-3 -0.13711-0.0259-0.0789-0.0494 0.0582-0.0235 0.10583-0.0967 0.10583-0.16265 0-0.09 0.12549-0.11994 0.50301-0.11994 0.45636 0 0.74306 0.10675 0.50225 0.18702-0.053 0.0177-0.13902 0.16095-0.19103 0.31837-0.12539 0.37952-0.25026 0.40367-0.47261 0.0914zm-5.8331-0.65532c-7e-3 -0.47253 0.0236-0.80009 0.0785-0.83398 0.0497-0.0307 0.0986-0.0425 0.10881-0.0262 0.0102 0.0163-0.0251 0.3916-0.0785 0.83398l-0.097 0.80433zm4.8142 0.4625c0-0.22837 0.0403-0.3101 0.16933-0.34386 0.1323-0.0346 0.16934-3e-3 0.16934 0.14634 0 0.10484-0.0762 0.25957-0.16934 0.34386-0.1663 0.1505-0.16933 0.14788-0.16933-0.14634zm-7.3593 0.0546c4e-3 -0.0986 0.0241-0.1187 0.0512-0.0512 0.0245 0.0611 0.0215 0.13415-7e-3 0.16228-0.0281 0.0281-0.0482-0.0219-0.0445-0.11112zm1.4611-0.71261c0-0.34925 0.0149-0.49213 0.0332-0.3175 0.0183 0.17462 0.0183 0.46037 0 0.635-0.0183 0.17462-0.0332 0.0318-0.0332-0.3175zm-0.4858-0.127c0.0296-0.23284 0.0868-0.4589 0.12715-0.50236 0.14986-0.16143 0.14386 9e-3 -0.0162 0.46093l-0.16475 0.46476zm2.9731 0.21034c0.0246-0.0939 0.0846-0.19536 0.13346-0.22555 0.0559-0.0345 0.0678-4e-5 0.0321 0.0929-0.0312 0.0813-0.0567 0.1828-0.0567 0.22555 0 0.0428-0.0345 0.0777-0.0767 0.0777s-0.0567-0.0768-0.0321-0.17066zm-1.6151-0.71834c0.0268-0.0699 0.0637-0.127 0.082-0.127s0.0333 0.0571 0.0333 0.127-0.0369 0.127-0.082 0.127-0.0601-0.0571-0.0333-0.127z"/>
  </g>
 </g>
</svg>
