<?xml version="1.0" encoding="UTF-8"?>
<svg width="97.848" height="86.255" version="1.1" viewBox="0 0 25.889 22.822" xmlns="http://www.w3.org/2000/svg">
 <g transform="translate(-92.964 -123.29)">
  <g stroke-width=".084667">
   <g transform="translate(92.675 122.96)">
    <path d="m6.3451 19.512c-0.28335-0.29893-0.24259-0.52123 0.14226-0.77591 0.44256-0.29287 0.62241-0.2482 0.71106 0.17661 0.10617 0.50877-0.03561 0.80358-0.38556 0.80174-0.18051-9.48e-4 -0.34374-0.0716-0.46776-0.20243zm4.4081-0.80428c-0.02323-0.08883-0.12025-0.18191-0.2156-0.20684-0.1478-0.03865-0.16591-0.0913-0.12279-0.35698 0.11189-0.68947 0.97694-1.1018 1.1671-0.55634 0.04646 0.13328 0.17783 0.28486 0.29193 0.33685 0.16748 0.07631 0.20745 0.15687 0.20745 0.41807 0 0.44567-0.1146 0.52675-0.74453 0.52675-0.46138 0-0.54756-0.02385-0.58356-0.16151zm-6.8846-0.17167c-0.33375-0.10189-0.88978-0.40374-1.0095-0.54804-0.06399-0.0771-0.095778-0.27249-0.076765-0.47186l0.032449-0.34026h-0.3184c-0.22959 0-0.39288-0.06655-0.58542-0.23858-0.25833-0.23081-0.26506-0.25427-0.2068-0.72054 0.07036-0.56315 0.3673-0.98821 0.69034-0.98821 0.18017 0 0.20414-0.03804 0.20414-0.32391 0-0.23283 0.05739-0.37782 0.20411-0.51566 0.30945-0.29072 0.51018-0.20678 0.54159 0.22647l0.026035 0.3591h0.44768c0.44538 0 0.72792 0.15869 0.72792 0.40883 0 0.13872 0.35706 0.12364 0.64649-0.02731 0.13338-0.06956 0.30405-0.12671 0.37926-0.127 0.075212-2.54e-4 0.22857-0.07275 0.34081-0.16103 0.15919-0.12522 0.38044-0.16749 1.0063-0.19226 0.50413-0.01995 0.9123-0.08315 1.0985-0.17011 0.16298-0.0761 0.47653-0.1602 0.69678-0.18689 0.64896-0.07864 0.96576-0.25263 1.1626-0.6385l0.17604-0.34507h0.56044c0.43604 0 0.5845-0.03289 0.66879-0.14817 0.23172-0.3169 1.611-0.03188 1.763 0.36432 0.0934 0.2434 0.05541 0.60722-0.07467 0.71518-0.06985 0.05797-0.127 0.15322-0.127 0.21167 0 0.05845-0.05715 0.1537-0.127 0.21167s-0.127 0.21128-0.127 0.34069c0 0.24554-0.73274 1.2061-0.99754 1.3078-0.07376 0.0283-0.48981 0.07483-0.92456 0.10338-0.76467 0.05023-0.79205 0.0591-0.83905 0.27188-0.10419 0.47169-0.14847 0.56567-0.36211 0.7685-0.48262 0.4582-0.73028 0.53019-1.6977 0.49354-0.6525-0.02473-0.97272-0.07569-1.1853-0.18865-0.28888-0.1535-0.29256-0.1532-0.44668 0.03713-0.30375 0.37512-0.8532 0.59176-1.4807 0.58383-0.31646-4e-3 -0.67063-0.03636-0.78705-0.0719zm0.21167-3.0535c-0.02878-0.04657-0.088179-0.08467-0.132-0.08467-0.043818 0-0.07967 0.0381-0.07967 0.08467s0.059399 0.08467 0.132 0.08467 0.10845-0.0381 0.07967-0.08467zm-3.5105-0.45744c-0.042542-0.11189-0.1178-0.22844-0.16724-0.259-0.049439-0.03055-0.089889-0.18075-0.089889-0.33377 0-0.4048 0.22071-0.56276 0.81525-0.58347l0.43027 0.03697 0.066817 0.24204c0.048865 0.17701 0.056351 0.33841 0.14817 0.40697 0.19164 0.14309 0.18882 0.37666-0.00666 0.55358-0.10593 0.09586-0.30716 0.14012-0.6371 0.14012-0.43131 0-0.49043-0.02149-0.55961-0.20344z" fill="#e2b3fe"/>
    <path d="m6.3451 19.514c-0.22829-0.24394-0.24465-0.4975-0.042333-0.65616 0.13405-0.10513 0.13718-0.10218 0.032861 0.03089-0.13942 0.17785-0.070212 0.40324 0.12382 0.40324 0.077456 0 0.27116-0.08055 0.43044-0.17899 0.15929-0.09844 0.31331-0.1553 0.34226-0.12634 0.028958 0.02896 0.017429 0.19523-0.02562 0.36949-0.07014 0.28393-0.10905 0.31916-0.3746 0.33914-0.22205 0.01671-0.34409-0.02874-0.48683-0.18127zm4.4081-0.80687c-0.02323-0.08883-0.12025-0.18191-0.2156-0.20684-0.14804-0.03871-0.16593-0.09116-0.12247-0.35899 0.02952-0.18193 0.15006-0.41062 0.28703-0.54455l0.23613-0.2309-0.03014 0.37597c-0.02599 0.32432-0.0056 0.38238 0.14817 0.4226 0.09807 0.02565 0.1783 0.1029 0.1783 0.17168 0 0.06878 0.07268 0.14406 0.1615 0.16729 0.08883 0.02323 0.18051 0.11491 0.20374 0.20374 0.03739 0.14299-0.0063 0.16151-0.3811 0.16151-0.34529 0-0.43112-0.02978-0.46557-0.16151zm1.2577-0.24859c-0.0103-0.20487-0.06102-0.29533-0.18357-0.32737-0.16052-0.04198-0.24617-0.27853-0.10085-0.27853 0.22462 0 0.36556 0.23441 0.33292 0.55371-0.03224 0.31539-0.03512 0.31848-0.0485 0.0522zm-8.1422 0.07692c-0.33375-0.10189-0.88978-0.40374-1.0095-0.54804-0.06399-0.0771-0.095778-0.27249-0.076765-0.47186l0.032449-0.34026h-0.3184c-0.22959 0-0.39288-0.06655-0.58542-0.23858-0.25833-0.23081-0.26506-0.25427-0.2068-0.72054 0.07036-0.56315 0.3673-0.98821 0.69034-0.98821 0.18017 0 0.20414-0.03804 0.20414-0.32391 0-0.23283 0.05739-0.37782 0.20411-0.51566 0.30945-0.29072 0.51018-0.20678 0.54159 0.22647l0.026035 0.3591h0.44768c0.44538 0 0.72792 0.15869 0.72792 0.40883 0 0.13872 0.35706 0.12364 0.64649-0.02731 0.13338-0.06956 0.30405-0.12671 0.37926-0.127 0.075212-2.54e-4 0.22857-0.07275 0.34081-0.16103 0.15919-0.12522 0.38044-0.16749 1.0063-0.19226 0.50413-0.01995 0.9123-0.08315 1.0985-0.17011 0.16298-0.0761 0.47653-0.1602 0.69678-0.18689 0.64896-0.07864 0.96576-0.25263 1.1626-0.6385l0.17604-0.34507h0.58595c0.32227 0 0.6095 0.0381 0.63828 0.08467s0.14533 0.08467 0.259 0.08467c0.17319 0 0.20667 0.04115 0.20667 0.254 0 0.22175-0.0301 0.254-0.23707 0.254-0.29939 0-0.44027 0.13921-0.44027 0.43508 0 0.20966-0.03624 0.23731-0.37827 0.2886-0.47442 0.07114-0.57014 0.18626-0.53707 0.64589 0.02367 0.32893 0.05002 0.36882 0.25966 0.39293 0.27053 0.03112 0.39534-0.16912 0.22976-0.36863-0.14603-0.17595-0.08337-0.21304 0.39428-0.23334l0.41265-0.01754 0.02604-0.35983c0.02105-0.2909 0.05754-0.35983 0.1905-0.35983 0.13454 0 0.16446 0.05968 0.16446 0.32802 0 0.25682-0.06433 0.39825-0.29633 0.65154-0.16298 0.17794-0.29633 0.37104-0.29633 0.42911 0 0.06369-0.14278 0.11592-0.35983 0.13162-0.29408 0.02128-0.35983 0.05683-0.35983 0.19454 0 0.11871 0.07506 0.18455 0.254 0.22282 0.17593 0.03762 0.07884 0.05739-0.31589 0.06433-0.54944 0.0097-0.57175 0.01837-0.6217 0.24285-0.10851 0.4876-0.15051 0.57741-0.36534 0.78138-0.48262 0.4582-0.73028 0.53019-1.6977 0.49354-0.6525-0.02473-0.97272-0.07569-1.1853-0.18865-0.28888-0.1535-0.29256-0.1532-0.44668 0.03713-0.30375 0.37512-0.8532 0.59176-1.4807 0.58383-0.31646-4e-3 -0.67063-0.03636-0.78705-0.0719zm1.6933-0.64049c0.05797-0.06985 0.15041-0.127 0.20543-0.127 0.055013 0 0.22927-0.13335 0.38724-0.29633 0.30688-0.31662 0.55804-0.37598 0.71033-0.1679 0.1363 0.18624 0.87794 0.03843 1.0674-0.21274 0.20604-0.27316 0.53586-0.203 0.59538 0.12664 0.039538 0.21899 0.07968 0.25151 0.29123 0.23593 0.13496-0.0099 0.29554-0.03731 0.35685-0.06084 0.13224-0.05074 0.15496-0.77322 0.02681-0.85243-0.046567-0.02878-0.084667-0.18209-0.084667-0.34068 0-0.47995-0.47925-0.61183-1.016-0.27959-0.18549 0.11481-0.40801 0.17613-0.59489 0.16391-0.49183-0.03215-0.75978 0.11313-0.75978 0.41194 0 0.19668-0.037966 0.2561-0.16363 0.2561-0.097015 0-0.18593-0.07755-0.2184-0.1905-0.16494-0.57369-0.29721-0.74083-0.58623-0.74083-0.15564 0-0.37135 0.07156-0.47936 0.15902-0.14636 0.11851-0.23176 0.13692-0.33527 0.07228-0.21683-0.13541-0.58448 3e-3 -0.74163 0.2792-0.11135 0.19571-0.20195 0.25054-0.41467 0.25096-0.3158 5.92e-4 -0.44748 0.18102-0.44748 0.61304 0 0.51134 0.3229 0.63679 0.71167 0.2765 0.27009-0.25031 0.29656-0.25467 0.43092-0.07091 0.17109 0.23397 0.38141 0.07886 0.38141-0.28128 0-0.2953 0.00784-0.30481 0.12431-0.15082 0.068368 0.09039 0.12552 0.33897 0.127 0.5524 0.00148 0.21343 0.028092 0.41346 0.059137 0.4445 0.094447 0.09445 0.25568 0.06344 0.36689-0.07055zm1.8379-1.2286c-0.028535-0.10912-0.00212-0.16838 0.075041-0.16838 0.13083 0 0.16365 0.21646 0.044033 0.29038-0.041272 0.02551-0.094855-0.02939-0.11907-0.122zm0.9088-0.29807c0.090392-0.06837 0.22374-0.12407 0.29633-0.12379 0.072591 2.54e-4 0.022854 0.05744-0.11053 0.127-0.307 0.16011-0.39963 0.15851-0.18581-0.0032zm-4.88-0.26134c0.039959-0.40917-0.32608-0.7943-0.75494-0.7943-0.28328 0-0.34613 0.03392-0.41926 0.22627-0.12903 0.33937-0.044445 0.45107 0.34156 0.45107 0.22362 0 0.34132 0.03796 0.34132 0.11007 0 0.15905 0.18704 0.3222 0.3369 0.29388 0.075043-0.01418 0.13946-0.13391 0.15441-0.28698zm0.65168-0.62496c-0.02878-0.04657-0.088179-0.08467-0.132-0.08467-0.043818 0-0.07967 0.0381-0.07967 0.08467s0.059399 0.08467 0.132 0.08467 0.10845-0.0381 0.07967-0.08467zm7.5777 0.87062c0-0.09557 0.09101-0.20758 0.21432-0.26376 0.1947-0.08871 0.20675-0.08351 0.13162 0.05687-0.04548 0.08499-0.14193 0.20368-0.21432 0.26376-0.11145 0.09249-0.13162 0.08377-0.13162-0.05687zm0.86631-1.1246c0-0.16298 0.01743-0.22966 0.03872-0.14817 0.0213 0.08149 0.0213 0.21484 0 0.29633-0.0213 0.08149-0.03872 0.01482-0.03872-0.14817zm-11.955-0.20344c-0.042542-0.11189-0.1178-0.22844-0.16724-0.259-0.049439-0.03055-0.089889-0.18075-0.089889-0.33377 0-0.30348 0.21273-0.55846 0.46592-0.55846 0.14141 0 0.13775 0.01971-0.038544 0.20736-0.25923 0.27594-0.17868 0.5024 0.16096 0.45255 0.20514-0.03011 0.25642-0.0017 0.29834 0.16531 0.030941 0.12328 0.14815 0.23567 0.30154 0.28914 0.37703 0.13143 0.21907 0.24031-0.34864 0.24031-0.45542 0-0.51271-0.02001-0.58245-0.20344zm0.96652-0.87075c-0.069992-0.18806-0.16174-0.26774-0.33867-0.29415-0.20558-0.03069-0.20105-0.04756 0.07018-0.05831 0.3419-0.01355 0.43431 0.08606 0.38504 0.415-0.024853 0.16591-0.038229 0.15814-0.12386-0.07194zm11.18-0.53447c-0.02878-0.04657-0.12161-0.08467-0.2063-0.08467-0.08468 0-0.2014-0.05715-0.25937-0.127s-0.0796-0.127-0.04806-0.127c0.0929 0 0.81006 0.33918 0.81006 0.38312 0 0.07652-0.24421 0.03989-0.29633-0.04445zm-1.0372-0.39703c0.08149-0.0213 0.21484-0.0213 0.29633 0 0.08149 0.0213 0.01482 0.03872-0.14817 0.03872-0.16298 0-0.22966-0.01742-0.14817-0.03872z" fill="#d286fe"/>
   </g>
   <g>
    <path d="m97.367 138.73c-0.35189-0.0367-0.56364-0.097-0.58492-0.20914-0.01546-0.0815 0.11418-0.14133 0.1758-0.14829 0.42736-0.0483 6.589-0.0166 6.589 0.0338 1e-5 0.0349 0.0953 0.0635 0.21169 0.0635 0.15294 0 0.21167 0.0455 0.21167 0.16404 0 0.15944-0.0861 0.16377-3.0692 0.15428-1.688-5e-3 -3.2784-0.0316-3.5341-0.0582zm-1.0173-0.38929c-0.05901-0.21075-0.14016-0.40349-0.18034-0.42833-0.04018-0.0248-0.07305-0.11264-0.07305-0.19513 0-0.0825-0.09035-0.32845-0.20078-0.54657-0.11043-0.21812-0.30353-0.69131-0.42911-1.0515-0.12558-0.36021-0.25963-0.71435-0.29788-0.78698-0.03825-0.0726-0.11406-0.35838-0.16847-0.635-0.05441-0.27662-0.17898-0.69345-0.27683-0.92629-0.09784-0.23283-0.20823-0.55668-0.2453-0.71966-0.03707-0.16299-0.0926-0.40111-0.12339-0.52917-0.04315-0.17945-0.02529-0.23283 0.0779-0.23283 0.15473 0 0.30918 0.24978 0.30918 0.50002 0 0.0949 0.08866 0.37359 0.19703 0.6194 0.10836 0.2458 0.24466 0.69027 0.30288 0.98772 0.05822 0.29744 0.13841 0.60224 0.1782 0.67733 0.03979 0.0751 0.17509 0.43125 0.30067 0.79146 0.12558 0.36021 0.31868 0.8334 0.42911 1.0515 0.11043 0.21812 0.20095 0.43775 0.20117 0.48806 2.54e-4 0.0503 0.09456 0.32009 0.20966 0.59949 0.25266 0.61335 0.26078 0.71966 0.05495 0.71966-0.11554 0-0.18733-0.10356-0.26561-0.38318zm1.1859-0.42115c0-0.0699 0.05715-0.127 0.127-0.127s0.127 0.0572 0.127 0.127c0 0.0699-0.05715 0.127-0.127 0.127s-0.127-0.0571-0.127-0.127zm0.508 0c0-0.0699 0.05715-0.127 0.127-0.127s0.127-0.0572 0.127-0.127c0-0.0705 0.07526-0.127 0.16933-0.127 0.09407 0 0.16933 0.0564 0.16933 0.127s-0.07526 0.127-0.16933 0.127c-0.09407 0-0.16933 0.0565-0.16933 0.127 0 0.0699-0.05715 0.127-0.127 0.127s-0.127-0.0571-0.127-0.127zm0.67733 0c0-0.0699 0.05715-0.127 0.127-0.127s0.127 0.0572 0.127 0.127c0 0.0699-0.05715 0.127-0.127 0.127s-0.127-0.0571-0.127-0.127zm0.42333 0c0-0.0699 0.05715-0.127 0.127-0.127s0.127 0.0572 0.127 0.127c0 0.0699-0.05715 0.127-0.127 0.127s-0.127-0.0571-0.127-0.127zm0.42333 0c0-0.0699 0.05715-0.127 0.127-0.127s0.127 0.0572 0.127 0.127c0 0.0699-0.05715 0.127-0.127 0.127s-0.127-0.0571-0.127-0.127zm0.45463-0.0635c0.0281-0.10477 0.0516-0.21907 0.0522-0.254 6.8e-4 -0.0349 0.0583-0.0635 0.12816-0.0635 0.14006 0 0.14872 0.0373 0.0736 0.3175-0.0281 0.10478-0.1082 0.1905-0.17805 0.1905-0.0904 0-0.11228-0.0549-0.0759-0.1905zm0.48824-0.27517c7e-3 -0.32033 0.0451-0.46566 0.12089-0.46566 0.0606 0 0.13382 0.0745 0.16273 0.16563 0.0785 0.24737-0.0414 0.7657-0.17718 0.7657-0.0869 0-0.1144-0.12036-0.10644-0.46567zm0.5816 0.3175c2.6e-4 -0.0349 0.0401-0.20637 0.0887-0.381 0.0881-0.31729 0.0885-0.3175 0.54986-0.3175 0.40056 0 0.46169 0.0218 0.46169 0.16434 0 0.0904 0.0381 0.18789 0.0847 0.21666 0.0466 0.0288 0.0847 0.12628 0.0847 0.21667 0 0.14806-0.0629 0.16433-0.635 0.16433-0.34925 0-0.63479-0.0286-0.63453-0.0635zm-3.3025-0.3175c0-0.0699 0.05715-0.127 0.127-0.127s0.127 0.0572 0.127 0.127c0 0.0699-0.05715 0.127-0.127 0.127s-0.127-0.0572-0.127-0.127zm1.1007 0c0-0.0699 0.05715-0.127 0.127-0.127s0.127 0.0572 0.127 0.127c0 0.0699-0.05715 0.127-0.127 0.127s-0.127-0.0572-0.127-0.127zm0.42333 0c0-0.0699 0.05715-0.127 0.127-0.127s0.127 0.0572 0.127 0.127c0 0.0699-0.05715 0.127-0.127 0.127s-0.127-0.0572-0.127-0.127zm0.42333 0c0-0.0699 0.05715-0.127 0.127-0.127s0.127 0.0572 0.127 0.127c0 0.0699-0.05715 0.127-0.127 0.127s-0.127-0.0572-0.127-0.127zm-1.6087-0.254c0-0.0699 0.05715-0.127 0.127-0.127s0.127 0.0572 0.127 0.127c0 0.0699-0.05715 0.127-0.127 0.127s-0.127-0.0571-0.127-0.127zm0.508-0.0847c0-0.0699 0.05715-0.127 0.127-0.127s0.127 0.0572 0.127 0.127c0 0.0699-0.05715 0.127-0.127 0.127s-0.127-0.0572-0.127-0.127zm0.42333 0c0-0.0699 0.05715-0.127 0.127-0.127s0.127 0.0572 0.127 0.127c0 0.0699-0.05715 0.127-0.127 0.127s-0.127-0.0572-0.127-0.127zm0.33867 0c0-0.0699 0.05715-0.127 0.127-0.127s0.127 0.0572 0.127 0.127c0 0.0699-0.05715 0.127-0.127 0.127s-0.127-0.0572-0.127-0.127zm0.33867 0c0-0.0699 0.05715-0.127 0.127-0.127s0.127 0.0572 0.127 0.127c0 0.0699-0.05715 0.127-0.127 0.127s-0.127-0.0572-0.127-0.127zm0.42334 0c0-0.0699 0.0572-0.127 0.127-0.127s0.127 0.0572 0.127 0.127c0 0.0699-0.0572 0.127-0.127 0.127-0.0699 0-0.127-0.0572-0.127-0.127z" fill="#bfbfbf"/>
    <path d="m101.11 138.75c0.0815-0.0213 0.21484-0.0213 0.29633 0 0.0815 0.0213 0.0148 0.0387-0.14817 0.0387-0.16298 0-0.22966-0.0174-0.14816-0.0387zm-4.0831-0.70364 0.28786-0.29633-0.2139 0.1905c-0.11765 0.10477-0.2565 0.1905-0.30857 0.1905-0.10689 0-0.2331-0.32454-0.15615-0.40149 0.02754-0.0275 0.05006 0.0134 0.05006 0.091s0.04084 0.14111 0.09076 0.14111c0.15153 0 0.86595-0.43487 1.1506-0.7004l0.28442-0.34157 2.247 0.10497c1.3034 8e-3 2.3301 0.0487 2.4202 0.0969 0.18546 0.0993 0.49573 0.67594 0.49573 0.92139 0 0.14244-0.0544 0.1727-0.31057 0.1727-0.17081 0-0.54332 0.0405-0.82781 0.0901-0.28449 0.0495-0.70671 0.0774-0.93827 0.0619l-0.42102-0.0282 0.29634-0.0966c0.29185-0.0952 0.28865-0.0967-0.21167-0.103-0.2794-4e-3 -0.74741 0.0501-1.04 0.11904-0.37222 0.0878-0.9088 0.11917-1.7864 0.10458l-1.2544-0.0208zm0.75997-0.127c0-0.0699-0.05715-0.127-0.127-0.127s-0.127 0.0572-0.127 0.127c0 0.0699 0.05715 0.127 0.127 0.127s0.127-0.0571 0.127-0.127zm0.508 0c0-0.0705 0.07526-0.127 0.16933-0.127 0.09407 0 0.16933-0.0564 0.16933-0.127 0-0.0705-0.07526-0.127-0.16933-0.127-0.09407 0-0.16933 0.0564-0.16933 0.127 0 0.0699-0.05715 0.127-0.127 0.127s-0.127 0.0572-0.127 0.127c0 0.0699 0.05715 0.127 0.127 0.127s0.127-0.0571 0.127-0.127zm0.67733 0c0-0.0699-0.05715-0.127-0.127-0.127s-0.127 0.0572-0.127 0.127c0 0.0699 0.05715 0.127 0.127 0.127s0.127-0.0571 0.127-0.127zm0.42333 0c0-0.0699-0.05715-0.127-0.127-0.127s-0.127 0.0572-0.127 0.127c0 0.0699 0.05715 0.127 0.127 0.127s0.127-0.0571 0.127-0.127zm0.42333 0c0-0.0699-0.05715-0.127-0.127-0.127s-0.127 0.0572-0.127 0.127c0 0.0699 0.05715 0.127 0.127 0.127s0.127-0.0571 0.127-0.127zm0.45463-0.0635c0.0751-0.28016 0.0664-0.3175-0.0736-0.3175-0.0699 0-0.12752 0.0286-0.12816 0.0635-6.7e-4 0.0349-0.0241 0.14923-0.0522 0.254-0.03633 0.13558-0.0144 0.1905 0.0759 0.1905 0.0699 0 0.14998-0.0857 0.17805-0.1905zm0.51414-0.10953c0.0662-0.35287-4e-3 -0.6313-0.15901-0.6313-0.0758 0-0.11351 0.14533-0.12089 0.46566-8e-3 0.34531 0.0196 0.46567 0.10644 0.46567 0.0672 0 0.1412-0.12807 0.17346-0.30003zm1.5712 0.051c0-0.0904-0.0381-0.18789-0.0847-0.21667-0.0466-0.0288-0.0847-0.12627-0.0847-0.21666 0-0.14258-0.0611-0.16434-0.46169-0.16434-0.46139 0-0.46175 1.7e-4 -0.54986 0.3175-0.0485 0.17463-0.0884 0.34608-0.0887 0.381-2.5e-4 0.0349 0.28528 0.0635 0.63453 0.0635 0.57212 0 0.635-0.0163 0.635-0.16433zm-4.318-0.21667c0-0.0699-0.05715-0.127-0.127-0.127s-0.127 0.0572-0.127 0.127c0 0.0699 0.05715 0.127 0.127 0.127s0.127-0.0572 0.127-0.127zm1.1007 0c0-0.0699-0.05715-0.127-0.127-0.127s-0.127 0.0572-0.127 0.127c0 0.0699 0.05715 0.127 0.127 0.127s0.127-0.0572 0.127-0.127zm0.42333 0c0-0.0699-0.05715-0.127-0.127-0.127s-0.127 0.0572-0.127 0.127c0 0.0699 0.05715 0.127 0.127 0.127s0.127-0.0572 0.127-0.127zm0.42333 0c0-0.0699-0.05715-0.127-0.127-0.127s-0.127 0.0572-0.127 0.127c0 0.0699 0.05715 0.127 0.127 0.127s0.127-0.0572 0.127-0.127zm-1.6087-0.254c0-0.0699-0.05715-0.127-0.127-0.127s-0.127 0.0572-0.127 0.127c0 0.0699 0.05715 0.127 0.127 0.127s0.127-0.0571 0.127-0.127zm0.508-0.0847c0-0.0699-0.05715-0.127-0.127-0.127s-0.127 0.0572-0.127 0.127c0 0.0699 0.05715 0.127 0.127 0.127s0.127-0.0572 0.127-0.127zm0.42333 0c0-0.0699-0.05715-0.127-0.127-0.127s-0.127 0.0572-0.127 0.127c0 0.0699 0.05715 0.127 0.127 0.127s0.127-0.0572 0.127-0.127zm0.33867 0c0-0.0699-0.05715-0.127-0.127-0.127s-0.127 0.0572-0.127 0.127c0 0.0699 0.05715 0.127 0.127 0.127s0.127-0.0572 0.127-0.127zm0.33867 0c0-0.0699-0.05715-0.127-0.127-0.127s-0.127 0.0572-0.127 0.127c0 0.0699 0.05715 0.127 0.127 0.127s0.127-0.0572 0.127-0.127zm0.42334 0c0-0.0699-0.0572-0.127-0.127-0.127-0.0699 0-0.127 0.0572-0.127 0.127 0 0.0699 0.0572 0.127 0.127 0.127s0.127-0.0572 0.127-0.127zm-2.4977-0.635c0.02878-0.0466 0.06913-0.0847 0.08966-0.0847s0.03734 0.0381 0.03734 0.0847-0.04035 0.0847-0.08966 0.0847-0.06612-0.0381-0.03734-0.0847zm-0.1257-0.4445c1e-3 -0.15405 0.017-0.1662 0.08337-0.0635 0.10608 0.16415 0.10608 0.254 0 0.254-0.04657 0-0.08408-0.0857-0.08337-0.1905z" fill="#868686"/>
    <path d="m96.689 137.84c0-0.066-0.03229-0.13264-0.07175-0.14817-0.12768-0.0502-0.66073-1.2869-0.7227-1.6767-0.0331-0.20816-0.0902-0.39866-0.12689-0.42333-0.08962-0.0603-0.68732-1.897-0.68732-2.1121 0-0.0936-0.08063-0.38563-0.17919-0.64904-0.14856-0.39707-0.15942-0.49243-0.0635-0.55792 0.1384-0.0945 1.0911-0.0353 1.5262 0.0949 0.28839 0.0863 0.31371 0.12105 0.36626 0.50308 0.03104 0.22573 0.11415 0.52017 0.18469 0.65431 0.21106 0.40142 0.67072 1.7306 0.79435 2.2971 0.06352 0.29104 0.15018 0.52917 0.19257 0.52917 0.04239 0 0.05715 0.0762 0.03279 0.16933-0.02878 0.11006-0.0026 0.16933 0.07479 0.16933 0.3455 0-0.10522 0.65403-0.693 1.0056-0.48826 0.29204-0.62726 0.32405-0.62726 0.14446z" fill="#222"/>
    <g>
     <path d="m96.52 136.91c0-0.0183 0.05913-0.056 0.1314-0.0837 0.07535-0.0289 0.10933-0.0147 0.07967 0.0333-0.04972 0.0805-0.21107 0.11899-0.21107 0.0504zm0.71967-0.0514c0.02878-0.0466 0.11675-0.0841 0.1955-0.0834 0.12338 1e-3 0.12562 0.0126 0.01617 0.0834-0.16581 0.10715-0.27789 0.10715-0.21167 0zm-0.61222-0.73601c0.08238-0.0215 0.19668-0.02 0.254 3e-3 0.05732 0.0232-0.01008 0.0408-0.14978 0.039-0.1397-2e-3 -0.1866-0.0207-0.10422-0.0422zm0.1774-0.32285c0.31116-0.16228 0.47398-0.16363 0.2605-2e-3 -0.09039 0.0684-0.24055 0.12528-0.33368 0.12647-0.13542 2e-3 -0.12077-0.0231 0.07318-0.1243zm0.11732-0.43655c0.05821-0.0235 0.15346-0.0235 0.21167 0 0.05821 0.0235 0.01058 0.0427-0.10583 0.0427-0.11642 0-0.16404-0.0192-0.10583-0.0427zm-0.02117-0.19793c0.02878-0.0466 0.11675-0.0841 0.1955-0.0834 0.12338 1e-3 0.12562 0.0126 0.01617 0.0834-0.16581 0.10716-0.27789 0.10716-0.21167 0zm-0.635-0.254c0.16581-0.10715 0.27789-0.10715 0.21167 0-0.02878 0.0466-0.11675 0.0841-0.1955 0.0834-0.12338-1e-3 -0.12562-0.0126-0.01617-0.0834zm0.57679 0.0268c0.06112-0.0245 0.13414-0.0214 0.16228 7e-3 0.02813 0.0281-0.02187 0.0481-0.11112 0.0445-0.09863-4e-3 -0.11869-0.0241-0.05115-0.0512zm-0.61912-0.78883c0.23304-0.10014 0.31589-0.10014 0.254 0-0.02878 0.0466-0.1358 0.082-0.23783 0.0787-0.17885-6e-3 -0.17943-9e-3 -0.01617-0.0787zm-0.59267-0.16933c0.02878-0.0466 0.11675-0.0841 0.1955-0.0834 0.12338 1e-3 0.12562 0.0126 0.01617 0.0834-0.16581 0.10716-0.27789 0.10716-0.21167 0zm-0.254-0.59267c0.02878-0.0466 0.06913-0.0847 0.08966-0.0847 0.02054 0 0.03734 0.0381 0.03734 0.0847s-0.04035 0.0847-0.08966 0.0847-0.06612-0.0381-0.03734-0.0847zm-0.16556-0.42944c0.0301-0.0487 0.13682-0.0779 0.23715-0.065 0.10033 0.0129 0.22684-4e-3 0.28114-0.0379 0.0543-0.0338 0.18765-0.0286 0.29633 0.0116s0.25476 0.0543 0.3246 0.0314c0.06985-0.023 0.09686-0.01 0.06002 0.0298-0.10184 0.10873-1.2659 0.13807-1.1992 0.0302z" fill="#fefefe"/>
     <path d="m96.774 136.77c0-0.0347 0.09525-0.0813 0.21167-0.10352 0.11642-0.0223 0.21167-0.0121 0.21167 0.0226s-0.09525 0.0813-0.21167 0.10351c-0.11642 0.0223-0.21167 0.0121-0.21167-0.0226zm-0.5715-2.0885c0.08149-0.0213 0.21484-0.0213 0.29633 0 0.08149 0.0213 0.01482 0.0387-0.14817 0.0387-0.16298 0-0.22966-0.0174-0.14817-0.0387z" fill="#00fefa"/>
     <path d="m96.504 136.21c0.06112-0.0245 0.13414-0.0214 0.16228 7e-3 0.02813 0.0281-0.02187 0.0481-0.11112 0.0445-0.09863-4e-3 -0.11869-0.0241-0.05115-0.0512zm-0.57679-1.7202c0.16581-0.10715 0.27789-0.10715 0.21167 0-0.02878 0.0466-0.11675 0.0841-0.1955 0.0834-0.12338-1e-3 -0.12562-0.0126-0.01617-0.0834zm0-0.57466c0-0.0367 0.12382-0.0728 0.27517-0.0803 0.22433-0.0111 0.24388 1.7e-4 0.10583 0.0607-0.21815 0.0957-0.381 0.10409-0.381 0.0196zm-0.35983-0.58208c0.05821-0.0235 0.15346-0.0235 0.21167 0 0.05821 0.0235 0.01058 0.0427-0.10583 0.0427-0.11642 0-0.16404-0.0192-0.10583-0.0427z" fill="#fef500"/>
     <path d="m96.774 137.1c0-0.0401 0.05403-0.0729 0.12008-0.0729 0.06604 0 0.18659-0.0255 0.26789-0.0567 0.09304-0.0357 0.12744-0.0238 0.09284 0.0322-0.06934 0.11219-0.48081 0.19557-0.48081 0.0974zm-0.47236-1.2213c0.07282-0.0728 0.17486-0.10615 0.22675-0.0741 0.10713 0.0662-0.05771 0.20299-0.24727 0.20519-0.08378 9.7e-4 -0.07862-0.032 0.02052-0.13111zm0.45649-0.85677c0.06112-0.0245 0.13414-0.0215 0.16228 7e-3 0.02813 0.0281-0.02187 0.0481-0.11112 0.0445-0.09863-4e-3 -0.11869-0.0241-0.05115-0.0512zm-1.0848-0.73662c0-0.0179 0.09525-0.0507 0.21167-0.0729 0.11642-0.0223 0.21167-8e-3 0.21167 0.0325 0 0.0401-0.09525 0.0729-0.21167 0.0729s-0.21167-0.0146-0.21167-0.0325z" fill="#00bf80"/>
     <path d="m95.722 133.71c0.02519-0.0408 0.19819-0.0741 0.38446-0.0741 0.22114 0 0.31904-0.0318 0.2821-0.0915-0.03111-0.0503-0.13814-0.0728-0.23783-0.0499-0.54737 0.12571-0.77084 0.14685-0.63216 0.0598 0.19744-0.12392 1.2569-0.21753 1.0859-0.096-0.10746 0.0764-0.10094 0.0913 0.04233 0.097l0.16933 7e-3 -0.16933 0.0672c-0.25728 0.10217-0.97686 0.16502-0.9248 0.0808z" fill="#006a29"/>
    </g>
   </g>
   <g>
    <path d="m114.19 141.27c-0.0771-0.0851-0.14012-0.1934-0.14012-0.24054 0-0.0471-0.20002-0.19237-0.4445-0.32274-0.24447-0.13036-0.65879-0.36487-0.92071-0.52113-0.57878-0.3453-2.0394-0.96209-2.2784-0.96209-0.26676 0-0.84461-0.32628-0.91504-0.51668-0.0629-0.17006-0.0633-0.17005-0.22064 4e-3 -0.16656 0.18404-0.67151 0.24302-0.76639 0.0895-0.0288-0.0466-0.182-0.0847-0.34048-0.0847-0.15849 0-0.48962-0.073-0.73584-0.1622s-0.66481-0.22307-0.9302-0.29745c-0.26539-0.0744-0.50576-0.17284-0.53416-0.21879-0.0284-0.046-0.12744-0.0836-0.22007-0.0836-0.0926 0-0.32838-0.0773-0.52389-0.17173-0.23501-0.11355-0.61375-0.18919-1.1177-0.22325-0.41926-0.0283-0.80345-0.0837-0.85376-0.12304-0.0562-0.044-0.18464 0.0257-0.33334 0.18091-0.26466 0.27624-0.70549 0.34478-0.8783 0.13655-0.11535-0.13899-0.033-1.8144 0.0974-1.9796 0.0459-0.0582 0.17184-0.10584 0.2798-0.10584 0.10797 0 0.22272-0.0427 0.25501-0.095 0.0387-0.0625 0.21505-0.0766 0.51643-0.0412 0.29967 0.0352 0.52231 0.0177 0.64479-0.0506 0.10289-0.0574 0.43472-0.13079 0.7374-0.16308 0.67502-0.072 1.1681-0.18116 1.4126-0.31267 0.10172-0.0547 0.38888-0.0995 0.63814-0.0995h0.4532l0.33534-0.5715c0.18444-0.31432 0.39258-0.7054 0.46253-0.86907 0.19375-0.45328 0.2457-0.50677 0.49202-0.50657l0.22784 1.7e-4 -0.0283-0.59672c-0.0253-0.53472-6e-3 -0.62653 0.1905-0.88355 0.12363-0.16207 0.21877-0.398 0.21877-0.54248 0-0.14061 0.0473-0.36223 0.10508-0.49248 0.11107-0.25033 0.56306-0.88375 0.83354-1.1682 0.0886-0.0931 0.25991-0.29316 0.38074-0.4445s0.25931-0.27517 0.30774-0.27517c0.0484 0 0.23564-0.13335 0.41605-0.29633 0.1804-0.16298 0.366-0.29633 0.41243-0.29633 0.0464 0 0.0844-0.16679 0.0844-0.37064 0-0.4386 0.13623-0.58281 0.5151-0.54531 0.27873 0.0276 0.32902 0.0828 0.50182 0.55042 0.0605 0.16376 0.14293 0.25283 0.21009 0.22706 0.0608-0.0233 0.13568-2e-3 0.16643 0.048 0.0307 0.0497 0.16604 0.0904 0.30068 0.0904 0.14547 0 0.27807 0.0601 0.32679 0.14816 0.0451 0.0815 0.2243 0.22437 0.39824 0.3175 0.27195 0.14562 0.33267 0.23456 0.43354 0.635 0.0645 0.25612 0.1539 0.47837 0.19864 0.49389 0.0447 0.0155 0.0813 0.0795 0.0813 0.14212 0 0.0626 0.0666 0.18048 0.14795 0.26185 0.19763 0.19763 0.36207 0.84425 0.24458 0.96174-0.0482 0.0483-0.21285 0.0877-0.36576 0.0877h-0.27803l0.13736 0.3175c0.0755 0.17462 0.16951 0.3937 0.20878 0.48683 0.0393 0.0931 0.10697 0.33488 0.15041 0.53722 0.0434 0.20234 0.15357 0.44999 0.24472 0.55034 0.17511 0.19277 0.23948 0.40091 0.35753 1.1561 0.04 0.25611 0.11336 0.66569 0.16295 0.91016 0.0496 0.24448 0.13023 0.64453 0.17919 0.889 0.049 0.24448 0.1272 0.635 0.17386 0.86784 0.0466 0.23283 0.10597 0.85264 0.13182 1.3774 0.0448 0.90954 0.0365 0.97551-0.17833 1.4146-0.12963 0.26497-0.37124 0.57614-0.56889 0.73268-0.32362 0.25631-0.34119 0.29302-0.30291 0.63269 0.0225 0.20007 0 0.40089-0.0499 0.45113-0.14894 0.14894-0.69218 0.10775-0.84788-0.0643z" fill="#7f0a15"/>
    <path d="m111.39 143.15c-0.0305-0.0305-0.52261-0.0814-1.0936-0.11325-0.94199-0.0525-1.9899-0.24482-2.3705-0.43513-0.0809-0.0404-0.27136-0.0739-0.42333-0.0743-0.2002-5.9e-4 -0.43582-0.12061-0.85531-0.43569-0.57074-0.42867-0.59049-0.43593-1.3847-0.50894-0.44312-0.0407-0.87539-0.11137-0.9606-0.15697-0.0852-0.0456-0.26948-0.0829-0.4095-0.0829-0.14001 0-0.27811-0.0381-0.30689-0.0847-0.0288-0.0466-0.19734-0.0847-0.37458-0.0847-0.47429 0-0.74671-0.24987-0.81026-0.74318-0.0283-0.2199-0.0861-0.46341-0.12828-0.54114-0.0422-0.0777-0.1025-0.48223-0.13395-0.8989l-0.0572-0.75757 0.46349-0.34994c0.38039-0.2872 0.53041-0.34993 0.83679-0.34987 0.572 9e-5 1.5806 0.23711 1.996 0.46902 0.20515 0.11454 0.44559 0.20824 0.53433 0.20824 0.0887 0 0.18488 0.0381 0.21366 0.0847 0.0288 0.0466 0.13817 0.0847 0.24309 0.0847s0.35985 0.0819 0.5665 0.18193c0.20666 0.10006 0.50756 0.17712 0.66868 0.17125 0.16112-6e-3 0.37886 0.0456 0.48386 0.1144 0.24638 0.16143 0.65479 0.16044 0.78953-2e-3 0.12937-0.15587 0.57383-0.16618 0.75534-0.0175 0.0735 0.0602 0.28606 0.15837 0.47233 0.21812 0.35082 0.11253 1.2407 0.45536 1.7061 0.65731 0.14674 0.0637 0.29982 0.11576 0.34018 0.11576 0.0404 0 0.21355 0.0952 0.38488 0.21166 0.17132 0.11642 0.36293 0.21167 0.4258 0.21167 0.0629 0 0.26313 0.1524 0.44501 0.33867 0.18188 0.18626 0.41074 0.33866 0.50858 0.33866 0.29525 0 0.71909 0.50818 0.71909 0.86219 0 0.48993-0.40367 1.1349-0.81892 1.3084-0.28586 0.11944-2.316 0.16966-2.4256 0.06z" fill="#406183"/>
    <path d="m100.01 138.2c-0.05588-0.0559-0.10281-0.19875-0.10429-0.3175l-0.03223-0.24838 0.0035 0.42772c-0.18297 0.24524-0.62494 0.14219-0.7983-0.0312-0.19672-0.19673-0.10618-0.55089 0.27227-1.065 0.20563-0.27933 0.3866-0.59614 0.40217-0.70403 0.01601-0.11103 0.18731-0.31722 0.39471-0.47511 0.40589-0.309 0.86312-0.36821 1.1526-0.14926 0.0904 0.0684 0.24765 0.12431 0.34947 0.12431 0.36357 0 0.40821 0.17596 0.30409 1.1986-0.0526 0.51698-0.13904 0.99218-0.19201 1.056-0.23308 0.28085-0.71346 0.0707-0.99276-0.4343-0.0811-0.14655-0.14412-0.1232-0.14632 0.17357-3e-3 0.38215-0.0679 0.5461-0.33346 0.5461-0.0978 0-0.22352-0.0457-0.2794-0.1016zm7.8571-8.4278c-0.22061-0.0192-0.45399-0.10154-0.5544-0.19558-0.0954-0.0893-0.29798-0.18731-0.45023-0.21776-0.15596-0.0312-0.33528-0.14456-0.41069-0.25965-0.0936-0.14284-0.16062-0.17751-0.22286-0.11527-0.11972 0.11972-0.42086 0.11278-0.54622-0.0126-0.28605-0.28604 0.0271-0.83723 0.55036-0.96855 0.19006-0.0477 0.19395-0.0614 0.0709-0.24918-0.15484-0.23632-0.17201-0.80633-0.0286-0.94973 0.18057-0.18057 0.3931-0.11877 0.42194 0.12269 0.0147 0.12336 0.0999 0.26624 0.18927 0.3175 0.0894 0.0513 0.27428 0.21703 0.41093 0.36837 0.30341 0.33602 0.42423 0.3451 0.56312 0.0423 0.0587-0.12806 0.16043-0.3407 0.22597-0.47253 0.0655-0.13183 0.11917-0.37249 0.11917-0.53479 0-0.27197 0.0182-0.293 0.23283-0.26831 0.20592 0.0237 0.22975 0.0576 0.20617 0.29356-0.0147 0.14673 0.0139 0.29185 0.0635 0.3225 0.0496 0.0306 0.0918 0.23445 0.0939 0.4529l4e-3 0.39717 0.17567-0.33867c0.0966-0.18627 0.23141-0.40227 0.29954-0.48001 0.0681-0.0777 0.1124-0.23015 0.0984-0.33867-0.0348-0.26937 0.0685-0.40899 0.30257-0.40899 0.25415 0 0.35403 0.13166 0.42456 0.5596 0.0607 0.3686 0.3992 0.7104 0.70345 0.7104 0.39185 0 0.48705 0.49517 0.14166 0.73689-0.73553 0.51475-0.93435 0.70403-1.138 1.0834-0.24264 0.45196-0.41547 0.5434-0.71946 0.38071-0.14056-0.0752-0.2353-0.0774-0.36431-8e-3 -0.0959 0.0513-0.24353 0.0867-0.32808 0.0785-0.0846-8e-3 -0.32519-0.0297-0.53474-0.048z" fill="#efe5dc"/>
    <path d="m103.67 143.53c-0.51223-0.0423-1.1099-0.13137-1.3282-0.19789-0.2183-0.0665-0.46595-0.12108-0.55033-0.12126-0.18382-3.4e-4 -0.76872-0.32238-0.91689-0.51252-0.13427-0.17231-0.072-0.76557 0.06-1.0559 0.0556-0.1221 0.20023-0.35897 0.32855-0.42533 0.2633-0.13616 1.0515-0.0729 1.56 0.0441 0.18626 0.0429 0.62441 0.11739 0.97366 0.16563 1.0517 0.14524 1.5358 0.26344 1.9605 0.47864 0.5014 0.25408 0.61023 0.44826 0.55768 0.99513-0.0738 0.76777-0.30474 0.82273-2.6452 0.62937z" fill="#bf8867"/>
    <path d="m113.24 128.05c-0.0832-0.0919-0.22275-0.18986-0.31008-0.21758-0.27305-0.0867-0.75021-0.79208-0.75021-1.1091 0-0.15629-0.0381-0.28416-0.0847-0.28416s-0.0847-0.0715-0.0847-0.15897c0-0.26015-0.21087-0.3712-0.5849-0.30801-0.32711 0.0553-0.334 0.0634-0.24056 0.2831 0.0529 0.12442 0.14833 0.28895 0.21205 0.36564 0.0637 0.0767 0.13701 0.34454 0.16288 0.59523 0.0526 0.50926-0.0662 0.69712-0.4096 0.64767-0.21954-0.0316-0.74181-0.6798-1.0115-1.2553-0.23952-0.51123-0.30706-0.58274-0.50219-0.53172-0.1442 0.0377-0.16622 0.1182-0.16622 0.60742 0 0.63786-0.14799 0.9403-0.4601 0.9403-0.31232 0-0.39399-0.18112-0.368-0.81614 0.0224-0.54628 0.0124-0.58247-0.16673-0.60791-0.17539-0.0249-0.1905 6e-3 -0.1905 0.38904 0 0.4373-0.16784 0.69634-0.45117 0.69634-0.0798 0-0.1415 0.0664-0.1415 0.1524 0 0.20697-0.16392 0.3556-0.39217 0.3556-0.23964 0-0.4539-0.30779-0.70726-1.016-0.10828-0.30268-0.22429-0.58175-0.25778-0.62015-0.10749-0.12324-0.18 0.53797-0.12022 1.0962 0.064 0.59744-0.0195 0.79394-0.33743 0.79394-0.19093 0-0.54709-0.32417-0.71479-0.6506-0.0523-0.10171-0.0959-0.38746-0.0969-0.635l-2e-3 -0.45006-0.16569 0.21166c-0.0911 0.11642-0.20754 0.3355-0.25869 0.48684-0.0511 0.15134-0.14718 0.27516-0.21342 0.27516-0.27133 0-0.0571-0.70451 0.3623-1.1915 0.13745-0.15959 0.37303-0.50823 0.52351-0.77474 0.54587-0.9668 1.8816-1.831 2.9464-1.9064 1.1024-0.0781 1.7126 0.27477 2.2266 1.2874 0.29099 0.5733 0.50949 0.71744 0.50949 0.33609 0-0.32998 0.83705-1.1375 1.1791-1.1375 0.15488 0 0.29586 0.0595 0.35109 0.14816 0.0749 0.12019 0.18754 0.14272 0.59662 0.11932 0.57984-0.0332 0.66879 0.0188 0.90987 0.53169 0.12587 0.26775 0.18843 0.63168 0.23099 1.3436 0.0505 0.84474 0.0792 0.98185 0.21257 1.0167 0.0848 0.0222 0.19837-0.0129 0.25235-0.0779 0.12038-0.14505 0.43098-0.15415 0.56848-0.0167 0.31675 0.31675-0.19489 1.0837-0.72294 1.0837-0.14637 0-0.28968 0.0381-0.31846 0.0847-0.0288 0.0466-0.23467 0.0847-0.45754 0.0847-0.29594 0-0.44601-0.0451-0.5565-0.16717z" fill="#241f1c"/>
    <path d="m113.2 127.73c-0.40084-0.21946-0.57195-0.54308-0.67635-1.2791-0.10457-0.73737-0.29527-1.1076-0.57049-1.1076-0.10688 0-0.36745 0.0814-0.57902 0.18082-0.44008 0.20686-0.74302 0.13763-0.87929-0.20094-0.14531-0.36107-0.83063-1.1363-1.1301-1.2784-1.1747-0.55744-2.6444 0.031-3.0847 1.2351-0.11953 0.32686-0.18503 0.40217-0.34979 0.40217-0.13475 0-0.37023 0.16803-0.70231 0.50113-0.40203 0.40328-0.51953 0.58514-0.60177 0.93133-0.13737 0.57831-0.35437 0.59874-0.29779 0.028 0.0494-0.49854 0.31327-1.0836 0.6396-1.4182 0.13624-0.1397 0.3448-0.4064 0.46346-0.59267 0.2618-0.41094 0.86073-0.98854 1.207-1.164 0.84687-0.4291 0.82421-0.42405 1.7401-0.38745 0.61 0.0244 0.97965 0.0814 1.1908 0.18383 0.30285 0.14686 1.1755 1.1267 1.1755 1.3199 0 0.17605 0.15632 0.0111 0.39898-0.42093 0.33577-0.59781 0.60609-0.50938 0.3668 0.12-0.0809 0.21265-0.0807 0.21272 0.33159 0.16389 0.22686-0.0269 0.50177-0.0264 0.61091 9.5e-4 0.27345 0.0686 0.49296 0.47626 0.49353 0.9165 8.4e-4 0.47814 0.1405 0.97144 0.35948 1.2676 0.18986 0.25681 0.82832 0.52052 1.0616 0.4385 0.25972-0.0913 0.69507-0.45488 0.69507-0.58048 0-0.0675 0.0762-0.12269 0.16933-0.12269 0.24613 0 0.23982 0.58724-9e-3 0.81238-0.26913 0.24378-1.6091 0.27715-2.0233 0.0504zm-5.933-0.0399c-0.0733-0.0567-0.27333-0.30744-0.4445-0.55714-0.34546-0.50397-0.38947-0.8197-0.18308-1.3137 0.20895-0.50008 0.345-0.39188 0.345 0.27436 0 0.56205 0.0116 0.59426 0.3561 0.98559 0.37531 0.42637 0.46087 0.72128 0.20793 0.71668-0.0815-1e-3 -0.20814-0.0491-0.28145-0.10583z" fill="#a3a3a3"/>
    <path d="m110.07 145.86c-2.0398-0.1041-4.6732-0.41386-5.4632-0.80033-0.24637-0.12054-0.53893-0.42057-0.67902-0.58012-0.22515-0.25643-0.22486-0.61528-0.15565-0.86105 0.0431-0.15291 0.13555-0.25631 0.25974-0.35683 0.2979-0.24113 1.3068-0.5079 2.2567-0.65309 2.3298-0.35609 2.1566-0.22612 2.618-1.1798 0.2045-0.42268 0.60867-1.2105 0.78269-1.6063 0.8592-1.9543 1.7066-3.0674 2.4276-3.3389 0.40577-0.15279 1.4937 0.10783 1.8396 0.4538 0.19227 0.19227 0.86594 1.3084 1.1529 1.8765 0.33862 0.67042 0.66933 1.1169 1.0102 1.1873l0.39161 0.10385-0.33924 0.4122c-0.20976 0.25486-0.55271 0.20555-0.95117 0.10991-0.23483-0.0563-0.51839-0.23021-0.6829-0.34186-0.34986-0.23742-0.3248-0.34271-0.66109-0.16879l-0.24882 0.12867 0.17787 0.44283c0.16047 0.39953 0.26229 0.73896 0.50335 1.678 0.0763 0.29706 0.0907 0.30595 0.64991 0.39845 0.31455 0.052 1.1472 0.0354 1.706 0.10746 1.2704 0.16378 1.8123 0.56582 1.8581 0.96825 0.11243 0.98761-1.3741 1.6739-4.8549 1.9736-1.7488 0.1506-2.867 0.0836-3.5983 0.0462z" fill="#5f5244"/>
   </g>
   <path d="m106.46 127.82c-0.11361-0.24933-0.13076-0.63102-0.0284-0.63102 0.15186 0 0.43809 0.40461 0.43809 0.61929 0 0.30063-0.27453 0.30848-0.40974 0.0117z"/>
   <path d="m111.9 145.75c-0.2144-0.0897-2.1862-1.0262-2.4977-1.1863-0.0931-0.0479-0.24554-0.12871-0.33867-0.17965-0.0931-0.0509-0.17576-0.0927-0.18362-0.0928-8e-3 -9e-5 -0.0392-0.0993-0.0696-0.22056l-0.0553-0.22038 0.91627-0.0506c0.89621-0.0495 1.933-0.22539 2.4403-0.41398 0.32116-0.11941 0.52426-0.32938 0.8847-0.91463 0.26879-0.43643 0.28897-0.5215 0.32144-1.3547 0.029-0.74324 6e-3 -0.97099-0.14124-1.3891-0.20593-0.58547-0.22176-0.81224-0.0567-0.81224 0.11923 0 0.47344 0.89912 0.47344 1.2018 0 0.0841 0.0381 0.15289 0.0847 0.15289 0.10274 0 0.10249 0.0187 4e-3 -0.32368-0.0442-0.15413-0.0537-0.26817-0.0212-0.25344 0.0326 0.0147 0.36834 0.17423 0.74616 0.35443l0.68696 0.32763-0.0404 0.39203c-0.0368 0.35769-0.17655 0.76624-0.56119 1.6409-0.13785 0.31345-0.13724 0.3175 0.0483 0.3175 0.24904 0 0.99828 0.78769 1.618 1.701 0.51453 0.75831 0.5896 0.97143 0.31709 0.90016-0.0909-0.0238-0.17663-0.011-0.1905 0.0284-0.0862 0.24473-3.9196 0.59028-4.3856 0.39533zm5.6727-0.7624c0-0.25385 0.26428-0.4845 0.55513-0.4845 0.37707 0 0.37153 0.15606-0.0143 0.40216-0.33415 0.21317-0.54088 0.24464-0.54088 0.0823zm-14.707-1.5851c-0.82617-0.0511-0.98459-0.0857-1.2277-0.26839-0.1535-0.11538-0.34577-0.23436-0.42726-0.26439-0.11647-0.0429-0.14817-0.15397-0.14817-0.51895 0-0.25539 0.0433-0.55932 0.0962-0.6754 0.13226-0.29026 0.64175-0.47424 1.3133-0.47424h0.55939l-0.0411-0.42779c-0.0336-0.34982-0.0187-0.41919 0.0818-0.38064 0.36875 0.1415 0.53047 0.14621 0.53047 0.0154 0-0.0737 0.11854-0.19531 0.26343-0.27023 0.35263-0.18236 1.0063-0.0686 2.5306 0.4403 1.2591 0.42038 1.8778 0.52389 2.2844 0.38217l0.26812-0.0935-0.0597 0.2717c-0.0328 0.14943-0.10729 0.34845-0.1655 0.44226-0.0582 0.0938-0.12878 0.26996-0.15683 0.39142-0.0456 0.19748-0.10112 0.22602-0.52463 0.26973-0.26049 0.0269-0.56876 0.11122-0.68504 0.18741-0.2488 0.16302-0.50763-0.0679-0.82968-0.37052-0.21273-0.19984-0.35796-0.0162-0.19781 0.24014 0.14385 0.23035 0.0577 0.28099-0.59723 0.35096-0.57532 0.0615-1.09 0.26764-1.5952 0.63898-0.14824 0.10895-0.28159 0.19224-0.29634 0.18509-0.0148-7e-3 -0.45367-0.0394-0.97538-0.0716zm1.437-2.0029c-0.0573-0.0232-0.17162-0.0246-0.254-3e-3 -0.0824 0.0215-0.0355 0.0404 0.10422 0.0422 0.1397 2e-3 0.2071-0.0158 0.14978-0.039zm11.09-1.9428c-0.16139-0.12631-0.27503-0.29206-0.27503-0.40113 0-0.10223-0.0933-0.32317-0.20733-0.49097-0.11402-0.16781-0.23296-0.41478-0.2643-0.54882-0.0894-0.38241-0.5324-1.0274-0.82682-1.2038-0.34072-0.20416-1.3584-0.47522-1.5328-0.40828-0.11643 0.0447-0.12658-0.0395-0.0829-0.68738 0.0273-0.40606 0.0664-0.79544 0.0869-0.86529 0.0204-0.0699-0.0956 0.0254-0.25792 0.21166-0.16227 0.18627-0.29647 0.38312-0.29822 0.43745-2e-3 0.0543-0.0318 0.11148-0.0667 0.127-0.0349 0.0155-0.36228 0.47567-0.72745 1.0226-0.36516 0.54688-0.83114 1.1803-1.0355 1.4076l-0.37154 0.41325 0.76584-0.0864-0.27042 0.43503c-0.31551 0.50756-0.49877 0.69075-0.49877 0.49859 0-0.21277-0.34575-0.58752-0.49072-0.53188-0.22415 0.086-1.8202-0.14168-2.1517-0.30696-0.17277-0.0861-0.36846-0.15661-0.43487-0.15661-0.185 0-1.4312-0.43094-1.6151-0.55851-0.15695-0.10887-0.15718-0.11507-6e-3 -0.17291 0.086-0.033 0.42594-0.012 0.75545 0.0467s1.1783 0.12702 1.8861 0.15184l1.287 0.0451 0.0572-0.22801c0.0334-0.13299 0.0175-0.26775-0.0382-0.3234-0.0525-0.0525-0.0954-0.14493-0.0954-0.20547 0-0.14811 0.31293-0.14065 0.39796 9e-3 0.0372 0.0658 0.20472 0.14509 0.37218 0.17631 0.36015 0.0671 0.39303 0.0401 1.0684-0.87778 0.26131-0.35516 0.4993-0.66479 0.52887-0.68808 0.0296-0.0233 0.14535-0.17568 0.25728-0.33866 0.11193-0.16299 0.22449-0.31539 0.25013-0.33867 0.0256-0.0233 0.20442-0.25188 0.39727-0.508 0.61445-0.81601 0.8766-1.2894 0.8766-1.5829 0-0.15387 0.0373-0.27976 0.0829-0.27976 0.24184 0 0.64864-1.3353 0.55646-1.8266-0.0779-0.41508 0.0278-1.052 0.17454-1.052 0.0787 0 0.11824 0.10451 0.11996 0.3175 2e-3 0.26482 0.0175 0.2919 0.0923 0.1632 0.12411-0.21342 0.0264-0.53605-0.17862-0.58966-0.0936-0.0245-0.1705-0.0957-0.17079-0.15828-8.5e-4 -0.1376-0.45669-0.4101-0.68632-0.4101-0.0908 0-0.18574-0.0537-0.21092-0.11933-0.0353-0.0919-0.10763-0.10138-0.31485-0.0412-0.31731 0.0922-0.73471 0.0211-0.73471-0.12502 0-0.0565 0.12382-0.13922 0.27516-0.18377 0.18948-0.0558 0.28359-0.14033 0.30223-0.27151 0.0149-0.10477-0.0137-0.1905-0.0635-0.1905s-0.0906-0.10287-0.0906-0.2286c0-0.1778-0.0226-0.20602-0.1016-0.127-0.15337 0.15338-0.40659 0.12427-0.4051-0.0466 2e-3 -0.25444 0.11629-0.34627 0.46547-0.37469 0.2549-0.0208 0.37373 0.014 0.48526 0.14186 0.12506 0.14337 0.12105 0.10731-0.0261-0.23513-0.0956-0.22245-0.15185-0.47376-0.12496-0.55847 0.0325-0.10228-0.0697-0.30292-0.30416-0.59739-0.33369-0.41911-0.36923-0.44035-0.64893-0.38788-0.2017 0.0378-0.31746 0.0206-0.3636-0.054-0.0372-0.0602-0.0972-0.08-0.13335-0.0439-0.0361 0.0361-0.0157 0.0965 0.0454 0.13428 0.11237 0.0695 0.27128 0.31524 0.42865 0.663 0.0474 0.10477 0.1443 0.1905 0.2153 0.1905 0.0762 0 0.1291 0.0756 0.1291 0.18449 0 0.28536-0.19124 0.74684-0.3095 0.74684-0.0584 0-0.12944 0.12414-0.15791 0.27585-0.0356 0.18972-0.14378 0.33618-0.34645 0.46904-0.16209 0.10625-0.31705 0.2514-0.34434 0.32255-0.0629 0.16393-0.94417 1.0492-1.0444 1.0492-0.0412 0-0.10541-0.0529-0.14265-0.11756-0.0372-0.0647-0.14391-0.13238-0.23704-0.15049-0.18081-0.0352-0.19998-0.19456-0.09-0.74795 0.0469-0.23567 0.0396-0.266-0.0356-0.14817-0.12809 0.20081-0.3401 0.18762-0.3401-0.0212 0-0.0931-0.0381-0.16934-0.0847-0.16934s-0.0847-0.0721-0.0847-0.16027c0-0.0882-0.0528-0.18055-0.11742-0.20533-0.0824-0.0316-0.10469 4e-3 -0.0748 0.11794 0.0316 0.12095-1e-3 0.163-0.12752 0.163-0.30521 0-0.39548-0.62703-0.1036-0.71967 0.0931-0.0296 0.16933-0.12426 0.16933-0.21045 0-0.0862 0.0128-0.20744 0.0285-0.26946 0.0157-0.062 0.0125-0.0842-7e-3 -0.0493s-0.0895 0.0635-0.15545 0.0635c-0.0875 0-0.11995-0.11455-0.11995-0.42333 0-0.23283 0.0356-0.42333 0.0792-0.42333 0.0435 0 0.1274-0.13335 0.18634-0.29634 0.0589-0.16298 0.15665-0.29633 0.21715-0.29633 0.13194 0 0.14568 0.36777 0.0223 0.59823-0.0675 0.12622-0.06 0.16377 0.0327 0.16377 0.0782 0 0.14264 0.14081 0.18398 0.40217l0.0636 0.40216 0.21561-0.46566c0.27017-0.58349 0.357-1.3547 0.15253-1.3547-0.15636 0-0.1785-0.21974-0.0549-0.54482 0.0931-0.24478 0.0358-0.26928-0.20459-0.0875-0.24009 0.1816-0.47065 0.15808-0.47065-0.048 0-0.15258-0.0218-0.16059-0.1905-0.07-0.10477 0.0563-0.3048 0.12579-0.4445 0.15443-0.15912 0.0326-0.31725 0.15242-0.42333 0.3207-0.29964 0.47535-0.50341 0.2717-0.29101-0.29084 0.0724-0.19183 0.0691-0.21769-0.0169-0.13251-0.0588 0.0582-0.18503 0.1056-0.28049 0.10531-0.15569-5.1e-4 -0.15176-0.0119 0.0381-0.11101 0.11641-0.0608 0.40216-0.22246 0.635-0.35931 0.3931-0.23105 0.48077-0.24809 1.2277-0.23857 0.86106 0.011 1.2378 0.10921 1.3358 0.34835 0.2284 0.55729 0.7809 1.0871 0.7809 0.74879 0-0.067 0.12196-0.14681 0.27517-0.18015 0.15134-0.0329 0.35031-0.11216 0.44217-0.17606 0.0919-0.0639 0.23283-0.11618 0.31329-0.11618 0.0805 0 0.18512-0.0667 0.23259-0.14817 0.0475-0.0815 0.0875-0.10545 0.0889-0.0532 1e-3 0.0522 0.2026 0.12116 0.44708 0.15323 0.52608 0.069 0.8255 0.24139 0.8255 0.47528 0 0.0983 0.0887 0.2096 0.21166 0.26564 0.11719 0.0534 0.21167 0.16792 0.21167 0.25658 0 0.10257 0.0933 0.19267 0.25946 0.2506 0.22166 0.0773 0.25687 0.12906 0.24169 0.35543-0.0427 0.63671-0.0109 0.71964 0.29798 0.77759 0.20235 0.038 0.3501 0.0133 0.4845-0.0808 0.4063-0.28458 0.56717-0.0198 0.24037 0.39566-0.0931 0.1184-0.16933 0.27083-0.16933 0.33874 0 0.16269-0.96574 0.51451-1.2587 0.45856-0.12262-0.0234-0.31819-0.066-0.43461-0.0947-0.11641-0.0287-0.0307 0.0344 0.1905 0.14013 0.22529 0.10771 0.40217 0.25026 0.40217 0.32412 0 0.0725 0.0953 0.26095 0.21167 0.41874 0.11641 0.15779 0.21166 0.32124 0.21166 0.36321 0 0.042 0.0706 0.17745 0.15693 0.30105 0.0863 0.12361 0.18515 0.37714 0.21964 0.56341 0.0345 0.18626 0.0825 0.44344 0.10668 0.5715 0.0401 0.21245 0.0215 0.23283-0.21258 0.23283-0.14111 0-0.2762-0.0476-0.30022-0.10583-0.024-0.0582-0.0208 0.0275 7e-3 0.1905 0.028 0.16298 0.13934 0.48683 0.24744 0.71966 0.1081 0.23284 0.1968 0.48049 0.19712 0.55034 0 0.0699 0.0921 0.3556 0.20398 0.635 0.11186 0.2794 0.26875 0.75565 0.34863 1.0583 0.0799 0.30268 0.23177 0.81703 0.33754 1.143 0.34136 1.0521 0.41179 1.4157 0.40895 2.1112-6e-3 1.3623-0.0264 1.5184-0.26305 1.9714l-0.23091 0.44195-0.27504-0.21525zm-1.0909-8.8808c-0.0267-0.0696-0.0827-0.10544-0.12434-0.0797-0.11954 0.0739-0.0884 0.20618 0.0486 0.20618 0.0755 0 0.10528-0.0497 0.0758-0.12651zm-4.0948-2.1692c0-0.0878-0.0571-0.15959-0.127-0.15959s-0.127 0.01-0.127 0.0217c0 0.0119-0.0351 0.14424-0.0781 0.29397l-0.0781 0.27224 0.20508-0.13437c0.11279-0.0739 0.20508-0.20619 0.20508-0.29397zm-1.0958-0.97106c0.14369-0.20885 0.24835-0.41843 0.23257-0.46575-0.0158-0.0473-0.12328 0.0673-0.23891 0.25464-0.11563 0.18738-0.25786 0.34171-0.31607 0.34297-0.0664 1e-3 -0.10383 0.12049-0.10046 0.31977 5e-3 0.28033 0.0145 0.29471 0.0835 0.12279 0.043-0.10709 0.19569-0.36558 0.33938-0.57442zm4.0591 0.4728c0-0.0466-0.0762-0.0847-0.16933-0.0847-0.0931 0-0.16933 0.0381-0.16933 0.0847s0.0762 0.0847 0.16933 0.0847c0.0931 0 0.16933-0.0381 0.16933-0.0847zm-2.2659-0.29958c-0.0271-0.1416-0.13348-0.25352-0.31194-0.32809-0.20079-0.0839-0.31835-0.22354-0.45438-0.53976-0.18259-0.42443-0.3027-0.53552-0.50043-0.46287-0.0773 0.0284-0.072 0.0698 0.0212 0.1629 0.0804 0.0804 0.12832 0.31111 0.13465 0.64795 5e-3 0.28771 0.0272 0.45647 0.0485 0.37501 0.046-0.17595 0.46699-0.30786 0.51575-0.1616 0.018 0.0539 0.0858 0.098 0.15067 0.098 0.0649 0 0.1804 0.0953 0.25668 0.21167 0.17345 0.26472 0.19047 0.26432 0.13931-3e-3zm-4.7614 8.6392c0-0.0989 0.11319-0.127 0.51072-0.127 0.69967 0 1.0356-0.15766 1.2915-0.60614 0.11535-0.20214 0.23401-0.4723 0.26369-0.60036 0.0313-0.13516 0.11111-0.23284 0.19017-0.23284 0.11282 0 0.12633 0.0618 0.0787 0.35984-0.0836 0.52308-0.43344 1.072-0.77381 1.2142-0.40442 0.16898-1.561 0.16328-1.561-8e-3zm-0.16933-8.3338c0-0.0433-0.0857-0.091-0.1905-0.10583-0.17175-0.0244-0.19302-0.0805-0.21608-0.57038-0.029-0.61617 0.0804-0.95395 0.38712-1.1952 0.41879-0.32942 0.5855-0.0954 0.31065 0.43615-0.0727 0.14054-0.11379 0.30058-0.0914 0.35563 0.0224 0.055 0.0438 0.0334 0.0475-0.0481 4e-3 -0.0815 0.0682-0.14817 0.14344-0.14817 0.117 0 0.12809 0.0703 0.0767 0.48683-0.033 0.26776-0.0945 0.49954-0.13676 0.51506-0.0422 0.0155-0.0767 0.10125-0.0767 0.1905 0 0.0892-0.0572 0.16228-0.127 0.16228-0.0699 0-0.127-0.0354-0.127-0.0788zm1.3214-0.30915c-0.086-0.22409-0.0574-1.3476 0.0416-1.6314 0.0511-0.14665 0.15135-0.26663 0.22274-0.26663 0.10573 0 0.11708 0.0589 0.0612 0.3175-0.0878 0.40685-0.0886 1.2774-1e-3 1.524 0.0555 0.15673 0.0373 0.1905-0.1027 0.1905-0.0936 0-0.19327-0.0603-0.22154-0.13393z" opacity=".28758"/>
   <path d="m109.14 140.9c8.4e-4 -0.10477 0.11514-0.39661 0.254-0.64853 0.13886-0.25191 0.25246-0.51111 0.25246-0.576 0-0.0649 0.16434-0.37313 0.3652-0.68497 0.20085-0.31185 0.47261-0.7575 0.6039-0.99033 0.13129-0.23284 0.5088-0.68051 0.83893-0.99484 0.49074-0.46726 0.65084-0.5715 0.87776-0.5715 0.19026 0 0.27755 0.0399 0.27755 0.127 0 0.0699-0.0677 0.127-0.15055 0.127-0.25161 0-1.3236 1.0964-1.697 1.7357-0.1904 0.32597-0.42384 0.70697-0.51876 0.84667-0.0949 0.1397-0.17282 0.31606-0.17312 0.39191 0 0.0759-0.13337 0.35846-0.29569 0.62802-0.16233 0.26956-0.31729 0.55993-0.34438 0.64526-0.0703 0.22156-0.29214 0.19454-0.29029-0.0354zm-6.6055-2.742c0-0.0762 0.10018-0.23129 0.22262-0.34477 0.20461-0.18963 0.27479-0.20332 0.86783-0.16935 0.56557 0.0324 1.5844 0.21094 2.0538 0.35992 0.0868 0.0275 0.15775 0.10898 0.15775 0.18098 0 0.0972-0.06 0.11939-0.23283 0.0862-0.12806-0.0246-0.53763-0.10379-0.91017-0.17599-0.91108-0.17659-1.2983-0.16924-1.6933 0.0321-0.40274 0.20533-0.46567 0.2095-0.46567 0.0309zm-3.3867-0.53887c0-0.0931 0.0295-0.16934 0.06555-0.16934s0.23123-0.22751 0.43373-0.50559c0.2025-0.27808 0.43018-0.52294 0.50595-0.54413 0.23642-0.0661 1.137-3e-3 1.5136 0.10555 0.22698 0.0656 0.35983 0.15327 0.35983 0.23738 0 0.10466-0.0592 0.12217-0.27516 0.0814-0.15135-0.0286-0.51917-0.0767-0.8174-0.10691-0.46107-0.0467-0.55862-0.0325-0.65177 0.0949-0.26397 0.361-0.90241 0.97613-1.0131 0.97613-0.06667 0-0.12122-0.0762-0.12122-0.16933zm3.3867-0.58095c0-0.0401-0.0952-0.0547-0.21166-0.0325-0.18101 0.0346-0.21167 9e-3 -0.21167-0.17537 0-0.30319 0.17646-0.34075 1.651-0.35143 0.6985-5e-3 1.9759-0.0173 2.8387-0.0272l1.5687-0.018 0.14759-0.52916c0.31596-1.1328 1.1744-3.7615 1.3203-4.0428 0.0845-0.16298 0.18012-0.40571 0.2125-0.53939 0.0324-0.13368 0.11412-0.29833 0.18168-0.36588 0.20015-0.20015 0.15692 0.37591-0.0821 1.094-0.1127 0.33859-0.22985 0.80612-0.26034 1.039-0.0526 0.40156-0.16064 0.72656-0.80229 2.413-0.1506 0.39582-0.31432 0.83397-0.36382 0.97367l-0.09 0.254-1.1925-0.0256c-0.65586-0.0141-1.873 6e-3 -2.7046 0.0457-1.2755 0.0602-1.5287 0.094-1.618 0.21611-0.10931 0.14949-0.38352 0.20085-0.38352 0.0718zm-2.794-0.73745c0-0.17336 0.12687-0.29408 0.60011-0.57099 0.22772-0.13326 0.51528-0.2273 0.69502-0.2273 0.3507 0 0.90103 0.24479 0.90412 0.40217 3e-3 0.14707-0.27571 0.13212-0.62286-0.0334-0.2839-0.13539-0.30264-0.13304-0.67411 0.0847-0.21015 0.12316-0.44199 0.22392-0.51519 0.22392s-0.13309 0.0571-0.13309 0.127-0.05715 0.127-0.127 0.127-0.127-0.0599-0.127-0.13304zm2.8787-0.56122c0-0.14901 0.8399-0.32174 1.5645-0.32174 0.26767 0 0.79668-0.0736 1.1756-0.1635 0.3789-0.0899 0.9114-0.18999 1.1833-0.22237 0.4895-0.0583 0.49609-0.0627 0.66084-0.4471 0.0915-0.21352 0.35481-0.58742 0.58507-0.83089s0.41866-0.48305 0.41866-0.5324c0-0.0493 0.0572-0.0897 0.127-0.0897 0.2797 0 0.12895 0.42269-0.32804 0.91978-0.25028 0.27224-0.50015 0.63162-0.55526 0.79863-0.093 0.28193-0.13469 0.31048-0.58213 0.39899-0.26505 0.0524-0.72955 0.15325-1.0322 0.22403-0.30268 0.0708-0.95038 0.16295-1.4393 0.20482-0.48895 0.0419-1.089 0.10055-1.3335 0.13038-0.35734 0.0436-0.4445 0.0301-0.4445-0.0689zm6.0332-3.2032c0.0262-0.66305 0.08-1.2289 0.11954-1.2575 0.0867-0.0627 0.45122-0.94394 0.45122-1.0908 0-0.0573 0.0572-0.1042 0.127-0.1042 0.16348 0 0.16982 0.43206 0.0109 0.74504-0.0638 0.12575-0.13468 0.59928-0.15744 1.0523-0.0228 0.45301-0.0822 0.87286-0.13211 0.933-0.0499 0.0601-0.10288 0.2797-0.11773 0.48794-0.0209 0.29264-0.0636 0.38555-0.18806 0.4092-0.15399 0.0292-0.15897-0.0224-0.11335-1.175zm2.0948-2.8231c0-0.0176 0.0667-0.0842 0.14817-0.14817 0.13429-0.10531 0.13728-0.10232 0.032 0.032-0.11061 0.14103-0.18014 0.18589-0.18014 0.1162zm-5.0643-0.63389c-0.0719-0.0456-0.10189-0.20241-0.0847-0.4432 0.0223-0.31217 0.0575-0.377 0.21716-0.39966 0.15242-0.0216 0.1905 0.0138 0.1905 0.17737 0 0.11244 0.0762 0.2734 0.16933 0.35768 0.25523 0.23099 0.21336 0.38121-0.10583 0.37971-0.15135-6.8e-4 -0.32527-0.0331-0.3865-0.0719zm-1.2857-2.2578c0-0.25318 0.2512-0.72519 0.55155-1.0364 0.16753-0.17357 0.39591-0.49173 0.50751-0.70702 0.37528-0.72392 1.265-1.3442 2.1761-1.5169 0.83453-0.15827 1.526-0.10508 2.0253 0.1558 0.24961 0.13039 0.4663 0.30184 0.48154 0.381 0.0403 0.2094-0.15507 0.17886-0.70436-0.11009-0.51643-0.27165-0.83778-0.3075-1.5485-0.17271-0.91107 0.17278-1.8008 0.79302-2.1761 1.5169-0.1116 0.21529-0.33998 0.53345-0.50751 0.70702-0.16752 0.17356-0.36066 0.44979-0.4292 0.61383-0.12499 0.29913-0.37635 0.41169-0.37635 0.16854zm9.6293-1.5637c-0.10748-0.27361-0.20901-0.37133-0.52787-0.508-0.42228-0.18102-0.93001-0.22329-1.0157-0.0846-0.0819 0.13243-0.381 0.0992-0.381-0.0423 0-0.15587-0.066-0.15587-0.33867 0-0.11642 0.0666-0.33579 0.12235-0.48749 0.124l-0.27581 3e-3 0.27581-0.42181c0.29673-0.45378 0.40282-0.52178 0.40282-0.25818 0 0.23671 0.22574 0.1383 0.60406-0.26332 0.32301-0.34293 0.66594-0.4365 0.66594-0.1817 0 0.0797-0.10477 0.23077-0.23283 0.33562l-0.23283 0.19063 0.52417 3e-3c0.28829 2e-3 0.54705 0.0401 0.575 0.0853 0.028 0.0452 0.22071 0.1574 0.42833 0.24924 0.24488 0.10832 0.37783 0.22071 0.37843 0.31991 8.4e-4 0.0841 0.0245 0.29581 0.0534 0.47043 0.0459 0.27762 0.0314 0.3175-0.11509 0.3175-0.11688 0-0.20782-0.10246-0.30064-0.33877z" fill="#cff"/>
   <path d="m96.943 137.12c0-0.0893 0.04201-0.17628 0.09336-0.19339 0.05135-0.0171 0.10028-0.20529 0.10875-0.41817 0.01259-0.31652-0.016-0.40085-0.15686-0.46277-0.12267-0.0539-0.17202-0.15493-0.17143-0.35089 5.93e-4 -0.20833-0.03602-0.27517-0.15082-0.27517-0.19542 0-0.28454-0.23349-0.16324-0.4277 0.08329-0.13337 0.05479-0.15798-0.24064-0.2079-0.256-0.0433-0.33511-0.0955-0.33511-0.22116 0-0.0905 0.05715-0.18648 0.127-0.21328 0.20366-0.0782 0.14737-0.18203-0.13187-0.24336-0.21866-0.048-0.25483-0.0915-0.23283-0.27993 0.01591-0.13627 0.10723-0.26334 0.23469-0.32656 0.22319-0.1107 0.15986-0.16464-0.25099-0.21379-0.1431-0.0171-0.2202-0.0853-0.23801-0.21041-0.02145-0.15069 0.03361-0.20173 0.29633-0.27469 0.48615-0.135 0.95768-0.11705 0.95768 0.0365 0 0.0864-0.08655 0.127-0.27093 0.127-0.28583 0-0.24425 0.12869 0.05927 0.18344 0.11492 0.0207 0.16933 0.0972 0.16933 0.23789 0 0.16128-0.06112 0.22486-0.27517 0.28625-0.15134 0.0434-0.27517 0.10706-0.27517 0.14146 0 0.0751 0.30724 0.1642 0.5715 0.16581 0.276 2e-3 0.24831 0.30305-0.04233 0.46072l-0.23283 0.12632 0.35983 3e-3c0.32768 3e-3 0.35983 0.0225 0.35983 0.21772 0 0.12161-0.06082 0.23766-0.14059 0.26827-0.11912 0.0457-0.11168 0.0646 0.04875 0.12399 0.15223 0.0563 0.18393 0.12404 0.16175 0.34556-0.02622 0.26186-0.0097 0.27948 0.33225 0.35528 0.42508 0.0942 0.47234 0.27693 0.127 0.49104-0.22184 0.13755-0.22384 0.14447-0.04233 0.14662 0.28653 3e-3 0.23739 0.26117-0.10131 0.53141-0.34142 0.27242-0.55486 0.29956-0.55486 0.0706z" fill="#cff" opacity=".69281"/>
   <path d="m109.78 146.1c-2.0939-0.11546-4.5103-0.5354-5.2978-0.92071-0.24637-0.12054-0.56745-0.35527-0.71351-0.52163-0.22138-0.25214-0.2613-0.36078-0.23985-0.65278l0.0257-0.35029-0.33745-0.0203c-0.71984-0.0434-1.6234-0.21794-1.9692-0.38042-0.72047-0.33861-0.87975-0.89571-0.49334-1.7256 0.22655-0.48656 0.47767-0.62533 1.1316-0.62533 0.35331 0 0.37435-0.0126 0.31915-0.1905-0.1719-0.55417-0.29683-1.1576-0.298-1.4393l-1e-3 -0.3175h-5.5058l-0.16984-0.27516c-0.09341-0.15134-0.19254-0.37042-0.22029-0.48684-0.02774-0.11641-0.19352-0.51646-0.36838-0.889-0.17487-0.37253-0.47853-1.2679-0.67481-1.9897-0.19628-0.72179-0.46786-1.6305-0.60353-2.0194-0.44473-1.275-0.34676-1.4265 0.83548-1.2921 0.40601 0.0461 0.9287 0.12554 1.1615 0.17644l0.42333 0.0925 0.46412 1.4578c0.25527 0.80178 0.58165 1.8007 0.7253 2.2198l0.26118 0.762h0.6263c0.60932 0 0.62654-6e-3 0.6349-0.21167 0.02214-0.54506 0.04412-0.5815 0.55751-0.92433 0.5821-0.38871 0.86154-0.4267 1.3874-0.18859 0.33013 0.1495 0.97366 0.15772 0.97366 0.0124 0-0.0363 0.50483-0.0917 1.1218-0.12318 0.73869-0.0377 1.4019-0.12765 1.9418-0.26344 0.45096-0.11343 0.94927-0.20623 1.1074-0.20623 0.26365 0 0.30439-0.0364 0.4924-0.4401 0.21097-0.45296 0.86104-1.419 1.1567-1.7189 0.12026-0.12198 0.17941-0.32856 0.21153-0.73872 0.0343-0.43842 0.12647-0.73697 0.40053-1.2979 0.19576-0.4007 0.33373-0.75073 0.30661-0.77786-0.0271-0.0271-0.14653-5e-3 -0.26533 0.0491-0.31594 0.14395-0.94086 0.11926-1.5204-0.0601-0.53337-0.16505-1.0569-0.43231-1.0578-0.54-2.6e-4 -0.0349-0.16887-0.0635-0.37461-0.0635-0.20575 0-0.43435-0.0231-0.508-0.0514-0.19206-0.0737-0.16838-0.52606 0.0459-0.87762 0.16757-0.27488 0.1697-0.29968 0.0328-0.381-0.39036-0.23197-0.54284-0.40604-0.56733-0.6477-0.0252-0.2484-0.038-0.23679-0.28038 0.25466-0.16527 0.33504-0.30576 0.51542-0.40217 0.51632-0.17931 2e-3 -0.19266-0.27558-0.0526-1.0923 0.11275-0.65751 0.33682-1.1388 0.61504-1.3211 0.11024-0.0722 0.31684-0.34901 0.45912-0.61507 0.60551-1.1323 1.6588-1.7114 3.1124-1.7114 0.64448 0 0.87239 0.0346 1.1454 0.17387 0.42478 0.2167 0.74615 0.52399 1.0416 0.99588l0.22874 0.36542 0.15278-0.19608c0.23586-0.30274 0.41039-0.67901 0.47521-1.0245 0.0753-0.40153 0.24169-0.40387 0.34273-5e-3l0.0784 0.30976 0.26622-0.2251c0.21233-0.17953 0.35372-0.2251 0.6985-0.2251 0.50293 0 0.56931 0.13764 0.19944 0.41359l-0.23283 0.17372 0.254 4e-3c0.3067 4e-3 1.0516 0.33896 1.2277 0.55166 0.0936 0.11307 0.1349 0.42985 0.15704 1.2049 0.0237 0.82799 0.0565 1.0616 0.15473 1.0993 0.0686 0.0263 0.18841-0.0168 0.26629-0.0959 0.13238-0.13439 0.13195-0.15092-7e-3 -0.25375-0.36587-0.27161 0.0545-0.43115 0.43459-0.16493 0.17994 0.12604 0.19427 0.18813 0.16458 0.71344-0.0237 0.41893-0.0774 0.62504-0.1977 0.75794-0.17966 0.19851-0.65085 0.42256-0.88867 0.42256-0.13168 0-0.13767 0.032-0.0515 0.27517 0.0536 0.15134 0.20148 0.44983 0.32853 0.66332 0.29123 0.48939 0.48322 1.1157 0.48441 1.5803 8.4e-4 0.34358-0.0106 0.35984-0.25309 0.35984-0.1397 0-0.254 0.0118-0.254 0.0263 0 0.0144 0.19398 0.50021 0.43107 1.0795 0.88355 2.1588 1.4657 5.6848 1.1444 6.9313-0.15201 0.58971-0.11692 0.6797 0.26605 0.68231 0.15834 1e-3 0.1904 0.0478 0.18993 0.27646-8.5e-4 0.40696-0.43372 0.68359-1.0068 0.64342l-0.42198-0.0296-0.10509 0.381c-0.0578 0.20955-0.19339 0.5486-0.30133 0.75345-0.10793 0.20484-0.19624 0.41915-0.19624 0.47625 0 0.12807 0.38318 0.20964 0.98481 0.20964 0.8391 0 2.162 0.24332 2.6559 0.48849 0 0 0.28529 0.12471 0.4072 0.24787 0.12433 0.1256 0.22748 0.34517 0.19749 0.63593-0.0381 0.36899-0.12673 0.51526-0.41016 0.82199-0.36692 0.36487-1.1988 0.67358-2.3958 0.88914-1.439 0.25912-4.9352 0.49368-6.2653 0.42033zm3.8523-0.4206c3.4808-0.29974 4.9673-0.86787 4.8549-1.8555-0.0242-0.2128-0.10445-0.2915-0.49458-0.48518-0.51231-0.25433-1.8245-0.48849-2.7375-0.48849h-0.53726l0.0784 0.51762c0.0431 0.28469 0.0465 0.54856 8e-3 0.58639-0.0389 0.0378-0.39467 0.21446-0.79048 0.39254-0.7173 0.32272-0.72385 0.32387-1.9897 0.35003-1.605 0.0332-2.5072-0.11277-3.3721-0.54549-0.85328-0.42691-0.98044-0.68543-0.60726-1.2346 0.28379-0.41764 0.27133-0.50684-0.0635-0.45434-0.15135 0.0237-0.56092 0.0864-0.91017 0.13933-1.2758 0.19324-1.577 0.2537-2.125 0.42649-0.67129 0.21169-0.98352 0.44682-1.0886 0.81973-0.0692 0.24577-0.0487 0.31167 0.1764 0.5681 0.38611 0.43976 1.022 0.70212 2.369 0.97744 2.4353 0.49775 4.0352 0.56102 7.2298 0.28592zm0.14816-1.5951c0.8781-0.39243 0.85207-0.295 0.4802-1.7979-0.22828-0.92255-0.3475-1.281-0.67132-2.0185-0.14436-0.32876-0.52076-1.2719-0.56598-1.4182-0.0332-0.10731 1e-3 -0.14817 0.12511-0.14817 0.11416 0 0.20693 0.0914 0.27934 0.27517 0.0596 0.15134 0.15891 0.38947 0.22062 0.52917 0.10665 0.24144 0.10989 0.23168 0.0654-0.19745-0.0417-0.40201-0.0302-0.44829 0.10517-0.4226 0.11638 0.0221 0.16193 0.1332 0.19434 0.47403 0.0373 0.39207 0.0754 0.46522 0.31955 0.6131 0.15246 0.0923 0.32936 0.16792 0.3931 0.16792 0.0637 0 0.1361 0.0526 0.16079 0.11699 0.0247 0.0643 0.23953 0.16369 0.4774 0.22076 0.40493 0.0971 0.4511 0.091 0.72451-0.0958l0.292-0.19959-0.2735-0.0565c-0.34083-0.0705-0.8369-0.6114-1.1755-1.2818-0.28693-0.56808-0.9606-1.637-1.1529-1.8293-0.34593-0.34593-1.2685-0.58296-1.6743-0.43017-0.59245 0.22309-1.4124 1.2733-2.0629 2.6422-0.23703 0.49883-0.43097 0.93244-0.43097 0.96359 0 0.0312-0.17688 0.40406-0.39307 0.82868-0.21619 0.42461-0.4829 1.0359-0.59269 1.3584-0.10979 0.32252-0.25931 0.6775-0.33226 0.78884-0.10229 0.15611-0.11011 0.22958-0.0342 0.32107 0.16388 0.19747 0.85809 0.55192 1.3522 0.69042 0.83166 0.23312 1.1255 0.26538 2.286 0.25096 1.1331-0.0141 1.1494-0.0171 1.8838-0.3453zm-9.8742-0.93947c0.31394-0.21304 1.3909-0.57526 2.0097-0.67594l0.32698-0.0532-0.18346-0.19529c-0.10091-0.10741-0.32425-0.25628-0.49632-0.33082-0.34629-0.15003-2.5007-0.60453-3.2874-0.69354-0.83705-0.0947-1.225 0.17195-1.4264 0.98054-0.1096 0.43993 0.46871 0.86743 1.4376 1.0627 0.84974 0.17125 1.2633 0.14713 1.6193-0.0944zm2.7779-0.79371c0.0258-0.0417-8e-3 -0.0969-0.0754-0.12268-0.0815-0.0313-0.10653-6e-3 -0.0751 0.0758 0.0546 0.14222 0.0856 0.15189 0.15048 0.0469zm1.3136-0.18522c0.24708-0.053 0.4275-0.13809 0.4275-0.20165 0-0.0605 0.18561-0.48595 0.41247-0.94549 0.80148-1.6235 0.9002-1.8874 0.75879-2.0289-0.0981-0.0981-0.17711-0.10648-0.35778-0.0378-0.12751 0.0485-0.33799 0.0881-0.46774 0.0881-0.35522 0-2.0554-0.45643-3.0127-0.80882-0.46567-0.1714-1.0691-0.38339-1.341-0.47108-0.62763-0.20241-1.3058-0.20652-1.5479-9e-3 -0.2827 0.23026-0.61888 0.88434-0.67865 1.3204-0.0534 0.38961-0.046 0.40664 0.33628 0.77292 0.39888 0.3822 1.1964 0.80161 2.5112 1.3207 0.39559 0.15617 1.0623 0.46102 1.4817 0.67744 0.85961 0.44367 0.88826 0.44994 1.4779 0.32348zm6.8261-1.1544c0.078-0.31303 0.0764-0.31581-0.30144-0.50663-0.59133-0.29868-0.59723-0.29935-0.50541-0.0579 0.14629 0.38479 0.26739 0.58072 0.45069 0.7292 0.2486 0.20137 0.26708 0.19283 0.35616-0.16471zm-11.16-0.0617c-0.36014-0.15806-0.77191-0.37076-0.91504-0.47268s-0.27428-0.17127-0.29144-0.15411c-0.0172 0.0172 0.0134 0.17372 0.0679 0.3479 0.0793 0.25327 0.14161 0.31744 0.31124 0.3204 0.11666 2e-3 0.44071 0.0553 0.72011 0.11832 0.79246 0.17882 0.81211 0.14953 0.1072-0.15983zm12.297-2.1277c0.10273-0.49136-8e-3 -1.9727-0.22108-2.9551-0.38588-1.7799-0.63367-2.6651-0.92475-3.3037-0.0637-0.1397-0.28482-0.63939-0.49144-1.1104-0.67017-1.5279-1.1364-2.0986-1.8983-2.3237-0.38871-0.11485-0.86442-0.0273-1.2601 0.23197-0.23115 0.15146-0.91334 1.291-1.1443 1.9114-0.0909 0.24424-0.23691 0.59989-0.32442 0.79034-0.1587 0.34536-0.54897 1.4271-1.0358 2.8711-0.14132 0.4191-0.32163 0.93345-0.4007 1.143l-0.14377 0.381-2.533 0.065c-2.7578 0.0708-2.7943 0.0781-2.8496 0.57002-0.0237 0.21103-0.0211 0.21182 0.86522 0.26337 0.79803 0.0464 1.0103 0.0971 2.0743 0.4951 0.65193 0.24388 1.6157 0.55298 2.1417 0.68691 0.9056 0.23058 0.97361 0.23659 1.2818 0.11328 0.32648-0.13064 0.69532-0.54614 1.3836-1.5587 0.1741-0.25612 0.38138-0.56092 0.4606-0.67734 0.0792-0.11641 0.28743-0.38714 0.46268-0.60162 0.35584-0.43552 1.235-1.788 1.5214-2.3405 0.19854-0.38298 0.41052-0.47672 0.41052-0.18153 0 0.22008-0.94553 1.8027-1.5458 2.5873-0.24416 0.31914-0.55594 0.73231-0.69287 0.91815l-0.24894 0.33789 0.42978-0.39652c0.27932-0.25769 0.53947-0.41709 0.74311-0.45529 0.6311-0.1184 1.6593 0.12604 2.0115 0.47818 0.18481 0.18481 0.85893 1.2484 1.1289 1.7812 0.12454 0.24577 0.30533 0.55357 0.40177 0.68401 0.20784 0.28111 0.26716 0.22078 0.39794-0.40473zm-6.012-0.12049c0-0.0466-0.0404-0.0847-0.0897-0.0847s-0.0661 0.0381-0.0373 0.0847 0.0691 0.0847 0.0897 0.0847c0.0205 0 0.0373-0.0381 0.0373-0.0847zm-7.9587-0.16933c0-0.16563-0.0564-0.16933-2.5823-0.16933-2.1715 0-2.5823 0.0191-2.5823 0.11994 0 0.066 0.04762 0.13916 0.10583 0.16265 0.05821 0.0235 1.2203 0.0457 2.5823 0.0494 2.4223 7e-3 2.4765 3e-3 2.4765-0.16265zm-5.7387-0.94933c-0.34806-0.82431-0.94078-2.5463-1.1741-3.411-0.0754-0.2794-0.1528-0.46467-0.17201-0.41171-0.0653 0.18001 0.67113 2.61 1 3.2998 0.1801 0.37771 0.32745 0.72885 0.32745 0.78029 0 0.15561 0.28962 0.71208 0.32124 0.61722 0.01618-0.0485-0.11998-0.44212-0.3026-0.8746zm2.5214 0.36065c0-0.20283 0.15938-0.58786 0.32583-0.78715 0.11461-0.13723 0.09757-0.14817-0.23076-0.14817-0.47797 0-0.8111 0.16344-1.3651 0.66971l-0.46567 0.42557 0.86783 3e-3c0.80534 2e-3 0.86783-9e-3 0.86783-0.16265zm1.1007-0.0604c0-0.24821-0.0151-0.24491-0.16084 0.0353-0.08214 0.15787-0.07685 0.1905 0.03087 0.1905 0.0844 0 0.12998-0.0792 0.12998-0.22578zm1.1007 0.18642c0-0.0216-0.0762-0.0801-0.16933-0.12998-0.13516-0.0723-0.16934-0.0644-0.16934 0.0394 0 0.0735 0.0735 0.12998 0.16934 0.12998 0.0931 0 0.16933-0.0177 0.16933-0.0394zm-0.59267-0.38897c0-0.16489-0.0429-0.24901-0.127-0.24901-0.12805 0-0.18553 0.42125-0.0729 0.53393 0.10246 0.10246 0.19985-0.0364 0.19985-0.28492zm1.4393-0.28739c0-0.25067 0.0214-0.51164 0.0476-0.57992 0.0669-0.17429-0.62569-0.3977-1.2329-0.3977h-0.47772l-0.45969 0.56935c-0.53948 0.66818-0.62434 0.83743-0.45285 0.90323 0.08443 0.0324 0.16452-0.056 0.25453-0.28097 0.14192-0.3547 0.28386-0.42657 0.84616-0.42845 0.28014-9.4e-4 0.36642 0.0379 0.45592 0.20511 0.0607 0.11345 0.24485 0.30194 0.4092 0.41888 0.43436 0.30905 0.60969 0.19128 0.60969-0.40953zm-4.2118-0.27825 0.31783-0.27144-0.55828-1.7168c-0.30706-0.94423-0.62153-1.9155-0.69883-2.1584-0.13724-0.4312-0.15054-0.44383-0.56389-0.53518-0.23283-0.0515-0.62973-0.11589-0.882-0.14319-0.37258-0.0403-0.45043-0.0273-0.4148 0.0695 0.02412 0.0655 0.18449 0.55729 0.35637 1.0928 0.7432 2.3155 1.0242 3.1317 1.3025 3.7827l0.29594 0.69233 0.26366-0.27042c0.14501-0.14874 0.40668-0.39258 0.58149-0.54187zm4.7608 0.65748c0.0834-0.13488 0.10513-1.1875 0.0246-1.1875-0.10201 0-0.31955 0.541-0.31955 0.79469 0 0.38654 0.16394 0.60485 0.29499 0.39282zm-0.46433-1.6955c0-0.19267-0.0387-0.254-0.16008-0.254-0.0881 0-0.32606-0.0743-0.52891-0.16513l-0.36882-0.16512-0.37996 0.22267c-0.20898 0.12247-0.446 0.28419-0.5267 0.35937-0.13564 0.12637-0.0987 0.13211 0.48938 0.0759 0.44513-0.0425 0.74298-0.0271 0.9921 0.0514 0.49336 0.15542 0.48299 0.1581 0.48299-0.12511zm0.43941-0.0423c-0.019-0.16298-0.0685-0.29633-0.11-0.29633s-0.0754 0.13335-0.0754 0.29633c0 0.18661 0.0407 0.29634 0.11 0.29634 0.0759 0 0.0993-0.092 0.0754-0.29634zm5.4514 0.17063c0.097-0.0288 0.24199-0.3943 0.53976-1.3607 0.16645-0.54019 0.17453-0.65226 0.0843-1.1702l-0.0997-0.57275-0.39243 0.53956c-0.21584 0.29677-0.48467 0.73762-0.59741 0.97967-0.18801 0.40368-0.22875 0.4401-0.4924 0.4401-0.15809 0-0.6564 0.0928-1.1074 0.20623-0.53869 0.13548-1.2028 0.22574-1.9362 0.26313-1.2111 0.0617-1.2503 0.0804-1.1563 0.55006l0.0511 0.25557 2.5078-0.0518c1.3793-0.0285 2.5488-0.064 2.5989-0.0789zm1.2401-3.3033c0.11966-0.37254 0.31227-0.88689 0.42803-1.143 0.11575-0.25612 0.23887-0.56092 0.27359-0.67734 0.0347-0.11641 0.13932-0.36406 0.23245-0.55033l0.16932-0.33867-0.49769 0.46567c-0.84905 0.79444-0.88049 0.84795-0.96193 1.6373-0.0736 0.71315-0.028 1.4801 0.0805 1.3523 0.032-0.0377 0.15611-0.3734 0.27577-0.74593zm-14.446-0.23537c-0.05663-0.22253-0.12612-0.38144-0.15443-0.35314-0.02831 0.0283 0.0066 0.22197 0.07764 0.43037 0.16611 0.4875 0.20942 0.44395 0.07679-0.0772zm20.269-1.8571c0-0.2431-0.29041-1.0223-0.51019-1.3688-0.1385-0.21838-0.25181-0.4648-0.25181-0.54761 0-0.24344-0.43229-0.5827-0.82352-0.64629-0.47666-0.0775-0.87765-0.35684-1.0673-0.74356-0.21439-0.43723-0.49768-0.4134-0.58357 0.0491-0.0438 0.23585-0.0406 0.23785 0.29161 0.18173 0.50611-0.0855 0.40198 0.18467-0.14556 0.37765-0.53317 0.18792-1.3889 0.77167-1.6566 1.13-0.11234 0.1504-0.35257 0.50161-0.53386 0.78047l-0.3296 0.50701 0.5568-0.52086c0.30624-0.28647 0.72724-0.63812 0.93553-0.78144 0.53886-0.37073 1.6576-0.6451 1.7857-0.43791 0.0266 0.043 0.16665 0.10415 0.31131 0.13592 0.37432 0.0822 0.99518 0.74985 1.3437 1.4449 0.25287 0.5043 0.32427 0.58597 0.48683 0.55679 0.10478-0.0188 0.1905-0.0715 0.1905-0.11713zm-6.0067-1.323c0.58011-0.37032 1.1246-1.0028 1.0564-1.2271-0.0307-0.101-0.0774-0.34556-0.10375-0.54347-0.0412-0.30949-0.0762-0.35983-0.25014-0.35983-0.16797 0-0.25207 0.1051-0.49699 0.62108-0.16214 0.34159-0.2948 0.66544-0.2948 0.71966 0 0.0542-0.0621 0.0986-0.13793 0.0986-0.1209 0-0.13063-0.0837-0.0788-0.67795 0.0388-0.4446 0.0225-0.84532-0.0473-1.1642l-0.10645-0.48621-0.0597 0.42333c-0.0722 0.51204-0.212 0.889-0.32972 0.889-0.0477 0-0.0868 0.0762-0.0868 0.16934 0 0.40349-0.73391-0.0219-1.2873-0.74613l-0.27901-0.36512-0.0266 0.30663c-0.0171 0.19734 0.0357 0.41219 0.14817 0.6028 0.25843 0.43802 0.23312 0.56857-0.10043 0.5179-0.34654-0.0526-0.5349 0.0449-0.69881 0.36185-0.12518 0.24207-0.12264 0.25119 0.0844 0.30316 0.13366 0.0335 0.29125 3e-3 0.42154-0.0828 0.28659-0.18778 0.38336-0.17105 0.38336 0.0663 0 0.35884 0.42237 0.40944 0.80433 0.0964 0.24126-0.19776 0.24444-0.20836 0.0635-0.21125-0.11153-2e-3 -0.1905-0.0557-0.1905-0.13005 0-0.13435 0.52508-0.17683 0.91017-0.0736 0.25518 0.0684 0.24598 0.2853-0.0121 0.2853-0.11143 0-0.22445 0.0569-0.25115 0.12652-0.0267 0.0696-0.17152 0.20129-0.32181 0.29269-0.18724 0.11387-0.23478 0.17854-0.15101 0.20544 0.0672 0.0216 0.23655 0.0774 0.37625 0.12396 0.42489 0.14167 0.66946 0.10894 1.0629-0.14223zm2.2724-1.5053c0.0183-0.0156-0.0388-0.0538-0.127-0.0849-0.0881-0.031-0.3031-0.19201-0.47766-0.35772-0.24223-0.22994-0.34081-0.27783-0.41638-0.20227-0.0755 0.0755-0.0756 0.17726 0 0.42905 0.0544 0.18153 0.0989 0.44972 0.0989 0.596v0.26595l0.4445-0.30882c0.24448-0.16986 0.45948-0.32164 0.47779-0.33729zm3.4083-0.0678c0.35806-0.14961 0.54866-0.35667 0.6299-0.68432 0.0559-0.22563 0.0479-0.2416-0.0718-0.14299-0.0789 0.065-0.28657 0.10008-0.50087 0.0847l-0.3661-0.0263-0.0431-1.0674c-0.049-1.2142-0.0743-1.2694-0.71893-1.5699-0.49248-0.22961-0.70871-0.24686-0.93632-0.0747-0.24406 0.1846-0.37601 0.15583-0.37601-0.082 0-0.11641 0.0381-0.21166 0.0847-0.21166s0.0847-0.0456 0.0847-0.10128c0-0.0557-0.13083 0.0255-0.29075 0.18054-0.1818 0.1762-0.34044 0.26274-0.42333 0.23093-0.0729-0.028-0.13258-0.0193-0.13258 0.0192 0 0.0386-0.13298 0.23738-0.29551 0.44184-0.28902 0.36358-0.34389 0.53247-0.25133 0.77367 0.0344 0.0897 0.16194 0.1098 0.51193 0.0808 0.57572-0.0477 0.64919 0.0307 0.84676 0.90402 0.0935 0.41344 0.21637 0.70814 0.36324 0.87138 0.4015 0.44628 1.2901 0.62232 1.8855 0.37355zm-8.4648-0.66698c-0.0216-0.42733 9e-3 -0.71433 0.0999-0.93134 0.15748-0.37688 0.38551-0.42377 0.37565-0.0772-4e-3 0.13003 0.0412 0.32603 0.0999 0.43555 0.12008 0.22436 0.75813 0.93665 0.83915 0.93677 0.029 5e-5 0.0396-0.38095 0.0236-0.84666-0.0238-0.6928-7e-3 -0.84675 0.0924-0.84675 0.0755 0 0.18255 0.20059 0.2825 0.52916l0.16098 0.52917 0.0548-0.44396c0.0807-0.65375 0.14809-0.86837 0.27281-0.86837 0.12335 0 0.37757 0.81881 0.45397 1.4622 0.0419 0.35299 0.0613 0.38485 0.15373 0.25286 0.16691-0.2383 0.37852-1.0351 0.37523-1.4129-2e-3 -0.18946-0.0575-0.43972-0.124-0.55613-0.16537-0.28929-0.15627-0.42334 0.0288-0.42334 0.19089 0 0.35225 0.33149 0.35225 0.72365 0 0.19996 0.0391 0.29235 0.1237 0.29235 0.18227 0 0.45229 0.32401 0.51752 0.62097 0.0565 0.25714 0.74243 0.97757 0.93722 0.98434 0.20358 7e-3 0.27895-0.70608 0.10833-1.0249-0.14208-0.26547-0.35986-0.49574-0.46886-0.49574-0.12681 0-0.20191-0.19733-0.20191-0.53053 0-0.58497-0.65349-1.483-1.3301-1.8278-0.64862-0.33055-1.6606-0.21532-2.6069 0.29683-0.42163 0.22821-0.885 0.7213-1.1586 1.2329-0.14228 0.26606-0.34888 0.54284-0.45912 0.61507-0.21512 0.14095-0.54127 0.70833-0.54127 0.94162 0 0.0879 0.0808 0.0231 0.21167-0.16972 0.11641-0.17155 0.21166-0.34832 0.21166-0.39282s0.0554-0.0809 0.12314-0.0809c0.0931 0 0.12924 0.1393 0.14816 0.57069l0.025 0.57069 0.42236 0.27597c0.2323 0.15179 0.42354 0.27598 0.42498 0.27598 1e-3 0-0.0114-0.27795-0.0286-0.61766zm3.8667-0.34597c0.031-0.16304-0.13957-0.56037-0.2405-0.56037-0.0309 0-0.0958 0.17352-0.14434 0.38559-0.0881 0.38501-0.0879 0.38556 0.13318 0.35984 0.13699-0.0159 0.23295-0.0865 0.25166-0.18506zm2.0409-0.24287c-0.12394-0.44015-0.26649-0.65617-0.433-0.65617-0.18553 0-0.19173 0.0714-0.0253 0.29135 0.0684 0.0904 0.12431 0.27137 0.12431 0.40217 0 0.19541 0.0367 0.23782 0.20576 0.23782 0.19158 0 0.20042-0.0189 0.12827-0.27517z"/>
  </g>
 </g>
</svg>
