<?xml version="1.0" encoding="UTF-8" standalone="no"?>
<svg
   xmlns:dc="http://purl.org/dc/elements/1.1/"
   xmlns:cc="http://creativecommons.org/ns#"
   xmlns:rdf="http://www.w3.org/1999/02/22-rdf-syntax-ns#"
   xmlns:svg="http://www.w3.org/2000/svg"
   xmlns="http://www.w3.org/2000/svg"
   xmlns:sodipodi="http://sodipodi.sourceforge.net/DTD/sodipodi-0.dtd"
   xmlns:inkscape="http://www.inkscape.org/namespaces/inkscape"
   width="116.19122"
   height="24.299438"
   viewBox="0 0 30.742258 6.4292264"
   version="1.1"
   id="svg2028"
   inkscape:version="1.0.1 (3bc2e813f5, 2020-09-07)"
   sodipodi:docname="name1.svg">
  <defs
     id="defs2022" />
  <sodipodi:namedview
     id="base"
     pagecolor="#ffffff"
     bordercolor="#666666"
     borderopacity="1.0"
     inkscape:pageopacity="0.0"
     inkscape:pageshadow="2"
     inkscape:zoom="7.919596"
     inkscape:cx="39.631944"
     inkscape:cy="32.321244"
     inkscape:document-units="mm"
     inkscape:current-layer="layer1"
     inkscape:document-rotation="0"
     showgrid="false"
     inkscape:window-width="1920"
     inkscape:window-height="1017"
     inkscape:window-x="-8"
     inkscape:window-y="-8"
     inkscape:window-maximized="1"
     units="px"
     inkscape:snap-global="false" />
  <metadata
     id="metadata2025">
    <rdf:RDF>
      <cc:Work
         rdf:about="">
        <dc:format>image/svg+xml</dc:format>
        <dc:type
           rdf:resource="http://purl.org/dc/dcmitype/StillImage" />
        <dc:title></dc:title>
      </cc:Work>
    </rdf:RDF>
  </metadata>
  <g
     inkscape:label="Layer 1"
     inkscape:groupmode="layer"
     id="layer1"
     transform="translate(-70.214963,-107.66126)">
    <g
       id="g2605">
      <path
         style="fill:#ffffff;stroke-width:0.0846667"
         d="m 84.416968,114.07683 c -0.39326,-0.0254 -0.397073,-0.0502 -0.395692,-0.21479 8.64e-4,-0.10234 0.13875,-0.51907 0.299205,-0.86832 0.28544,-0.6213 0.288306,-0.63845 0.132799,-0.79462 -0.155695,-0.15637 -0.165559,-0.1555 -0.483409,0.0423 -0.890121,0.55402 -1.742944,0.70758 -2.575484,0.46374 -0.39805,-0.11659 -0.501128,-0.18972 -0.656167,-0.46558 -0.23366,-0.41574 -0.240357,-0.91057 -0.01556,-1.14985 0.15397,-0.16389 0.159924,-0.2195 0.06961,-0.65008 -0.124,-0.59117 -0.01472,-0.89631 0.453919,-1.26748 0.504883,-0.39988 1.200603,-0.58113 2.230594,-0.58113 0.914622,0 1.140709,0.0808 1.142113,0.40821 3.39e-4,0.0782 0.15593,0.24137 0.345767,0.36268 l 0.345158,0.22055 0.549858,-0.36872 c 0.485692,-0.32569 0.605121,-0.36872 1.0234,-0.36872 0.33218,0 0.522413,0.0442 0.637255,0.14817 0.117247,0.10611 0.316343,0.15036 0.701462,0.15589 0.295761,0.004 0.590924,0.0519 0.655918,0.1058 0.08796,0.073 0.187119,0.074 0.387845,0.004 0.384133,-0.13391 1.398011,-0.0627 1.590728,0.11168 0.111247,0.10067 0.19525,0.11692 0.300362,0.0581 0.243178,-0.13609 1.208219,-0.19184 1.508544,-0.0871 0.194781,0.0679 0.307205,0.0697 0.383732,0.006 0.05953,-0.0494 0.311065,-0.0829 0.558966,-0.0744 0.247901,0.008 0.583828,-0.0273 0.746504,-0.0795 0.502853,-0.16129 0.864518,-0.11804 1.187768,0.14206 0.254883,0.20509 0.352864,0.23253 0.729044,0.20417 l 0.434588,-0.0328 0.05637,-0.437 c 0.11565,-0.89658 0.197172,-1.07101 0.582267,-1.24584 0.19517,-0.0886 0.493286,-0.16194 0.66248,-0.16296 0.37495,-0.002 0.409248,0.0878 0.410886,1.07934 l 0.0012,0.70021 0.788687,-0.0554 c 1.165335,-0.0819 1.492845,0.10791 1.496155,0.86716 6.8e-4,0.14564 0.0583,0.31223 0.12816,0.3702 0.18663,0.15489 0.15967,0.69763 -0.0477,0.96131 -0.29496,0.37499 -1.868799,1.40936 -2.144389,1.40936 -0.09219,0 -0.247831,-0.0754 -0.345865,-0.16745 -0.1826,-0.17155 -0.220443,-0.17455 -1.949337,-0.15471 -0.562377,0.006 -1.523271,-0.0635 -1.964003,-0.14289 -0.283323,-0.0511 -0.385114,-0.0343 -0.502273,0.0829 -0.114505,0.11451 -0.230408,0.1355 -0.525122,0.0951 -0.208002,-0.0285 -0.43206,-0.0965 -0.497906,-0.15119 -0.09279,-0.077 -0.213377,-0.0657 -0.53611,0.0504 -0.301688,0.10849 -0.550938,0.1364 -0.904822,0.10134 -0.611307,-0.0606 -0.645464,-0.0606 -1.189097,-3.3e-4 -0.331896,0.0368 -0.499733,0.0147 -0.653188,-0.0858 -0.264013,-0.17298 -0.4998,-0.1722 -0.644497,0.002 -0.09431,0.11363 -0.209852,0.12699 -0.666534,0.077 -0.303846,-0.0332 -0.628648,-0.0526 -0.721781,-0.0429 -0.09313,0.01 -0.302684,0.0226 -0.465667,0.0288 -0.244844,0.009 -0.342439,0.074 -0.56168,0.37223 -0.145941,0.19851 -0.31269,0.47522 -0.370552,0.61491 -0.05881,0.14198 -0.178582,0.35245 -0.27908,0.37245 -0.333457,0.0664 -1.139444,0.0653 -1.439435,0.0312 z M 73.03874,112.64244 c -0.136558,-0.0865 -0.318661,-0.31902 -0.404674,-0.5168 -0.08601,-0.19777 -0.165226,-0.37274 -0.176029,-0.38881 -0.0108,-0.0161 -0.131758,-0.005 -0.26879,0.0255 -0.188729,0.0414 -0.287158,0.14093 -0.405884,0.41022 -0.199396,0.45226 -0.242427,0.47964 -0.756403,0.4812 -1.016303,0.003 -1.057177,-0.45513 -0.242569,-2.71938 0.30769,-0.85524 0.618395,-1.62166 0.690455,-1.70315 0.09399,-0.10629 0.258926,-0.14817 0.583564,-0.14817 0.413409,0 0.481197,0.0286 0.783874,0.33133 0.315879,0.31588 0.333521,0.3226 0.378322,0.1441 0.0542,-0.21597 0.615081,-0.5601 0.912871,-0.5601 0.396956,0 0.832811,0.49663 0.832811,0.94893 0,0.19016 0.0178,0.19452 0.672255,0.1648 0.480486,-0.0218 0.745156,0.006 0.927811,0.097 0.218773,0.10914 0.269739,0.11039 0.354111,0.009 0.174771,-0.21058 0.684058,-0.14493 0.972389,0.12535 l 0.259566,0.24332 0.194604,-0.20219 c 0.402065,-0.41774 0.893081,-0.34677 1.135523,0.16414 0.211471,0.44564 0.177994,0.69225 -0.13349,0.98336 l -0.273898,0.25598 0.358564,0.36535 c 0.289091,0.29456 0.358565,0.42508 0.358565,0.67362 0,0.59763 -0.791994,1.15791 -1.104503,0.78136 -0.250718,-0.30209 -0.404648,-0.31006 -0.795476,-0.0412 -0.42087,0.28956 -0.913021,0.34313 -1.15346,0.12553 -0.131993,-0.11945 -0.175618,-0.11945 -0.461506,0 -0.359597,0.15025 -1.105392,0.17374 -1.442842,0.0454 -0.150068,-0.0571 -0.261774,-0.058 -0.328263,-0.003 -0.17617,0.14621 -1.191505,0.0821 -1.467498,-0.0926 z"
         id="path2609"
         sodipodi:nodetypes="ccsccccsccscccssccccccccccsccsscccccccscccccccccccccccsccccccccccssccsscccccssscsscccccccc" />
      <path
         style="display:inline;fill:#000501;stroke-width:0.0846667"
         d="m 84.823353,113.98071 c -0.02399,-0.0625 0.07245,-0.47604 0.214323,-0.91892 0.14187,-0.44289 0.257945,-0.84649 0.257945,-0.89688 0,-0.0504 -0.228877,-0.40841 -0.508616,-0.79558 -0.576464,-0.79785 -0.672851,-1.04043 -0.487179,-1.2261 0.112656,-0.11266 0.186427,-0.0527 0.660299,0.53633 0.293411,0.36474 0.55647,0.69069 0.584578,0.72435 0.02811,0.0337 0.215622,-0.31877 0.416699,-0.78317 0.358117,-0.82709 0.439834,-0.91903 0.681073,-0.76631 0.09721,0.0615 -0.01732,0.43988 -0.621157,2.05187 -0.407189,1.08703 -0.779813,2.02404 -0.828054,2.08225 -0.115442,0.1393 -0.315074,0.13506 -0.369911,-0.008 z m -11.868504,-2.42925 -0.310453,-0.69031 -0.299554,0.0495 c -0.578281,0.0956 -0.934554,0.22893 -0.934554,0.34963 0,0.0667 -0.06129,0.27447 -0.136193,0.46168 -0.139243,0.348 -0.412675,0.46837 -0.506794,0.2231 -0.02475,-0.0645 0.185992,-0.73855 0.468323,-1.49787 0.282332,-0.75933 0.51333,-1.4282 0.51333,-1.48639 0,-0.15909 0.153675,-0.22274 0.392843,-0.16272 0.167985,0.0422 0.284904,0.2074 0.544812,0.76997 0.323223,0.69962 0.337841,0.71629 0.627969,0.71629 0.260401,0 0.297043,0.0261 0.297043,0.21167 0,0.17081 -0.04195,0.21167 -0.217372,0.21167 -0.252172,0 -0.238287,0.10461 0.104372,0.78634 0.215023,0.42779 0.206693,0.51222 -0.06488,0.65756 -0.153478,0.0821 -0.196028,0.0288 -0.478896,-0.60016 z m -0.827185,-1.05991 c 0.269307,-0.11252 0.307354,-0.16085 0.263664,-0.33493 -0.07927,-0.31585 -0.220395,-0.66126 -0.255279,-0.62481 -0.09261,0.0968 -0.449406,1.09124 -0.391503,1.09124 0.03762,0 0.21002,-0.0592 0.383118,-0.1315 z m 26.411235,1.59613 c -0.07773,-0.12323 -0.02105,-0.17705 0.3924,-0.37258 0.776266,-0.36712 0.800946,-0.57311 0.04999,-0.41721 -0.388642,0.0807 -0.508842,0.0754 -0.71562,-0.0315 -0.813019,-0.42043 0.127629,-1.4053 1.342198,-1.4053 0.412963,0 0.504423,0.0769 0.504423,0.42414 0,0.13851 -0.0521,0.15091 -0.458136,0.10901 -0.525731,-0.0543 -0.827867,0.003 -1.017608,0.19269 -0.25719,0.25719 -0.15181,0.30053 0.585344,0.24071 0.762882,-0.0619 0.97506,0.005 0.97506,0.30732 0,0.24457 -0.392235,0.64282 -0.865269,0.87855 -0.513373,0.25582 -0.669029,0.27039 -0.792778,0.0742 z m -24.694337,-1.40113 c -0.02508,-0.80328 -0.05918,-1.51167 -0.07577,-1.57421 -0.03347,-0.12617 0.226903,-0.33477 0.311841,-0.24984 0.121431,0.12143 0.212993,0.76682 0.264359,1.86336 0.05707,1.21838 0.0131,1.42119 -0.308129,1.42119 -0.131714,0 -0.15135,-0.14913 -0.192298,-1.4605 z m 1.208133,1.36601 c -0.500176,-0.19956 -0.669147,-0.58352 -0.512616,-1.16483 0.26577,-0.98699 1.499858,-1.40006 2.17269,-0.72723 0.228985,0.22899 0.254275,0.44176 0.08073,0.6792 -0.0996,0.13627 -0.238856,0.16771 -0.815025,0.18402 -0.686057,0.0194 -0.927519,0.10439 -0.927519,0.32638 0,0.14662 0.267898,0.28895 0.543859,0.28895 0.118979,0 0.416758,-0.0762 0.661733,-0.16929 0.554714,-0.21084 0.657075,-0.21174 0.657075,-0.006 0,0.45135 -1.229921,0.84037 -1.860926,0.58861 z m 1.302941,-1.58646 c 0.02457,-0.0398 -0.0475,-0.11429 -0.160163,-0.16562 -0.157569,-0.0718 -0.293719,-0.063 -0.590011,0.0379 -0.211846,0.0722 -0.385174,0.14671 -0.385174,0.16562 0,0.0688 1.091943,0.0323 1.135348,-0.0379 z m 0.813221,1.55544 c -0.08585,-0.10344 -0.04174,-0.20007 0.250855,-0.54954 l 0.35502,-0.42404 -0.381997,-0.44713 -0.381996,-0.44713 0.164041,-0.20982 0.16404,-0.20983 0.189567,0.21332 c 0.104262,0.11733 0.275826,0.32317 0.381253,0.45743 0.105427,0.13425 0.203595,0.22876 0.218152,0.21001 0.01456,-0.0188 0.155014,-0.21672 0.31213,-0.43992 0.205495,-0.29194 0.334119,-0.39886 0.458317,-0.381 0.267821,0.0385 0.249474,0.25547 -0.06057,0.71619 l -0.284389,0.4226 0.365503,0.40371 c 0.399089,0.44081 0.436433,0.56173 0.227126,0.73544 -0.121458,0.1008 -0.186648,0.0601 -0.533168,-0.33294 l -0.39479,-0.44779 -0.360872,0.42798 c -0.378788,0.44922 -0.516277,0.50964 -0.688223,0.30246 z m 4.253264,-0.0365 c -0.396381,-0.18546 -0.464453,-0.39438 -0.205,-0.62918 0.199056,-0.18014 0.239261,-0.17641 0.292499,0.0272 0.07737,0.29587 0.404999,0.37595 0.918342,0.22445 0.486077,-0.14345 1.004992,-0.42638 1.004992,-0.54796 0,-0.0407 -0.428625,-0.15902 -0.9525,-0.26289 -1.306063,-0.25895 -1.533212,-0.499 -0.953693,-1.00782 0.334095,-0.29334 0.957435,-0.50975 1.671568,-0.58033 0.406726,-0.0402 0.49398,-0.0246 0.540408,0.0964 0.08562,0.22312 -0.04946,0.29532 -0.819819,0.43823 -0.392496,0.0728 -0.806289,0.19172 -0.919537,0.26424 -0.200185,0.1282 -0.17548,0.14037 0.889,0.43803 1.043987,0.29194 1.096156,0.31701 1.121776,0.5391 0.03727,0.32313 -0.325993,0.66483 -0.958324,0.90141 -0.733293,0.27436 -1.195224,0.30248 -1.629712,0.0992 z m 5.434349,0.0513 c -0.02338,-0.0609 -0.03171,-0.56575 -0.01851,-1.12184 0.02246,-0.94662 0.03479,-1.01107 0.193327,-1.01107 0.110926,0 0.178629,0.0654 0.196282,0.18969 0.02569,0.18084 0.03833,0.1838 0.270962,0.0635 0.303017,-0.1567 0.84632,-0.16353 1.05187,-0.0132 0.131935,0.0965 0.223873,0.0844 0.630015,-0.0827 0.537802,-0.22122 0.842423,-0.24819 1.054207,-0.0933 0.121346,0.0887 0.148504,0.27411 0.164349,1.12183 l 0.01898,1.01554 h -0.211666 c -0.208845,0 -0.212232,-0.0113 -0.254,-0.84667 -0.0387,-0.77393 -0.05731,-0.84881 -0.216629,-0.8716 -0.414014,-0.0592 -0.884038,0.5998 -0.884038,1.23951 0,0.35859 -0.15428,0.55385 -0.398099,0.50386 -0.128289,-0.0263 -0.148039,-0.10398 -0.125562,-0.49382 0.01467,-0.25444 0.0028,-0.62454 -0.02636,-0.82245 -0.04215,-0.28602 -0.08784,-0.35983 -0.222738,-0.35983 -0.46068,0 -0.751246,0.4539 -0.751246,1.17355 0,0.30214 -0.03689,0.43115 -0.133925,0.46839 -0.203037,0.0779 -0.290451,0.0625 -0.337226,-0.0594 z m 4.222941,-0.0132 c -0.200869,-0.0874 -0.295681,-0.2035 -0.370788,-0.45419 -0.22049,-0.73593 0.158637,-1.34587 0.986078,-1.58641 0.562512,-0.16353 0.937149,-0.0702 1.260482,0.31408 l 0.214438,0.25485 v -0.21266 c 0,-0.35808 0.150297,-0.647 0.336571,-0.647 0.134033,0 0.171429,0.0554 0.171429,0.254 0,0.30146 0.02594,0.30734 0.347104,0.0787 0.801269,-0.57056 1.345849,-0.28734 1.346546,0.7003 l 3.39e-4,0.4487 0.157094,-0.25761 c 0.0864,-0.14168 0.275647,-0.35736 0.420545,-0.47928 0.268499,-0.22593 1.010693,-0.44084 1.230772,-0.35639 0.09812,0.0376 0.133404,-0.11068 0.182676,-0.76787 0.05792,-0.77281 0.162002,-1.05985 0.384294,-1.05985 0.08701,0 0.06415,3.76871 -0.02339,3.85625 -0.104787,0.10479 -0.405308,-0.0593 -0.405308,-0.22129 0,-0.20311 -0.0085,-0.20286 -0.370857,0.0109 -0.162728,0.096 -0.450492,0.1767 -0.639476,0.17931 -0.338495,0.005 -0.767667,-0.19426 -0.767667,-0.35583 0,-0.0455 -0.04083,-0.0827 -0.09073,-0.0827 -0.0499,0 -0.07847,0.10478 -0.0635,0.23283 0.02177,0.18615 -0.01037,0.23818 -0.16028,0.2595 -0.233906,0.0333 -0.271009,-0.10647 -0.299344,-1.12733 -0.02106,-0.7587 -0.02207,-0.76188 -0.232816,-0.73542 -0.116417,0.0146 -0.383117,0.10986 -0.592667,0.21166 l -0.381,0.18509 -0.02459,0.6985 c -0.02356,0.66914 -0.03293,0.6985 -0.222959,0.6985 -0.218486,0 -0.298362,-0.17822 -0.303556,-0.67733 l -0.0031,-0.29633 -0.136952,0.27786 c -0.311746,0.6325 -1.265802,0.95378 -1.949402,0.65647 z m 1.237488,-0.50787 c 0.274691,-0.14205 0.344722,-0.28129 0.344722,-0.68544 0,-0.8238 -1.319195,-0.57455 -1.490425,0.2816 -0.08773,0.43863 -0.0074,0.52771 0.475973,0.52771 0.236607,0 0.537985,-0.0557 0.66973,-0.12387 z m 4.556889,-0.13558 c 0.338822,-0.14535 0.359833,-0.17441 0.359833,-0.49779 0,-0.32678 -0.01258,-0.34343 -0.259566,-0.34343 -0.481185,0 -1.010434,0.39947 -1.010434,0.76265 0,0.12382 0.02471,0.24984 0.0549,0.28003 0.07092,0.0709 0.402235,-0.007 0.855264,-0.20146 z"
         id="path2607" />
    </g>
  </g>
</svg>
