<?xml version="1.0" encoding="UTF-8"?>
<svg width="30.488mm" height="39.937mm" version="1.1" viewBox="0 0 30.488 39.937" xmlns="http://www.w3.org/2000/svg">
 <g transform="translate(-9.3715 -11.42)">
  <g transform="translate(2.8326 5.1382)">
   <g>
    <path d="m19.633 7.0325c-2.3944 1.106-3.7883 2.4128-4.5938 5.4605l-0.37962 1.4926-0.7523 0.11939c-2.2247 0.21743-3.2976 1.6312-3.2909 4.3358 2e-3 0.82238 0.16378 1.924 0.35941 2.4476 0.57312 1.534 0.50152 2.1839-0.26024 2.725-0.61255 0.43506-1.3582-0.1808-2.0048-0.46502-0.50367-0.22141-1.2389-0.40961-1.4885-0.32438-0.81848 0.27948-0.83302 1.9228-0.40532 2.7142 0.90081 1.6667 1.7972 2.7795 2.6464 3.007 1.159 0.31048 3.3139 0.20242 4.1868-0.11441 1.108-0.47814 0.22641-0.41524 0.17112 0.63355 0 0.27228-0.56433 0.1551-0.85157 0.30335-0.4563 0.23549-0.50284 0.41009-0.36916 1.3819 0.14973 1.0885-0.26178 0.72693-1.1313 1.1785-1.0496 0.54507-2.238 2.6212-2.5989 3.9398-0.14178 0.51797-0.061078 2.4372-0.14292 3.9427-0.081837 1.5054-0.38796 3.3631-0.51925 3.8867-0.31894 1.2721 0.3968 2.1222 1.4326 2.3301 0.33579 0.06742 6.3497 0.17269 13.375 0.18573 11.394 0.02117 12.773-0.0163 12.773-0.34603 0-0.20331 0.2774-0.76374 0.61679-1.2454 0.71298-1.0118 0.8193-2.5328 0.27973-4.0075-0.40893-1.1177-0.83036-3.5172-1.1224-6.3882-0.18987-1.8668-0.29712-2.2002-0.85926-2.6665-0.50863-0.42188-0.64258-0.74779-0.64258-1.5665 0-2.1935-1.7286-4.133-4.4239-3.84-0.39793-0.05487-0.3057-0.43327 0.14537-0.59383 1.457-0.4681 2.1857-1.3799 2.7039-2.2683 0.75676-1.2975 1.3045-3.9551 0.58006-4.7295-0.84656-2.066-0.71146-1.8601 0.66474-0.97169 0.4937 0.92063 1.4063-1.3797 1.4014-2.3541-0.011347-2.299-1.2838-5.2353-2.7486-5.9913-1.0526-1.0796-2.1843-1.9664-3.6266-2.3958-0.94717-0.27819-2.4361-0.55382-4.369-0.56536-0.32229-0.00192 0.01487-0.00166 0.01487-0.00166-1.4518 0.084272-3.7935 0.30728-4.7704 0.75109z" fill="#fff"/>
    <path d="m18.862 26.724-3.2937 0.92224-1.8445 2.8984 0.19762 1.6468-2.7667 2.635-0.85636 5.5334-0.2635 3.2278 0.79049 1.054 22.858-0.06588 1.2516-2.7008-0.39524-1.6468-1.1857-7.312-1.1199-2.108-0.13175-1.9103-2.2397-1.9103h-3.0302l0.79049 4.0183-1.3834 3.0961-5.4675-4.2159-1.7127-0.79049 0.39524-1.4492z" fill="#7f0a15"/>
    <path d="m18.335 17.436-1.2516 0.32937-0.13175 2.108 0.92223 0.72461 0.65874 3.0961 0.92223 1.7786-0.13175 3.6231 3.8207 1.9103 3.6231-0.59286 0.52699-1.1857-0.59286-3.4254 3.8866-1.9103 1.3834-4.7429-2.8326-5.731-2.0421 3.2937-0.13175-1.9762-3.4254 2.2397 0.85636-3.1619-4.2159 2.3715 0.06587 2.635z" fill="#efe5dc"/>
   </g>
   <path d="m22.156 30.545 2.3715 0.2635 2.7667-0.85636 0.2635 0.79049-1.1199 3.8207z" fill="#1a1a1a"/>
   <path d="m15.832 15.196-2.7667 0.32937-1.3175 2.5691 0.2635 2.7667 0.39524 2.5691-0.92223 1.4492-2.9643 0.65874 1.2516 1.7786 3.7548 0.46112 2.3056-1.7786 0.85636-1.8445 2.3715 0.79049-1.1199-2.7667 0.06587-1.8445-1.3175-0.98811 0.79049-2.0421 2.7667 1.3834-0.06587-2.635 4.4794-2.5691-1.7127 3.6231 4.0842-2.1738 1.4492 0.13175 0.85636-1.1199 2.108 3.3596 0.06587-3.3596 2.0421 0.92224-0.59286-2.5032-2.8326-2.8326-3.1619-1.8445-5.5993-0.13175-3.6231 2.7008-1.581 3.4254z" fill="#393527"/>
   <path d="m25.252 10.651c-0.74323 0.61649 0.4306 0.52777-0.06587 1.9762-0.5643 1.6463-2.5691 4.4136-2.5691 4.4136l0.85636-0.52699s3.2027-3.3975 3.0302-4.9405c-0.08468-0.75751-0.66493-1.4089-1.2516-0.92223zm-2.8107 0.90179c-2.2722-2.3373-5.4675-0.32937-5.4675-0.32937l2.4373-2.3715s3.8659-0.92225 5.8628 1.7786c-1.7027 0.53181-1.8476 0.79618-2.8326 0.92223zm-7.0704 4.1705s-2.2504 1.4007-2.5691 2.5691c-0.53109 1.9473 1.428 3.7611 0.98811 5.731-0.25491 1.1414-0.7397 1.9876-1.8445 2.3715-0.99668 0.3463-2.9643-0.19762-2.9643-0.19762s2.0342 1.0323 3.2278 0.79049c1.7229-0.34902 3.1908-1.4427 3.5572-3.1619 0.39809-1.8679-2.2249-3.1665-1.7127-5.0064 0.2044-0.73431 1.7127-1.9762 1.7127-1.9762zm14.426-6.3898s-0.81174 0.35652-1.9762 0.79049c-0.12606-0.74511-0.33911-1.213-1.3175-1.581-1.495-0.56222-2.0912-0.1797-1.8445-0.79049 0.39786-0.98486 3.1619 0.39524 3.1619 0.39524z" fill="#a3a3a3"/>
   <path d="m10.509 44.799c-0.69624-0.19444-0.98555-1.1739-0.69803-2.3632 0.11835-0.48954 0.27555-2.0416 0.34932-3.449 0.07378-1.4074 0.23871-2.9551 0.36653-3.4394 0.32539-1.2328 1.3377-2.6198 2.2839-3.1294 0.78384-0.42213 0.79806-0.45366 0.66307-1.4712-0.12052-0.90852-0.07847-1.0717 0.33289-1.2918 0.25896-0.13859 0.47083-0.46025 0.47083-0.7148 0-0.25455 0.36234-0.79472 0.8052-1.2004 0.64161-0.58769 1.1163-0.79001 2.3364-0.99581 1.4833-0.25019 1.5312-0.27855 1.5312-0.90572 0-0.53765-0.09188-0.64744-0.54181-0.64744-0.29799 0-0.79182-0.09505-1.0974-0.21123-0.49784-0.18928-0.56975-0.14672-0.69192 0.40952-0.16135 0.73464-1.5252 2.1249-2.4119 2.4587-0.78699 0.2962-2.9051 0.30308-3.95 0.01282-0.76559-0.21267-1.0792-0.48409-2.1553-1.8653-0.64099-0.82275-0.67969-1.917-0.067798-1.917 0.23777 0 0.78504 0.20811 1.2161 0.46247 0.8552 0.50458 1.3187 0.44938 2.2272-0.26528 0.6711-0.52789 0.75112-1.5445 0.23445-2.9787-0.17636-0.48954-0.32216-1.5191-0.32401-2.2879-0.0061-2.5285 0.96159-3.8505 2.9672-4.0538l1.0977-0.11126 0.30024-1.178c0.72618-2.8493 2.1511-4.7674 4.3096-5.8013 1.1117-0.53249 1.4584-0.58477 3.7828-0.57037 1.7425 0.010794 2.959 0.13771 3.8129 0.39778 1.3275 0.40433 3.3789 1.6274 3.2041 1.9103-0.05708 0.092361 0.14227 0.29962 0.44301 0.46057 1.3205 0.70672 2.762 3.8 2.7723 5.9493 0.0044 0.91102-0.52428 0.97141-0.96935 0.11073-0.17419-0.33684-0.54046-0.81248-0.81394-1.057l-0.49724-0.44451 0.15511 1.3351c0.04265 0.36715 0.06401 0.83815 0.01284 1.2743-0.11494 0.97973-0.13141 1.1374-0.0019 1.281 0.65306 0.72398-0.17672 3.8184-0.85894 5.0313-0.46716 0.8306-1.8371 1.8063-3.1505 2.2439-0.36261 0.12081-0.68941 0.37487-0.72622 0.56457-0.0546 0.28136 0.10982 0.32498 0.89239 0.23678 2.4298-0.27387 4.4037 1.1695 4.4037 3.2202 0 0.76541 0.12061 1.0705 0.57914 1.4649 0.50677 0.43591 0.60358 0.74737 0.77475 2.4926 0.26325 2.6841 0.64336 4.9272 1.012 5.9721 0.48643 1.3787 0.39077 2.8011-0.252 3.747-0.30596 0.45026-0.55629 0.97417-0.55629 1.1642 0 0.30826-1.2435 0.34319-11.515 0.3234-6.3334-0.01219-11.759-0.0903-12.057-0.17356zm5.7712-2.3321c0-2.5284 0.20902-3.9251 0.58741-3.9251 0.24943 0 0.27796 0.52246 0.158 2.8927l-0.14641 2.8927h10.905l-0.08531-1.7245c-0.13917-2.8133-0.49956-5.7854-0.77479-6.3894-0.17854-0.39185-0.43313-0.56461-0.83329-0.56548-1.0333-0.0022-2.2798-0.46496-3.4296-1.2732-1.7743-1.2471-3.271-1.8304-5.3492-2.0846l-1.9101-0.23364-1.3578 0.72369c-1.5387 0.82011-2.503 2.0171-2.8682 3.5603-0.29766 1.2577-0.70288 7.3849-0.50103 7.5758 0.28765 0.27203 1.0413 0.35935 3.3245 0.38519l2.2808 0.02581zm17.134 1.5218c0-0.1862 0.2689-0.74488 0.59755-1.2415 0.55608-0.84029 0.57899-0.96736 0.33012-1.831-0.44958-1.5601-0.90869-4.1596-1.1183-6.3317-0.22655-2.348-0.44885-2.7232-1.9539-3.2979-0.91671-0.35009-1.0033-0.34982-1.3947 0.0044-0.22952 0.20772-0.88462 1.169-1.4558 2.1363-0.8279 1.402-0.99308 1.8434-0.81467 2.1767 0.2803 0.52374 0.69173 3.7381 0.69173 5.4043 0 0.68984 0.06368 1.7188 0.1415 2.2866l0.1415 1.0324h2.4174c2.0156 0 2.4174-0.05627 2.4174-0.33855zm-7.9156-9.953c-0.35823-0.3953-0.71459-0.74912-0.79191-0.78626-0.07732-0.03715-0.69101-0.49495-1.3637-1.0173-1.6161-1.2549-4.0844-2.5364-5.242-2.7215-1.1682-0.1868-1.2459-0.7057-0.1201-0.80165 0.58148-0.04956 0.85853-0.20036 0.98093-0.53397 0.28986-0.79002-0.0071-0.96222-1.2392-0.7186-1.2815 0.25338-3.0683 1.5005-2.1653 1.5113 0.82298 0.0098 0.5769 0.64664-0.4011 1.038-0.70591 0.28245-0.88714 0.4631-0.83444 0.83176 0.06194 0.4333 0.28128 0.49093 2.7438 0.72088 2.9185 0.27253 4.2481 0.73236 6.3117 2.1828 1.002 0.70429 2.4418 1.2922 2.6777 1.0934 0.05227-0.04404-0.19806-0.4035-0.55629-0.7988zm3.7864-3.3376c0.87864-0.90314 1.3051-1.0202 1.8246-0.50066 0.89253 0.89253 1.027-0.23966 0.17452-1.4697-0.77578-1.1195-1.6864-1.4725-3.4884-1.3525-0.66319 0.04418-0.74815 0.32103-0.38868 1.2665l0.22324 0.58717 0.68394-0.68394c0.37617-0.37617 0.82644-0.68394 1.0006-0.68394 0.4729 0 0.38217 0.83935-0.11977 1.108-0.49331 0.26401-1.88 3.0497-2.1068 4.2324-0.14239 0.7423-0.11342 0.72144 0.61784-0.44503 0.42197-0.67311 1.1325-1.5993 1.579-2.0583zm-2.2295-0.12929c-0.03092-0.04051-0.28762 0.05018-0.57044 0.20155-0.28282 0.15136-1.0366 0.33471-1.675 0.40743l-1.1608 0.13223 2.5221 2.0064 0.47015-1.337c0.25858-0.73535 0.44485-1.3701 0.41393-1.4107zm-1.2368-0.48818c0.8249-0.3743 0.95126-0.51625 0.83748-0.94081-0.0737-0.275-0.13537-1.0108-0.13704-1.6352l-3e-3 -1.1352-1.8358-0.13479c-1.0097-0.07413-2.5604-0.32754-3.4461-0.56313l-1.6103-0.42834 0.1723 3.8364 1.5197 0.7258c1.7875 0.85369 3.0569 0.93128 4.5027 0.27522zm-12.139-2.9666c0.90473-0.37802 2.1143-1.5695 2.2854-2.2512 0.08791-0.35026-0.06745-0.8138-0.48342-1.4424 0 0-0.43114-1.0266-0.51415-1.3874-0.1477-0.642 0.16202-1.4979 0.16202-1.4979 0.14346-1.0775 0.26083-2.6236 0.26083-3.4358v-1.4768l-0.72318 9e-3c-0.92821 0.01161-2.1076 1.0018-2.3976 2.013-0.30408 1.0603-0.2712 1.8451 0.12854 3.0672 0.20874 0.63819 0.31884 1.6146 0.27815 2.4667-0.0597 1.2503-0.13866 1.4635-0.69544 1.8782-0.45407 0.3382-0.95638 0.46781-1.813 0.46781-0.98782 0-1.1551 0.05593-1.0058 0.33626 0.7051 1.3236 2.8951 1.9311 4.5177 1.2531zm13.037-1.8259c1.119-0.33229 2.4678-0.98396 3.0981-1.4968 0.77292-0.62889 2.1037-4.7403 1.6292-5.0335-0.12469-0.07706-0.43893-0.63877-0.69831-1.2482-0.25938-0.60947-0.731-1.4852-1.0481-1.9461l-0.57646-0.83796-0.55372 0.83796c-0.75397 1.141-2.0779 2.5068-2.43 2.5068-0.38037 0-0.36916-0.65174 0.01884-1.0951 0.1691-0.19321 0.38325-0.59907 0.47588-0.9019l0.16842-0.5506-0.78244 0.59679c-1.4871 1.1343-4.3971 1.9374-4.3971 1.2136 0-0.16068 0.30955-0.58624 0.68788-0.9457 0.37834-0.35945 0.89787-0.94585 1.1545-1.3031l0.46664-0.64954-0.98764 0.60737c-0.5432 0.33405-1.3131 0.77006-1.7108 0.9689-0.6618 0.33084-0.72318 0.45017-0.72318 1.4057 0 1.0503 0.4667 2.5058 0.8867 2.7653 0.44686 0.27617 0.23017 0.78089-0.33526 0.78089-0.44412 0-0.74859-0.29003-1.46-1.3907-0.92046-1.4242-1.5694-1.9053-1.9334-1.4332-0.72488 0.94022-0.40399 1.9338 0.62454 1.9338 0.43807 0 0.65972 0.11214 0.65972 0.33378 0 0.18358-0.18962 0.33378-0.42137 0.33378-0.92627 0 0.33698 2.8348 1.6452 3.692 0.49829 0.32649 3.9196 1.154 4.9106 1.1877 0.25315 0.0086 0.9873-0.14086 1.6315-0.33215zm-1.9264-1.3197c-0.3986-0.17324-0.93419-0.66998-1.1902-1.1039-0.29945-0.50753-0.63619-0.79154-0.94414-0.7963-0.47462-0.0073-0.47423-0.01112 0.04663-0.44503 0.63216-0.52664 1.8019-0.62899 1.3801-0.12075-0.20859 0.25133-0.15669 0.43983 0.2509 0.91128 0.74985 0.86733 1.5698 1.2195 2.8393 1.2195 0.85044 0 1.1236 0.08115 1.1236 0.33378 0 0.44481-2.4837 0.44578-3.5062 0.0014zm1.7261-2.004c0-0.20942 0.21138-0.33378 0.56734-0.33378 0.31204 0 0.88184-0.16263 1.2662-0.3614 0.66284-0.34277 0.67729-0.37719 0.2802-0.66755-0.23028-0.16838-0.75001-0.30615-1.155-0.30615-0.50613 0-0.73628-0.10434-0.73628-0.33378 0-0.2444 0.25324-0.33367 0.9457-0.33337l1.1927 0.0498s-0.18929-0.21192-0.23056-0.34351c-0.09835-0.31358-0.09881-0.98578-0.09881-0.98578-0.0189-1.1314 0.13392-1.2799 0.52738-1.2799 0.20691 0 0.3682 0.08948 0.43252 0.39518 0.13711 0.65899 0.04285 1.4189 0.0483 1.8902-0.01417 0.29591-0.23813 0.37371-0.23813 0.37371s0.24636 0.19204 0.3219 0.32431c0.14548 0.25472 0.23715 0.5583 0.22299 0.8513-0.01262 0.26113-0.09796 0.54001-0.27096 0.73602-0.1581 0.17912-0.63667 0.32923-0.63667 0.32923-0.86145 0.44548-2.4389 0.44254-2.4389-0.0045zm-2.2993-2.0397c-0.25492-0.25492-0.1619-2.1968 0.11868-2.4774 0.42688-0.42688 1.0048-0.30951 1.1503 0.23364 0.17383 0.64864 0.17623 1.5943 0.0052 2.0401-0.13431 0.35001-0.99093 0.4869-1.2742 0.20363zm-5.9577 3.8976c-0.35946-0.50481-0.50387-1.034-0.51582-1.8901-0.0135-0.9677-0.0876-1.1892-0.39817-1.1903-0.56876-2e-3 -0.90679-0.83246-0.78362-1.9252 0.13542-1.2015 0.48007-1.6364 1.2967-1.6364 0.40403 0 0.60228-0.1007 0.5476-0.27815-0.23015-0.74675-0.32722-2.1695-0.14803-2.1695 0.11141 0 0.47647 0.75099 0.81124 1.6689 0.33477 0.91788 0.65835 1.6689 0.71906 1.6689 0.06072 0 0.06166-0.43237 0.0021-0.96081-0.08078-0.71669-0.0051-1.0882 0.2978-1.4623 0.22336-0.27583 0.57266-1.0951 0.77623-1.8206 0.45232-1.6121 0.82719-1.7192 0.72237-0.20641-0.04241 0.612-0.02429 1.1127 0.04027 1.1126 0.15954-1.88e-4 0.98611-0.5613 2.3916-1.6235 0.64563-0.48794 1.2125-0.84799 1.2598-0.80011 0.15978 0.16188-0.4278 2.0836-0.92811 3.0354-0.2734 0.52013-0.40756 0.9457-0.29813 0.9457 0.45943 0 2.5243-1.8782 3.1238-2.8414l0.64864-1.0421 0.138 2.4371 0.50066-0.80507c0.27536-0.44279 0.50066-1.0686 0.50066-1.3907 0-0.32211 0.08942-0.58566 0.19871-0.58566 0.25051 0 0.46884 0.55598 0.46884 1.1939 0 0.26948 0.35046 1.0339 0.77881 1.6988l0.77881 1.2088-8.9e-4 -0.7713c-3.98e-4 -0.42422-0.18372-1.0717-0.40732-1.4389-0.2236-0.36715-0.47678-0.94816-0.56263-1.2911-0.14233-0.56864-0.11756-0.60297 0.28105-0.38964 0.24042 0.12867 0.49822 0.42642 0.57288 0.66166 0.14674 0.46232 1.897 1.4938 1.897 1.1179 0-0.47398-0.87515-1.9102-1.6473-2.7035-0.49074-0.50416-1.1048-0.88126-1.5803-0.97046-0.75839-0.14228-1.0562-0.63203-0.49954-0.82151 0.36738-0.12505-1.2124-0.9053-2.6146-1.2914-0.61192-0.16847-1.9136-0.30938-2.8927-0.31312-1.4712-0.00563-1.9925 0.094561-3.004 0.57726-1.8489 0.88235-2.9811 2.1574-3.8057 4.2858-0.62192 1.6052-0.71948 2.176-0.87909 5.1433-0.09875 1.8358-0.23982 3.4935-0.3135 3.6838-0.18953 0.48968 1.006 2.0545 1.9098 2.4998 1.0734 0.5288 1.1816 0.47258 0.6169-0.32048z" stroke-width=".22252"/>
  </g>
 </g>
</svg>
