<?xml version="1.0" encoding="UTF-8" standalone="no"?>
<svg
   xmlns:dc="http://purl.org/dc/elements/1.1/"
   xmlns:cc="http://creativecommons.org/ns#"
   xmlns:rdf="http://www.w3.org/1999/02/22-rdf-syntax-ns#"
   xmlns:svg="http://www.w3.org/2000/svg"
   xmlns="http://www.w3.org/2000/svg"
   xmlns:sodipodi="http://sodipodi.sourceforge.net/DTD/sodipodi-0.dtd"
   xmlns:inkscape="http://www.inkscape.org/namespaces/inkscape"
   width="63.812611mm"
   height="63.812611mm"
   viewBox="0 0 63.812611 63.81261"
   version="1.1"
   id="svg841"
   inkscape:version="1.0.1 (3bc2e813f5, 2020-09-07)"
   sodipodi:docname="favicon.svg"
   inkscape:export-filename="Z:\Documents\Programming\Portfolio_site_01\repo\dist\static\images\favicon.png"
   inkscape:export-xdpi="6.3686471"
   inkscape:export-ydpi="6.3686471">
  <defs
     id="defs835" />
  <sodipodi:namedview
     id="base"
     pagecolor="#ffffff"
     bordercolor="#666666"
     borderopacity="1.0"
     inkscape:pageopacity="0"
     inkscape:pageshadow="2"
     inkscape:zoom="2.8"
     inkscape:cx="113.32444"
     inkscape:cy="126.76318"
     inkscape:document-units="mm"
     inkscape:current-layer="layer1"
     inkscape:document-rotation="0"
     showgrid="false"
     inkscape:snap-global="false"
     inkscape:window-width="1920"
     inkscape:window-height="1017"
     inkscape:window-x="-8"
     inkscape:window-y="-8"
     inkscape:window-maximized="1"
     inkscape:pagecheckerboard="true" />
  <metadata
     id="metadata838">
    <rdf:RDF>
      <cc:Work
         rdf:about="">
        <dc:format>image/svg+xml</dc:format>
        <dc:type
           rdf:resource="http://purl.org/dc/dcmitype/StillImage" />
        <dc:title></dc:title>
      </cc:Work>
    </rdf:RDF>
  </metadata>
  <g
     inkscape:label="Layer 1"
     id="layer1"
     transform="translate(-35.694543,-46.881164)"
     style="display:inline"
     inkscape:groupmode="layer">
    <ellipse
       style="display:inline;opacity:0.998235;fill:#ffffff;stroke-width:5.29736;stroke-linecap:round;stroke-linejoin:round"
       id="path843"
       cx="67.600845"
       cy="78.787468"
       rx="31.702753"
       ry="31.702751"
       inkscape:label="background" />
    <path
       id="path851"
       style="display:inline;fill:#1a1a1a;fill-opacity:1;stroke:none;stroke-width:0.209949;stroke-opacity:1"
       inkscape:label="logo"
       d="M 67.495208,49.649382 A 28.867929,29.138141 0 0 0 38.732954,78.787728 28.867929,29.138141 0 0 0 67.601082,107.92561 28.867929,29.138141 0 0 0 96.468743,78.787728 28.867929,29.138141 0 0 0 67.601082,49.649382 a 28.867929,29.138141 0 0 0 -0.105874,0 z m 0.207046,4.592867 a 24.565704,24.621946 0 0 1 0.0607,0 24.565704,24.621946 0 0 1 9.10855,1.755454 c -0.287987,0.207334 -0.575367,0.416354 -0.861118,0.628848 C 73.580156,58.43383 71.98842,60.0238 57.214034,75.397463 L 44.995581,88.111203 A 24.565704,24.621946 0 0 1 43.197117,78.864198 24.565704,24.621946 0 0 1 67.702254,54.242249 Z m 14.89309,4.994685 a 24.565704,24.621946 0 0 1 6.953404,8.250537 c -0.891683,-0.09833 -2.06363,-0.167995 -3.675512,-0.193309 L 79.7546,67.197742 78.215883,66.964536 c -2.123206,-0.934694 -2.149233,-1.053001 -0.692189,-3.117164 1.099115,-1.557067 2.596087,-2.926259 5.07165,-4.610441 z M 70.982497,72.585221 c 1.453913,0.0017 3.361089,0.0129 5.504091,0.03562 2.208753,0.0234 3.904192,0.04531 5.228817,0.08027 3.973871,0.1049 4.614603,0.329174 5.791601,1.084335 0.446129,0.28622 1.07458,0.853989 1.397551,1.261021 0.524451,0.660957 0.55795,0.809083 0.309156,1.382133 -0.81795,1.883989 -6.173601,4.291274 -13.261204,5.960754 -0.787009,0.185374 -1.475157,0.332453 -2.212083,0.495384 l -0.55855,-2.014307 c -0.764047,-2.756863 -2.14991,-7.981021 -2.199379,-8.28521 z m -7.206562,4.913465 c 0.511637,2.671147 1.278346,7.022766 1.214975,7.075487 -0.04124,0.0343 -3.029723,0.955737 -6.640954,2.047554 -2.118234,0.640431 -2.804473,0.836273 -4.11407,1.224446 0.116563,-0.134699 0.23653,-0.272264 0.400914,-0.450261 0.64462,-0.69804 3.427702,-3.722766 6.184044,-6.722116 1.142585,-1.243319 2.098582,-2.264438 2.955091,-3.17511 z m 28.261114,5.147147 a 24.565704,24.621946 0 0 1 -13.06922,18.129717 c -0.4264,-1.121343 -0.857351,-2.416171 -1.303437,-3.922225 -0.832899,-2.811992 -2.313807,-8.866441 -2.191381,-8.960131 0.03917,-0.03002 4.446422,-1.422832 9.793209,-3.094841 2.593331,-0.810965 4.842818,-1.529816 6.770829,-2.15252 z M 66.974302,89.57218 c 0.448947,2.134428 2.004491,11.27355 2.357486,13.86363 a 24.565704,24.621946 0 0 1 -1.568834,0.0503 24.565704,24.621946 0 0 1 -18.76059,-8.726452 c 1.356301,-0.492164 4.483984,-1.418141 9.994135,-2.965652 3.439964,-0.966104 6.074376,-1.697744 7.977803,-2.221865 z" />
  </g>
</svg>
