<?xml version="1.0" encoding="UTF-8" standalone="no"?>
<svg
   xmlns:dc="http://purl.org/dc/elements/1.1/"
   xmlns:cc="http://creativecommons.org/ns#"
   xmlns:rdf="http://www.w3.org/1999/02/22-rdf-syntax-ns#"
   xmlns:svg="http://www.w3.org/2000/svg"
   xmlns="http://www.w3.org/2000/svg"
   xmlns:sodipodi="http://sodipodi.sourceforge.net/DTD/sodipodi-0.dtd"
   xmlns:inkscape="http://www.inkscape.org/namespaces/inkscape"
   width="142.69971"
   height="74.257866"
   viewBox="0 0 37.75596 19.647391"
   version="1.1"
   id="svg8"
   inkscape:version="1.0.1 (3bc2e813f5, 2020-09-07)"
   sodipodi:docname="logo-hover.svg">
  <defs
     id="defs2" />
  <sodipodi:namedview
     id="base"
     pagecolor="#ffffff"
     bordercolor="#666666"
     borderopacity="1.0"
     inkscape:pageopacity="0.0"
     inkscape:pageshadow="2"
     inkscape:zoom="3.959798"
     inkscape:cx="10.326705"
     inkscape:cy="30.856869"
     inkscape:document-units="mm"
     inkscape:current-layer="layer1"
     inkscape:document-rotation="0"
     showgrid="false"
     inkscape:snap-global="false"
     inkscape:window-width="1920"
     inkscape:window-height="1017"
     inkscape:window-x="-8"
     inkscape:window-y="-8"
     inkscape:window-maximized="1"
     units="px" />
  <metadata
     id="metadata5">
    <rdf:RDF>
      <cc:Work
         rdf:about="">
        <dc:format>image/svg+xml</dc:format>
        <dc:type
           rdf:resource="http://purl.org/dc/dcmitype/StillImage" />
        <dc:title></dc:title>
      </cc:Work>
    </rdf:RDF>
  </metadata>
  <g
     inkscape:label="Layer 1"
     inkscape:groupmode="layer"
     id="layer1"
     transform="translate(-74.134807,-43.171997)">
    <path
       style="display:inline;fill:#b2fbff;stroke-width:0.0846667;fill-opacity:1"
       d="m 74.263241,62.631218 c -0.412513,-0.588945 0.180613,-1.454388 1.607408,-2.345401 1.28226,-0.800754 2.547372,-1.415941 4.272126,-2.07741 0.162983,-0.06251 0.601133,-0.235356 0.973666,-0.384108 0.372534,-0.148752 1.515534,-0.54912 2.54,-0.889708 3.131801,-1.041178 4.85869,-1.788278 5.022441,-2.172847 0.01491,-0.03501 0.472109,-0.454202 1.016,-0.931528 1.203115,-1.055869 1.627714,-1.441192 2.936227,-2.664613 0.5588,-0.522462 1.34588,-1.228769 1.749067,-1.569572 0.403186,-0.340802 1.222337,-1.053563 1.820333,-1.583913 0.597996,-0.530349 1.239667,-1.061668 1.425933,-1.180707 0.186267,-0.119039 0.414918,-0.28293 0.508102,-0.3642 0.09319,-0.08127 0.531343,-0.365171 0.973667,-0.630887 0.442332,-0.265717 0.911929,-0.572779 1.043559,-0.682361 0.13163,-0.109582 0.27178,-0.199239 0.31144,-0.199239 0.0396,0 0.2939,-0.130555 0.565,-0.29012 0.83399,-0.490884 2.44589,-1.04092 3.47262,-1.184979 0.50322,-0.07061 1.12017,-0.167643 1.371,-0.215638 1.30533,-0.249767 3.48354,0.02987 4.57669,0.587561 1.038,0.529544 1.44576,1.294932 1.44223,2.707115 -10e-4,0.444984 -0.0344,0.948354 -0.0739,1.1186 -0.19338,0.832052 -1.78628,2.582935 -2.82869,3.109225 l -0.56668,0.286097 -0.002,0.391236 c -0.005,0.883027 -0.30459,1.41664 -1.22897,2.185772 -0.82312,0.68487 -1.52331,1.080499 -3.04488,1.720426 -0.79152,0.33289 -1.65344,0.697381 -1.91538,0.80998 -0.26194,0.112599 -0.53592,0.204725 -0.60883,0.204725 -0.21787,0 -0.24045,0.139501 -0.0947,0.585086 0.17181,0.525292 1.07921,2.174788 1.35908,2.470592 0.19102,0.201881 1.01986,0.688718 2.40304,1.411475 0.68652,0.358727 1.10066,0.777939 1.10066,1.114119 0,0.381951 -0.0792,0.5085 -0.4304,0.687668 -0.31901,0.162752 -0.60524,0.165727 -15.944423,0.165727 H 74.395034 l -0.131801,-0.188173 z"
       id="path857" />
    <path
       style="display:inline;fill:#000000;stroke-width:0.0846667"
       d="m 77.084098,61.215143 c 0.239263,-0.223279 0.563113,-0.471081 0.719667,-0.550672 0.156554,-0.07959 0.407719,-0.218113 0.558144,-0.307827 0.150425,-0.08971 0.811115,-0.376126 1.468199,-0.636474 0.657084,-0.260347 1.315058,-0.525062 1.462166,-0.588254 0.147107,-0.06319 0.401661,-0.172892 0.565675,-0.243776 0.164015,-0.07088 0.716465,-0.28046 1.227667,-0.465724 0.511203,-0.185264 1.424759,-0.52798 2.030126,-0.761592 0.605367,-0.233613 1.701688,-0.589191 2.436268,-0.790174 0.795833,-0.217742 1.41174,-0.43394 1.524,-0.53496 0.10362,-0.09325 0.321749,-0.27872 0.484732,-0.412165 0.162984,-0.133445 0.578259,-0.495304 0.922835,-0.80413 0.344576,-0.308826 0.70191,-0.627378 0.794076,-0.707893 0.09217,-0.08052 0.72464,-0.674363 1.405499,-1.319658 0.680858,-0.645297 1.695124,-1.568917 2.253924,-2.052491 0.5588,-0.483574 1.03505,-0.900363 1.058333,-0.926197 0.02328,-0.02583 0.213784,-0.179144 0.423334,-0.340688 0.528261,-0.407241 1.699158,-1.43506 2.03128,-1.783068 0.193777,-0.203046 1.333086,-1.016826 1.905717,-1.361208 0.99638,-0.599228 1.35062,-0.957332 3.12962,-1.551481 1.6425,-0.548559 2.2827,-0.573061 3.08173,-0.615346 1.33413,0.0093 3.20904,-0.07432 3.80049,1.074269 0.35052,0.687293 0.36089,1.144205 0.0438,1.92975 -0.27669,0.685436 -1.01754,1.462115 -1.78031,1.866417 -0.48677,0.258012 -2.05378,0.807844 -2.11834,0.743283 -0.0493,-0.04929 0.28026,-0.317664 0.90745,-0.739008 0.73065,-0.490838 0.87847,-0.710143 0.92017,-1.365084 0.0316,-0.496712 0.0152,-0.556084 -0.25134,-0.909255 -0.34355,-0.455165 -0.90105,-0.750555 -1.42558,-0.755339 -0.98106,-0.0089 -2.71914,0.498823 -4.10634,1.199647 -1.29254,0.653004 -2.666998,1.645806 -2.666998,1.926438 0,0.391352 0.501138,0.340726 3.566328,0.457107 2.32975,0.08846 2.58884,0.285055 3.06776,0.570205 0.60522,0.360347 0.56012,1.069078 0.0726,1.72595 -0.78355,1.048854 -1.64764,1.280042 -2.5907,1.736848 -0.98004,0.475276 -2.62121,0.909531 -3.354,1.151464 -0.675208,0.222928 -1.239666,0.413198 -1.254347,0.422822 -0.04986,0.03269 0.852737,2.360255 1.129757,2.913348 0.99643,1.989441 1.44148,2.45765 2.79159,2.936887 l 0.762,0.27048 -13.715994,0.0018 -13.716001,0.0018 0.435023,-0.405962 z m 7.502282,-1.005467 c 0.244582,-0.17447 0.54338,-0.403943 0.663996,-0.509938 0.120615,-0.105995 0.292065,-0.251824 0.381,-0.324065 0.158291,-0.128579 0.15813,-0.130421 -0.0076,-0.0874 -1.141171,0.296158 -1.475025,0.413976 -2.522943,0.890348 -0.288781,0.131277 -0.582207,0.260335 -0.652057,0.286796 -0.06985,0.02646 0.366009,-0.0157 0.866493,-0.01203 l 0.943378,-0.09353 0.327766,-0.150175 z m 13.440377,-1.059619 c 0.02928,-0.500216 -0.346523,-1.928116 -0.597975,-2.611081 l -0.174608,-0.474254 -0.435717,0.07919 c -0.830107,0.150877 -3.561572,0.955008 -4.080643,1.201322 -0.151368,0.07183 -0.687861,0.268679 -1.192208,0.437443 -0.905827,0.30311 -0.924268,0.314615 -1.514428,0.944897 -0.654437,0.698928 -1.052935,1.037684 -1.074552,1.240462 -0.05102,0.478593 0.139615,0.324709 4.281739,0.239149 l 4.200723,-0.06847 0.239585,-0.08052 c 0.406586,-0.347159 0.333759,-0.59244 0.348084,-0.908141 z m -3.188191,-4.333589 c 0.55169,-0.119895 2.004765,-0.53991 2.002377,-0.578793 -0.0018,-0.02994 -0.47761,-1.355637 -0.562664,-1.567812 -0.07303,-0.18217 -0.154119,-0.115177 -1.259959,1.040859 -0.650051,0.679558 -1.200961,1.258421 -1.224244,1.286362 -0.04335,0.05202 0.04174,0.03731 1.04449,-0.180616 z m 6.321504,-1.744163 c 1.96294,-0.508688 2.7146,-1.160361 1.86399,-1.616036 -0.26678,-0.142917 -0.51045,-0.158039 -2.54655,-0.158039 h -2.251532 l 0.120058,0.529167 c 0.06604,0.291041 0.192811,0.782731 0.28172,1.092643 0.08891,0.309912 0.161654,0.619802 0.161654,0.688643 0,0.104024 0.117983,0.09061 0.6985,-0.07944 0.384172,-0.112536 1.13665,-0.318156 1.67216,-0.456933 z"
       id="path849"
       sodipodi:nodetypes="csssssssssssssssssssccsssscccssssccssssccccccsscssccccsscsssssccccssssssssscsssssss" />
  </g>
</svg>
