<?xml version="1.0" encoding="UTF-8" standalone="no"?>
<svg
   xmlns:dc="http://purl.org/dc/elements/1.1/"
   xmlns:cc="http://creativecommons.org/ns#"
   xmlns:rdf="http://www.w3.org/1999/02/22-rdf-syntax-ns#"
   xmlns:svg="http://www.w3.org/2000/svg"
   xmlns="http://www.w3.org/2000/svg"
   xmlns:sodipodi="http://sodipodi.sourceforge.net/DTD/sodipodi-0.dtd"
   xmlns:inkscape="http://www.inkscape.org/namespaces/inkscape"
   width="31.370079"
   height="31.370079"
   viewBox="0 0 8.2999999 8.3000003"
   version="1.1"
   id="svg842"
   sodipodi:docname="mail.svg"
   inkscape:version="1.0.1 (3bc2e813f5, 2020-09-07)">
  <defs
     id="defs836" />
  <sodipodi:namedview
     id="base"
     pagecolor="#424242"
     bordercolor="#666666"
     borderopacity="1.0"
     inkscape:pageopacity="0"
     inkscape:pageshadow="2"
     inkscape:zoom="22.627417"
     inkscape:cx="16.300079"
     inkscape:cy="14.22552"
     inkscape:document-units="mm"
     inkscape:current-layer="svg842"
     inkscape:document-rotation="0"
     showgrid="false"
     units="px"
     inkscape:window-width="1920"
     inkscape:window-height="1017"
     inkscape:window-x="-8"
     inkscape:window-y="-8"
     inkscape:window-maximized="1" />
  <metadata
     id="metadata839">
    <rdf:RDF>
      <cc:Work
         rdf:about="">
        <dc:format>image/svg+xml</dc:format>
        <dc:type
           rdf:resource="http://purl.org/dc/dcmitype/StillImage" />
        <dc:title></dc:title>
      </cc:Work>
    </rdf:RDF>
  </metadata>
  <path
     id="path1431"
     style="display:inline;opacity:0.998235;fill:#d1f7f6;fill-opacity:1;stroke-width:13.298;stroke-linecap:round;stroke-linejoin:round"
     inkscape:label="circle"
     d="M 15.685547 0 A 15.68504 15.68504 0 0 0 0 15.685547 A 15.68504 15.68504 0 0 0 15.685547 31.369141 A 15.68504 15.68504 0 0 0 31.369141 15.685547 A 15.68504 15.68504 0 0 0 15.685547 0 z M 6.3925781 8.2207031 L 24.763672 8.2207031 C 25.331392 8.2207031 25.802272 8.600566 25.951172 9.1191406 L 15.433594 16.529297 L 5.2070312 9.1191406 C 5.3560028 8.6006824 5.8249381 8.2207031 6.3925781 8.2207031 z M 5.1894531 11.029297 L 15.396484 18.439453 L 26.005859 11.066406 L 26.005859 20.724609 C 26.016555 20.806073 26.03125 20.886223 26.03125 20.970703 L 26.03125 21.765625 C 26.03125 22.806208 25.192927 23.644531 24.152344 23.644531 L 7.0039062 23.644531 C 5.9633226 23.644531 5.1269531 22.806208 5.1269531 21.765625 L 5.1269531 20.970703 C 5.1269531 20.880202 5.1400981 20.79404 5.1523438 20.707031 L 5.1894531 11.029297 z "
     transform="scale(0.26458333)" />
</svg>
