<?xml version="1.0" encoding="UTF-8" standalone="no"?>
<svg
   xmlns:dc="http://purl.org/dc/elements/1.1/"
   xmlns:cc="http://creativecommons.org/ns#"
   xmlns:rdf="http://www.w3.org/1999/02/22-rdf-syntax-ns#"
   xmlns:svg="http://www.w3.org/2000/svg"
   xmlns="http://www.w3.org/2000/svg"
   xmlns:sodipodi="http://sodipodi.sourceforge.net/DTD/sodipodi-0.dtd"
   xmlns:inkscape="http://www.inkscape.org/namespaces/inkscape"
   version="1.1"
   id="svg1997"
   width="400"
   height="400"
   viewBox="0 0 400 400"
   sodipodi:docname="tech_nextjs.svg"
   inkscape:version="1.0.1 (3bc2e813f5, 2020-09-07)">
  <metadata
     id="metadata2003">
    <rdf:RDF>
      <cc:Work
         rdf:about="">
        <dc:format>image/svg+xml</dc:format>
        <dc:type
           rdf:resource="http://purl.org/dc/dcmitype/StillImage" />
        <dc:title></dc:title>
      </cc:Work>
    </rdf:RDF>
  </metadata>
  <defs
     id="defs2001" />
  <sodipodi:namedview
     pagecolor="#75717d"
     bordercolor="#666666"
     borderopacity="1"
     objecttolerance="10"
     gridtolerance="10"
     guidetolerance="10"
     inkscape:pageopacity="0"
     inkscape:pageshadow="2"
     inkscape:window-width="1920"
     inkscape:window-height="1017"
     id="namedview1999"
     showgrid="false"
     inkscape:zoom="1"
     inkscape:cx="-127.90873"
     inkscape:cy="152.20509"
     inkscape:window-x="-8"
     inkscape:window-y="-8"
     inkscape:window-maximized="1"
     inkscape:current-layer="g2005"
     inkscape:document-rotation="0" />
  <g
     inkscape:groupmode="layer"
     inkscape:label="Image"
     id="g2005">
    <path
       id="circle3155"
       style="display:inline;opacity:1;fill:#ffffff;stroke-width:22.6772;stroke-linecap:round;stroke-linejoin:round"
       d="M 199.79102,0 A 200,200 0 0 0 0,200 200,200 0 0 0 200,400 200,200 0 0 0 294.28711,376.37891 c -1.81742,-2.45847 -32.5882,-44.10878 -67.1582,-92.91016 C 191.50924,233.1856 155.62634,176.80754 153.22266,173.76367 148.4153,167.67594 148.0532,166.61148 148,171.5293 c -0.0532,4.91782 -0.35352,115 -0.35352,115 0,0 -0.36553,2.5543 -1.29296,3.35351 -1.0874,0.93706 -2.08683,2.23686 -3.59375,2.31446 -1.50692,0.0776 -10.57551,-0.10981 -11.31446,-0.0996 -0.73895,0.0102 -2.97282,-0.78439 -4.28515,-1.9043 -1.31233,-1.11991 -1.77345,-2.58987 -1.74805,-5.01758 0.5529,-52.90875 0.3071,-145.78154 0.4707,-151.5293 0.1636,-5.74776 5.99262,-6.85416 11.0586,-6.82226 5.06598,0.0319 9.59087,0.0688 13.41211,5.88086 3.79823,5.77703 155.57726,233.02237 157.41601,235.77539 A 200,200 0 0 0 400,200 200,200 0 0 0 200,0 200,200 0 0 0 199.79102,0 Z m 55.39648,121.62305 h 10.03906 c 2.05826,0.003 3.23316,0.79975 4.35156,2.14648 1.33917,1.61257 1.82738,2.97858 1.88868,4.50781 l 0.39453,136.42969 -22.46094,-33.27539 0.0586,-105.4707 c 0.0622,-1.4561 0.62155,-2.21379 2.03125,-3.18946 1.32997,-0.92049 1.95469,-1.14887 3.69727,-1.14843 z" />
  </g>
</svg>
