<svg width="500" height="500" version="1.1" viewBox="0 0 132 132" xmlns="http://www.w3.org/2000/svg" xmlns:osb="http://www.openswatchbook.org/uri/2009/osb"><g><rect x="-.293" y="31.7" width="133" height="68.4" fill="#800000" opacity=".998"/><path transform="matrix(1.46 0 0 1.46 -.205 .165)" d="m45.9 89.5-44.5-43.9 43.9-44.5 44.5 43.9z" fill="#f16529" opacity=".998" stroke="#e44d26" stroke-linecap="round" stroke-linejoin="round" stroke-width="2.33"/><path transform="matrix(.563 0 0 .979 26.6 2.32)" d="m68.7 131-113-64.7 113-65.9z" fill="#e44d26" opacity=".998" stroke="#e44d26" stroke-linecap="round" stroke-linejoin="round" stroke-width="4.45"/><text transform="scale(.615 1.63)" x="-0.22506383" y="51.076206" fill="#ffb380" font-family="sans-serif" font-size="24.3px" stroke-width=".608" style="line-height:1.25" xml:space="preserve"><tspan x="-0.22506383" y="51.076206" fill="#ffb380" font-family="Impact" stroke-width=".608">&lt;</tspan></text><text transform="scale(.635 1.57)" x="195.01653" y="52.268986" fill="#ffb380" font-family="sans-serif" font-size="25.5px" stroke-width=".637" style="line-height:1.25" xml:space="preserve"><tspan x="195.01653" y="52.268986" fill="#ffb380" font-family="Impact" stroke-width=".637">&gt;</tspan></text><g fill="#fff" aria-label="HTML"><path d="m34.6 80.4h-7.73v-13.6h-10.5v13.6h-7.73v-30.8h7.73v11.3h10.5v-11.3h7.73z"/><path d="m46.9 80.4v-24.9h-9.1v-5.87h25.9v5.87h-9.1v24.9z"/><path d="m98.4 80.4h-7.69v-20.4l-5.6 13.2h-5.27l-5.6-13.2v20.4h-7.28v-30.8h8.91l6.82 15.2 6.8-15.2h8.91z"/><path d="m125 80.4h-20.5v-30.8h7.73v24.9h12.8z"/></g></g></svg>
