<svg width="500" height="500" version="1.1" viewBox="0 0 132 132" xmlns="http://www.w3.org/2000/svg" xmlns:osb="http://www.openswatchbook.org/uri/2009/osb"><g><rect x="-.0967" y="31.5" width="133" height="68.4" fill="#006b99" opacity=".998"/><path d="m49.6 11.1a28.3 28.2 0 0 0-28.3 28.2 28.3 28.2 0 0 0 0.853 6.86 21.8 21.6 0 0 0-2.62 10.3 21.8 21.6 0 0 0 3.58 11.9 28.3 28.2 0 0 0-5.09 16.1 28.3 28.2 0 0 0 28.3 28.2 28.3 28.2 0 0 0 28.3-28.2 28.3 28.2 0 0 0-9.86-21.3 28.3 28.2 0 0 0 13.1-23.8 28.3 28.2 0 0 0-28.3-28.2zm-32.1 10.3a5.77 5.73 0 0 0-5.77 5.73 5.77 5.73 0 0 0 5.77 5.73 5.77 5.73 0 0 0 5.77-5.73 5.77 5.73 0 0 0-5.77-5.73z" fill="#25b1f5" opacity=".998" stroke="#25b1f5" stroke-linecap="round" stroke-linejoin="round" stroke-width="3.01"/><path d="m113 11a6.55 6.51 0 0 0-6.55 6.51 6.55 6.51 0 0 0 6.55 6.51 6.55 6.51 0 0 0 6.55-6.51 6.55 6.51 0 0 0-6.55-6.51zm-38.4 3.99a14.4 14.3 0 0 0-14.4 14.3 14.4 14.3 0 0 0 4.31 10.2 27 26.8 0 0 0-1.34 8.33 27 26.8 0 0 0 3.27 12.8 27 26.8 0 0 0-5.29 15.9 27 26.8 0 0 0 2.88 12.1 14.4 14.3 0 0 0-13.9 14.3 14.4 14.3 0 0 0 14.4 14.3 14.4 14.3 0 0 0 13.8-10.5 14.4 14.3 0 0 0 9.6 3.66 14.4 14.3 0 0 0 13.9-10.7 27 26.8 0 0 0 13.3-23.1 27 26.8 0 0 0-3.27-12.8 27 26.8 0 0 0 5.29-15.9 27 26.8 0 0 0-27-26.8 27 26.8 0 0 0-3.7 0.254 14.4 14.3 0 0 0-11.9-6.25zm35.6 89a6.55 6.51 0 0 0-6.55 6.51 6.55 6.51 0 0 0 6.55 6.51 6.55 6.51 0 0 0 6.55-6.51 6.55 6.51 0 0 0-6.55-6.51z" fill="#79daf8" opacity=".998" stroke="#25b1f5" stroke-linecap="round" stroke-linejoin="round" stroke-width="3.01"/><g fill="#fff" aria-label="CSS"><path d="m41.2 80.8q-6.92 0-11-4.18-4.07-4.2-4.07-11.8 0-7.32 4.07-11.7 4.09-4.36 11-4.36 1.84 0 3.31 0.207 1.47 0.207 2.81 0.579 1.05 0.31 2.29 0.847 1.24 0.537 2.01 0.93v7.34h-0.785q-0.558-0.496-1.41-1.18-0.847-0.703-1.92-1.36-1.07-0.661-2.38-1.12-1.28-0.475-2.69-0.475-1.67 0-3.08 0.537-1.38 0.517-2.65 1.82-1.16 1.18-1.9 3.18-0.723 2.01-0.723 4.73 0 2.87 0.765 4.84 0.765 1.94 2.01 3.14 1.2 1.16 2.67 1.67 1.49 0.517 2.96 0.517 1.53 0 2.91-0.496 1.38-0.517 2.34-1.14 1.03-0.641 1.82-1.3t1.36-1.18h0.703v7.23q-0.847 0.393-1.96 0.91-1.12 0.496-2.29 0.847-1.45 0.434-2.71 0.661t-3.47 0.227z"/><path d="m65.7 80.8q-3.53 0-6.22-0.682-2.67-0.682-4.96-1.69v-7.32h0.703q2.32 1.96 5.11 3.02 2.79 1.05 5.42 1.05 0.661 0 1.74-0.145 1.1-0.145 1.76-0.455 0.806-0.351 1.36-0.972 0.558-0.641 0.558-1.67 0-1.16-0.91-1.88-0.91-0.723-2.17-1.05-1.57-0.413-3.37-0.785-1.78-0.372-3.33-0.91-3.58-1.26-5.13-3.39-1.55-2.13-1.55-5.33 0-4.32 3.66-6.99 3.66-2.69 9.14-2.69 2.75 0 5.46 0.558 2.73 0.558 4.88 1.51v7.03h-0.682q-1.72-1.47-4.2-2.48-2.46-1.01-5.06-1.01-1.01 0-1.82 0.145-0.806 0.145-1.69 0.558-0.723 0.331-1.26 0.992-0.517 0.641-0.517 1.45 0 1.18 0.827 1.88 0.847 0.682 3.25 1.24 1.55 0.351 2.98 0.682 1.45 0.331 3.08 0.91 3.2 1.16 4.75 3.12 1.57 1.94 1.57 5.15 0 4.59-3.62 7.38-3.6 2.79-9.74 2.79z"/><path d="m92.5 80.8q-3.53 0-6.22-0.682-2.67-0.682-4.96-1.69v-7.32h0.703q2.32 1.96 5.11 3.02 2.79 1.05 5.42 1.05 0.661 0 1.74-0.145 1.1-0.145 1.76-0.455 0.806-0.351 1.36-0.972 0.558-0.641 0.558-1.67 0-1.16-0.91-1.88-0.91-0.723-2.17-1.05-1.57-0.413-3.37-0.785-1.78-0.372-3.33-0.91-3.58-1.26-5.13-3.39t-1.55-5.33q0-4.32 3.66-6.99 3.66-2.69 9.14-2.69 2.75 0 5.46 0.558 2.73 0.558 4.88 1.51v7.03h-0.682q-1.72-1.47-4.2-2.48-2.46-1.01-5.06-1.01-1.01 0-1.82 0.145-0.806 0.145-1.69 0.558-0.723 0.331-1.26 0.992-0.517 0.641-0.517 1.45 0 1.18 0.827 1.88 0.847 0.682 3.25 1.24 1.55 0.351 2.98 0.682 1.45 0.331 3.08 0.91 3.2 1.16 4.75 3.12 1.57 1.94 1.57 5.15 0 4.59-3.62 7.38-3.6 2.79-9.74 2.79z"/></g><circle cx="8.93" cy="123" r="13" fill="#25b1f5" opacity=".998"/></g></svg>
