<?xml version="1.0" encoding="UTF-8" standalone="no"?>
<svg
   xmlns:dc="http://purl.org/dc/elements/1.1/"
   xmlns:cc="http://creativecommons.org/ns#"
   xmlns:rdf="http://www.w3.org/1999/02/22-rdf-syntax-ns#"
   xmlns:svg="http://www.w3.org/2000/svg"
   xmlns="http://www.w3.org/2000/svg"
   xmlns:sodipodi="http://sodipodi.sourceforge.net/DTD/sodipodi-0.dtd"
   xmlns:inkscape="http://www.inkscape.org/namespaces/inkscape"
   width="28"
   height="28"
   viewBox="0 0 7.4083332 7.4083335"
   version="1.1"
   id="svg2027"
   inkscape:version="1.0.1 (3bc2e813f5, 2020-09-07)"
   sodipodi:docname="tech_styled-components.svg">
  <defs
     id="defs2021" />
  <sodipodi:namedview
     id="base"
     pagecolor="#ffffff"
     bordercolor="#666666"
     borderopacity="1.0"
     inkscape:pageopacity="0.0"
     inkscape:pageshadow="2"
     inkscape:zoom="15.839192"
     inkscape:cx="16.823208"
     inkscape:cy="12.254463"
     inkscape:document-units="mm"
     inkscape:current-layer="layer1"
     inkscape:document-rotation="0"
     showgrid="false"
     units="px"
     inkscape:snap-global="false"
     inkscape:window-width="1920"
     inkscape:window-height="1017"
     inkscape:window-x="-8"
     inkscape:window-y="-8"
     inkscape:window-maximized="1" />
  <metadata
     id="metadata2024">
    <rdf:RDF>
      <cc:Work
         rdf:about="">
        <dc:format>image/svg+xml</dc:format>
        <dc:type
           rdf:resource="http://purl.org/dc/dcmitype/StillImage" />
        <dc:title></dc:title>
      </cc:Work>
    </rdf:RDF>
  </metadata>
  <g
     inkscape:label="Layer 1"
     inkscape:groupmode="layer"
     id="layer1">
    <g
       aria-label="💅"
       id="text2611"
       style="font-size:6.35px;line-height:1.25;font-family:Roboto;-inkscape-font-specification:Roboto;display:inline;fill:#000000;stroke-width:0.264583">
      <path
         style="fill:#ffc83d;fill-opacity:1;stroke:none;stroke-width:0.264583px;stroke-linecap:butt;stroke-linejoin:miter;stroke-opacity:1"
         d="M 4.593695,2.6893996 3.7751821,3.5413211 3.2573473,3.0401908 0.35079125,5.8799295 0.31738257,7.1160512 4.6605123,7.0993481 6.4645817,5.1950527 6.531399,4.393244 5.562547,5.3119832 5.0113035,4.7440355 5.7295904,4.0090441 5.4122079,3.6415485 4.6605123,4.4600616 4.1092688,3.7918876 4.8108515,3.1738271 Z"
         id="path2626"
         inkscape:label="skin" />
      <path
         style="fill:#ee4083;fill-opacity:1;stroke:none;stroke-width:0.264583px;stroke-linecap:butt;stroke-linejoin:miter;stroke-opacity:1"
         d="M 4.2758555,1.8190104 3.1773624,3.0238094 3.7915736,3.5435267 4.6302083,2.7521392 4.7601375,3.2364211 4.0986792,3.9923735 4.7010788,4.405785 5.5279017,3.6380208 5.5987722,4.204985 5.0672433,4.8546316 5.5869604,5.3152902 6.5555245,4.3939732 6.0594308,3.342727 6.6500186,2.563151 6.673642,2.2442336 5.6578311,2.3151041 5.5633371,2.7993861 4.9018787,2.8820684 Z"
         id="path2643"
         inkscape:label="nail polish" />
      <path
         style="fill:#f3f3f3;fill-opacity:1;stroke:none;stroke-width:0.264583px;stroke-linecap:butt;stroke-linejoin:miter;stroke-opacity:1"
         d="M 5.2444197,0.37797618 5.3507253,1.7481399 5.7995721,2.2678571 H 6.6027715 L 6.7445127,1.8544457 7.0516183,1.594587 7.0634301,0.33072916 Z"
         id="path2645"
         inkscape:label="bottle" />
      <rect
         style="opacity:0.998235;fill:#cccccc;fill-opacity:1;stroke:none;stroke-width:0.0672227;stroke-linecap:round;stroke-linejoin:round"
         id="rect2647"
         width="0.4705877"
         height="1.1186844"
         x="5.7020874"
         y="0.59300429"
         inkscape:label="bottle effect" />
      <path
         d="M 7.2569236,0.15175186 V 1.4881044 q 0,0.1085205 -0.034106,0.2077393 -0.031006,0.096118 -0.089917,0.1798339 -0.058911,0.080615 -0.142627,0.1457276 -0.080615,0.062012 -0.1798339,0.099219 v 0.2604492 q 0,0.3193604 -0.1395264,0.5953125 -0.1395264,0.2759522 -0.3906738,0.4712891 0.093018,0.093018 0.1736328,0.1829346 0.083716,0.086816 0.1426269,0.1829345 0.062012,0.096118 0.096118,0.2077393 0.037207,0.1116211 0.037207,0.254248 0,0.089917 -0.018604,0.1767334 0.099219,0.1922363 0.099219,0.4123779 0,0.2294434 -0.093018,0.396875 -0.093018,0.1643311 -0.2511475,0.322461 l -1.699121,1.699121 H 0.12557604 V 5.7235047 L 4.3609764,1.4881044 q 0.1023193,0.1147217 0.2046387,0.2232422 0.1054199,0.1085205 0.1891357,0.2263428 0.083716,0.1178222 0.1364258,0.254248 0.05581,0.1333252 0.05581,0.3007568 0,0.089917 -0.018604,0.1767334 l 0.021704,0.049609 0.1178223,-0.1147217 H 5.4740867 V 2.1175233 Q 5.3717674,2.0803163 5.2880516,2.0183046 5.2074363,1.9562929 5.1485252,1.8756776 5.0927147,1.7919618 5.0586082,1.6958437 5.0276024,1.5966249 5.0276024,1.4881044 V 0.15175186 Z M 6.3670555,4.867743 q 0,-0.071314 -0.024805,-0.1457275 L 5.5857078,5.481659 5.0927147,4.9886659 3.7315575,6.3498231 q -0.021704,0.021704 -0.049609,0.031006 -0.027905,0.0093 -0.055811,0.0093 -0.062012,0 -0.111621,-0.046509 -0.046509,-0.046509 -0.046509,-0.1085205 0,-0.027905 0.0093,-0.058911 0.012402,-0.027905 0.031006,-0.046509 L 5.2508446,4.3871522 q 0.093018,-0.093018 0.1581298,-0.1829346 0.065112,-0.089917 0.065112,-0.2294433 0,-0.071314 -0.024805,-0.1457276 -0.012402,0.018604 -0.065112,0.074414 -0.05271,0.055811 -0.127124,0.1333252 -0.074414,0.074414 -0.164331,0.1612305 -0.086816,0.086816 -0.1674317,0.164331 -0.077514,0.077515 -0.1426266,0.1395265 -0.062012,0.062012 -0.086816,0.086816 Q 4.5687157,4.470868 4.4477928,4.3468446 4.32687,4.2228212 4.2028465,4.0987977 L 2.3952049,5.9064393 q -0.018603,0.018604 -0.049609,0.031006 -0.027905,0.0093 -0.055811,0.0093 -0.065112,0 -0.1116211,-0.046509 -0.046509,-0.046509 -0.046509,-0.1116211 0,-0.027905 0.0093,-0.05581 0.0093,-0.027905 0.031006,-0.049609 L 4.3609764,3.4941835 q 0.046509,-0.046509 0.086816,-0.089917 0.040308,-0.043408 0.071314,-0.089917 0.031006,-0.049609 0.046509,-0.1054199 0.018604,-0.055811 0.018604,-0.1271241 0,-0.068213 -0.024805,-0.1426269 L 3.8028709,3.6988221 3.3098778,3.205829 0.57206041,5.9467469 V 6.8366151 H 4.581118 L 6.1438133,5.2770204 q 0.089917,-0.089917 0.1550293,-0.179834 0.068213,-0.093018 0.068213,-0.2294434 z M 6.8104393,0.59823623 H 5.4740867 V 1.4881044 q 0,0.074414 0.027905,0.1209228 0.031006,0.043408 0.077515,0.068213 0.046509,0.021704 0.1054199,0.027905 0.058911,0.0062 0.1209228,0.0062 H 5.9205711 V 2.157831 H 6.3670555 V 1.7113466 h 0.1178222 q 0.058911,0 0.1178223,-0.0062 0.058911,-0.0062 0.1054199,-0.027905 0.046509,-0.024805 0.074414,-0.068213 0.027905,-0.046509 0.027905,-0.1209228 z M 5.3903709,3.3887636 q 0,-0.055811 -0.015503,-0.1178223 h 0.099219 q 0.1860352,0 0.3472657,-0.068213 Q 5.9856834,3.1314149 6.1066063,3.0104921 6.2275291,2.8895692 6.295742,2.7283388 6.3670555,2.5671083 6.3670555,2.3810731 H 5.9205711 v 0.2232422 q 0,0.093018 -0.037207,0.1736328 -0.034107,0.080615 -0.096118,0.142627 -0.058911,0.058911 -0.1395264,0.093018 -0.080615,0.034106 -0.1736328,0.034106 H 5.2508446 L 4.3609764,3.9406678 4.6958397,4.2755311 5.2508446,3.7174257 Q 5.3903709,3.5778993 5.3903709,3.3887636 Z M 3.4680077,3.0476991 3.8028709,3.3825624 4.3609764,2.8275575 q 0.065112,-0.065112 0.099219,-0.1550293 0.037207,-0.089917 0.037207,-0.179834 0,-0.093018 -0.037207,-0.179834 -0.034107,-0.089917 -0.099219,-0.1550292 z m 2.8122314,1.227832 q 0,-0.1984375 -0.1364258,-0.3348633 L 5.2508446,4.8336366 5.5857078,5.1653993 6.1438133,4.6103944 q 0.065112,-0.065112 0.099219,-0.1550293 0.037207,-0.089917 0.037207,-0.179834 z"
         style="font-size:6.35px;display:inline;fill:#000000;stroke-width:0.264583"
         id="path2623" />
    </g>
  </g>
</svg>
