<?xml version="1.0" encoding="UTF-8" standalone="no"?>
<svg
   xmlns:dc="http://purl.org/dc/elements/1.1/"
   xmlns:cc="http://creativecommons.org/ns#"
   xmlns:rdf="http://www.w3.org/1999/02/22-rdf-syntax-ns#"
   xmlns:svg="http://www.w3.org/2000/svg"
   xmlns="http://www.w3.org/2000/svg"
   xmlns:sodipodi="http://sodipodi.sourceforge.net/DTD/sodipodi-0.dtd"
   xmlns:inkscape="http://www.inkscape.org/namespaces/inkscape"
   width="239.70338"
   height="239.70338"
   id="svg2"
   version="1.1"
   inkscape:version="1.0.1 (3bc2e813f5, 2020-09-07)"
   sodipodi:docname="tech_flask.svg">
  <defs
     id="defs4">
    <inkscape:perspective
       sodipodi:type="inkscape:persp3d"
       inkscape:vp_x="0 : 585.88447 : 1"
       inkscape:vp_y="0 : 1000 : 0"
       inkscape:vp_z="744.09448 : 585.88447 : 1"
       inkscape:persp3d-origin="372.04724 : 410.49077 : 1"
       id="perspective10" />
    <inkscape:perspective
       id="perspective2824"
       inkscape:persp3d-origin="0.5 : 60.036714 : 1"
       inkscape:vp_z="1 : 60.203384 : 1"
       inkscape:vp_y="0 : 1000 : 0"
       inkscape:vp_x="0 : 60.203384 : 1"
       sodipodi:type="inkscape:persp3d" />
    <inkscape:perspective
       id="perspective2840"
       inkscape:persp3d-origin="0.5 : 60.036714 : 1"
       inkscape:vp_z="1 : 60.203384 : 1"
       inkscape:vp_y="0 : 1000 : 0"
       inkscape:vp_x="0 : 60.203384 : 1"
       sodipodi:type="inkscape:persp3d" />
    <inkscape:perspective
       id="perspective2878"
       inkscape:persp3d-origin="0.5 : 60.036714 : 1"
       inkscape:vp_z="1 : 60.203384 : 1"
       inkscape:vp_y="0 : 1000 : 0"
       inkscape:vp_x="0 : 60.203384 : 1"
       sodipodi:type="inkscape:persp3d" />
    <inkscape:perspective
       id="perspective2894"
       inkscape:persp3d-origin="0.5 : 60.036714 : 1"
       inkscape:vp_z="1 : 60.203384 : 1"
       inkscape:vp_y="0 : 1000 : 0"
       inkscape:vp_x="0 : 60.203384 : 1"
       sodipodi:type="inkscape:persp3d" />
    <inkscape:perspective
       id="perspective2910"
       inkscape:persp3d-origin="0.5 : 60.036714 : 1"
       inkscape:vp_z="1 : 60.203384 : 1"
       inkscape:vp_y="0 : 1000 : 0"
       inkscape:vp_x="0 : 60.203384 : 1"
       sodipodi:type="inkscape:persp3d" />
    <inkscape:perspective
       id="perspective2926"
       inkscape:persp3d-origin="0.5 : 60.036714 : 1"
       inkscape:vp_z="1 : 60.203384 : 1"
       inkscape:vp_y="0 : 1000 : 0"
       inkscape:vp_x="0 : 60.203384 : 1"
       sodipodi:type="inkscape:persp3d" />
    <inkscape:perspective
       id="perspective2976"
       inkscape:persp3d-origin="0.5 : 60.036714 : 1"
       inkscape:vp_z="1 : 60.203384 : 1"
       inkscape:vp_y="0 : 1000 : 0"
       inkscape:vp_x="0 : 60.203384 : 1"
       sodipodi:type="inkscape:persp3d" />
    <inkscape:perspective
       id="perspective3020"
       inkscape:persp3d-origin="0.5 : 60.036714 : 1"
       inkscape:vp_z="1 : 60.203384 : 1"
       inkscape:vp_y="0 : 1000 : 0"
       inkscape:vp_x="0 : 60.203384 : 1"
       sodipodi:type="inkscape:persp3d" />
    <inkscape:perspective
       id="perspective3036"
       inkscape:persp3d-origin="0.5 : 60.036714 : 1"
       inkscape:vp_z="1 : 60.203384 : 1"
       inkscape:vp_y="0 : 1000 : 0"
       inkscape:vp_x="0 : 60.203384 : 1"
       sodipodi:type="inkscape:persp3d" />
    <inkscape:perspective
       id="perspective3052"
       inkscape:persp3d-origin="0.5 : 60.036714 : 1"
       inkscape:vp_z="1 : 60.203384 : 1"
       inkscape:vp_y="0 : 1000 : 0"
       inkscape:vp_x="0 : 60.203384 : 1"
       sodipodi:type="inkscape:persp3d" />
    <inkscape:perspective
       id="perspective3866"
       inkscape:persp3d-origin="0.5 : 60.036714 : 1"
       inkscape:vp_z="1 : 60.203384 : 1"
       inkscape:vp_y="0 : 1000 : 0"
       inkscape:vp_x="0 : 60.203384 : 1"
       sodipodi:type="inkscape:persp3d" />
  </defs>
  <sodipodi:namedview
     id="base"
     pagecolor="#4d5959"
     bordercolor="#666666"
     borderopacity="1.0"
     inkscape:pageopacity="0"
     inkscape:pageshadow="2"
     inkscape:zoom="2.8"
     inkscape:cx="139.81346"
     inkscape:cy="119.60343"
     inkscape:document-units="px"
     inkscape:current-layer="layer1"
     showgrid="false"
     inkscape:window-width="1920"
     inkscape:window-height="1017"
     inkscape:window-x="-8"
     inkscape:window-y="-8"
     inkscape:window-maximized="1"
     inkscape:document-rotation="0"
     inkscape:snap-global="false" />
  <metadata
     id="metadata7">
    <rdf:RDF>
      <cc:Work
         rdf:about="">
        <dc:format>image/svg+xml</dc:format>
        <dc:type
           rdf:resource="http://purl.org/dc/dcmitype/StillImage" />
        <dc:title></dc:title>
      </cc:Work>
    </rdf:RDF>
  </metadata>
  <g
     inkscape:label="Layer 1"
     inkscape:groupmode="layer"
     id="layer1"
     transform="translate(-30.436689,-30.186869)">
    <path
       style="fill:#ffffff;stroke-width:1.00001"
       d="M 116.94487,182.03377 C 109.66264,176.30608 101.89451,170.81448 96.586285,163.08166 85.416817,149.44499 76.816847,133.6567 70.937564,117.06515 67.383937,106.27654 66.166882,94.709824 61.585777,84.338096 c -4.792277,-7.533044 0.821235,-15.767897 9.07273,-18.16242 3.673731,-0.705104 10.13331,-4.170258 2.335943,-1.693539 -6.99058,5.128871 -7.667126,-4.655603 -0.498823,-5.27517 4.892026,-0.650249 6.692894,-4.655044 5.019966,-8.260251 -5.251329,-3.424464 12.733728,-7.18801 3.684371,-12.297799 -9.426983,-10.170666 13.186333,-12.128546 7.607278,-0.577786 -1.335448,8.882061 15.801218,-1.627907 11.825118,8.628945 4.04127,4.925694 15.13354,1.1211 14.85837,8.031392 5.88702,0.404678 7.90754,5.358061 13.43402,5.738347 5.72756,2.586557 16.11075,4.624792 18.05975,11.079149 -5.68239,4.498756 -18.84089,-9.292674 -19.47303,3.160397 1.71667,18.396078 1.27917,37.346439 8.00988,54.864989 3.18343,10.60759 10.90113,18.95779 17.87107,27.21946 6.66873,8.09126 15.70182,13.78715 24.9089,18.58338 8.07641,3.80901 16.78378,6.33528 25.58574,7.92044 3.57014,-2.7307 9.87297,-12.8828 15.4424,-8.60188 0.26424,4.81007 -11.0541,10.05512 -0.53254,9.5235 6.17818,-1.86378 10.4634,4.77803 15.55102,-1.21289 4.68717,5.55206 19.4819,-3.54734 16.1469,7.80115 -4.50967,2.90955 -11.08685,1.15142 -15.60401,5.15397 -7.44761,-3.71979 -13.37687,3.32843 -21.62188,2.43707 -9.15641,1.64002 -18.47169,2.30204 -27.75472,2.31642 -15.22952,-1.20328 -30.78158,-1.71049 -45.26973,-7.01291 -8.16161,-2.37161 -16.12653,-7.01887 -23.29963,-11.66829 z m 12.86208,5.5729 c 7.96952,3.44651 15.76244,7.07889 24.49649,8.17457 13.85679,1.92727 28.16655,4.89163 42.07298,2.18757 -6.29388,-2.84199 -12.80067,1.10719 -19.07093,-2.0322 -7.52033,1.61821 -15.59045,-0.41223 -23.23573,-1.41189 -8.69397,-3.87259 -18.07619,-6.53549 -26.21773,-11.56219 -10.17313,-3.71578 5.26148,4.76524 8.00879,5.45214 6.35953,3.60969 -6.99338,-1.85044 -8.87596,-3.35101 -5.32649,-2.9879 -6.00523,-2.36357 -0.52741,0.67085 1.10337,0.64577 2.19359,1.32226 3.3495,1.87216 z m -15.16473,-10.71691 c 7.72277,2.86052 -0.0341,-5.43082 -3.57294,-4.94904 -1.56791,-2.72015 -5.9903,-4.43854 -2.87072,-5.89973 -5.61152,1.9481 -5.87831,-7.40814 -8.516002,-6.07139 -5.936516,-1.87454 -2.310495,-8.51501 -9.381923,-12.59292 -0.645488,-4.29697 -7.025765,-8.02393 -9.060797,-14.50525 -0.898788,-3.31843 -7.208339,-12.84783 -3.332368,-3.97927 3.30019,8.53747 9.106616,15.84879 13.938674,23.15175 3.752084,6.95328 8.182486,14.22026 15.015756,18.55788 2.30344,2.20963 4.52745,5.59533 7.78032,6.28797 z M 92.394525,152.46355 c 0.26957,-1.16626 1.412425,2.52422 0,0 z m 31.496435,27.85526 c 1.71005,-0.76577 -2.45917,-0.96476 0,0 z m 4.19224,1.52924 c -0.43422,-2.1116 -1.91376,1.18074 0,0 z m 5.24741,2.18891 c 2.49831,-2.37871 -3.8501,-1.49983 0,0 z m 8.99401,5.01274 c 1.51809,-2.2439 -4.85876,-0.84682 0,0 z m -17.27069,-12.03933 c 3.88021,-2.51023 -5.01188,-0.0347 0,0 z m 3.9365,1.96293 c -0.10995,-1.32709 -1.40301,0.59432 0,0 z m 19.67472,12.28006 c 3.16288,1.99601 18.46961,4.3749 8.88478,0.81847 -1.60374,0.33811 -17.77253,-4.57336 -8.88478,-0.81847 z m -31.23424,-24.32615 c -0.3075,-1.33094 -4.90933,-1.4694 0,0 z m 9.15926,5.33813 c 2.38372,-1.66255 -4.94751,-1.28235 0,0 z m 7.70436,4.72382 c 3.42054,-1.28963 -5.54909,-1.29571 0,0 z m -20.59064,-14.12111 c 3.71136,2.84621 14.96765,0.36473 5.68379,-1.69906 -4.22554,-2.2524 -13.7489,-3.79415 -7.25759,1.35821 l 1.57379,0.34088 z m 25.80871,15.75216 c 1.54593,-2.63388 -6.48305,-1.50411 0,0 z m -7.84248,-6.23284 c 9.07517,2.56719 -7.63144,-5.739 -2.23914,-0.94466 l 1.19515,0.54082 1.04399,0.4039 z m 15.72354,9.0878 c 8.59468,0.082 -7.76306,-1.18486 0,1e-5 z m -36.99671,-23.57972 c -0.3357,-1.60094 -2.12097,0.13419 0,0 z m 51.53536,31.73502 c 0.22916,-2.89141 -2.80486,2.15157 0,0 z m -36.86817,-22.75299 c -0.51986,-1.52251 -2.68549,-0.0622 0,0 z m -13.8521,-9.98649 c 4.93423,-0.29629 -6.75531,-2.17418 0,0 z M 94.802357,146.28394 c -0.614141,-2.36536 -5.369216,-4.2519 0,0 z m 43.079273,27.33941 c -0.90373,-1.0307 -0.42509,0.22546 0,0 z m 26.81402,16.45475 c -0.0856,-1.57503 -1.4603,0.59616 0,0 z m -29.18709,-18.90528 c 0.4827,-2.02932 -4.20737,-0.61442 0,0 z m -19.97599,-12.65996 c 3.67076,-0.39305 -5.88043,-2.48161 0,0 z M 149.32393,179.51 c 5.72036,-2.26627 -5.5754,-1.10635 0,0 z m -17.57676,-11.93145 c 6.5927,0.85002 -7.84453,-4.48425 -1.44659,-0.4773 l 1.44658,0.47734 z m 22.91281,14.0886 c 6.15522,-3.67975 4.12595,8.61677 10.44263,1.0388 6.23075,-4.54942 -5.38096,5.62451 2.29834,0.81116 5.5536,-3.71438 13.75642,1.76075 18.93848,3.5472 3.72662,-0.18307 7.34935,3.22236 11.16974,1.15059 7.35413,-1.98082 -14.38099,-2.93789 -8.68343,-6.4523 -6.72915,1.95848 -11.70095,-2.33483 -15.01217,-6.64508 -7.54805,-1.74298 -16.27542,-5.602 -20.04253,-12.28184 -1.53592,-2.50802 2.21879,0.35333 -1.32587,-3.74638 -4.54833,-4.04546 -6.81944,-8.63766 -9.87277,-13.5552 -3.64759,-1.94587 -4.07253,-7.67345 -4.44122,-0.19201 0.0287,-4.72164 -4.40399,-7.89964 -5.48594,-6.57859 -0.0185,-4.54721 4.74401,-2.26787 1.40951,-5.63228 -0.71772,-4.71302 -3.08083,-9.6241 -3.79112,-14.9453 -1.10357,-2.56502 -0.15544,-8.05863 -3.76664,-2.25204 -1.31573,6.13669 -0.43666,-7.54129 1.60931,-3.03083 2.6854,-4.60251 -0.9641,-4.0612 -1.1137,-3.42211 1.74938,-3.88333 1.10728,-9.39159 -0.45638,-7.29023 0.9321,-4.11586 1.47255,-15.147529 -1.39515,-13.192579 1.73839,-4.303958 3.29663,-19.694077 -4.24958,-13.826325 -3.05837,0.04294 -8.35453,1.110195 -10.85801,2.355243 7.8495,4.326857 -0.78955,1.562577 -3.9848,0.874879 -0.41636,4.003642 -3.58119,2.272086 -7.535129,2.311339 6.315269,0.781339 -3.075245,6.458962 -6.698128,4.253506 -4.7051,2.248756 4.060618,7.862038 0.09439,9.597586 0.487427,2.616581 -7.208227,-0.944906 -6.603831,5.097711 -4.56773,-1.92155 -0.628958,7.16796 1.656276,4.09382 7.768879,2.10261 5.469099,6.89631 5.666944,11.44992 -1.265825,2.6534 -6.24949,-6.23691 -1.109938,-5.82517 -4.054713,-6.58674 -4.485229,-2.38081 -7.854563,0.67911 -0.783858,0.22222 8.594398,4.35376 2.709064,6.3967 5.177875,0.79894 5.32519,5.33008 6.37928,8.19735 3.112186,3.24152 2.475218,-3.57931 6.199061,0.31623 -2.356484,-3.4705 -12.481822,-9.77839 -4.329565,-7.7553 -0.04357,-3.49291 -1.474401,-6.30951 1.023221,-6.24118 2.473366,-4.47926 -2.590381,11.044 2.984726,5.35124 1.543282,-0.67388 1.925532,-4.48494 4.699532,0.35989 4.0291,3.96363 1.45534,6.83577 -4.22815,3.20648 1.01683,3.44946 7.60306,4.68217 6.36535,10.07646 1.31209,4.7444 3.14783,2.99695 4.74799,2.72266 1.25523,4.60973 1.96801,1.2201 2.02756,-0.97355 5.74737,1.23033 4.40114,4.62773 6.19942,7.00134 3.96047,1.78761 -5.66866,-12.11713 1.13069,-4.18106 7.15353,6.4586 2.68274,9.15464 -3.73686,8.11995 4.06315,-0.32824 5.37337,5.49305 10.45561,5.28853 4.63465,2.20477 7.77241,10.67291 -0.21601,7.1478 -2.77074,-2.49821 -12.57577,-5.5801 -4.56731,-0.82823 7.39656,3.42523 13.27115,5.47432 20.40478,9.77384 5.10536,3.64464 7.31107,7.81908 9.246,8.64541 -4.29071,2.04946 -12.9308,-1.63655 -6.51504,-2.76618 -4.00174,-0.72894 -8.50254,-2.75259 -4.66958,2.2333 3.25919,2.72127 11.54706,2.43298 13.03278,2.74132 -1.25934,2.77488 -3.42078,2.99556 0.0511,3.21078 -3.87376,2.06438 1.24215,2.38403 1.60111,3.56362 z m -7.92148,-22.36993 c -2.35672,-2.46475 -2.96617,-7.08134 -0.41847,-3.06426 1.30646,0.52466 4.18527,7.54428 0.41851,3.06426 z m 25.79732,16.38693 c 1.47009,-0.0952 0.0425,1.11681 0,0 z m -29.5187,-22.43039 c -0.0898,-3.72637 0.85258,2.87419 0,0 z m -2.5638,-3.44965 c -2.96451,-5.72787 3.73718,1.62212 0,0 z m -31.07071,-21.44495 c 1.7416,-0.46446 0.85684,2.97864 0,0 z m 24.72828,13.40357 c 1.0696,-4.01654 1.25688,3.37014 0,0 z m -17.46978,-12.14748 c -1.23155,-2.21638 2.57604,2.07865 0,0 z m 14.99279,4.80618 c -2.80853,-6.29223 1.98834,-3.43699 0.62137,1.03124 z m -25.85519,-17.24279 c -1.25561,-2.06432 -3.33265,-8.12135 -2.66397,-9.97042 0.60493,3.0114 6.40391,12.95956 2.84457,4.12096 -3.93338,-7.40908 4.7018,2.40491 5.59005,4.2529 0.41362,1.83837 -2.4268,-0.50225 -0.50219,3.80828 -3.50981,-4.90766 -2.07197,2.71088 -5.26846,-2.21172 z m -7.990683,-5.50612 c 0.328935,-4.79981 1.829257,3.29132 0,0 z m 3.594293,1.23728 c 1.71516,-3.62282 2.90823,5.05052 0,0 z m -8.646168,-6.68847 c -2.974949,-2.95622 -5.127792,-5.68132 0.139205,-1.83474 2.029475,0.0792 -4.509013,-6.19705 0.488746,-1.99305 5.255304,0.95822 2.595098,8.61674 -0.627951,3.82779 z m 4.541723,-0.11873 c 1.727643,-1.71203 0.917176,1.6853 0,0 z m 2.794585,0.8959 c -2.619179,-4.9094 3.1788,2.05822 0,0 z m -5.555466,-5.30909 c -8.648426,-7.696511 10.867306,4.02451 1.412906,1.4269 l -1.412958,-1.42683 z m 24.779086,14.39717 c -3.74252,-2.24398 -0.99177,-15.79747 0.28451,-6.52785 3.63828,-1.17695 -0.20094,4.78728 2.51276,4.73208 -0.42767,3.76305 -1.6417,5.11594 -2.79727,1.79577 z m 9.16521,5.41684 c 0.36706,-4.08462 0.77248,2.79262 0,0 z m -1.59203,-1.57295 c 0.41207,-1.74497 0.0424,2.05487 0,0 z M 96.213529,99.16032 c -5.556034,-7.665657 16.147311,7.75413 3.558566,1.9443 -1.315437,-0.34404 -2.898214,-0.46688 -3.558566,-1.9443 z m 17.649101,9.35749 c -0.52577,-6.45461 1.17417,1.06991 -1.9e-4,-2e-5 z m 13.39981,8.59585 c 1.03696,-3.67668 0.0767,2.43221 0,0 z M 97.064653,96.23472 c 3.302167,-0.706291 13.684687,5.79939 4.150217,1.85832 -1.0594,-1.17279 -3.317791,-0.63994 -4.150217,-1.85832 z m 28.356647,14.13312 c 0.35304,-6.60002 1.97146,-3.94233 0.0116,0.94474 l -0.0115,-0.94473 -5e-5,-1e-5 z M 99.522739,93.938099 c 1.345451,-1.97361 -3.571632,-8.923063 0.708791,-2.492797 1.84954,1.469605 5.3551,2.461959 2.26002,3.080216 4.86773,4.294162 -1.18724,1.163612 -2.968811,-0.587419 z m 24.496081,14.368161 c 0.92945,-7.51843 0.81971,4.40485 0,0 z M 96.712718,86.993902 c 1.027707,-0.439207 0.54275,1.369335 0,0 z m 6.389632,3.803092 c 1.64441,-3.450522 3.0335,3.848297 0,0 z m 18.02357,10.026276 c -0.0166,-1.3252 0.34001,1.92765 0,0 z m -1.04409,-2.31139 c -2.50161,-6.171646 2.32695,3.26759 0,0 z m -1.53599,-4.046372 c -0.41993,-2.550188 1.42712,3.203862 -8e-5,-9e-6 z m 2.49981,-4.063514 c -1.71668,-3.025123 2.16774,-13.331073 2.6012,-6.939418 -1.81192,4.980256 -0.52264,7.766309 0.74132,1.086388 2.33416,-5.257159 -0.50429,10.374054 -3.34256,5.853057 z m 2.56886,-15.326649 c 0.74829,-0.918921 0.16608,1.107082 0,0 z m -4.29007,84.534235 c -1.01749,-0.88802 0.12782,0.56506 0,0 z m 8.83782,4.47065 c 4.91599,1.26135 4.89085,-0.76487 0.4477,-1.36683 -2.38965,-2.22316 -9.93035,-4.58124 -3.18118,-0.27586 0.44705,1.13227 1.85951,1.10589 2.73348,1.64269 z m -17.45424,-11.59298 c 2.70826,2.01956 10.20114,5.72375 3.8582,0.76868 2.13858,-2.48467 -4.09334,-3.80722 -2.02607,-5.46927 -5.25818,-3.21755 -4.14797,-2.93133 -0.46412,-2.8301 -6.31939,-2.82462 0.91216,-2.61333 0.57166,-4.06067 -2.4367,-0.48126 -12.10306,-4.29664 -6.41639,0.31341 -5.78088,-2.94751 -1.3776,1.09799 -3.12487,0.67029 -5.911329,-1.61178 5.26439,4.50224 -0.93885,2.98448 3.39132,2.6875 9.1283,6.88393 1.43378,2.84407 -1.01381,1.45934 5.50627,3.67136 7.10666,4.77911 z m 9.2432,5.31013 c 11.23878,3.62163 -5.51002,-4.4246 0,0 z m 47.31638,28.66432 c 0.14498,-2.22965 -1.53604,1.90201 0,0 z m 4.86319,2.04679 c 2.59307,-2.51255 0.10611,4.00222 4.29651,-0.61509 0.045,-3.30544 -0.129,-5.25783 -4.81557,-1.24252 -1.29186,0.71648 -1.86873,3.76288 0.51906,1.85761 z M 94.932348,140.02637 c -0.796365,-3.1304 -5.581946,-3.11418 0,0 z m 5.193022,3.40294 c -1.928401,-3.19739 -6.880523,-2.89469 0,0 z m 29.54342,17.81697 c 2.88437,2.56199 13.24747,1.87984 3.50329,0.31527 -1.44324,-2.13386 -9.16417,-1.6203 -3.50329,-0.31527 z m 40.61228,25.08153 c 4.43929,-3.72512 -4.30114,1.66183 0,0 z m 9.2328,6.34473 c 0.027,-1.19543 -1.91349,0.52338 0,0 z m 0.0136,-1.6736 c 4.91606,-5.20866 -4.76335,0.30807 -4e-5,0 z M 82.159784,129.33339 c -4.189939,-5.97826 -2.604581,-8.66544 -6.645135,-13.54677 -0.76491,-3.73279 -6.931664,-12.20326 -3.189572,-3.22947 3.427534,5.24836 4.446052,13.37434 9.834707,16.77624 z m 95.826296,60.00977 c 9.04429,-5.84575 -3.71256,-2.54641 0,0 z m 6.90403,2.70461 c 4.52918,-3.88867 -2.86484,-0.81334 0,0 z M 93.393061,133.41838 c 1.296206,-1.92838 -3.34764,-0.24666 0,0 z m 90.055569,56.78275 c 4.38524,-2.82746 -1.01039,-2.39335 -0.79481,0.26003 l 0.79482,-0.26003 z m -59.51381,-37.51178 c -0.15083,-1.90924 -2.31586,0.16206 0,0 z m 3.67787,2.11629 c -1.16891,-2.36318 -1.79712,0.37121 0,0 z m 62.87243,37.30625 c 5.61813,-4.05283 -3.40551,-0.77594 -1.17918,0.76785 z m -2.15124,-1.03979 c 4.57661,-3.83506 -4.83182,1.69954 0,0 z m 10.9916,7.31983 c 3.07291,-2.05816 -3.73313,-0.66575 0,0 z M 96.211214,132.02781 c 4.118966,0.92286 16.460386,10.1439 9.179466,0.63772 -3.72899,-1.10384 -1.4926,-10.21906 -5.29621,-8.60579 2.55297,4.2649 2.10046,6.08018 -3.25964,3.3914 -6.736802,-3.28853 -3.785889,1.6297 -2.469287,2.98518 -1.794192,0.40772 2.373217,1.5572 1.845671,1.59149 z M 77.445349,117.20755 c 0.737397,-3.04991 -6.789818,-16.77881 -3.554468,-6.87916 1.167861,2.07373 1.049117,6.00387 3.554468,6.87916 z m 34.443431,21.23513 c -2.12099,-1.77378 -0.10079,-0.25103 0,0 z m 5.223,1.21548 c -0.003,-3.23079 -5.77327,-1.31196 0,0 z m 45.26145,28.53321 c -0.86322,-2.20739 -3.41222,-0.0512 8e-5,4e-5 z m 2.17346,1.58769 c -0.32087,-1.23546 -1.25388,0.23848 0,0 z m 17.94021,11.3001 c 1.72544,-1.27472 -2.15321,-0.1628 0,0 z M 86.819037,119.6006 c 4.935234,-1.91072 -5.287756,-1.36248 0,0 z m 71.569703,45.08937 c -0.0542,-3.19499 -3.14633,0.79264 0,0 z M 84.869124,115.05675 c 3.170166,-1.07084 -2.932665,-0.70531 0,0 z m 9.201536,4.45726 c -0.05751,-1.05014 -0.973339,0.39747 0,0 z m 112.23131,68.82181 c 4.07649,-0.8265 13.3661,2.07489 14.86761,-1.08086 -4.95051,-0.12019 -17.12747,-3.49263 -17.70346,0.80479 l 1.08364,0.17072 1.75221,0.10534 z M 96.995129,120.25099 c 0.07093,-3.23755 -2.524669,-0.12092 0,0 z M 72.801973,103.4687 c -1.098689,-6.16843 -4.17878,-0.93357 0,0 z m 5.769194,1.45013 c 0.0709,-1.9807 -5.280558,-1.78224 0,0 z m 3.296916,1.61923 c -0.95301,-0.77196 -0.745956,0.97521 0,0 z m 20.744707,13.30775 c 0.97662,-0.89718 -2.31212,-0.66455 0,0 z M 79.672176,102.88617 c -0.557623,-4.65897 -6.681993,-0.69805 0,0 z M 67.844419,95.21166 c -0.168219,-2.150189 -1.152616,0.81111 0,0 z m 1.75934,-1.328672 c -0.287037,-2.549584 -1.51052,0.324387 0,0 z m 9.720785,5.802442 c 4.110476,-1.61465 -7.48725,-3.33984 -0.839892,-0.30506 z m 130.097536,80.35913 c 2.63099,-2.4121 -3.34374,-0.74577 0,0 z m 15.71662,8.14691 c 1.05438,-3.1186 -2.65453,0.41058 0,0 z M 80.317987,94.590436 c 0.433014,-3.016773 -3.258763,0.59902 0,0 z M 66.487673,85.324242 c -0.742972,-4.25911 -0.64134,-11.735065 6.465129,-9.208583 -9.485965,1.883339 6.565332,11.790095 4.538351,3.968363 3.988631,0.195294 7.802662,-2.357284 5.709483,1.516403 7.858755,-0.867958 13.307121,-7.682612 20.898164,-6.72768 5.91306,-0.782493 12.37817,-1.375955 18.75023,-3.756157 5.23901,-0.37743 10.28241,-6.018062 7.41067,-9.361383 -7.14462,-0.604513 -14.62336,0.289393 -22.52008,1.858993 -8.75056,1.819117 -16.699005,5.275307 -25.528113,6.758866 -8.605895,1.15604 1.731003,3.185165 -0.734076,3.637227 -4.490684,1.558136 5.35549,2.608852 -0.582183,4.251428 -3.666981,-0.697239 -7.483864,-1.957184 -5.917482,-5.821523 -8.24368,1.069724 -15.487509,4.491129 -8.974509,12.880146 l 0.484408,0.0037 8e-6,-2.56e-4 z m 19.864277,-10.1168 c 1.932854,-7.120464 10.355224,5.859274 3.16805,0.945776 -0.858453,-0.642457 -2.270298,-1.166588 -3.16805,-0.945776 z m 0.376046,-3.452197 c 2.789654,-2.078257 1.482957,1.16516 0,0 z m 3.542201,0.05622 c 0.251835,-3.27648 8.108747,1.73455 1.295516,1.179499 z m 4.845432,-1.948193 c 1.769477,-2.067535 0.508617,1.83906 0,0 z m 1.239553,-0.83005 c 2.946383,-3.540216 16.685608,-2.259413 6.628968,-0.34519 -2.69555,-2.029363 -4.761794,1.196575 -6.628968,0.34519 z M 114.2852,66.269336 c -0.4482,-9.670222 8.90779,3.436477 0,0 z m 5.0875,-0.02784 c 1.86003,-4.873906 7.21809,-1.955774 0.86077,-0.979407 0.13804,0.518656 -0.1865,2.516173 -0.86077,0.979407 z M 78.311817,92.088739 c 5.557524,-3.403212 -5.899938,-2.952541 0,0 z m 4.109214,1.141866 c 1.948503,-2.071884 -4.233857,-0.840369 0,0 z M 70.313371,84.63767 c 3.175579,-2.439416 -3.757836,-0.927473 0,0 z M 234.41564,187.30012 c 0.0916,-2.83019 -2.42715,1.27537 0,0 z m -16.67479,-11.37935 c 0.47412,-3.25845 -2.14286,0.28408 0,0 z m 21.26017,12.47672 c 4.43988,0.015 13.45255,-1.37884 3.7922,-1.37442 -1.51596,0.23641 -8.83314,0.18571 -3.79219,1.37439 z M 86.03557,91.23339 c 3.593261,-0.246807 5.621867,-3.963629 -0.694926,-3.749977 -9.789944,-1.013541 8.637505,3.352129 -1.255904,2.10383 -1.32936,0.880346 1.873611,1.889721 1.95083,1.646147 z m 3.16462,1.601748 c -0.375175,-2.307063 -1.111154,1.225591 0,0 z m 3.753896,-10.009901 c 1.55928,-1.934055 -2.157698,-0.517053 0,0 z M 81.003974,62.84999 c 6.412873,-2.181631 15.182392,-4.633087 18.210327,1.074184 -3.08159,-3.70893 -1.243609,-7.360157 1.666959,-1.937407 4.11557,5.486669 6.17591,-2.495489 3.49908,-4.335821 3.05048,3.790246 6.52004,5.581281 2.04243,0.239564 4.86569,-5.852929 -9.742715,0.766433 -13.063098,0.699775 -1.597561,0.717062 -16.493562,3.79889 -12.355698,4.259705 z m 3.758307,-7.197834 c 3.65732,-2.760416 12.64896,1.641989 6.87908,-2.743367 -0.564122,-0.498292 -12.636078,3.325475 -6.87908,2.743367 z m 13.333481,0.550473 c 4.280388,0.109225 -1.84632,-5.750287 3.254308,-3.095159 -0.8377,-2.736627 -5.938552,-3.248956 -8.432317,-4.342312 -1.410475,2.502054 2.870974,7.471102 5.178009,7.437471 z m -10.9955,-12.103467 c 1.480808,-2.007406 -2.595213,1.017699 0,0 z m 5.449587,1.304353 c 6.897859,-0.914901 -1.758294,-2.970542 -1.389963,-0.07352 l 1.389963,0.07352 v -9e-6 z M 82.374361,37.441437 c -4.856865,-6.340205 9.13398,1.065769 4.199406,-5.572646 -4.153251,-3.307245 -8.1443,3.721775 -4.199406,5.572646 z m 62.330149,33.572802 c 2.2276,-3.948988 -9.19703,-5.323011 -1.50093,-1.399578 0.70851,0.236781 0.54813,1.6727 1.50093,1.399578 z"
       id="path2900" />
    <g
       style="font-style:normal;font-weight:normal;font-size:40px;font-family:'Bitstream Vera Sans';display:inline;fill:#ffffff;fill-opacity:1;stroke:none"
       id="text3850"
       transform="matrix(0.64567353,0,0,0.64567385,-56.614129,181.87891)">
      <path
         d="m 229.85182,43.77803 c -0.79695,3.140714 -1.28913,8.414146 -1.47656,15.820313 -7e-5,1.453199 -0.65632,2.179761 -1.96875,2.179687 -1.31257,7.4e-5 -2.22663,-0.632738 -2.74219,-1.898437 -1.40631,-3.421796 -2.74225,-5.812419 -4.00781,-7.171875 -1.50006,-1.593666 -3.49225,-2.554603 -5.97656,-2.882813 -2.67193,-0.421789 -9.32818,-0.632726 -19.96875,-0.632812 -2.43754,8.6e-5 -4.03129,0.257898 -4.78125,0.773437 -0.46879,0.32821 -0.70316,1.031335 -0.70313,2.109375 v 31.851563 c -3e-5,1.078175 0.67966,1.5938 2.03906,1.546875 4.17184,-0.04682 10.21871,-0.328075 18.14063,-0.84375 1.54682,-0.187449 2.58979,-0.691355 3.12891,-1.511719 0.539,-0.820259 1.06634,-2.941351 1.58203,-6.363281 0.32806,-1.87494 1.42963,-2.601502 3.30468,-2.179688 1.59369,0.328186 2.27338,1.054747 2.03907,2.179688 -1.31256,6.375052 -1.73444,14.671919 -1.26563,24.890627 0.0468,1.21878 -0.72662,1.87503 -2.32031,1.96875 -1.31256,0.14065 -2.13287,-0.56247 -2.46094,-2.10938 -1.2188,-5.859333 -3.48052,-8.988236 -6.78515,-9.386716 -3.30474,-0.398394 -8.68364,-0.597612 -16.13672,-0.597656 -0.84379,4.4e-5 -1.26566,0.304731 -1.26563,0.914062 v 31.64063 c -3e-5,2.34375 0.86716,3.9375 2.60156,4.78125 1.35934,0.70313 4.28903,1.33594 8.78907,1.89843 2.29683,0.23438 3.30464,1.24219 3.02343,3.02344 -0.28129,1.54688 -2.34379,2.15625 -6.1875,1.82813 -11.1094,-0.89063 -20.27345,-0.84375 -27.49218,0.14062 -2.01564,0.28125 -3.02345,-0.53906 -3.02344,-2.46094 -1e-5,-1.21874 1.0078,-1.92187 3.02344,-2.10937 4.59373,-0.51562 6.8906,-4.54687 6.89062,-12.09375 V 58.895218 c -2e-5,-3.093671 -0.5508,-5.472575 -1.65234,-7.136719 -1.10158,-1.663977 -3.15236,-3.175695 -6.15235,-4.535156 -1.87501,-0.843661 -2.57813,-1.992098 -2.10937,-3.445313 0.23436,-0.890532 0.60936,-1.382719 1.125,-1.476562 0.46874,-0.140532 1.71092,-0.04678 3.72656,0.28125 2.95311,0.468842 9.91404,0.703217 20.88281,0.703125 12.93746,9.2e-5 24.11713,-0.281158 33.53907,-0.84375 3.14055,-0.187407 4.71086,0.07041 4.71093,0.773437 -7e-5,0.187592 -0.0235,0.375092 -0.0703,0.5625 z"
         style="font-size:144px;font-family:'High Tower Text';-inkscape-font-specification:'High Tower Text';fill:#ffffff"
         id="path2830" />
      <path
         d="m 275.55495,133.14522 c -4e-5,1.875 -1.05473,2.69531 -3.16407,2.46094 -6.46877,-0.60938 -14.48439,-0.51563 -24.04687,0.28125 -1.92189,0.18749 -3.10548,0.14062 -3.55078,-0.14063 -0.44532,-0.28125 -0.66798,-1.05469 -0.66797,-2.32031 -1e-5,-1.125 1.27733,-2.07422 3.83203,-2.84766 2.55467,-0.77343 3.83202,-3.08202 3.83203,-6.92578 V 60.020218 c -1e-5,-3.796796 -0.55079,-6.585856 -1.65234,-8.367188 -1.10158,-1.781164 -3.03517,-3.163975 -5.80078,-4.148437 -1.45313,-0.515537 -2.1797,-1.242099 -2.17969,-2.179688 -1e-5,-1.406158 1.05468,-2.460845 3.16406,-3.164062 3.18749,-1.031156 6.49217,-2.624904 9.91406,-4.78125 2.81248,-1.687401 4.59373,-2.53115 5.34375,-2.53125 1.73435,1e-4 2.60154,1.195412 2.60157,3.585937 -3e-5,-0.187403 -0.0938,2.156345 -0.28125,7.03125 -0.14065,4.64071 -0.18753,9.211018 -0.14063,13.710938 l 0.28125,62.789062 c -2e-5,2.85939 0.7031,4.9336 2.10938,6.22266 1.40622,1.28906 3.82028,2.14453 7.24218,2.5664 2.10934,0.23438 3.16403,1.03126 3.16407,2.39063 z"
         style="font-size:144px;font-family:'High Tower Text';-inkscape-font-specification:'High Tower Text';fill:#ffffff"
         id="path2832" />
      <path
         d="m 339.67995,128.43428 c -7e-5,0.98438 -1.79303,2.47266 -5.37891,4.46484 -3.58599,1.99219 -6.45708,2.98828 -8.61328,2.98829 -1.82817,-10e-6 -3.44536,-0.89063 -4.85156,-2.67188 -1.40629,-1.78125 -2.39067,-2.67187 -2.95313,-2.67187 -0.42191,0 -2.64847,0.96094 -6.67969,2.88281 -4.03128,1.92187 -8.08596,2.88281 -12.16406,2.88281 -3.84377,0 -7.0547,-1.125 -9.63281,-3.375 -2.81251,-2.48437 -4.21876,-5.85937 -4.21875,-10.125 -1e-5,-8.10935 9.28123,-13.92185 27.84375,-17.4375 3.18746,-0.60934 4.80465,-1.89841 4.85156,-3.86719 l 0.14063,-4.499997 c 0.28121,-7.687454 -3.11723,-11.5312 -10.19532,-11.53125 -2.01565,5e-5 -3.9258,1.804735 -5.73046,5.414062 -1.80471,3.609416 -4.39456,5.554727 -7.76954,5.835938 -3.84376,0.375038 -5.76563,-1.242148 -5.76562,-4.851563 -1e-5,-2.249954 2.85936,-4.874951 8.57812,-7.875 5.99998,-3.14057 11.7656,-4.710881 17.29688,-4.710937 9.51558,5.6e-5 14.22651,4.523489 14.13281,13.570312 l -0.28125,28.968755 c -0.0469,3.04688 1.24214,4.57032 3.86719,4.57031 0.51557,1e-5 1.49994,-0.11718 2.95312,-0.35156 1.45307,-0.23437 2.29682,-0.35156 2.53125,-0.35157 1.35932,1e-5 2.039,0.91407 2.03907,2.74219 z M 318.0237,112.40303 c 0.0468,-1.17185 -0.2227,-1.94529 -0.8086,-2.32031 -0.58597,-0.37498 -1.51175,-0.44529 -2.77734,-0.21094 -11.2969,2.01565 -16.94533,5.69533 -16.94531,11.03906 -2e-5,5.39064 2.92966,8.08595 8.78906,8.08594 2.34372,1e-5 4.75778,-0.44531 7.24219,-1.33594 2.90621,-1.03124 4.35933,-2.27342 4.35937,-3.72656 z"
         style="font-size:144px;font-family:'High Tower Text';-inkscape-font-specification:'High Tower Text';fill:#ffffff"
         id="path2834" />
      <path
         d="m 392.13307,120.06709 c -5e-5,4.96876 -1.9102,8.91798 -5.73047,11.84766 -3.82035,2.92969 -9.03519,4.39453 -15.64453,4.39453 -4.40627,0 -8.81252,-0.46875 -13.21875,-1.40625 -3.79688,-0.84375 -6.00001,-1.61719 -6.60937,-2.32031 -0.37501,-0.65625 -0.56251,-3.86718 -0.5625,-9.63281 -1e-5,-2.48436 0.56249,-3.77343 1.6875,-3.86719 1.12499,-0.14061 2.08592,0.46876 2.88281,1.82812 3.51561,6.14064 9.18748,9.21095 17.01562,9.21094 6.60934,1e-5 9.91403,-2.29687 9.91407,-6.89062 -4e-5,-2.01562 -0.75004,-3.70311 -2.25,-5.0625 -1.64066,-1.54686 -4.82816,-3.35155 -9.5625,-5.41407 -6.84377,-3.04685 -11.41408,-5.71872 -13.71094,-8.01562 -2.48439,-2.43747 -3.72657,-5.718716 -3.72656,-9.843752 -1e-5,-5.062455 1.9453,-8.999951 5.83593,-11.8125 3.60936,-2.718695 8.43748,-4.078069 14.48438,-4.078125 3.79684,5.6e-5 7.26559,0.304743 10.40625,0.914062 3.37496,0.60943 5.13277,1.359429 5.27344,2.25 0.37495,2.625051 1.14839,6.421922 2.32031,11.390625 0.14058,0.609416 -0.51567,1.101603 -1.96875,1.476563 -1.54692,0.328165 -2.57817,0.07035 -3.09375,-0.773438 -3.70317,-6.046828 -8.39066,-9.070262 -14.0625,-9.070312 -6.4219,5e-5 -9.63283,2.062548 -9.63281,6.1875 -2e-5,2.296916 0.86716,4.12504 2.60156,5.484375 1.54685,1.171912 5.17966,3.000035 10.89844,5.484372 5.99996,2.57816 10.07808,4.89847 12.23437,6.96094 2.81245,2.6719 4.2187,6.25783 4.21875,10.75781 z"
         style="font-size:144px;font-family:'High Tower Text';-inkscape-font-specification:'High Tower Text';fill:#ffffff"
         id="path2836" />
      <path
         d="m 473.69557,132.72334 c -7e-5,1.64063 -1.10163,2.50782 -3.30469,2.60157 -3.28131,0.0469 -7.57037,0.28124 -12.86718,0.70312 -2.62506,0.51562 -4.50006,0.1875 -5.625,-0.98437 -7.4063,-7.96875 -13.68754,-16.31249 -18.84375,-25.03125 -0.42191,-0.74998 -0.96097,-1.12498 -1.61719,-1.125 -0.79691,2e-5 -2.17972,0.70315 -4.14844,2.10937 -2.20315,1.21877 -3.30471,2.95315 -3.30469,5.20313 -2e-5,1.59376 0.0469,3.89064 0.14063,6.89062 0.0937,3.00001 0.84372,4.96876 2.25,5.90625 0.98435,0.65626 3.25778,1.17188 6.82031,1.54688 2.20309,0.28125 3.30465,1.10156 3.30469,2.46093 -4e-5,1.07813 -0.17582,1.7461 -0.52734,2.00391 -0.3516,0.25781 -1.27738,0.31641 -2.77735,0.17578 -4.68753,-0.42187 -12.60939,-0.1875 -23.76562,0.70313 -2.81251,0.23437 -4.33595,-0.11719 -4.57032,-1.05469 -0.0937,-0.32813 -0.14063,-0.79688 -0.14062,-1.40625 -1e-5,-1.45312 1.42968,-2.55469 4.28906,-3.30469 2.57811,-0.65624 3.86718,-3.67968 3.86719,-9.07031 V 59.598343 c -1e-5,-3.843671 -0.37501,-6.515543 -1.125,-8.015625 -1.03126,-1.92179 -3.18751,-3.421788 -6.46875,-4.5 -1.54688,-0.515536 -2.32032,-1.242098 -2.32031,-2.179688 -1e-5,-1.359283 1.10155,-2.413969 3.30468,-3.164062 3.51562,-1.17178 6.86718,-2.788966 10.05469,-4.851563 2.57811,-1.6874 4.17186,-2.531149 4.78125,-2.53125 1.92185,1.01e-4 2.88279,1.21885 2.88281,3.65625 -2e-5,-0.328027 -0.0235,1.992283 -0.0703,6.960938 -0.0469,3.421962 -0.0703,8.015707 -0.0703,13.78125 l 0.14062,44.015627 c -2e-5,1.21878 0.3281,1.82815 0.98438,1.82812 0.7031,3e-5 1.78122,-0.60934 3.23437,-1.82812 3.8906,-3.046842 8.67184,-7.031213 14.34375,-11.953127 1.12496,-1.17183 1.68746,-2.109329 1.6875,-2.8125 -4e-5,-1.265577 -1.89848,-2.156201 -5.69531,-2.671875 -1.64066,-0.18745 -2.4141,-1.101512 -2.32031,-2.742188 0.14059,-1.64057 0.9609,-2.343695 2.46094,-2.109375 3.37495,0.468805 8.29682,0.726617 14.76562,0.773438 4.49994,0.04693 8.9765,0.07037 13.42969,0.07031 1.45306,0.04693 2.17962,0.914116 2.17969,2.601563 -7e-5,1.5938 -1.14851,2.460986 -3.44532,2.601562 -3.60943,0.140674 -7.00787,0.960986 -10.19531,2.460938 -4.45317,2.015669 -9.21098,5.554728 -14.27344,10.617187 -0.37504,0.281286 -0.56254,0.632847 -0.5625,1.054687 -4e-5,0.65629 0.79684,2.2266 2.39063,4.71094 5.85933,8.90627 11.39057,15.63283 16.59375,20.17969 3.32806,2.85938 6.44525,4.28907 9.35156,4.28906 2.15618,1e-5 3.49212,0.15235 4.00781,0.45703 0.51556,0.30469 0.77337,1.11329 0.77344,2.42578 z"
         style="font-size:144px;font-family:'High Tower Text';-inkscape-font-specification:'High Tower Text';fill:#ffffff"
         id="path2838" />
    </g>
  </g>
</svg>
