<?xml version="1.0" encoding="UTF-8" standalone="no"?>
<svg
   xmlns:osb="http://www.openswatchbook.org/uri/2009/osb"
   xmlns:dc="http://purl.org/dc/elements/1.1/"
   xmlns:cc="http://creativecommons.org/ns#"
   xmlns:rdf="http://www.w3.org/1999/02/22-rdf-syntax-ns#"
   xmlns:svg="http://www.w3.org/2000/svg"
   xmlns="http://www.w3.org/2000/svg"
   xmlns:sodipodi="http://sodipodi.sourceforge.net/DTD/sodipodi-0.dtd"
   xmlns:inkscape="http://www.inkscape.org/namespaces/inkscape"
   inkscape:version="1.0.1 (3bc2e813f5, 2020-09-07)"
   sodipodi:docname="tech_js.svg"
   id="svg8"
   version="1.1"
   viewBox="0 0 132.29166 132.29167"
   height="500"
   width="500">
  <defs
     id="defs2">
    <rect
       x="101.79306"
       y="104.13313"
       width="109.10577"
       height="65.814476"
       id="rect2889" />
    <linearGradient
       id="linearGradient2807"
       osb:paint="solid">
      <stop
         style="stop-color:#ffffff;stop-opacity:1;"
         offset="0"
         id="stop2805" />
    </linearGradient>
  </defs>
  <sodipodi:namedview
     id="base"
     pagecolor="#ffffff"
     bordercolor="#666666"
     borderopacity="1.0"
     inkscape:pageopacity="0.0"
     inkscape:pageshadow="2"
     inkscape:zoom="14.4725"
     inkscape:cx="496.87129"
     inkscape:cy="484.08419"
     inkscape:document-units="mm"
     inkscape:current-layer="g902"
     inkscape:document-rotation="0"
     showgrid="false"
     units="px"
     inkscape:window-width="1920"
     inkscape:window-height="1017"
     inkscape:window-x="-8"
     inkscape:window-y="-8"
     inkscape:window-maximized="1"
     inkscape:snap-global="false" />
  <metadata
     id="metadata5">
    <rdf:RDF>
      <cc:Work
         rdf:about="">
        <dc:format>image/svg+xml</dc:format>
        <dc:type
           rdf:resource="http://purl.org/dc/dcmitype/StillImage" />
        <dc:title />
      </cc:Work>
    </rdf:RDF>
  </metadata>
  <g
     inkscape:groupmode="layer"
     id="g902"
     inkscape:label="JS copy"
     style="display:inline">
    <rect
       width="132.27628"
       height="132.27628"
       fill="#f7df1e"
       id="rect845"
       x="0.0028676891"
       y="0.005730744"
       style="stroke-width:0.209962" />
    <path
       d="m 88.858928,103.34709 c 2.664419,4.35042 6.1309,7.54815 12.261802,7.54815 5.15037,0 8.44048,-2.57414 8.44048,-6.1309 0,-4.26223 -3.38039,-5.771865 -9.04937,-8.251521 l -3.107447,-1.333263 c -8.96959,-3.821314 -14.92832,-8.608454 -14.92832,-18.728637 0,-9.322329 7.103024,-16.419056 18.203737,-16.419056 7.90298,0 13.58455,2.750506 17.67882,9.952215 l -9.67926,6.214885 c -2.13112,-3.821314 -4.43021,-5.326744 -7.99956,-5.326744 -3.640751,0 -5.948236,2.309586 -5.948236,5.326744 0,3.728929 2.309585,5.238561 7.642626,7.548147 l 3.10745,1.331159 c 10.56109,4.528889 16.52403,9.145961 16.52403,19.526501 0,11.19099 -8.79112,17.32188 -20.5973,17.32188 -11.543735,0 -19.001595,-5.50101 -22.65074,-12.71111 z m -43.909426,1.07711 c 1.952652,3.46437 3.728933,6.39335 7.999566,6.39335 4.083768,0 6.660007,-1.59781 6.660007,-7.8106 V 60.741538 h 12.429769 v 42.433382 c 0,12.87069 -7.546046,18.72864 -18.56067,18.72864 -9.952217,0 -15.715679,-5.15037 -18.646755,-11.35371 z"
       id="path847"
       style="stroke-width:0.209962" />
  </g>
</svg>
