<?xml version="1.0" encoding="UTF-8" standalone="no"?>
<svg
   xmlns:dc="http://purl.org/dc/elements/1.1/"
   xmlns:cc="http://creativecommons.org/ns#"
   xmlns:rdf="http://www.w3.org/1999/02/22-rdf-syntax-ns#"
   xmlns:svg="http://www.w3.org/2000/svg"
   xmlns="http://www.w3.org/2000/svg"
   xmlns:sodipodi="http://sodipodi.sourceforge.net/DTD/sodipodi-0.dtd"
   xmlns:inkscape="http://www.inkscape.org/namespaces/inkscape"
   width="32"
   height="32"
   viewBox="0 0 8.4666665 8.4666669"
   version="1.1"
   id="svg8"
   inkscape:version="1.0.1 (3bc2e813f5, 2020-09-07)"
   sodipodi:docname="skull-green.svg">
  <defs
     id="defs2" />
  <sodipodi:namedview
     id="base"
     pagecolor="#ffffff"
     bordercolor="#666666"
     borderopacity="1.0"
     inkscape:pageopacity="0.0"
     inkscape:pageshadow="2"
     inkscape:zoom="22.627417"
     inkscape:cx="2.5347832"
     inkscape:cy="13.694502"
     inkscape:document-units="mm"
     inkscape:current-layer="layer1"
     inkscape:document-rotation="0"
     showgrid="false"
     units="px"
     inkscape:snap-global="false"
     inkscape:window-width="1920"
     inkscape:window-height="1017"
     inkscape:window-x="-8"
     inkscape:window-y="-8"
     inkscape:window-maximized="1" />
  <metadata
     id="metadata5">
    <rdf:RDF>
      <cc:Work
         rdf:about="">
        <dc:format>image/svg+xml</dc:format>
        <dc:type
           rdf:resource="http://purl.org/dc/dcmitype/StillImage" />
        <dc:title></dc:title>
      </cc:Work>
    </rdf:RDF>
  </metadata>
  <g
     inkscape:label="Layer 1"
     id="layer1">
    <path
       style="display:inline;fill:#00ff00;fill-opacity:1;stroke:none;stroke-width:0.264583px;stroke-linecap:butt;stroke-linejoin:miter;stroke-opacity:1"
       d="m 4.159382,0.25056518 c -0.7415514,0.0791033 -2.1130997,0.73499124 -2.1130997,0.73499124 0,0 -0.9337796,1.24112668 -1.14424767,1.97111278 C 0.68439793,3.7115188 1.1610539,5.205676 1.1610539,5.205676 L 2.2309713,5.9997259 1.9544085,7.4000251 4.0758602,8.0347901 6.2641294,7.4000251 5.9334002,5.9752631 6.9067971,5.4618292 7.4167293,2.9566692 6.6650337,1.3363476 5.1115295,0.36749558 c 0,0 -0.6341846,-0.15084837 -0.9521475,-0.1169304 z"
       id="path872"
       sodipodi:nodetypes="scsccccccccccs"
       inkscape:label="colour" />
    <path
       id="path901"
       style="display:inline;opacity:0.998235;fill:#1a1a1a;fill-opacity:1;stroke:none;stroke-width:2.75215;stroke-linecap:round;stroke-linejoin:round"
       inkscape:label="mirror-left-outline"
       inkscape:transform-center-x="0.1345667"
       inkscape:transform-center-y="0.95463033"
       d="M 15.246094,0.09765625 C 6.590412,0.18017536 1.9475068,6.9435314 1.9179688,12.847656 c -0.00838,1.674457 1.6907001,5.003951 1.7148437,5.082032 -0.6877804,0.657736 -0.8072754,1.936661 -0.5136719,2.626953 0.7122262,1.584155 3.6997767,2.63923 4.4140625,2.728515 0,0 -1.1734484,2.89395 -0.9414062,4.041016 0.2320441,1.147065 1.8903475,2.34748 2.7089843,2.630859 1.7316678,0.599432 3.9179468,0.911015 6.1894528,0.921875 2.271506,-0.01086 4.457786,-0.322443 6.189454,-0.921875 0.818636,-0.283379 2.47694,-1.483793 2.708984,-2.630859 0.232042,-1.147066 -0.941406,-4.041016 -0.941406,-4.041016 0.714285,-0.08929 3.701836,-1.14436 4.414062,-2.728515 0.303192,-1.08468 0.14033,-1.903022 -0.513672,-2.626953 0.02414,-0.07808 1.723235,-3.407575 1.714844,-5.082032 C 29.032962,6.9435315 24.390057,0.18017536 15.734375,0.09765625 c -0.08448,-8.0534e-4 -0.1605,0.0095382 -0.244141,0.0097656 -0.08364,-2.2742e-4 -0.15966,-0.01057102 -0.24414,-0.0097656 z m 0.0957,1.44921875 c 0.05076,-7.222e-4 0.09795,0.00601 0.148437,0.00586 0.05049,1.512e-4 0.09768,-0.00658 0.148438,-0.00586 6.877504,0.097847 11.518102,6.2318101 11.554687,11.332031 0.012,1.673022 -1.324218,5.050782 -1.324218,5.050782 0.475137,0.642653 1.11681,3.124996 -4.673829,4.199212 0.916475,3.372737 1.739648,3.779497 0.978516,5.398438 -0.18459,0.392626 -0.878466,0.743088 -1.314453,0.912109 L 20.619141,26.47265 c -0.02215,-0.181757 -0.218499,-0.306245 -0.439453,-0.279297 -0.220955,0.02692 -0.381524,0.195192 -0.359376,0.376953 l 0.259766,2.125 c -0.569718,0.179048 -1.13509,0.32252 -1.695312,0.427735 l -0.0918,-1.957031 c -0.0085,-0.182907 -0.193666,-0.322894 -0.416016,-0.3125 -0.222346,0.01039 -0.395223,0.166703 -0.386719,0.349609 l 0.0957,2.050781 c -0.596543,0.07686 -1.190592,0.110407 -1.783204,0.111328 V 27.38476 c 0,-0.156828 -0.134801,-0.283777 -0.3125,-0.31836 -0.177699,0.03459 -0.3125,0.161535 -0.3125,0.31836 v 1.980468 c -0.592612,-9.22e-4 -1.186661,-0.03448 -1.783203,-0.111328 l 0.0957,-2.050781 c 0.0085,-0.182907 -0.164373,-0.339225 -0.386718,-0.349609 -0.222349,-0.01039 -0.407473,0.129592 -0.416016,0.3125 l -0.0918,1.957031 C 12.035481,29.01783 11.470109,28.87436 10.900391,28.695312 l 0.259765,-2.125 c 0.02215,-0.18176 -0.138421,-0.35003 -0.359375,-0.376953 -0.220956,-0.02693 -0.417305,0.09754 -0.439453,0.279297 l -0.240234,1.966797 C 9.6851048,28.270432 8.9912305,27.91997 8.8066406,27.527344 8.0455092,25.908403 8.8686815,25.501642 9.7851562,22.128906 5.2705046,21.338026 4.1950907,19.399995 5.1113281,17.929694 c 0,0 -1.3362202,-3.37776 -1.3242187,-5.050782 C 3.8236941,7.7786851 8.4642926,1.6447222 15.341797,1.546875 Z M 9.3203125,11.833984 c -0.1845217,-0.01109 -0.3648407,-0.0072 -0.5410156,0.01563 -0.4697999,0.06085 -0.9067382,0.25195 -1.2851563,0.625 -1.049187,1.034306 -1.1327777,3.722182 -0.125,4.796875 1.4413342,1.537037 4.7665734,1.748202 6.3125004,0.316407 1.158409,-1.072888 1.227656,-3.287303 -0.378907,-4.166016 -1.223786,-0.669352 -2.69077,-1.510262 -3.9824215,-1.587891 z m 12.3398435,0 c -1.291651,0.07763 -2.758636,0.918539 -3.982422,1.587891 -1.606563,0.878713 -1.537315,3.093128 -0.378906,4.166016 1.545927,1.431795 4.871166,1.22063 6.3125,-0.316407 1.007778,-1.074693 0.924187,-3.762586 -0.125,-4.796875 -0.378418,-0.373049 -0.815356,-0.564149 -1.285156,-0.625 -0.176174,-0.02287 -0.356495,-0.0267 -0.541016,-0.01563 z m -6.169922,5.894532 c -0.767858,0.14639 -2.469306,3.476204 -2.103515,4.171875 0.182142,0.346402 1.133554,0.520736 2.103515,0.529297 0.969961,-0.0086 1.921373,-0.182896 2.103516,-0.529297 0.365791,-0.695672 -1.335658,-4.025487 -2.103516,-4.171875 z"
       transform="scale(0.26458333)"
       sodipodi:nodetypes="cccccsscssccccsccsccsccscccccccscccscscccscccccccsccssccsssscccssssccccscsc" />
  </g>
</svg>
